G04 #@! TF.GenerationSoftware,KiCad,Pcbnew,(5.1.5)-2*
G04 #@! TF.CreationDate,2020-03-13T12:58:49+01:00*
G04 #@! TF.ProjectId,CDP1802_Tester,43445031-3830-4325-9f54-65737465722e,rev?*
G04 #@! TF.SameCoordinates,Original*
G04 #@! TF.FileFunction,Other,Fab,Top*
%FSLAX46Y46*%
G04 Gerber Fmt 4.6, Leading zero omitted, Abs format (unit mm)*
G04 Created by KiCad (PCBNEW (5.1.5)-2) date 2020-03-13 12:58:49*
%MOMM*%
%LPD*%
G04 APERTURE LIST*
%ADD10C,0.100000*%
%ADD11C,0.150000*%
G04 APERTURE END LIST*
D10*
X140905000Y-30900000D02*
X140270000Y-30265000D01*
X147890000Y-30900000D02*
X140905000Y-30900000D01*
X147890000Y-28360000D02*
X147890000Y-30900000D01*
X140270000Y-28360000D02*
X147890000Y-28360000D01*
X140270000Y-30265000D02*
X140270000Y-28360000D01*
D11*
X149307142Y-33368095D02*
X149354761Y-33415714D01*
X149402380Y-33558571D01*
X149402380Y-33653809D01*
X149354761Y-33796666D01*
X149259523Y-33891904D01*
X149164285Y-33939523D01*
X148973809Y-33987142D01*
X148830952Y-33987142D01*
X148640476Y-33939523D01*
X148545238Y-33891904D01*
X148450000Y-33796666D01*
X148402380Y-33653809D01*
X148402380Y-33558571D01*
X148450000Y-33415714D01*
X148497619Y-33368095D01*
X149402380Y-32796666D02*
X149354761Y-32891904D01*
X149307142Y-32939523D01*
X149211904Y-32987142D01*
X148926190Y-32987142D01*
X148830952Y-32939523D01*
X148783333Y-32891904D01*
X148735714Y-32796666D01*
X148735714Y-32653809D01*
X148783333Y-32558571D01*
X148830952Y-32510952D01*
X148926190Y-32463333D01*
X149211904Y-32463333D01*
X149307142Y-32510952D01*
X149354761Y-32558571D01*
X149402380Y-32653809D01*
X149402380Y-32796666D01*
X148735714Y-32034761D02*
X149402380Y-32034761D01*
X148830952Y-32034761D02*
X148783333Y-31987142D01*
X148735714Y-31891904D01*
X148735714Y-31749047D01*
X148783333Y-31653809D01*
X148878571Y-31606190D01*
X149402380Y-31606190D01*
X148735714Y-31130000D02*
X149402380Y-31130000D01*
X148830952Y-31130000D02*
X148783333Y-31082380D01*
X148735714Y-30987142D01*
X148735714Y-30844285D01*
X148783333Y-30749047D01*
X148878571Y-30701428D01*
X149402380Y-30701428D01*
X149497619Y-30463333D02*
X149497619Y-29701428D01*
X148402380Y-29272857D02*
X148402380Y-29177619D01*
X148450000Y-29082380D01*
X148497619Y-29034761D01*
X148592857Y-28987142D01*
X148783333Y-28939523D01*
X149021428Y-28939523D01*
X149211904Y-28987142D01*
X149307142Y-29034761D01*
X149354761Y-29082380D01*
X149402380Y-29177619D01*
X149402380Y-29272857D01*
X149354761Y-29368095D01*
X149307142Y-29415714D01*
X149211904Y-29463333D01*
X149021428Y-29510952D01*
X148783333Y-29510952D01*
X148592857Y-29463333D01*
X148497619Y-29415714D01*
X148450000Y-29368095D01*
X148402380Y-29272857D01*
X149402380Y-27987142D02*
X149402380Y-28558571D01*
X149402380Y-28272857D02*
X148402380Y-28272857D01*
X148545238Y-28368095D01*
X148640476Y-28463333D01*
X148688095Y-28558571D01*
X149402380Y-27653809D02*
X148735714Y-27130000D01*
X148735714Y-27653809D02*
X149402380Y-27130000D01*
X148402380Y-26558571D02*
X148402380Y-26463333D01*
X148450000Y-26368095D01*
X148497619Y-26320476D01*
X148592857Y-26272857D01*
X148783333Y-26225238D01*
X149021428Y-26225238D01*
X149211904Y-26272857D01*
X149307142Y-26320476D01*
X149354761Y-26368095D01*
X149402380Y-26463333D01*
X149402380Y-26558571D01*
X149354761Y-26653809D01*
X149307142Y-26701428D01*
X149211904Y-26749047D01*
X149021428Y-26796666D01*
X148783333Y-26796666D01*
X148592857Y-26749047D01*
X148497619Y-26701428D01*
X148450000Y-26653809D01*
X148402380Y-26558571D01*
X148402380Y-25891904D02*
X148402380Y-25272857D01*
X148783333Y-25606190D01*
X148783333Y-25463333D01*
X148830952Y-25368095D01*
X148878571Y-25320476D01*
X148973809Y-25272857D01*
X149211904Y-25272857D01*
X149307142Y-25320476D01*
X149354761Y-25368095D01*
X149402380Y-25463333D01*
X149402380Y-25749047D01*
X149354761Y-25844285D01*
X149307142Y-25891904D01*
X143746666Y-29082380D02*
X143746666Y-29796666D01*
X143699047Y-29939523D01*
X143603809Y-30034761D01*
X143460952Y-30082380D01*
X143365714Y-30082380D01*
X144746666Y-30082380D02*
X144175238Y-30082380D01*
X144460952Y-30082380D02*
X144460952Y-29082380D01*
X144365714Y-29225238D01*
X144270476Y-29320476D01*
X144175238Y-29368095D01*
M02*
