G04 #@! TF.GenerationSoftware,KiCad,Pcbnew,(5.1.5)-2*
G04 #@! TF.CreationDate,2020-01-02T03:10:15+01:00*
G04 #@! TF.ProjectId,CDP1802_Tester,43445031-3830-4325-9f54-65737465722e,rev?*
G04 #@! TF.SameCoordinates,Original*
G04 #@! TF.FileFunction,Soldermask,Top*
G04 #@! TF.FilePolarity,Negative*
%FSLAX46Y46*%
G04 Gerber Fmt 4.6, Leading zero omitted, Abs format (unit mm)*
G04 Created by KiCad (PCBNEW (5.1.5)-2) date 2020-01-02 03:10:15*
%MOMM*%
%LPD*%
G04 APERTURE LIST*
%ADD10C,0.100000*%
G04 APERTURE END LIST*
D10*
G36*
X186120257Y-67006297D02*
G01*
X186226580Y-67027446D01*
X186527043Y-67151902D01*
X186797452Y-67332584D01*
X187027416Y-67562548D01*
X187208098Y-67832957D01*
X187208099Y-67832959D01*
X187332554Y-68133421D01*
X187396001Y-68452388D01*
X187396001Y-68777610D01*
X187332554Y-69096577D01*
X187237767Y-69325415D01*
X187208098Y-69397041D01*
X187027416Y-69667450D01*
X186797452Y-69897414D01*
X186527043Y-70078096D01*
X186226580Y-70202552D01*
X186120257Y-70223701D01*
X185907612Y-70265999D01*
X185582390Y-70265999D01*
X185369745Y-70223701D01*
X185263422Y-70202552D01*
X184962959Y-70078096D01*
X184692550Y-69897414D01*
X184462586Y-69667450D01*
X184281904Y-69397041D01*
X184252236Y-69325415D01*
X184157448Y-69096577D01*
X184094001Y-68777610D01*
X184094001Y-68452388D01*
X184157448Y-68133421D01*
X184281903Y-67832959D01*
X184281904Y-67832957D01*
X184462586Y-67562548D01*
X184692550Y-67332584D01*
X184962959Y-67151902D01*
X185263422Y-67027446D01*
X185369745Y-67006297D01*
X185582390Y-66963999D01*
X185907612Y-66963999D01*
X186120257Y-67006297D01*
G37*
G36*
X111190257Y-67006297D02*
G01*
X111296580Y-67027446D01*
X111597043Y-67151902D01*
X111867452Y-67332584D01*
X112097416Y-67562548D01*
X112278098Y-67832957D01*
X112278099Y-67832959D01*
X112402554Y-68133421D01*
X112466001Y-68452388D01*
X112466001Y-68777610D01*
X112402554Y-69096577D01*
X112307767Y-69325415D01*
X112278098Y-69397041D01*
X112097416Y-69667450D01*
X111867452Y-69897414D01*
X111597043Y-70078096D01*
X111296580Y-70202552D01*
X111190257Y-70223701D01*
X110977612Y-70265999D01*
X110652390Y-70265999D01*
X110439745Y-70223701D01*
X110333422Y-70202552D01*
X110032959Y-70078096D01*
X109762550Y-69897414D01*
X109532586Y-69667450D01*
X109351904Y-69397041D01*
X109322236Y-69325415D01*
X109227448Y-69096577D01*
X109164001Y-68777610D01*
X109164001Y-68452388D01*
X109227448Y-68133421D01*
X109351903Y-67832959D01*
X109351904Y-67832957D01*
X109532586Y-67562548D01*
X109762550Y-67332584D01*
X110032959Y-67151902D01*
X110333422Y-67027446D01*
X110439745Y-67006297D01*
X110652390Y-66963999D01*
X110977612Y-66963999D01*
X111190257Y-67006297D01*
G37*
G36*
X146641779Y-67735546D02*
G01*
X146808225Y-67804490D01*
X146958023Y-67904582D01*
X147085418Y-68031977D01*
X147185510Y-68181775D01*
X147254454Y-68348221D01*
X147289601Y-68524917D01*
X147289601Y-68705081D01*
X147254454Y-68881777D01*
X147185510Y-69048223D01*
X147085418Y-69198021D01*
X146958023Y-69325416D01*
X146808225Y-69425508D01*
X146641779Y-69494452D01*
X146465083Y-69529599D01*
X146284919Y-69529599D01*
X146108223Y-69494452D01*
X145941777Y-69425508D01*
X145791979Y-69325416D01*
X145664584Y-69198021D01*
X145564492Y-69048223D01*
X145495548Y-68881777D01*
X145460401Y-68705081D01*
X145460401Y-68524917D01*
X145495548Y-68348221D01*
X145564492Y-68181775D01*
X145664584Y-68031977D01*
X145791979Y-67904582D01*
X145941777Y-67804490D01*
X146108223Y-67735546D01*
X146284919Y-67700399D01*
X146465083Y-67700399D01*
X146641779Y-67735546D01*
G37*
G36*
X137497779Y-67735546D02*
G01*
X137664225Y-67804490D01*
X137814023Y-67904582D01*
X137941418Y-68031977D01*
X138041510Y-68181775D01*
X138110454Y-68348221D01*
X138145601Y-68524917D01*
X138145601Y-68705081D01*
X138110454Y-68881777D01*
X138041510Y-69048223D01*
X137941418Y-69198021D01*
X137814023Y-69325416D01*
X137664225Y-69425508D01*
X137497779Y-69494452D01*
X137321083Y-69529599D01*
X137140919Y-69529599D01*
X136964223Y-69494452D01*
X136797777Y-69425508D01*
X136647979Y-69325416D01*
X136520584Y-69198021D01*
X136420492Y-69048223D01*
X136351548Y-68881777D01*
X136316401Y-68705081D01*
X136316401Y-68524917D01*
X136351548Y-68348221D01*
X136420492Y-68181775D01*
X136520584Y-68031977D01*
X136647979Y-67904582D01*
X136797777Y-67804490D01*
X136964223Y-67735546D01*
X137140919Y-67700399D01*
X137321083Y-67700399D01*
X137497779Y-67735546D01*
G37*
G36*
X172041779Y-67735546D02*
G01*
X172208225Y-67804490D01*
X172358023Y-67904582D01*
X172485418Y-68031977D01*
X172585510Y-68181775D01*
X172654454Y-68348221D01*
X172689601Y-68524917D01*
X172689601Y-68705081D01*
X172654454Y-68881777D01*
X172585510Y-69048223D01*
X172485418Y-69198021D01*
X172358023Y-69325416D01*
X172208225Y-69425508D01*
X172041779Y-69494452D01*
X171865083Y-69529599D01*
X171684919Y-69529599D01*
X171508223Y-69494452D01*
X171341777Y-69425508D01*
X171191979Y-69325416D01*
X171064584Y-69198021D01*
X170964492Y-69048223D01*
X170895548Y-68881777D01*
X170860401Y-68705081D01*
X170860401Y-68524917D01*
X170895548Y-68348221D01*
X170964492Y-68181775D01*
X171064584Y-68031977D01*
X171191979Y-67904582D01*
X171341777Y-67804490D01*
X171508223Y-67735546D01*
X171684919Y-67700399D01*
X171865083Y-67700399D01*
X172041779Y-67735546D01*
G37*
G36*
X169501779Y-67735546D02*
G01*
X169668225Y-67804490D01*
X169818023Y-67904582D01*
X169945418Y-68031977D01*
X170045510Y-68181775D01*
X170114454Y-68348221D01*
X170149601Y-68524917D01*
X170149601Y-68705081D01*
X170114454Y-68881777D01*
X170045510Y-69048223D01*
X169945418Y-69198021D01*
X169818023Y-69325416D01*
X169668225Y-69425508D01*
X169501779Y-69494452D01*
X169325083Y-69529599D01*
X169144919Y-69529599D01*
X168968223Y-69494452D01*
X168801777Y-69425508D01*
X168651979Y-69325416D01*
X168524584Y-69198021D01*
X168424492Y-69048223D01*
X168355548Y-68881777D01*
X168320401Y-68705081D01*
X168320401Y-68524917D01*
X168355548Y-68348221D01*
X168424492Y-68181775D01*
X168524584Y-68031977D01*
X168651979Y-67904582D01*
X168801777Y-67804490D01*
X168968223Y-67735546D01*
X169144919Y-67700399D01*
X169325083Y-67700399D01*
X169501779Y-67735546D01*
G37*
G36*
X166961779Y-67735546D02*
G01*
X167128225Y-67804490D01*
X167278023Y-67904582D01*
X167405418Y-68031977D01*
X167505510Y-68181775D01*
X167574454Y-68348221D01*
X167609601Y-68524917D01*
X167609601Y-68705081D01*
X167574454Y-68881777D01*
X167505510Y-69048223D01*
X167405418Y-69198021D01*
X167278023Y-69325416D01*
X167128225Y-69425508D01*
X166961779Y-69494452D01*
X166785083Y-69529599D01*
X166604919Y-69529599D01*
X166428223Y-69494452D01*
X166261777Y-69425508D01*
X166111979Y-69325416D01*
X165984584Y-69198021D01*
X165884492Y-69048223D01*
X165815548Y-68881777D01*
X165780401Y-68705081D01*
X165780401Y-68524917D01*
X165815548Y-68348221D01*
X165884492Y-68181775D01*
X165984584Y-68031977D01*
X166111979Y-67904582D01*
X166261777Y-67804490D01*
X166428223Y-67735546D01*
X166604919Y-67700399D01*
X166785083Y-67700399D01*
X166961779Y-67735546D01*
G37*
G36*
X164421779Y-67735546D02*
G01*
X164588225Y-67804490D01*
X164738023Y-67904582D01*
X164865418Y-68031977D01*
X164965510Y-68181775D01*
X165034454Y-68348221D01*
X165069601Y-68524917D01*
X165069601Y-68705081D01*
X165034454Y-68881777D01*
X164965510Y-69048223D01*
X164865418Y-69198021D01*
X164738023Y-69325416D01*
X164588225Y-69425508D01*
X164421779Y-69494452D01*
X164245083Y-69529599D01*
X164064919Y-69529599D01*
X163888223Y-69494452D01*
X163721777Y-69425508D01*
X163571979Y-69325416D01*
X163444584Y-69198021D01*
X163344492Y-69048223D01*
X163275548Y-68881777D01*
X163240401Y-68705081D01*
X163240401Y-68524917D01*
X163275548Y-68348221D01*
X163344492Y-68181775D01*
X163444584Y-68031977D01*
X163571979Y-67904582D01*
X163721777Y-67804490D01*
X163888223Y-67735546D01*
X164064919Y-67700399D01*
X164245083Y-67700399D01*
X164421779Y-67735546D01*
G37*
G36*
X159341779Y-67735546D02*
G01*
X159508225Y-67804490D01*
X159658023Y-67904582D01*
X159785418Y-68031977D01*
X159885510Y-68181775D01*
X159954454Y-68348221D01*
X159989601Y-68524917D01*
X159989601Y-68705081D01*
X159954454Y-68881777D01*
X159885510Y-69048223D01*
X159785418Y-69198021D01*
X159658023Y-69325416D01*
X159508225Y-69425508D01*
X159341779Y-69494452D01*
X159165083Y-69529599D01*
X158984919Y-69529599D01*
X158808223Y-69494452D01*
X158641777Y-69425508D01*
X158491979Y-69325416D01*
X158364584Y-69198021D01*
X158264492Y-69048223D01*
X158195548Y-68881777D01*
X158160401Y-68705081D01*
X158160401Y-68524917D01*
X158195548Y-68348221D01*
X158264492Y-68181775D01*
X158364584Y-68031977D01*
X158491979Y-67904582D01*
X158641777Y-67804490D01*
X158808223Y-67735546D01*
X158984919Y-67700399D01*
X159165083Y-67700399D01*
X159341779Y-67735546D01*
G37*
G36*
X156801779Y-67735546D02*
G01*
X156968225Y-67804490D01*
X157118023Y-67904582D01*
X157245418Y-68031977D01*
X157345510Y-68181775D01*
X157414454Y-68348221D01*
X157449601Y-68524917D01*
X157449601Y-68705081D01*
X157414454Y-68881777D01*
X157345510Y-69048223D01*
X157245418Y-69198021D01*
X157118023Y-69325416D01*
X156968225Y-69425508D01*
X156801779Y-69494452D01*
X156625083Y-69529599D01*
X156444919Y-69529599D01*
X156268223Y-69494452D01*
X156101777Y-69425508D01*
X155951979Y-69325416D01*
X155824584Y-69198021D01*
X155724492Y-69048223D01*
X155655548Y-68881777D01*
X155620401Y-68705081D01*
X155620401Y-68524917D01*
X155655548Y-68348221D01*
X155724492Y-68181775D01*
X155824584Y-68031977D01*
X155951979Y-67904582D01*
X156101777Y-67804490D01*
X156268223Y-67735546D01*
X156444919Y-67700399D01*
X156625083Y-67700399D01*
X156801779Y-67735546D01*
G37*
G36*
X154261779Y-67735546D02*
G01*
X154428225Y-67804490D01*
X154578023Y-67904582D01*
X154705418Y-68031977D01*
X154805510Y-68181775D01*
X154874454Y-68348221D01*
X154909601Y-68524917D01*
X154909601Y-68705081D01*
X154874454Y-68881777D01*
X154805510Y-69048223D01*
X154705418Y-69198021D01*
X154578023Y-69325416D01*
X154428225Y-69425508D01*
X154261779Y-69494452D01*
X154085083Y-69529599D01*
X153904919Y-69529599D01*
X153728223Y-69494452D01*
X153561777Y-69425508D01*
X153411979Y-69325416D01*
X153284584Y-69198021D01*
X153184492Y-69048223D01*
X153115548Y-68881777D01*
X153080401Y-68705081D01*
X153080401Y-68524917D01*
X153115548Y-68348221D01*
X153184492Y-68181775D01*
X153284584Y-68031977D01*
X153411979Y-67904582D01*
X153561777Y-67804490D01*
X153728223Y-67735546D01*
X153904919Y-67700399D01*
X154085083Y-67700399D01*
X154261779Y-67735546D01*
G37*
G36*
X151721779Y-67735546D02*
G01*
X151888225Y-67804490D01*
X152038023Y-67904582D01*
X152165418Y-68031977D01*
X152265510Y-68181775D01*
X152334454Y-68348221D01*
X152369601Y-68524917D01*
X152369601Y-68705081D01*
X152334454Y-68881777D01*
X152265510Y-69048223D01*
X152165418Y-69198021D01*
X152038023Y-69325416D01*
X151888225Y-69425508D01*
X151721779Y-69494452D01*
X151545083Y-69529599D01*
X151364919Y-69529599D01*
X151188223Y-69494452D01*
X151021777Y-69425508D01*
X150871979Y-69325416D01*
X150744584Y-69198021D01*
X150644492Y-69048223D01*
X150575548Y-68881777D01*
X150540401Y-68705081D01*
X150540401Y-68524917D01*
X150575548Y-68348221D01*
X150644492Y-68181775D01*
X150744584Y-68031977D01*
X150871979Y-67904582D01*
X151021777Y-67804490D01*
X151188223Y-67735546D01*
X151364919Y-67700399D01*
X151545083Y-67700399D01*
X151721779Y-67735546D01*
G37*
G36*
X149181779Y-67735546D02*
G01*
X149348225Y-67804490D01*
X149498023Y-67904582D01*
X149625418Y-68031977D01*
X149725510Y-68181775D01*
X149794454Y-68348221D01*
X149829601Y-68524917D01*
X149829601Y-68705081D01*
X149794454Y-68881777D01*
X149725510Y-69048223D01*
X149625418Y-69198021D01*
X149498023Y-69325416D01*
X149348225Y-69425508D01*
X149181779Y-69494452D01*
X149005083Y-69529599D01*
X148824919Y-69529599D01*
X148648223Y-69494452D01*
X148481777Y-69425508D01*
X148331979Y-69325416D01*
X148204584Y-69198021D01*
X148104492Y-69048223D01*
X148035548Y-68881777D01*
X148000401Y-68705081D01*
X148000401Y-68524917D01*
X148035548Y-68348221D01*
X148104492Y-68181775D01*
X148204584Y-68031977D01*
X148331979Y-67904582D01*
X148481777Y-67804490D01*
X148648223Y-67735546D01*
X148824919Y-67700399D01*
X149005083Y-67700399D01*
X149181779Y-67735546D01*
G37*
G36*
X144101779Y-67735546D02*
G01*
X144268225Y-67804490D01*
X144418023Y-67904582D01*
X144545418Y-68031977D01*
X144645510Y-68181775D01*
X144714454Y-68348221D01*
X144749601Y-68524917D01*
X144749601Y-68705081D01*
X144714454Y-68881777D01*
X144645510Y-69048223D01*
X144545418Y-69198021D01*
X144418023Y-69325416D01*
X144268225Y-69425508D01*
X144101779Y-69494452D01*
X143925083Y-69529599D01*
X143744919Y-69529599D01*
X143568223Y-69494452D01*
X143401777Y-69425508D01*
X143251979Y-69325416D01*
X143124584Y-69198021D01*
X143024492Y-69048223D01*
X142955548Y-68881777D01*
X142920401Y-68705081D01*
X142920401Y-68524917D01*
X142955548Y-68348221D01*
X143024492Y-68181775D01*
X143124584Y-68031977D01*
X143251979Y-67904582D01*
X143401777Y-67804490D01*
X143568223Y-67735546D01*
X143744919Y-67700399D01*
X143925083Y-67700399D01*
X144101779Y-67735546D01*
G37*
G36*
X141561779Y-67735546D02*
G01*
X141728225Y-67804490D01*
X141878023Y-67904582D01*
X142005418Y-68031977D01*
X142105510Y-68181775D01*
X142174454Y-68348221D01*
X142209601Y-68524917D01*
X142209601Y-68705081D01*
X142174454Y-68881777D01*
X142105510Y-69048223D01*
X142005418Y-69198021D01*
X141878023Y-69325416D01*
X141728225Y-69425508D01*
X141561779Y-69494452D01*
X141385083Y-69529599D01*
X141204919Y-69529599D01*
X141028223Y-69494452D01*
X140861777Y-69425508D01*
X140711979Y-69325416D01*
X140584584Y-69198021D01*
X140484492Y-69048223D01*
X140415548Y-68881777D01*
X140380401Y-68705081D01*
X140380401Y-68524917D01*
X140415548Y-68348221D01*
X140484492Y-68181775D01*
X140584584Y-68031977D01*
X140711979Y-67904582D01*
X140861777Y-67804490D01*
X141028223Y-67735546D01*
X141204919Y-67700399D01*
X141385083Y-67700399D01*
X141561779Y-67735546D01*
G37*
G36*
X122257779Y-67735546D02*
G01*
X122424225Y-67804490D01*
X122574023Y-67904582D01*
X122701418Y-68031977D01*
X122801510Y-68181775D01*
X122870454Y-68348221D01*
X122905601Y-68524917D01*
X122905601Y-68705081D01*
X122870454Y-68881777D01*
X122801510Y-69048223D01*
X122701418Y-69198021D01*
X122574023Y-69325416D01*
X122424225Y-69425508D01*
X122257779Y-69494452D01*
X122081083Y-69529599D01*
X121900919Y-69529599D01*
X121724223Y-69494452D01*
X121557777Y-69425508D01*
X121407979Y-69325416D01*
X121280584Y-69198021D01*
X121180492Y-69048223D01*
X121111548Y-68881777D01*
X121076401Y-68705081D01*
X121076401Y-68524917D01*
X121111548Y-68348221D01*
X121180492Y-68181775D01*
X121280584Y-68031977D01*
X121407979Y-67904582D01*
X121557777Y-67804490D01*
X121724223Y-67735546D01*
X121900919Y-67700399D01*
X122081083Y-67700399D01*
X122257779Y-67735546D01*
G37*
G36*
X129877779Y-67735546D02*
G01*
X130044225Y-67804490D01*
X130194023Y-67904582D01*
X130321418Y-68031977D01*
X130421510Y-68181775D01*
X130490454Y-68348221D01*
X130525601Y-68524917D01*
X130525601Y-68705081D01*
X130490454Y-68881777D01*
X130421510Y-69048223D01*
X130321418Y-69198021D01*
X130194023Y-69325416D01*
X130044225Y-69425508D01*
X129877779Y-69494452D01*
X129701083Y-69529599D01*
X129520919Y-69529599D01*
X129344223Y-69494452D01*
X129177777Y-69425508D01*
X129027979Y-69325416D01*
X128900584Y-69198021D01*
X128800492Y-69048223D01*
X128731548Y-68881777D01*
X128696401Y-68705081D01*
X128696401Y-68524917D01*
X128731548Y-68348221D01*
X128800492Y-68181775D01*
X128900584Y-68031977D01*
X129027979Y-67904582D01*
X129177777Y-67804490D01*
X129344223Y-67735546D01*
X129520919Y-67700399D01*
X129701083Y-67700399D01*
X129877779Y-67735546D01*
G37*
G36*
X182201779Y-67735546D02*
G01*
X182368225Y-67804490D01*
X182518023Y-67904582D01*
X182645418Y-68031977D01*
X182745510Y-68181775D01*
X182814454Y-68348221D01*
X182849601Y-68524917D01*
X182849601Y-68705081D01*
X182814454Y-68881777D01*
X182745510Y-69048223D01*
X182645418Y-69198021D01*
X182518023Y-69325416D01*
X182368225Y-69425508D01*
X182201779Y-69494452D01*
X182025083Y-69529599D01*
X181844919Y-69529599D01*
X181668223Y-69494452D01*
X181501777Y-69425508D01*
X181351979Y-69325416D01*
X181224584Y-69198021D01*
X181124492Y-69048223D01*
X181055548Y-68881777D01*
X181020401Y-68705081D01*
X181020401Y-68524917D01*
X181055548Y-68348221D01*
X181124492Y-68181775D01*
X181224584Y-68031977D01*
X181351979Y-67904582D01*
X181501777Y-67804490D01*
X181668223Y-67735546D01*
X181844919Y-67700399D01*
X182025083Y-67700399D01*
X182201779Y-67735546D01*
G37*
G36*
X192361779Y-67735546D02*
G01*
X192528225Y-67804490D01*
X192678023Y-67904582D01*
X192805418Y-68031977D01*
X192905510Y-68181775D01*
X192974454Y-68348221D01*
X193009601Y-68524917D01*
X193009601Y-68705081D01*
X192974454Y-68881777D01*
X192905510Y-69048223D01*
X192805418Y-69198021D01*
X192678023Y-69325416D01*
X192528225Y-69425508D01*
X192361779Y-69494452D01*
X192185083Y-69529599D01*
X192004919Y-69529599D01*
X191828223Y-69494452D01*
X191661777Y-69425508D01*
X191511979Y-69325416D01*
X191384584Y-69198021D01*
X191284492Y-69048223D01*
X191215548Y-68881777D01*
X191180401Y-68705081D01*
X191180401Y-68524917D01*
X191215548Y-68348221D01*
X191284492Y-68181775D01*
X191384584Y-68031977D01*
X191511979Y-67904582D01*
X191661777Y-67804490D01*
X191828223Y-67735546D01*
X192004919Y-67700399D01*
X192185083Y-67700399D01*
X192361779Y-67735546D01*
G37*
G36*
X189821779Y-67735546D02*
G01*
X189988225Y-67804490D01*
X190138023Y-67904582D01*
X190265418Y-68031977D01*
X190365510Y-68181775D01*
X190434454Y-68348221D01*
X190469601Y-68524917D01*
X190469601Y-68705081D01*
X190434454Y-68881777D01*
X190365510Y-69048223D01*
X190265418Y-69198021D01*
X190138023Y-69325416D01*
X189988225Y-69425508D01*
X189821779Y-69494452D01*
X189645083Y-69529599D01*
X189464919Y-69529599D01*
X189288223Y-69494452D01*
X189121777Y-69425508D01*
X188971979Y-69325416D01*
X188844584Y-69198021D01*
X188744492Y-69048223D01*
X188675548Y-68881777D01*
X188640401Y-68705081D01*
X188640401Y-68524917D01*
X188675548Y-68348221D01*
X188744492Y-68181775D01*
X188844584Y-68031977D01*
X188971979Y-67904582D01*
X189121777Y-67804490D01*
X189288223Y-67735546D01*
X189464919Y-67700399D01*
X189645083Y-67700399D01*
X189821779Y-67735546D01*
G37*
G36*
X174581779Y-67735546D02*
G01*
X174748225Y-67804490D01*
X174898023Y-67904582D01*
X175025418Y-68031977D01*
X175125510Y-68181775D01*
X175194454Y-68348221D01*
X175229601Y-68524917D01*
X175229601Y-68705081D01*
X175194454Y-68881777D01*
X175125510Y-69048223D01*
X175025418Y-69198021D01*
X174898023Y-69325416D01*
X174748225Y-69425508D01*
X174581779Y-69494452D01*
X174405083Y-69529599D01*
X174224919Y-69529599D01*
X174048223Y-69494452D01*
X173881777Y-69425508D01*
X173731979Y-69325416D01*
X173604584Y-69198021D01*
X173504492Y-69048223D01*
X173435548Y-68881777D01*
X173400401Y-68705081D01*
X173400401Y-68524917D01*
X173435548Y-68348221D01*
X173504492Y-68181775D01*
X173604584Y-68031977D01*
X173731979Y-67904582D01*
X173881777Y-67804490D01*
X174048223Y-67735546D01*
X174224919Y-67700399D01*
X174405083Y-67700399D01*
X174581779Y-67735546D01*
G37*
G36*
X127337779Y-67735546D02*
G01*
X127504225Y-67804490D01*
X127654023Y-67904582D01*
X127781418Y-68031977D01*
X127881510Y-68181775D01*
X127950454Y-68348221D01*
X127985601Y-68524917D01*
X127985601Y-68705081D01*
X127950454Y-68881777D01*
X127881510Y-69048223D01*
X127781418Y-69198021D01*
X127654023Y-69325416D01*
X127504225Y-69425508D01*
X127337779Y-69494452D01*
X127161083Y-69529599D01*
X126980919Y-69529599D01*
X126804223Y-69494452D01*
X126637777Y-69425508D01*
X126487979Y-69325416D01*
X126360584Y-69198021D01*
X126260492Y-69048223D01*
X126191548Y-68881777D01*
X126156401Y-68705081D01*
X126156401Y-68524917D01*
X126191548Y-68348221D01*
X126260492Y-68181775D01*
X126360584Y-68031977D01*
X126487979Y-67904582D01*
X126637777Y-67804490D01*
X126804223Y-67735546D01*
X126980919Y-67700399D01*
X127161083Y-67700399D01*
X127337779Y-67735546D01*
G37*
G36*
X124797779Y-67735546D02*
G01*
X124964225Y-67804490D01*
X125114023Y-67904582D01*
X125241418Y-68031977D01*
X125341510Y-68181775D01*
X125410454Y-68348221D01*
X125445601Y-68524917D01*
X125445601Y-68705081D01*
X125410454Y-68881777D01*
X125341510Y-69048223D01*
X125241418Y-69198021D01*
X125114023Y-69325416D01*
X124964225Y-69425508D01*
X124797779Y-69494452D01*
X124621083Y-69529599D01*
X124440919Y-69529599D01*
X124264223Y-69494452D01*
X124097777Y-69425508D01*
X123947979Y-69325416D01*
X123820584Y-69198021D01*
X123720492Y-69048223D01*
X123651548Y-68881777D01*
X123616401Y-68705081D01*
X123616401Y-68524917D01*
X123651548Y-68348221D01*
X123720492Y-68181775D01*
X123820584Y-68031977D01*
X123947979Y-67904582D01*
X124097777Y-67804490D01*
X124264223Y-67735546D01*
X124440919Y-67700399D01*
X124621083Y-67700399D01*
X124797779Y-67735546D01*
G37*
G36*
X119717779Y-67735546D02*
G01*
X119884225Y-67804490D01*
X120034023Y-67904582D01*
X120161418Y-68031977D01*
X120261510Y-68181775D01*
X120330454Y-68348221D01*
X120365601Y-68524917D01*
X120365601Y-68705081D01*
X120330454Y-68881777D01*
X120261510Y-69048223D01*
X120161418Y-69198021D01*
X120034023Y-69325416D01*
X119884225Y-69425508D01*
X119717779Y-69494452D01*
X119541083Y-69529599D01*
X119360919Y-69529599D01*
X119184223Y-69494452D01*
X119017777Y-69425508D01*
X118867979Y-69325416D01*
X118740584Y-69198021D01*
X118640492Y-69048223D01*
X118571548Y-68881777D01*
X118536401Y-68705081D01*
X118536401Y-68524917D01*
X118571548Y-68348221D01*
X118640492Y-68181775D01*
X118740584Y-68031977D01*
X118867979Y-67904582D01*
X119017777Y-67804490D01*
X119184223Y-67735546D01*
X119360919Y-67700399D01*
X119541083Y-67700399D01*
X119717779Y-67735546D01*
G37*
G36*
X117177779Y-67735546D02*
G01*
X117344225Y-67804490D01*
X117494023Y-67904582D01*
X117621418Y-68031977D01*
X117721510Y-68181775D01*
X117790454Y-68348221D01*
X117825601Y-68524917D01*
X117825601Y-68705081D01*
X117790454Y-68881777D01*
X117721510Y-69048223D01*
X117621418Y-69198021D01*
X117494023Y-69325416D01*
X117344225Y-69425508D01*
X117177779Y-69494452D01*
X117001083Y-69529599D01*
X116820919Y-69529599D01*
X116644223Y-69494452D01*
X116477777Y-69425508D01*
X116327979Y-69325416D01*
X116200584Y-69198021D01*
X116100492Y-69048223D01*
X116031548Y-68881777D01*
X115996401Y-68705081D01*
X115996401Y-68524917D01*
X116031548Y-68348221D01*
X116100492Y-68181775D01*
X116200584Y-68031977D01*
X116327979Y-67904582D01*
X116477777Y-67804490D01*
X116644223Y-67735546D01*
X116820919Y-67700399D01*
X117001083Y-67700399D01*
X117177779Y-67735546D01*
G37*
G36*
X114637779Y-67735546D02*
G01*
X114804225Y-67804490D01*
X114954023Y-67904582D01*
X115081418Y-68031977D01*
X115181510Y-68181775D01*
X115250454Y-68348221D01*
X115285601Y-68524917D01*
X115285601Y-68705081D01*
X115250454Y-68881777D01*
X115181510Y-69048223D01*
X115081418Y-69198021D01*
X114954023Y-69325416D01*
X114804225Y-69425508D01*
X114637779Y-69494452D01*
X114461083Y-69529599D01*
X114280919Y-69529599D01*
X114104223Y-69494452D01*
X113937777Y-69425508D01*
X113787979Y-69325416D01*
X113660584Y-69198021D01*
X113560492Y-69048223D01*
X113491548Y-68881777D01*
X113456401Y-68705081D01*
X113456401Y-68524917D01*
X113491548Y-68348221D01*
X113560492Y-68181775D01*
X113660584Y-68031977D01*
X113787979Y-67904582D01*
X113937777Y-67804490D01*
X114104223Y-67735546D01*
X114280919Y-67700399D01*
X114461083Y-67700399D01*
X114637779Y-67735546D01*
G37*
G36*
X179661779Y-67735546D02*
G01*
X179828225Y-67804490D01*
X179978023Y-67904582D01*
X180105418Y-68031977D01*
X180205510Y-68181775D01*
X180274454Y-68348221D01*
X180309601Y-68524917D01*
X180309601Y-68705081D01*
X180274454Y-68881777D01*
X180205510Y-69048223D01*
X180105418Y-69198021D01*
X179978023Y-69325416D01*
X179828225Y-69425508D01*
X179661779Y-69494452D01*
X179485083Y-69529599D01*
X179304919Y-69529599D01*
X179128223Y-69494452D01*
X178961777Y-69425508D01*
X178811979Y-69325416D01*
X178684584Y-69198021D01*
X178584492Y-69048223D01*
X178515548Y-68881777D01*
X178480401Y-68705081D01*
X178480401Y-68524917D01*
X178515548Y-68348221D01*
X178584492Y-68181775D01*
X178684584Y-68031977D01*
X178811979Y-67904582D01*
X178961777Y-67804490D01*
X179128223Y-67735546D01*
X179304919Y-67700399D01*
X179485083Y-67700399D01*
X179661779Y-67735546D01*
G37*
G36*
X177121779Y-67735546D02*
G01*
X177288225Y-67804490D01*
X177438023Y-67904582D01*
X177565418Y-68031977D01*
X177665510Y-68181775D01*
X177734454Y-68348221D01*
X177769601Y-68524917D01*
X177769601Y-68705081D01*
X177734454Y-68881777D01*
X177665510Y-69048223D01*
X177565418Y-69198021D01*
X177438023Y-69325416D01*
X177288225Y-69425508D01*
X177121779Y-69494452D01*
X176945083Y-69529599D01*
X176764919Y-69529599D01*
X176588223Y-69494452D01*
X176421777Y-69425508D01*
X176271979Y-69325416D01*
X176144584Y-69198021D01*
X176044492Y-69048223D01*
X175975548Y-68881777D01*
X175940401Y-68705081D01*
X175940401Y-68524917D01*
X175975548Y-68348221D01*
X176044492Y-68181775D01*
X176144584Y-68031977D01*
X176271979Y-67904582D01*
X176421777Y-67804490D01*
X176588223Y-67735546D01*
X176764919Y-67700399D01*
X176945083Y-67700399D01*
X177121779Y-67735546D01*
G37*
G36*
X132417779Y-67735546D02*
G01*
X132584225Y-67804490D01*
X132734023Y-67904582D01*
X132861418Y-68031977D01*
X132961510Y-68181775D01*
X133030454Y-68348221D01*
X133065601Y-68524917D01*
X133065601Y-68705081D01*
X133030454Y-68881777D01*
X132961510Y-69048223D01*
X132861418Y-69198021D01*
X132734023Y-69325416D01*
X132584225Y-69425508D01*
X132417779Y-69494452D01*
X132241083Y-69529599D01*
X132060919Y-69529599D01*
X131884223Y-69494452D01*
X131717777Y-69425508D01*
X131567979Y-69325416D01*
X131440584Y-69198021D01*
X131340492Y-69048223D01*
X131271548Y-68881777D01*
X131236401Y-68705081D01*
X131236401Y-68524917D01*
X131271548Y-68348221D01*
X131340492Y-68181775D01*
X131440584Y-68031977D01*
X131567979Y-67904582D01*
X131717777Y-67804490D01*
X131884223Y-67735546D01*
X132060919Y-67700399D01*
X132241083Y-67700399D01*
X132417779Y-67735546D01*
G37*
G36*
X134957779Y-67735546D02*
G01*
X135124225Y-67804490D01*
X135274023Y-67904582D01*
X135401418Y-68031977D01*
X135501510Y-68181775D01*
X135570454Y-68348221D01*
X135605601Y-68524917D01*
X135605601Y-68705081D01*
X135570454Y-68881777D01*
X135501510Y-69048223D01*
X135401418Y-69198021D01*
X135274023Y-69325416D01*
X135124225Y-69425508D01*
X134957779Y-69494452D01*
X134781083Y-69529599D01*
X134600919Y-69529599D01*
X134424223Y-69494452D01*
X134257777Y-69425508D01*
X134107979Y-69325416D01*
X133980584Y-69198021D01*
X133880492Y-69048223D01*
X133811548Y-68881777D01*
X133776401Y-68705081D01*
X133776401Y-68524917D01*
X133811548Y-68348221D01*
X133880492Y-68181775D01*
X133980584Y-68031977D01*
X134107979Y-67904582D01*
X134257777Y-67804490D01*
X134424223Y-67735546D01*
X134600919Y-67700399D01*
X134781083Y-67700399D01*
X134957779Y-67735546D01*
G37*
G36*
X192361779Y-65195546D02*
G01*
X192528225Y-65264490D01*
X192678023Y-65364582D01*
X192805418Y-65491977D01*
X192905510Y-65641775D01*
X192974454Y-65808221D01*
X193009601Y-65984917D01*
X193009601Y-66165081D01*
X192974454Y-66341777D01*
X192905510Y-66508223D01*
X192805418Y-66658021D01*
X192678023Y-66785416D01*
X192528225Y-66885508D01*
X192361779Y-66954452D01*
X192185083Y-66989599D01*
X192004919Y-66989599D01*
X191828223Y-66954452D01*
X191661777Y-66885508D01*
X191511979Y-66785416D01*
X191384584Y-66658021D01*
X191284492Y-66508223D01*
X191215548Y-66341777D01*
X191180401Y-66165081D01*
X191180401Y-65984917D01*
X191215548Y-65808221D01*
X191284492Y-65641775D01*
X191384584Y-65491977D01*
X191511979Y-65364582D01*
X191661777Y-65264490D01*
X191828223Y-65195546D01*
X192004919Y-65160399D01*
X192185083Y-65160399D01*
X192361779Y-65195546D01*
G37*
G36*
X189821779Y-65195546D02*
G01*
X189988225Y-65264490D01*
X190138023Y-65364582D01*
X190265418Y-65491977D01*
X190365510Y-65641775D01*
X190434454Y-65808221D01*
X190469601Y-65984917D01*
X190469601Y-66165081D01*
X190434454Y-66341777D01*
X190365510Y-66508223D01*
X190265418Y-66658021D01*
X190138023Y-66785416D01*
X189988225Y-66885508D01*
X189821779Y-66954452D01*
X189645083Y-66989599D01*
X189464919Y-66989599D01*
X189288223Y-66954452D01*
X189121777Y-66885508D01*
X188971979Y-66785416D01*
X188844584Y-66658021D01*
X188744492Y-66508223D01*
X188675548Y-66341777D01*
X188640401Y-66165081D01*
X188640401Y-65984917D01*
X188675548Y-65808221D01*
X188744492Y-65641775D01*
X188844584Y-65491977D01*
X188971979Y-65364582D01*
X189121777Y-65264490D01*
X189288223Y-65195546D01*
X189464919Y-65160399D01*
X189645083Y-65160399D01*
X189821779Y-65195546D01*
G37*
G36*
X189821779Y-62655546D02*
G01*
X189988225Y-62724490D01*
X190138023Y-62824582D01*
X190265418Y-62951977D01*
X190365510Y-63101775D01*
X190434454Y-63268221D01*
X190469601Y-63444917D01*
X190469601Y-63625081D01*
X190434454Y-63801777D01*
X190365510Y-63968223D01*
X190265418Y-64118021D01*
X190138023Y-64245416D01*
X189988225Y-64345508D01*
X189821779Y-64414452D01*
X189645083Y-64449599D01*
X189464919Y-64449599D01*
X189288223Y-64414452D01*
X189121777Y-64345508D01*
X188971979Y-64245416D01*
X188844584Y-64118021D01*
X188744492Y-63968223D01*
X188675548Y-63801777D01*
X188640401Y-63625081D01*
X188640401Y-63444917D01*
X188675548Y-63268221D01*
X188744492Y-63101775D01*
X188844584Y-62951977D01*
X188971979Y-62824582D01*
X189121777Y-62724490D01*
X189288223Y-62655546D01*
X189464919Y-62620399D01*
X189645083Y-62620399D01*
X189821779Y-62655546D01*
G37*
G36*
X192361779Y-62655546D02*
G01*
X192528225Y-62724490D01*
X192678023Y-62824582D01*
X192805418Y-62951977D01*
X192905510Y-63101775D01*
X192974454Y-63268221D01*
X193009601Y-63444917D01*
X193009601Y-63625081D01*
X192974454Y-63801777D01*
X192905510Y-63968223D01*
X192805418Y-64118021D01*
X192678023Y-64245416D01*
X192528225Y-64345508D01*
X192361779Y-64414452D01*
X192185083Y-64449599D01*
X192004919Y-64449599D01*
X191828223Y-64414452D01*
X191661777Y-64345508D01*
X191511979Y-64245416D01*
X191384584Y-64118021D01*
X191284492Y-63968223D01*
X191215548Y-63801777D01*
X191180401Y-63625081D01*
X191180401Y-63444917D01*
X191215548Y-63268221D01*
X191284492Y-63101775D01*
X191384584Y-62951977D01*
X191511979Y-62824582D01*
X191661777Y-62724490D01*
X191828223Y-62655546D01*
X192004919Y-62620399D01*
X192185083Y-62620399D01*
X192361779Y-62655546D01*
G37*
G36*
X111596564Y-61409389D02*
G01*
X111787833Y-61488615D01*
X111787835Y-61488616D01*
X111959973Y-61603635D01*
X112106365Y-61750027D01*
X112212988Y-61909599D01*
X112221385Y-61922167D01*
X112300611Y-62113436D01*
X112341000Y-62316484D01*
X112341000Y-62523516D01*
X112300611Y-62726564D01*
X112260010Y-62824583D01*
X112221384Y-62917835D01*
X112106365Y-63089973D01*
X111959973Y-63236365D01*
X111787835Y-63351384D01*
X111787834Y-63351385D01*
X111787833Y-63351385D01*
X111596564Y-63430611D01*
X111393516Y-63471000D01*
X111186484Y-63471000D01*
X110983436Y-63430611D01*
X110792167Y-63351385D01*
X110792166Y-63351385D01*
X110792165Y-63351384D01*
X110620027Y-63236365D01*
X110473635Y-63089973D01*
X110358616Y-62917835D01*
X110319990Y-62824583D01*
X110279389Y-62726564D01*
X110239000Y-62523516D01*
X110239000Y-62316484D01*
X110279389Y-62113436D01*
X110358615Y-61922167D01*
X110367013Y-61909599D01*
X110473635Y-61750027D01*
X110620027Y-61603635D01*
X110792165Y-61488616D01*
X110792167Y-61488615D01*
X110983436Y-61409389D01*
X111186484Y-61369000D01*
X111393516Y-61369000D01*
X111596564Y-61409389D01*
G37*
G36*
X118096564Y-61409389D02*
G01*
X118287833Y-61488615D01*
X118287835Y-61488616D01*
X118459973Y-61603635D01*
X118606365Y-61750027D01*
X118712988Y-61909599D01*
X118721385Y-61922167D01*
X118800611Y-62113436D01*
X118841000Y-62316484D01*
X118841000Y-62523516D01*
X118800611Y-62726564D01*
X118760010Y-62824583D01*
X118721384Y-62917835D01*
X118606365Y-63089973D01*
X118459973Y-63236365D01*
X118287835Y-63351384D01*
X118287834Y-63351385D01*
X118287833Y-63351385D01*
X118096564Y-63430611D01*
X117893516Y-63471000D01*
X117686484Y-63471000D01*
X117483436Y-63430611D01*
X117292167Y-63351385D01*
X117292166Y-63351385D01*
X117292165Y-63351384D01*
X117120027Y-63236365D01*
X116973635Y-63089973D01*
X116858616Y-62917835D01*
X116819990Y-62824583D01*
X116779389Y-62726564D01*
X116739000Y-62523516D01*
X116739000Y-62316484D01*
X116779389Y-62113436D01*
X116858615Y-61922167D01*
X116867013Y-61909599D01*
X116973635Y-61750027D01*
X117120027Y-61603635D01*
X117292165Y-61488616D01*
X117292167Y-61488615D01*
X117483436Y-61409389D01*
X117686484Y-61369000D01*
X117893516Y-61369000D01*
X118096564Y-61409389D01*
G37*
G36*
X174516564Y-60464387D02*
G01*
X174707833Y-60543613D01*
X174707835Y-60543614D01*
X174879973Y-60658633D01*
X175026365Y-60805025D01*
X175141385Y-60977165D01*
X175220611Y-61168434D01*
X175261000Y-61371482D01*
X175261000Y-61578514D01*
X175220611Y-61781562D01*
X175141385Y-61972831D01*
X175141384Y-61972833D01*
X175026365Y-62144971D01*
X174879973Y-62291363D01*
X174707835Y-62406382D01*
X174707834Y-62406383D01*
X174707833Y-62406383D01*
X174516564Y-62485609D01*
X174313516Y-62525998D01*
X174106484Y-62525998D01*
X173903436Y-62485609D01*
X173712167Y-62406383D01*
X173712166Y-62406383D01*
X173712165Y-62406382D01*
X173540027Y-62291363D01*
X173393635Y-62144971D01*
X173278616Y-61972833D01*
X173278615Y-61972831D01*
X173199389Y-61781562D01*
X173159000Y-61578514D01*
X173159000Y-61371482D01*
X173199389Y-61168434D01*
X173278615Y-60977165D01*
X173393635Y-60805025D01*
X173540027Y-60658633D01*
X173712165Y-60543614D01*
X173712167Y-60543613D01*
X173903436Y-60464387D01*
X174106484Y-60423998D01*
X174313516Y-60423998D01*
X174516564Y-60464387D01*
G37*
G36*
X181016564Y-60464387D02*
G01*
X181207833Y-60543613D01*
X181207835Y-60543614D01*
X181379973Y-60658633D01*
X181526365Y-60805025D01*
X181641385Y-60977165D01*
X181720611Y-61168434D01*
X181761000Y-61371482D01*
X181761000Y-61578514D01*
X181720611Y-61781562D01*
X181641385Y-61972831D01*
X181641384Y-61972833D01*
X181526365Y-62144971D01*
X181379973Y-62291363D01*
X181207835Y-62406382D01*
X181207834Y-62406383D01*
X181207833Y-62406383D01*
X181016564Y-62485609D01*
X180813516Y-62525998D01*
X180606484Y-62525998D01*
X180403436Y-62485609D01*
X180212167Y-62406383D01*
X180212166Y-62406383D01*
X180212165Y-62406382D01*
X180040027Y-62291363D01*
X179893635Y-62144971D01*
X179778616Y-61972833D01*
X179778615Y-61972831D01*
X179699389Y-61781562D01*
X179659000Y-61578514D01*
X179659000Y-61371482D01*
X179699389Y-61168434D01*
X179778615Y-60977165D01*
X179893635Y-60805025D01*
X180040027Y-60658633D01*
X180212165Y-60543614D01*
X180212167Y-60543613D01*
X180403436Y-60464387D01*
X180606484Y-60423998D01*
X180813516Y-60423998D01*
X181016564Y-60464387D01*
G37*
G36*
X192361779Y-60115546D02*
G01*
X192528225Y-60184490D01*
X192678023Y-60284582D01*
X192805418Y-60411977D01*
X192905510Y-60561775D01*
X192974454Y-60728221D01*
X193009601Y-60904917D01*
X193009601Y-61085081D01*
X192974454Y-61261777D01*
X192905510Y-61428223D01*
X192805418Y-61578021D01*
X192678023Y-61705416D01*
X192528225Y-61805508D01*
X192361779Y-61874452D01*
X192185083Y-61909599D01*
X192004919Y-61909599D01*
X191828223Y-61874452D01*
X191661777Y-61805508D01*
X191511979Y-61705416D01*
X191384584Y-61578021D01*
X191284492Y-61428223D01*
X191215548Y-61261777D01*
X191180401Y-61085081D01*
X191180401Y-60904917D01*
X191215548Y-60728221D01*
X191284492Y-60561775D01*
X191384584Y-60411977D01*
X191511979Y-60284582D01*
X191661777Y-60184490D01*
X191828223Y-60115546D01*
X192004919Y-60080399D01*
X192185083Y-60080399D01*
X192361779Y-60115546D01*
G37*
G36*
X189821779Y-60115546D02*
G01*
X189988225Y-60184490D01*
X190138023Y-60284582D01*
X190265418Y-60411977D01*
X190365510Y-60561775D01*
X190434454Y-60728221D01*
X190469601Y-60904917D01*
X190469601Y-61085081D01*
X190434454Y-61261777D01*
X190365510Y-61428223D01*
X190265418Y-61578021D01*
X190138023Y-61705416D01*
X189988225Y-61805508D01*
X189821779Y-61874452D01*
X189645083Y-61909599D01*
X189464919Y-61909599D01*
X189288223Y-61874452D01*
X189121777Y-61805508D01*
X188971979Y-61705416D01*
X188844584Y-61578021D01*
X188744492Y-61428223D01*
X188675548Y-61261777D01*
X188640401Y-61085081D01*
X188640401Y-60904917D01*
X188675548Y-60728221D01*
X188744492Y-60561775D01*
X188844584Y-60411977D01*
X188971979Y-60284582D01*
X189121777Y-60184490D01*
X189288223Y-60115546D01*
X189464919Y-60080399D01*
X189645083Y-60080399D01*
X189821779Y-60115546D01*
G37*
G36*
X189821779Y-57575546D02*
G01*
X189988225Y-57644490D01*
X190138023Y-57744582D01*
X190265418Y-57871977D01*
X190365510Y-58021775D01*
X190434454Y-58188221D01*
X190469601Y-58364917D01*
X190469601Y-58545081D01*
X190434454Y-58721777D01*
X190365510Y-58888223D01*
X190265418Y-59038021D01*
X190138023Y-59165416D01*
X189988225Y-59265508D01*
X189821779Y-59334452D01*
X189645083Y-59369599D01*
X189464919Y-59369599D01*
X189288223Y-59334452D01*
X189121777Y-59265508D01*
X188971979Y-59165416D01*
X188844584Y-59038021D01*
X188744492Y-58888223D01*
X188675548Y-58721777D01*
X188640401Y-58545081D01*
X188640401Y-58364917D01*
X188675548Y-58188221D01*
X188744492Y-58021775D01*
X188844584Y-57871977D01*
X188971979Y-57744582D01*
X189121777Y-57644490D01*
X189288223Y-57575546D01*
X189464919Y-57540399D01*
X189645083Y-57540399D01*
X189821779Y-57575546D01*
G37*
G36*
X192361779Y-57575546D02*
G01*
X192528225Y-57644490D01*
X192678023Y-57744582D01*
X192805418Y-57871977D01*
X192905510Y-58021775D01*
X192974454Y-58188221D01*
X193009601Y-58364917D01*
X193009601Y-58545081D01*
X192974454Y-58721777D01*
X192905510Y-58888223D01*
X192805418Y-59038021D01*
X192678023Y-59165416D01*
X192528225Y-59265508D01*
X192361779Y-59334452D01*
X192185083Y-59369599D01*
X192004919Y-59369599D01*
X191828223Y-59334452D01*
X191661777Y-59265508D01*
X191511979Y-59165416D01*
X191384584Y-59038021D01*
X191284492Y-58888223D01*
X191215548Y-58721777D01*
X191180401Y-58545081D01*
X191180401Y-58364917D01*
X191215548Y-58188221D01*
X191284492Y-58021775D01*
X191384584Y-57871977D01*
X191511979Y-57744582D01*
X191661777Y-57644490D01*
X191828223Y-57575546D01*
X192004919Y-57540399D01*
X192185083Y-57540399D01*
X192361779Y-57575546D01*
G37*
G36*
X111596564Y-56909389D02*
G01*
X111787833Y-56988615D01*
X111787835Y-56988616D01*
X111922374Y-57078512D01*
X111959973Y-57103635D01*
X112106365Y-57250027D01*
X112221385Y-57422167D01*
X112300611Y-57613436D01*
X112341000Y-57816484D01*
X112341000Y-58023516D01*
X112300611Y-58226564D01*
X112221385Y-58417833D01*
X112221384Y-58417835D01*
X112106365Y-58589973D01*
X111959973Y-58736365D01*
X111787835Y-58851384D01*
X111787834Y-58851385D01*
X111787833Y-58851385D01*
X111596564Y-58930611D01*
X111393516Y-58971000D01*
X111186484Y-58971000D01*
X110983436Y-58930611D01*
X110792167Y-58851385D01*
X110792166Y-58851385D01*
X110792165Y-58851384D01*
X110620027Y-58736365D01*
X110473635Y-58589973D01*
X110358616Y-58417835D01*
X110358615Y-58417833D01*
X110279389Y-58226564D01*
X110239000Y-58023516D01*
X110239000Y-57816484D01*
X110279389Y-57613436D01*
X110358615Y-57422167D01*
X110473635Y-57250027D01*
X110620027Y-57103635D01*
X110657626Y-57078512D01*
X110792165Y-56988616D01*
X110792167Y-56988615D01*
X110983436Y-56909389D01*
X111186484Y-56869000D01*
X111393516Y-56869000D01*
X111596564Y-56909389D01*
G37*
G36*
X118096564Y-56909389D02*
G01*
X118287833Y-56988615D01*
X118287835Y-56988616D01*
X118422374Y-57078512D01*
X118459973Y-57103635D01*
X118606365Y-57250027D01*
X118721385Y-57422167D01*
X118800611Y-57613436D01*
X118841000Y-57816484D01*
X118841000Y-58023516D01*
X118800611Y-58226564D01*
X118721385Y-58417833D01*
X118721384Y-58417835D01*
X118606365Y-58589973D01*
X118459973Y-58736365D01*
X118287835Y-58851384D01*
X118287834Y-58851385D01*
X118287833Y-58851385D01*
X118096564Y-58930611D01*
X117893516Y-58971000D01*
X117686484Y-58971000D01*
X117483436Y-58930611D01*
X117292167Y-58851385D01*
X117292166Y-58851385D01*
X117292165Y-58851384D01*
X117120027Y-58736365D01*
X116973635Y-58589973D01*
X116858616Y-58417835D01*
X116858615Y-58417833D01*
X116779389Y-58226564D01*
X116739000Y-58023516D01*
X116739000Y-57816484D01*
X116779389Y-57613436D01*
X116858615Y-57422167D01*
X116973635Y-57250027D01*
X117120027Y-57103635D01*
X117157626Y-57078512D01*
X117292165Y-56988616D01*
X117292167Y-56988615D01*
X117483436Y-56909389D01*
X117686484Y-56869000D01*
X117893516Y-56869000D01*
X118096564Y-56909389D01*
G37*
G36*
X181016564Y-55964387D02*
G01*
X181207833Y-56043613D01*
X181207835Y-56043614D01*
X181379973Y-56158633D01*
X181526365Y-56305025D01*
X181641385Y-56477165D01*
X181720611Y-56668434D01*
X181761000Y-56871482D01*
X181761000Y-57078514D01*
X181720611Y-57281562D01*
X181641385Y-57472831D01*
X181641384Y-57472833D01*
X181526365Y-57644971D01*
X181379973Y-57791363D01*
X181207835Y-57906382D01*
X181207834Y-57906383D01*
X181207833Y-57906383D01*
X181016564Y-57985609D01*
X180813516Y-58025998D01*
X180606484Y-58025998D01*
X180403436Y-57985609D01*
X180212167Y-57906383D01*
X180212166Y-57906383D01*
X180212165Y-57906382D01*
X180040027Y-57791363D01*
X179893635Y-57644971D01*
X179778616Y-57472833D01*
X179778615Y-57472831D01*
X179699389Y-57281562D01*
X179659000Y-57078514D01*
X179659000Y-56871482D01*
X179699389Y-56668434D01*
X179778615Y-56477165D01*
X179893635Y-56305025D01*
X180040027Y-56158633D01*
X180212165Y-56043614D01*
X180212167Y-56043613D01*
X180403436Y-55964387D01*
X180606484Y-55923998D01*
X180813516Y-55923998D01*
X181016564Y-55964387D01*
G37*
G36*
X174516564Y-55964387D02*
G01*
X174707833Y-56043613D01*
X174707835Y-56043614D01*
X174879973Y-56158633D01*
X175026365Y-56305025D01*
X175141385Y-56477165D01*
X175220611Y-56668434D01*
X175261000Y-56871482D01*
X175261000Y-57078514D01*
X175220611Y-57281562D01*
X175141385Y-57472831D01*
X175141384Y-57472833D01*
X175026365Y-57644971D01*
X174879973Y-57791363D01*
X174707835Y-57906382D01*
X174707834Y-57906383D01*
X174707833Y-57906383D01*
X174516564Y-57985609D01*
X174313516Y-58025998D01*
X174106484Y-58025998D01*
X173903436Y-57985609D01*
X173712167Y-57906383D01*
X173712166Y-57906383D01*
X173712165Y-57906382D01*
X173540027Y-57791363D01*
X173393635Y-57644971D01*
X173278616Y-57472833D01*
X173278615Y-57472831D01*
X173199389Y-57281562D01*
X173159000Y-57078514D01*
X173159000Y-56871482D01*
X173199389Y-56668434D01*
X173278615Y-56477165D01*
X173393635Y-56305025D01*
X173540027Y-56158633D01*
X173712165Y-56043614D01*
X173712167Y-56043613D01*
X173903436Y-55964387D01*
X174106484Y-55923998D01*
X174313516Y-55923998D01*
X174516564Y-55964387D01*
G37*
G36*
X192361779Y-55035546D02*
G01*
X192528225Y-55104490D01*
X192678023Y-55204582D01*
X192805418Y-55331977D01*
X192905510Y-55481775D01*
X192974454Y-55648221D01*
X193009601Y-55824917D01*
X193009601Y-56005081D01*
X192974454Y-56181777D01*
X192905510Y-56348223D01*
X192805418Y-56498021D01*
X192678023Y-56625416D01*
X192528225Y-56725508D01*
X192361779Y-56794452D01*
X192185083Y-56829599D01*
X192004919Y-56829599D01*
X191828223Y-56794452D01*
X191661777Y-56725508D01*
X191511979Y-56625416D01*
X191384584Y-56498021D01*
X191284492Y-56348223D01*
X191215548Y-56181777D01*
X191180401Y-56005081D01*
X191180401Y-55824917D01*
X191215548Y-55648221D01*
X191284492Y-55481775D01*
X191384584Y-55331977D01*
X191511979Y-55204582D01*
X191661777Y-55104490D01*
X191828223Y-55035546D01*
X192004919Y-55000399D01*
X192185083Y-55000399D01*
X192361779Y-55035546D01*
G37*
G36*
X189821779Y-55035546D02*
G01*
X189988225Y-55104490D01*
X190138023Y-55204582D01*
X190265418Y-55331977D01*
X190365510Y-55481775D01*
X190434454Y-55648221D01*
X190469601Y-55824917D01*
X190469601Y-56005081D01*
X190434454Y-56181777D01*
X190365510Y-56348223D01*
X190265418Y-56498021D01*
X190138023Y-56625416D01*
X189988225Y-56725508D01*
X189821779Y-56794452D01*
X189645083Y-56829599D01*
X189464919Y-56829599D01*
X189288223Y-56794452D01*
X189121777Y-56725508D01*
X188971979Y-56625416D01*
X188844584Y-56498021D01*
X188744492Y-56348223D01*
X188675548Y-56181777D01*
X188640401Y-56005081D01*
X188640401Y-55824917D01*
X188675548Y-55648221D01*
X188744492Y-55481775D01*
X188844584Y-55331977D01*
X188971979Y-55204582D01*
X189121777Y-55104490D01*
X189288223Y-55035546D01*
X189464919Y-55000399D01*
X189645083Y-55000399D01*
X189821779Y-55035546D01*
G37*
G36*
X192361779Y-52495546D02*
G01*
X192528225Y-52564490D01*
X192678023Y-52664582D01*
X192805418Y-52791977D01*
X192905510Y-52941775D01*
X192974454Y-53108221D01*
X193009601Y-53284917D01*
X193009601Y-53465081D01*
X192974454Y-53641777D01*
X192905510Y-53808223D01*
X192805418Y-53958021D01*
X192678023Y-54085416D01*
X192528225Y-54185508D01*
X192361779Y-54254452D01*
X192185083Y-54289599D01*
X192004919Y-54289599D01*
X191828223Y-54254452D01*
X191661777Y-54185508D01*
X191511979Y-54085416D01*
X191384584Y-53958021D01*
X191284492Y-53808223D01*
X191215548Y-53641777D01*
X191180401Y-53465081D01*
X191180401Y-53284917D01*
X191215548Y-53108221D01*
X191284492Y-52941775D01*
X191384584Y-52791977D01*
X191511979Y-52664582D01*
X191661777Y-52564490D01*
X191828223Y-52495546D01*
X192004919Y-52460399D01*
X192185083Y-52460399D01*
X192361779Y-52495546D01*
G37*
G36*
X189821779Y-52495546D02*
G01*
X189988225Y-52564490D01*
X190138023Y-52664582D01*
X190265418Y-52791977D01*
X190365510Y-52941775D01*
X190434454Y-53108221D01*
X190469601Y-53284917D01*
X190469601Y-53465081D01*
X190434454Y-53641777D01*
X190365510Y-53808223D01*
X190265418Y-53958021D01*
X190138023Y-54085416D01*
X189988225Y-54185508D01*
X189821779Y-54254452D01*
X189645083Y-54289599D01*
X189464919Y-54289599D01*
X189288223Y-54254452D01*
X189121777Y-54185508D01*
X188971979Y-54085416D01*
X188844584Y-53958021D01*
X188744492Y-53808223D01*
X188675548Y-53641777D01*
X188640401Y-53465081D01*
X188640401Y-53284917D01*
X188675548Y-53108221D01*
X188744492Y-52941775D01*
X188844584Y-52791977D01*
X188971979Y-52664582D01*
X189121777Y-52564490D01*
X189288223Y-52495546D01*
X189464919Y-52460399D01*
X189645083Y-52460399D01*
X189821779Y-52495546D01*
G37*
G36*
X132058228Y-50621703D02*
G01*
X132213100Y-50685853D01*
X132352481Y-50778985D01*
X132471015Y-50897519D01*
X132564147Y-51036900D01*
X132628297Y-51191772D01*
X132661000Y-51356184D01*
X132661000Y-51523816D01*
X132628297Y-51688228D01*
X132564147Y-51843100D01*
X132471015Y-51982481D01*
X132352481Y-52101015D01*
X132213100Y-52194147D01*
X132058228Y-52258297D01*
X131893816Y-52291000D01*
X131726184Y-52291000D01*
X131561772Y-52258297D01*
X131406900Y-52194147D01*
X131267519Y-52101015D01*
X131148985Y-51982481D01*
X131055853Y-51843100D01*
X130991703Y-51688228D01*
X130959000Y-51523816D01*
X130959000Y-51356184D01*
X130991703Y-51191772D01*
X131055853Y-51036900D01*
X131148985Y-50897519D01*
X131267519Y-50778985D01*
X131406900Y-50685853D01*
X131561772Y-50621703D01*
X131726184Y-50589000D01*
X131893816Y-50589000D01*
X132058228Y-50621703D01*
G37*
G36*
X134598228Y-50621703D02*
G01*
X134753100Y-50685853D01*
X134892481Y-50778985D01*
X135011015Y-50897519D01*
X135104147Y-51036900D01*
X135168297Y-51191772D01*
X135201000Y-51356184D01*
X135201000Y-51523816D01*
X135168297Y-51688228D01*
X135104147Y-51843100D01*
X135011015Y-51982481D01*
X134892481Y-52101015D01*
X134753100Y-52194147D01*
X134598228Y-52258297D01*
X134433816Y-52291000D01*
X134266184Y-52291000D01*
X134101772Y-52258297D01*
X133946900Y-52194147D01*
X133807519Y-52101015D01*
X133688985Y-51982481D01*
X133595853Y-51843100D01*
X133531703Y-51688228D01*
X133499000Y-51523816D01*
X133499000Y-51356184D01*
X133531703Y-51191772D01*
X133595853Y-51036900D01*
X133688985Y-50897519D01*
X133807519Y-50778985D01*
X133946900Y-50685853D01*
X134101772Y-50621703D01*
X134266184Y-50589000D01*
X134433816Y-50589000D01*
X134598228Y-50621703D01*
G37*
G36*
X137138228Y-50621703D02*
G01*
X137293100Y-50685853D01*
X137432481Y-50778985D01*
X137551015Y-50897519D01*
X137644147Y-51036900D01*
X137708297Y-51191772D01*
X137741000Y-51356184D01*
X137741000Y-51523816D01*
X137708297Y-51688228D01*
X137644147Y-51843100D01*
X137551015Y-51982481D01*
X137432481Y-52101015D01*
X137293100Y-52194147D01*
X137138228Y-52258297D01*
X136973816Y-52291000D01*
X136806184Y-52291000D01*
X136641772Y-52258297D01*
X136486900Y-52194147D01*
X136347519Y-52101015D01*
X136228985Y-51982481D01*
X136135853Y-51843100D01*
X136071703Y-51688228D01*
X136039000Y-51523816D01*
X136039000Y-51356184D01*
X136071703Y-51191772D01*
X136135853Y-51036900D01*
X136228985Y-50897519D01*
X136347519Y-50778985D01*
X136486900Y-50685853D01*
X136641772Y-50621703D01*
X136806184Y-50589000D01*
X136973816Y-50589000D01*
X137138228Y-50621703D01*
G37*
G36*
X139678228Y-50621703D02*
G01*
X139833100Y-50685853D01*
X139972481Y-50778985D01*
X140091015Y-50897519D01*
X140184147Y-51036900D01*
X140248297Y-51191772D01*
X140281000Y-51356184D01*
X140281000Y-51523816D01*
X140248297Y-51688228D01*
X140184147Y-51843100D01*
X140091015Y-51982481D01*
X139972481Y-52101015D01*
X139833100Y-52194147D01*
X139678228Y-52258297D01*
X139513816Y-52291000D01*
X139346184Y-52291000D01*
X139181772Y-52258297D01*
X139026900Y-52194147D01*
X138887519Y-52101015D01*
X138768985Y-51982481D01*
X138675853Y-51843100D01*
X138611703Y-51688228D01*
X138579000Y-51523816D01*
X138579000Y-51356184D01*
X138611703Y-51191772D01*
X138675853Y-51036900D01*
X138768985Y-50897519D01*
X138887519Y-50778985D01*
X139026900Y-50685853D01*
X139181772Y-50621703D01*
X139346184Y-50589000D01*
X139513816Y-50589000D01*
X139678228Y-50621703D01*
G37*
G36*
X142218228Y-50621703D02*
G01*
X142373100Y-50685853D01*
X142512481Y-50778985D01*
X142631015Y-50897519D01*
X142724147Y-51036900D01*
X142788297Y-51191772D01*
X142821000Y-51356184D01*
X142821000Y-51523816D01*
X142788297Y-51688228D01*
X142724147Y-51843100D01*
X142631015Y-51982481D01*
X142512481Y-52101015D01*
X142373100Y-52194147D01*
X142218228Y-52258297D01*
X142053816Y-52291000D01*
X141886184Y-52291000D01*
X141721772Y-52258297D01*
X141566900Y-52194147D01*
X141427519Y-52101015D01*
X141308985Y-51982481D01*
X141215853Y-51843100D01*
X141151703Y-51688228D01*
X141119000Y-51523816D01*
X141119000Y-51356184D01*
X141151703Y-51191772D01*
X141215853Y-51036900D01*
X141308985Y-50897519D01*
X141427519Y-50778985D01*
X141566900Y-50685853D01*
X141721772Y-50621703D01*
X141886184Y-50589000D01*
X142053816Y-50589000D01*
X142218228Y-50621703D01*
G37*
G36*
X114278228Y-50621703D02*
G01*
X114433100Y-50685853D01*
X114572481Y-50778985D01*
X114691015Y-50897519D01*
X114784147Y-51036900D01*
X114848297Y-51191772D01*
X114881000Y-51356184D01*
X114881000Y-51523816D01*
X114848297Y-51688228D01*
X114784147Y-51843100D01*
X114691015Y-51982481D01*
X114572481Y-52101015D01*
X114433100Y-52194147D01*
X114278228Y-52258297D01*
X114113816Y-52291000D01*
X113946184Y-52291000D01*
X113781772Y-52258297D01*
X113626900Y-52194147D01*
X113487519Y-52101015D01*
X113368985Y-51982481D01*
X113275853Y-51843100D01*
X113211703Y-51688228D01*
X113179000Y-51523816D01*
X113179000Y-51356184D01*
X113211703Y-51191772D01*
X113275853Y-51036900D01*
X113368985Y-50897519D01*
X113487519Y-50778985D01*
X113626900Y-50685853D01*
X113781772Y-50621703D01*
X113946184Y-50589000D01*
X114113816Y-50589000D01*
X114278228Y-50621703D01*
G37*
G36*
X144758228Y-50621703D02*
G01*
X144913100Y-50685853D01*
X145052481Y-50778985D01*
X145171015Y-50897519D01*
X145264147Y-51036900D01*
X145328297Y-51191772D01*
X145361000Y-51356184D01*
X145361000Y-51523816D01*
X145328297Y-51688228D01*
X145264147Y-51843100D01*
X145171015Y-51982481D01*
X145052481Y-52101015D01*
X144913100Y-52194147D01*
X144758228Y-52258297D01*
X144593816Y-52291000D01*
X144426184Y-52291000D01*
X144261772Y-52258297D01*
X144106900Y-52194147D01*
X143967519Y-52101015D01*
X143848985Y-51982481D01*
X143755853Y-51843100D01*
X143691703Y-51688228D01*
X143659000Y-51523816D01*
X143659000Y-51356184D01*
X143691703Y-51191772D01*
X143755853Y-51036900D01*
X143848985Y-50897519D01*
X143967519Y-50778985D01*
X144106900Y-50685853D01*
X144261772Y-50621703D01*
X144426184Y-50589000D01*
X144593816Y-50589000D01*
X144758228Y-50621703D01*
G37*
G36*
X116818228Y-50621703D02*
G01*
X116973100Y-50685853D01*
X117112481Y-50778985D01*
X117231015Y-50897519D01*
X117324147Y-51036900D01*
X117388297Y-51191772D01*
X117421000Y-51356184D01*
X117421000Y-51523816D01*
X117388297Y-51688228D01*
X117324147Y-51843100D01*
X117231015Y-51982481D01*
X117112481Y-52101015D01*
X116973100Y-52194147D01*
X116818228Y-52258297D01*
X116653816Y-52291000D01*
X116486184Y-52291000D01*
X116321772Y-52258297D01*
X116166900Y-52194147D01*
X116027519Y-52101015D01*
X115908985Y-51982481D01*
X115815853Y-51843100D01*
X115751703Y-51688228D01*
X115719000Y-51523816D01*
X115719000Y-51356184D01*
X115751703Y-51191772D01*
X115815853Y-51036900D01*
X115908985Y-50897519D01*
X116027519Y-50778985D01*
X116166900Y-50685853D01*
X116321772Y-50621703D01*
X116486184Y-50589000D01*
X116653816Y-50589000D01*
X116818228Y-50621703D01*
G37*
G36*
X147298228Y-50621703D02*
G01*
X147453100Y-50685853D01*
X147592481Y-50778985D01*
X147711015Y-50897519D01*
X147804147Y-51036900D01*
X147868297Y-51191772D01*
X147901000Y-51356184D01*
X147901000Y-51523816D01*
X147868297Y-51688228D01*
X147804147Y-51843100D01*
X147711015Y-51982481D01*
X147592481Y-52101015D01*
X147453100Y-52194147D01*
X147298228Y-52258297D01*
X147133816Y-52291000D01*
X146966184Y-52291000D01*
X146801772Y-52258297D01*
X146646900Y-52194147D01*
X146507519Y-52101015D01*
X146388985Y-51982481D01*
X146295853Y-51843100D01*
X146231703Y-51688228D01*
X146199000Y-51523816D01*
X146199000Y-51356184D01*
X146231703Y-51191772D01*
X146295853Y-51036900D01*
X146388985Y-50897519D01*
X146507519Y-50778985D01*
X146646900Y-50685853D01*
X146801772Y-50621703D01*
X146966184Y-50589000D01*
X147133816Y-50589000D01*
X147298228Y-50621703D01*
G37*
G36*
X119358228Y-50621703D02*
G01*
X119513100Y-50685853D01*
X119652481Y-50778985D01*
X119771015Y-50897519D01*
X119864147Y-51036900D01*
X119928297Y-51191772D01*
X119961000Y-51356184D01*
X119961000Y-51523816D01*
X119928297Y-51688228D01*
X119864147Y-51843100D01*
X119771015Y-51982481D01*
X119652481Y-52101015D01*
X119513100Y-52194147D01*
X119358228Y-52258297D01*
X119193816Y-52291000D01*
X119026184Y-52291000D01*
X118861772Y-52258297D01*
X118706900Y-52194147D01*
X118567519Y-52101015D01*
X118448985Y-51982481D01*
X118355853Y-51843100D01*
X118291703Y-51688228D01*
X118259000Y-51523816D01*
X118259000Y-51356184D01*
X118291703Y-51191772D01*
X118355853Y-51036900D01*
X118448985Y-50897519D01*
X118567519Y-50778985D01*
X118706900Y-50685853D01*
X118861772Y-50621703D01*
X119026184Y-50589000D01*
X119193816Y-50589000D01*
X119358228Y-50621703D01*
G37*
G36*
X121898228Y-50621703D02*
G01*
X122053100Y-50685853D01*
X122192481Y-50778985D01*
X122311015Y-50897519D01*
X122404147Y-51036900D01*
X122468297Y-51191772D01*
X122501000Y-51356184D01*
X122501000Y-51523816D01*
X122468297Y-51688228D01*
X122404147Y-51843100D01*
X122311015Y-51982481D01*
X122192481Y-52101015D01*
X122053100Y-52194147D01*
X121898228Y-52258297D01*
X121733816Y-52291000D01*
X121566184Y-52291000D01*
X121401772Y-52258297D01*
X121246900Y-52194147D01*
X121107519Y-52101015D01*
X120988985Y-51982481D01*
X120895853Y-51843100D01*
X120831703Y-51688228D01*
X120799000Y-51523816D01*
X120799000Y-51356184D01*
X120831703Y-51191772D01*
X120895853Y-51036900D01*
X120988985Y-50897519D01*
X121107519Y-50778985D01*
X121246900Y-50685853D01*
X121401772Y-50621703D01*
X121566184Y-50589000D01*
X121733816Y-50589000D01*
X121898228Y-50621703D01*
G37*
G36*
X152378228Y-50621703D02*
G01*
X152533100Y-50685853D01*
X152672481Y-50778985D01*
X152791015Y-50897519D01*
X152884147Y-51036900D01*
X152948297Y-51191772D01*
X152981000Y-51356184D01*
X152981000Y-51523816D01*
X152948297Y-51688228D01*
X152884147Y-51843100D01*
X152791015Y-51982481D01*
X152672481Y-52101015D01*
X152533100Y-52194147D01*
X152378228Y-52258297D01*
X152213816Y-52291000D01*
X152046184Y-52291000D01*
X151881772Y-52258297D01*
X151726900Y-52194147D01*
X151587519Y-52101015D01*
X151468985Y-51982481D01*
X151375853Y-51843100D01*
X151311703Y-51688228D01*
X151279000Y-51523816D01*
X151279000Y-51356184D01*
X151311703Y-51191772D01*
X151375853Y-51036900D01*
X151468985Y-50897519D01*
X151587519Y-50778985D01*
X151726900Y-50685853D01*
X151881772Y-50621703D01*
X152046184Y-50589000D01*
X152213816Y-50589000D01*
X152378228Y-50621703D01*
G37*
G36*
X162538228Y-50621703D02*
G01*
X162693100Y-50685853D01*
X162832481Y-50778985D01*
X162951015Y-50897519D01*
X163044147Y-51036900D01*
X163108297Y-51191772D01*
X163141000Y-51356184D01*
X163141000Y-51523816D01*
X163108297Y-51688228D01*
X163044147Y-51843100D01*
X162951015Y-51982481D01*
X162832481Y-52101015D01*
X162693100Y-52194147D01*
X162538228Y-52258297D01*
X162373816Y-52291000D01*
X162206184Y-52291000D01*
X162041772Y-52258297D01*
X161886900Y-52194147D01*
X161747519Y-52101015D01*
X161628985Y-51982481D01*
X161535853Y-51843100D01*
X161471703Y-51688228D01*
X161439000Y-51523816D01*
X161439000Y-51356184D01*
X161471703Y-51191772D01*
X161535853Y-51036900D01*
X161628985Y-50897519D01*
X161747519Y-50778985D01*
X161886900Y-50685853D01*
X162041772Y-50621703D01*
X162206184Y-50589000D01*
X162373816Y-50589000D01*
X162538228Y-50621703D01*
G37*
G36*
X159998228Y-50621703D02*
G01*
X160153100Y-50685853D01*
X160292481Y-50778985D01*
X160411015Y-50897519D01*
X160504147Y-51036900D01*
X160568297Y-51191772D01*
X160601000Y-51356184D01*
X160601000Y-51523816D01*
X160568297Y-51688228D01*
X160504147Y-51843100D01*
X160411015Y-51982481D01*
X160292481Y-52101015D01*
X160153100Y-52194147D01*
X159998228Y-52258297D01*
X159833816Y-52291000D01*
X159666184Y-52291000D01*
X159501772Y-52258297D01*
X159346900Y-52194147D01*
X159207519Y-52101015D01*
X159088985Y-51982481D01*
X158995853Y-51843100D01*
X158931703Y-51688228D01*
X158899000Y-51523816D01*
X158899000Y-51356184D01*
X158931703Y-51191772D01*
X158995853Y-51036900D01*
X159088985Y-50897519D01*
X159207519Y-50778985D01*
X159346900Y-50685853D01*
X159501772Y-50621703D01*
X159666184Y-50589000D01*
X159833816Y-50589000D01*
X159998228Y-50621703D01*
G37*
G36*
X149838228Y-50621703D02*
G01*
X149993100Y-50685853D01*
X150132481Y-50778985D01*
X150251015Y-50897519D01*
X150344147Y-51036900D01*
X150408297Y-51191772D01*
X150441000Y-51356184D01*
X150441000Y-51523816D01*
X150408297Y-51688228D01*
X150344147Y-51843100D01*
X150251015Y-51982481D01*
X150132481Y-52101015D01*
X149993100Y-52194147D01*
X149838228Y-52258297D01*
X149673816Y-52291000D01*
X149506184Y-52291000D01*
X149341772Y-52258297D01*
X149186900Y-52194147D01*
X149047519Y-52101015D01*
X148928985Y-51982481D01*
X148835853Y-51843100D01*
X148771703Y-51688228D01*
X148739000Y-51523816D01*
X148739000Y-51356184D01*
X148771703Y-51191772D01*
X148835853Y-51036900D01*
X148928985Y-50897519D01*
X149047519Y-50778985D01*
X149186900Y-50685853D01*
X149341772Y-50621703D01*
X149506184Y-50589000D01*
X149673816Y-50589000D01*
X149838228Y-50621703D01*
G37*
G36*
X157458228Y-50621703D02*
G01*
X157613100Y-50685853D01*
X157752481Y-50778985D01*
X157871015Y-50897519D01*
X157964147Y-51036900D01*
X158028297Y-51191772D01*
X158061000Y-51356184D01*
X158061000Y-51523816D01*
X158028297Y-51688228D01*
X157964147Y-51843100D01*
X157871015Y-51982481D01*
X157752481Y-52101015D01*
X157613100Y-52194147D01*
X157458228Y-52258297D01*
X157293816Y-52291000D01*
X157126184Y-52291000D01*
X156961772Y-52258297D01*
X156806900Y-52194147D01*
X156667519Y-52101015D01*
X156548985Y-51982481D01*
X156455853Y-51843100D01*
X156391703Y-51688228D01*
X156359000Y-51523816D01*
X156359000Y-51356184D01*
X156391703Y-51191772D01*
X156455853Y-51036900D01*
X156548985Y-50897519D01*
X156667519Y-50778985D01*
X156806900Y-50685853D01*
X156961772Y-50621703D01*
X157126184Y-50589000D01*
X157293816Y-50589000D01*
X157458228Y-50621703D01*
G37*
G36*
X126978228Y-50621703D02*
G01*
X127133100Y-50685853D01*
X127272481Y-50778985D01*
X127391015Y-50897519D01*
X127484147Y-51036900D01*
X127548297Y-51191772D01*
X127581000Y-51356184D01*
X127581000Y-51523816D01*
X127548297Y-51688228D01*
X127484147Y-51843100D01*
X127391015Y-51982481D01*
X127272481Y-52101015D01*
X127133100Y-52194147D01*
X126978228Y-52258297D01*
X126813816Y-52291000D01*
X126646184Y-52291000D01*
X126481772Y-52258297D01*
X126326900Y-52194147D01*
X126187519Y-52101015D01*
X126068985Y-51982481D01*
X125975853Y-51843100D01*
X125911703Y-51688228D01*
X125879000Y-51523816D01*
X125879000Y-51356184D01*
X125911703Y-51191772D01*
X125975853Y-51036900D01*
X126068985Y-50897519D01*
X126187519Y-50778985D01*
X126326900Y-50685853D01*
X126481772Y-50621703D01*
X126646184Y-50589000D01*
X126813816Y-50589000D01*
X126978228Y-50621703D01*
G37*
G36*
X154918228Y-50621703D02*
G01*
X155073100Y-50685853D01*
X155212481Y-50778985D01*
X155331015Y-50897519D01*
X155424147Y-51036900D01*
X155488297Y-51191772D01*
X155521000Y-51356184D01*
X155521000Y-51523816D01*
X155488297Y-51688228D01*
X155424147Y-51843100D01*
X155331015Y-51982481D01*
X155212481Y-52101015D01*
X155073100Y-52194147D01*
X154918228Y-52258297D01*
X154753816Y-52291000D01*
X154586184Y-52291000D01*
X154421772Y-52258297D01*
X154266900Y-52194147D01*
X154127519Y-52101015D01*
X154008985Y-51982481D01*
X153915853Y-51843100D01*
X153851703Y-51688228D01*
X153819000Y-51523816D01*
X153819000Y-51356184D01*
X153851703Y-51191772D01*
X153915853Y-51036900D01*
X154008985Y-50897519D01*
X154127519Y-50778985D01*
X154266900Y-50685853D01*
X154421772Y-50621703D01*
X154586184Y-50589000D01*
X154753816Y-50589000D01*
X154918228Y-50621703D01*
G37*
G36*
X124438228Y-50621703D02*
G01*
X124593100Y-50685853D01*
X124732481Y-50778985D01*
X124851015Y-50897519D01*
X124944147Y-51036900D01*
X125008297Y-51191772D01*
X125041000Y-51356184D01*
X125041000Y-51523816D01*
X125008297Y-51688228D01*
X124944147Y-51843100D01*
X124851015Y-51982481D01*
X124732481Y-52101015D01*
X124593100Y-52194147D01*
X124438228Y-52258297D01*
X124273816Y-52291000D01*
X124106184Y-52291000D01*
X123941772Y-52258297D01*
X123786900Y-52194147D01*
X123647519Y-52101015D01*
X123528985Y-51982481D01*
X123435853Y-51843100D01*
X123371703Y-51688228D01*
X123339000Y-51523816D01*
X123339000Y-51356184D01*
X123371703Y-51191772D01*
X123435853Y-51036900D01*
X123528985Y-50897519D01*
X123647519Y-50778985D01*
X123786900Y-50685853D01*
X123941772Y-50621703D01*
X124106184Y-50589000D01*
X124273816Y-50589000D01*
X124438228Y-50621703D01*
G37*
G36*
X129518228Y-50621703D02*
G01*
X129673100Y-50685853D01*
X129812481Y-50778985D01*
X129931015Y-50897519D01*
X130024147Y-51036900D01*
X130088297Y-51191772D01*
X130121000Y-51356184D01*
X130121000Y-51523816D01*
X130088297Y-51688228D01*
X130024147Y-51843100D01*
X129931015Y-51982481D01*
X129812481Y-52101015D01*
X129673100Y-52194147D01*
X129518228Y-52258297D01*
X129353816Y-52291000D01*
X129186184Y-52291000D01*
X129021772Y-52258297D01*
X128866900Y-52194147D01*
X128727519Y-52101015D01*
X128608985Y-51982481D01*
X128515853Y-51843100D01*
X128451703Y-51688228D01*
X128419000Y-51523816D01*
X128419000Y-51356184D01*
X128451703Y-51191772D01*
X128515853Y-51036900D01*
X128608985Y-50897519D01*
X128727519Y-50778985D01*
X128866900Y-50685853D01*
X129021772Y-50621703D01*
X129186184Y-50589000D01*
X129353816Y-50589000D01*
X129518228Y-50621703D01*
G37*
G36*
X174516564Y-50196054D02*
G01*
X174651574Y-50251977D01*
X174707835Y-50275281D01*
X174879973Y-50390300D01*
X175026365Y-50536692D01*
X175126031Y-50685852D01*
X175141385Y-50708832D01*
X175220611Y-50900101D01*
X175261000Y-51103149D01*
X175261000Y-51310181D01*
X175220611Y-51513229D01*
X175165820Y-51645507D01*
X175141384Y-51704500D01*
X175026365Y-51876638D01*
X174879973Y-52023030D01*
X174707835Y-52138049D01*
X174707834Y-52138050D01*
X174707833Y-52138050D01*
X174516564Y-52217276D01*
X174313516Y-52257665D01*
X174106484Y-52257665D01*
X173903436Y-52217276D01*
X173712167Y-52138050D01*
X173712166Y-52138050D01*
X173712165Y-52138049D01*
X173540027Y-52023030D01*
X173393635Y-51876638D01*
X173278616Y-51704500D01*
X173254180Y-51645507D01*
X173199389Y-51513229D01*
X173159000Y-51310181D01*
X173159000Y-51103149D01*
X173199389Y-50900101D01*
X173278615Y-50708832D01*
X173293970Y-50685852D01*
X173393635Y-50536692D01*
X173540027Y-50390300D01*
X173712165Y-50275281D01*
X173768426Y-50251977D01*
X173903436Y-50196054D01*
X174106484Y-50155665D01*
X174313516Y-50155665D01*
X174516564Y-50196054D01*
G37*
G36*
X181016564Y-50196054D02*
G01*
X181151574Y-50251977D01*
X181207835Y-50275281D01*
X181379973Y-50390300D01*
X181526365Y-50536692D01*
X181626031Y-50685852D01*
X181641385Y-50708832D01*
X181720611Y-50900101D01*
X181761000Y-51103149D01*
X181761000Y-51310181D01*
X181720611Y-51513229D01*
X181665820Y-51645507D01*
X181641384Y-51704500D01*
X181526365Y-51876638D01*
X181379973Y-52023030D01*
X181207835Y-52138049D01*
X181207834Y-52138050D01*
X181207833Y-52138050D01*
X181016564Y-52217276D01*
X180813516Y-52257665D01*
X180606484Y-52257665D01*
X180403436Y-52217276D01*
X180212167Y-52138050D01*
X180212166Y-52138050D01*
X180212165Y-52138049D01*
X180040027Y-52023030D01*
X179893635Y-51876638D01*
X179778616Y-51704500D01*
X179754180Y-51645507D01*
X179699389Y-51513229D01*
X179659000Y-51310181D01*
X179659000Y-51103149D01*
X179699389Y-50900101D01*
X179778615Y-50708832D01*
X179793970Y-50685852D01*
X179893635Y-50536692D01*
X180040027Y-50390300D01*
X180212165Y-50275281D01*
X180268426Y-50251977D01*
X180403436Y-50196054D01*
X180606484Y-50155665D01*
X180813516Y-50155665D01*
X181016564Y-50196054D01*
G37*
G36*
X192361779Y-49955546D02*
G01*
X192528225Y-50024490D01*
X192678023Y-50124582D01*
X192805418Y-50251977D01*
X192905510Y-50401775D01*
X192974454Y-50568221D01*
X193009601Y-50744917D01*
X193009601Y-50925081D01*
X192974454Y-51101777D01*
X192905510Y-51268223D01*
X192805418Y-51418021D01*
X192678023Y-51545416D01*
X192528225Y-51645508D01*
X192361779Y-51714452D01*
X192185083Y-51749599D01*
X192004919Y-51749599D01*
X191828223Y-51714452D01*
X191661777Y-51645508D01*
X191511979Y-51545416D01*
X191384584Y-51418021D01*
X191284492Y-51268223D01*
X191215548Y-51101777D01*
X191180401Y-50925081D01*
X191180401Y-50744917D01*
X191215548Y-50568221D01*
X191284492Y-50401775D01*
X191384584Y-50251977D01*
X191511979Y-50124582D01*
X191661777Y-50024490D01*
X191828223Y-49955546D01*
X192004919Y-49920399D01*
X192185083Y-49920399D01*
X192361779Y-49955546D01*
G37*
G36*
X189821779Y-49955546D02*
G01*
X189988225Y-50024490D01*
X190138023Y-50124582D01*
X190265418Y-50251977D01*
X190365510Y-50401775D01*
X190434454Y-50568221D01*
X190469601Y-50744917D01*
X190469601Y-50925081D01*
X190434454Y-51101777D01*
X190365510Y-51268223D01*
X190265418Y-51418021D01*
X190138023Y-51545416D01*
X189988225Y-51645508D01*
X189821779Y-51714452D01*
X189645083Y-51749599D01*
X189464919Y-51749599D01*
X189288223Y-51714452D01*
X189121777Y-51645508D01*
X188971979Y-51545416D01*
X188844584Y-51418021D01*
X188744492Y-51268223D01*
X188675548Y-51101777D01*
X188640401Y-50925081D01*
X188640401Y-50744917D01*
X188675548Y-50568221D01*
X188744492Y-50401775D01*
X188844584Y-50251977D01*
X188971979Y-50124582D01*
X189121777Y-50024490D01*
X189288223Y-49955546D01*
X189464919Y-49920399D01*
X189645083Y-49920399D01*
X189821779Y-49955546D01*
G37*
G36*
X192361779Y-47415546D02*
G01*
X192528225Y-47484490D01*
X192678023Y-47584582D01*
X192805418Y-47711977D01*
X192905510Y-47861775D01*
X192974454Y-48028221D01*
X193009601Y-48204917D01*
X193009601Y-48385081D01*
X192974454Y-48561777D01*
X192905510Y-48728223D01*
X192805418Y-48878021D01*
X192678023Y-49005416D01*
X192528225Y-49105508D01*
X192361779Y-49174452D01*
X192185083Y-49209599D01*
X192004919Y-49209599D01*
X191828223Y-49174452D01*
X191661777Y-49105508D01*
X191511979Y-49005416D01*
X191384584Y-48878021D01*
X191284492Y-48728223D01*
X191215548Y-48561777D01*
X191180401Y-48385081D01*
X191180401Y-48204917D01*
X191215548Y-48028221D01*
X191284492Y-47861775D01*
X191384584Y-47711977D01*
X191511979Y-47584582D01*
X191661777Y-47484490D01*
X191828223Y-47415546D01*
X192004919Y-47380399D01*
X192185083Y-47380399D01*
X192361779Y-47415546D01*
G37*
G36*
X189821779Y-47415546D02*
G01*
X189988225Y-47484490D01*
X190138023Y-47584582D01*
X190265418Y-47711977D01*
X190365510Y-47861775D01*
X190434454Y-48028221D01*
X190469601Y-48204917D01*
X190469601Y-48385081D01*
X190434454Y-48561777D01*
X190365510Y-48728223D01*
X190265418Y-48878021D01*
X190138023Y-49005416D01*
X189988225Y-49105508D01*
X189821779Y-49174452D01*
X189645083Y-49209599D01*
X189464919Y-49209599D01*
X189288223Y-49174452D01*
X189121777Y-49105508D01*
X188971979Y-49005416D01*
X188844584Y-48878021D01*
X188744492Y-48728223D01*
X188675548Y-48561777D01*
X188640401Y-48385081D01*
X188640401Y-48204917D01*
X188675548Y-48028221D01*
X188744492Y-47861775D01*
X188844584Y-47711977D01*
X188971979Y-47584582D01*
X189121777Y-47484490D01*
X189288223Y-47415546D01*
X189464919Y-47380399D01*
X189645083Y-47380399D01*
X189821779Y-47415546D01*
G37*
G36*
X181016564Y-45696054D02*
G01*
X181207833Y-45775280D01*
X181207835Y-45775281D01*
X181379973Y-45890300D01*
X181526365Y-46036692D01*
X181627616Y-46188224D01*
X181641385Y-46208832D01*
X181720611Y-46400101D01*
X181761000Y-46603149D01*
X181761000Y-46810181D01*
X181720611Y-47013229D01*
X181641385Y-47204498D01*
X181641384Y-47204500D01*
X181526365Y-47376638D01*
X181379973Y-47523030D01*
X181207835Y-47638049D01*
X181207834Y-47638050D01*
X181207833Y-47638050D01*
X181016564Y-47717276D01*
X180813516Y-47757665D01*
X180606484Y-47757665D01*
X180403436Y-47717276D01*
X180212167Y-47638050D01*
X180212166Y-47638050D01*
X180212165Y-47638049D01*
X180040027Y-47523030D01*
X179893635Y-47376638D01*
X179778616Y-47204500D01*
X179778615Y-47204498D01*
X179699389Y-47013229D01*
X179659000Y-46810181D01*
X179659000Y-46603149D01*
X179699389Y-46400101D01*
X179778615Y-46208832D01*
X179792385Y-46188224D01*
X179893635Y-46036692D01*
X180040027Y-45890300D01*
X180212165Y-45775281D01*
X180212167Y-45775280D01*
X180403436Y-45696054D01*
X180606484Y-45655665D01*
X180813516Y-45655665D01*
X181016564Y-45696054D01*
G37*
G36*
X174516564Y-45696054D02*
G01*
X174707833Y-45775280D01*
X174707835Y-45775281D01*
X174879973Y-45890300D01*
X175026365Y-46036692D01*
X175127616Y-46188224D01*
X175141385Y-46208832D01*
X175220611Y-46400101D01*
X175261000Y-46603149D01*
X175261000Y-46810181D01*
X175220611Y-47013229D01*
X175141385Y-47204498D01*
X175141384Y-47204500D01*
X175026365Y-47376638D01*
X174879973Y-47523030D01*
X174707835Y-47638049D01*
X174707834Y-47638050D01*
X174707833Y-47638050D01*
X174516564Y-47717276D01*
X174313516Y-47757665D01*
X174106484Y-47757665D01*
X173903436Y-47717276D01*
X173712167Y-47638050D01*
X173712166Y-47638050D01*
X173712165Y-47638049D01*
X173540027Y-47523030D01*
X173393635Y-47376638D01*
X173278616Y-47204500D01*
X173278615Y-47204498D01*
X173199389Y-47013229D01*
X173159000Y-46810181D01*
X173159000Y-46603149D01*
X173199389Y-46400101D01*
X173278615Y-46208832D01*
X173292385Y-46188224D01*
X173393635Y-46036692D01*
X173540027Y-45890300D01*
X173712165Y-45775281D01*
X173712167Y-45775280D01*
X173903436Y-45696054D01*
X174106484Y-45655665D01*
X174313516Y-45655665D01*
X174516564Y-45696054D01*
G37*
G36*
X189821779Y-44875546D02*
G01*
X189988225Y-44944490D01*
X190138023Y-45044582D01*
X190265418Y-45171977D01*
X190365510Y-45321775D01*
X190434454Y-45488221D01*
X190469601Y-45664917D01*
X190469601Y-45845081D01*
X190434454Y-46021777D01*
X190365510Y-46188223D01*
X190265418Y-46338021D01*
X190138023Y-46465416D01*
X189988225Y-46565508D01*
X189821779Y-46634452D01*
X189645083Y-46669599D01*
X189464919Y-46669599D01*
X189288223Y-46634452D01*
X189121777Y-46565508D01*
X188971979Y-46465416D01*
X188844584Y-46338021D01*
X188744492Y-46188223D01*
X188675548Y-46021777D01*
X188640401Y-45845081D01*
X188640401Y-45664917D01*
X188675548Y-45488221D01*
X188744492Y-45321775D01*
X188844584Y-45171977D01*
X188971979Y-45044582D01*
X189121777Y-44944490D01*
X189288223Y-44875546D01*
X189464919Y-44840399D01*
X189645083Y-44840399D01*
X189821779Y-44875546D01*
G37*
G36*
X192361779Y-44875546D02*
G01*
X192528225Y-44944490D01*
X192678023Y-45044582D01*
X192805418Y-45171977D01*
X192905510Y-45321775D01*
X192974454Y-45488221D01*
X193009601Y-45664917D01*
X193009601Y-45845081D01*
X192974454Y-46021777D01*
X192905510Y-46188223D01*
X192805418Y-46338021D01*
X192678023Y-46465416D01*
X192528225Y-46565508D01*
X192361779Y-46634452D01*
X192185083Y-46669599D01*
X192004919Y-46669599D01*
X191828223Y-46634452D01*
X191661777Y-46565508D01*
X191511979Y-46465416D01*
X191384584Y-46338021D01*
X191284492Y-46188223D01*
X191215548Y-46021777D01*
X191180401Y-45845081D01*
X191180401Y-45664917D01*
X191215548Y-45488221D01*
X191284492Y-45321775D01*
X191384584Y-45171977D01*
X191511979Y-45044582D01*
X191661777Y-44944490D01*
X191828223Y-44875546D01*
X192004919Y-44840399D01*
X192185083Y-44840399D01*
X192361779Y-44875546D01*
G37*
G36*
X189821779Y-42335546D02*
G01*
X189988225Y-42404490D01*
X190138023Y-42504582D01*
X190265418Y-42631977D01*
X190365510Y-42781775D01*
X190434454Y-42948221D01*
X190469601Y-43124917D01*
X190469601Y-43305081D01*
X190434454Y-43481777D01*
X190365510Y-43648223D01*
X190265418Y-43798021D01*
X190138023Y-43925416D01*
X189988225Y-44025508D01*
X189821779Y-44094452D01*
X189645083Y-44129599D01*
X189464919Y-44129599D01*
X189288223Y-44094452D01*
X189121777Y-44025508D01*
X188971979Y-43925416D01*
X188844584Y-43798021D01*
X188744492Y-43648223D01*
X188675548Y-43481777D01*
X188640401Y-43305081D01*
X188640401Y-43124917D01*
X188675548Y-42948221D01*
X188744492Y-42781775D01*
X188844584Y-42631977D01*
X188971979Y-42504582D01*
X189121777Y-42404490D01*
X189288223Y-42335546D01*
X189464919Y-42300399D01*
X189645083Y-42300399D01*
X189821779Y-42335546D01*
G37*
G36*
X192361779Y-42335546D02*
G01*
X192528225Y-42404490D01*
X192678023Y-42504582D01*
X192805418Y-42631977D01*
X192905510Y-42781775D01*
X192974454Y-42948221D01*
X193009601Y-43124917D01*
X193009601Y-43305081D01*
X192974454Y-43481777D01*
X192905510Y-43648223D01*
X192805418Y-43798021D01*
X192678023Y-43925416D01*
X192528225Y-44025508D01*
X192361779Y-44094452D01*
X192185083Y-44129599D01*
X192004919Y-44129599D01*
X191828223Y-44094452D01*
X191661777Y-44025508D01*
X191511979Y-43925416D01*
X191384584Y-43798021D01*
X191284492Y-43648223D01*
X191215548Y-43481777D01*
X191180401Y-43305081D01*
X191180401Y-43124917D01*
X191215548Y-42948221D01*
X191284492Y-42781775D01*
X191384584Y-42631977D01*
X191511979Y-42504582D01*
X191661777Y-42404490D01*
X191828223Y-42335546D01*
X192004919Y-42300399D01*
X192185083Y-42300399D01*
X192361779Y-42335546D01*
G37*
G36*
X181016564Y-39927722D02*
G01*
X181207833Y-40006948D01*
X181207835Y-40006949D01*
X181379973Y-40121968D01*
X181526365Y-40268360D01*
X181619817Y-40408220D01*
X181641385Y-40440500D01*
X181720611Y-40631769D01*
X181761000Y-40834817D01*
X181761000Y-41041849D01*
X181720611Y-41244897D01*
X181662406Y-41385416D01*
X181641384Y-41436168D01*
X181526365Y-41608306D01*
X181379973Y-41754698D01*
X181207835Y-41869717D01*
X181207834Y-41869718D01*
X181207833Y-41869718D01*
X181016564Y-41948944D01*
X180813516Y-41989333D01*
X180606484Y-41989333D01*
X180403436Y-41948944D01*
X180212167Y-41869718D01*
X180212166Y-41869718D01*
X180212165Y-41869717D01*
X180040027Y-41754698D01*
X179893635Y-41608306D01*
X179778616Y-41436168D01*
X179757594Y-41385416D01*
X179699389Y-41244897D01*
X179659000Y-41041849D01*
X179659000Y-40834817D01*
X179699389Y-40631769D01*
X179778615Y-40440500D01*
X179800184Y-40408220D01*
X179893635Y-40268360D01*
X180040027Y-40121968D01*
X180212165Y-40006949D01*
X180212167Y-40006948D01*
X180403436Y-39927722D01*
X180606484Y-39887333D01*
X180813516Y-39887333D01*
X181016564Y-39927722D01*
G37*
G36*
X174516564Y-39927722D02*
G01*
X174707833Y-40006948D01*
X174707835Y-40006949D01*
X174879973Y-40121968D01*
X175026365Y-40268360D01*
X175119817Y-40408220D01*
X175141385Y-40440500D01*
X175220611Y-40631769D01*
X175261000Y-40834817D01*
X175261000Y-41041849D01*
X175220611Y-41244897D01*
X175162406Y-41385416D01*
X175141384Y-41436168D01*
X175026365Y-41608306D01*
X174879973Y-41754698D01*
X174707835Y-41869717D01*
X174707834Y-41869718D01*
X174707833Y-41869718D01*
X174516564Y-41948944D01*
X174313516Y-41989333D01*
X174106484Y-41989333D01*
X173903436Y-41948944D01*
X173712167Y-41869718D01*
X173712166Y-41869718D01*
X173712165Y-41869717D01*
X173540027Y-41754698D01*
X173393635Y-41608306D01*
X173278616Y-41436168D01*
X173257594Y-41385416D01*
X173199389Y-41244897D01*
X173159000Y-41041849D01*
X173159000Y-40834817D01*
X173199389Y-40631769D01*
X173278615Y-40440500D01*
X173300184Y-40408220D01*
X173393635Y-40268360D01*
X173540027Y-40121968D01*
X173712165Y-40006949D01*
X173712167Y-40006948D01*
X173903436Y-39927722D01*
X174106484Y-39887333D01*
X174313516Y-39887333D01*
X174516564Y-39927722D01*
G37*
G36*
X189821779Y-39795546D02*
G01*
X189988225Y-39864490D01*
X190138023Y-39964582D01*
X190265418Y-40091977D01*
X190365510Y-40241775D01*
X190434454Y-40408221D01*
X190469601Y-40584917D01*
X190469601Y-40765081D01*
X190434454Y-40941777D01*
X190365510Y-41108223D01*
X190265418Y-41258021D01*
X190138023Y-41385416D01*
X189988225Y-41485508D01*
X189821779Y-41554452D01*
X189645083Y-41589599D01*
X189464919Y-41589599D01*
X189288223Y-41554452D01*
X189121777Y-41485508D01*
X188971979Y-41385416D01*
X188844584Y-41258021D01*
X188744492Y-41108223D01*
X188675548Y-40941777D01*
X188640401Y-40765081D01*
X188640401Y-40584917D01*
X188675548Y-40408221D01*
X188744492Y-40241775D01*
X188844584Y-40091977D01*
X188971979Y-39964582D01*
X189121777Y-39864490D01*
X189288223Y-39795546D01*
X189464919Y-39760399D01*
X189645083Y-39760399D01*
X189821779Y-39795546D01*
G37*
G36*
X192361779Y-39795546D02*
G01*
X192528225Y-39864490D01*
X192678023Y-39964582D01*
X192805418Y-40091977D01*
X192905510Y-40241775D01*
X192974454Y-40408221D01*
X193009601Y-40584917D01*
X193009601Y-40765081D01*
X192974454Y-40941777D01*
X192905510Y-41108223D01*
X192805418Y-41258021D01*
X192678023Y-41385416D01*
X192528225Y-41485508D01*
X192361779Y-41554452D01*
X192185083Y-41589599D01*
X192004919Y-41589599D01*
X191828223Y-41554452D01*
X191661777Y-41485508D01*
X191511979Y-41385416D01*
X191384584Y-41258021D01*
X191284492Y-41108223D01*
X191215548Y-40941777D01*
X191180401Y-40765081D01*
X191180401Y-40584917D01*
X191215548Y-40408221D01*
X191284492Y-40241775D01*
X191384584Y-40091977D01*
X191511979Y-39964582D01*
X191661777Y-39864490D01*
X191828223Y-39795546D01*
X192004919Y-39760399D01*
X192185083Y-39760399D01*
X192361779Y-39795546D01*
G37*
G36*
X192361779Y-37255546D02*
G01*
X192528225Y-37324490D01*
X192678023Y-37424582D01*
X192805418Y-37551977D01*
X192905510Y-37701775D01*
X192974454Y-37868221D01*
X193009601Y-38044917D01*
X193009601Y-38225081D01*
X192974454Y-38401777D01*
X192905510Y-38568223D01*
X192805418Y-38718021D01*
X192678023Y-38845416D01*
X192528225Y-38945508D01*
X192361779Y-39014452D01*
X192185083Y-39049599D01*
X192004919Y-39049599D01*
X191828223Y-39014452D01*
X191661777Y-38945508D01*
X191511979Y-38845416D01*
X191384584Y-38718021D01*
X191284492Y-38568223D01*
X191215548Y-38401777D01*
X191180401Y-38225081D01*
X191180401Y-38044917D01*
X191215548Y-37868221D01*
X191284492Y-37701775D01*
X191384584Y-37551977D01*
X191511979Y-37424582D01*
X191661777Y-37324490D01*
X191828223Y-37255546D01*
X192004919Y-37220399D01*
X192185083Y-37220399D01*
X192361779Y-37255546D01*
G37*
G36*
X189821779Y-37255546D02*
G01*
X189988225Y-37324490D01*
X190138023Y-37424582D01*
X190265418Y-37551977D01*
X190365510Y-37701775D01*
X190434454Y-37868221D01*
X190469601Y-38044917D01*
X190469601Y-38225081D01*
X190434454Y-38401777D01*
X190365510Y-38568223D01*
X190265418Y-38718021D01*
X190138023Y-38845416D01*
X189988225Y-38945508D01*
X189821779Y-39014452D01*
X189645083Y-39049599D01*
X189464919Y-39049599D01*
X189288223Y-39014452D01*
X189121777Y-38945508D01*
X188971979Y-38845416D01*
X188844584Y-38718021D01*
X188744492Y-38568223D01*
X188675548Y-38401777D01*
X188640401Y-38225081D01*
X188640401Y-38044917D01*
X188675548Y-37868221D01*
X188744492Y-37701775D01*
X188844584Y-37551977D01*
X188971979Y-37424582D01*
X189121777Y-37324490D01*
X189288223Y-37255546D01*
X189464919Y-37220399D01*
X189645083Y-37220399D01*
X189821779Y-37255546D01*
G37*
G36*
X181016564Y-35427722D02*
G01*
X181207833Y-35506948D01*
X181207835Y-35506949D01*
X181255780Y-35538985D01*
X181379973Y-35621968D01*
X181526365Y-35768360D01*
X181641385Y-35940500D01*
X181720611Y-36131769D01*
X181761000Y-36334817D01*
X181761000Y-36541849D01*
X181720611Y-36744897D01*
X181672513Y-36861015D01*
X181641384Y-36936168D01*
X181526365Y-37108306D01*
X181379973Y-37254698D01*
X181207835Y-37369717D01*
X181207834Y-37369718D01*
X181207833Y-37369718D01*
X181016564Y-37448944D01*
X180813516Y-37489333D01*
X180606484Y-37489333D01*
X180403436Y-37448944D01*
X180212167Y-37369718D01*
X180212166Y-37369718D01*
X180212165Y-37369717D01*
X180040027Y-37254698D01*
X179893635Y-37108306D01*
X179778616Y-36936168D01*
X179747487Y-36861015D01*
X179699389Y-36744897D01*
X179659000Y-36541849D01*
X179659000Y-36334817D01*
X179699389Y-36131769D01*
X179778615Y-35940500D01*
X179893635Y-35768360D01*
X180040027Y-35621968D01*
X180164220Y-35538985D01*
X180212165Y-35506949D01*
X180212167Y-35506948D01*
X180403436Y-35427722D01*
X180606484Y-35387333D01*
X180813516Y-35387333D01*
X181016564Y-35427722D01*
G37*
G36*
X174516564Y-35427722D02*
G01*
X174707833Y-35506948D01*
X174707835Y-35506949D01*
X174755780Y-35538985D01*
X174879973Y-35621968D01*
X175026365Y-35768360D01*
X175141385Y-35940500D01*
X175220611Y-36131769D01*
X175261000Y-36334817D01*
X175261000Y-36541849D01*
X175220611Y-36744897D01*
X175172513Y-36861015D01*
X175141384Y-36936168D01*
X175026365Y-37108306D01*
X174879973Y-37254698D01*
X174707835Y-37369717D01*
X174707834Y-37369718D01*
X174707833Y-37369718D01*
X174516564Y-37448944D01*
X174313516Y-37489333D01*
X174106484Y-37489333D01*
X173903436Y-37448944D01*
X173712167Y-37369718D01*
X173712166Y-37369718D01*
X173712165Y-37369717D01*
X173540027Y-37254698D01*
X173393635Y-37108306D01*
X173278616Y-36936168D01*
X173247487Y-36861015D01*
X173199389Y-36744897D01*
X173159000Y-36541849D01*
X173159000Y-36334817D01*
X173199389Y-36131769D01*
X173278615Y-35940500D01*
X173393635Y-35768360D01*
X173540027Y-35621968D01*
X173664220Y-35538985D01*
X173712165Y-35506949D01*
X173712167Y-35506948D01*
X173903436Y-35427722D01*
X174106484Y-35387333D01*
X174313516Y-35387333D01*
X174516564Y-35427722D01*
G37*
G36*
X139678228Y-35381703D02*
G01*
X139833100Y-35445853D01*
X139972481Y-35538985D01*
X140091015Y-35657519D01*
X140184147Y-35796900D01*
X140248297Y-35951772D01*
X140281000Y-36116184D01*
X140281000Y-36283816D01*
X140248297Y-36448228D01*
X140184147Y-36603100D01*
X140091015Y-36742481D01*
X139972481Y-36861015D01*
X139833100Y-36954147D01*
X139678228Y-37018297D01*
X139513816Y-37051000D01*
X139346184Y-37051000D01*
X139181772Y-37018297D01*
X139026900Y-36954147D01*
X138887519Y-36861015D01*
X138768985Y-36742481D01*
X138675853Y-36603100D01*
X138611703Y-36448228D01*
X138579000Y-36283816D01*
X138579000Y-36116184D01*
X138611703Y-35951772D01*
X138675853Y-35796900D01*
X138768985Y-35657519D01*
X138887519Y-35538985D01*
X139026900Y-35445853D01*
X139181772Y-35381703D01*
X139346184Y-35349000D01*
X139513816Y-35349000D01*
X139678228Y-35381703D01*
G37*
G36*
X137138228Y-35381703D02*
G01*
X137293100Y-35445853D01*
X137432481Y-35538985D01*
X137551015Y-35657519D01*
X137644147Y-35796900D01*
X137708297Y-35951772D01*
X137741000Y-36116184D01*
X137741000Y-36283816D01*
X137708297Y-36448228D01*
X137644147Y-36603100D01*
X137551015Y-36742481D01*
X137432481Y-36861015D01*
X137293100Y-36954147D01*
X137138228Y-37018297D01*
X136973816Y-37051000D01*
X136806184Y-37051000D01*
X136641772Y-37018297D01*
X136486900Y-36954147D01*
X136347519Y-36861015D01*
X136228985Y-36742481D01*
X136135853Y-36603100D01*
X136071703Y-36448228D01*
X136039000Y-36283816D01*
X136039000Y-36116184D01*
X136071703Y-35951772D01*
X136135853Y-35796900D01*
X136228985Y-35657519D01*
X136347519Y-35538985D01*
X136486900Y-35445853D01*
X136641772Y-35381703D01*
X136806184Y-35349000D01*
X136973816Y-35349000D01*
X137138228Y-35381703D01*
G37*
G36*
X134598228Y-35381703D02*
G01*
X134753100Y-35445853D01*
X134892481Y-35538985D01*
X135011015Y-35657519D01*
X135104147Y-35796900D01*
X135168297Y-35951772D01*
X135201000Y-36116184D01*
X135201000Y-36283816D01*
X135168297Y-36448228D01*
X135104147Y-36603100D01*
X135011015Y-36742481D01*
X134892481Y-36861015D01*
X134753100Y-36954147D01*
X134598228Y-37018297D01*
X134433816Y-37051000D01*
X134266184Y-37051000D01*
X134101772Y-37018297D01*
X133946900Y-36954147D01*
X133807519Y-36861015D01*
X133688985Y-36742481D01*
X133595853Y-36603100D01*
X133531703Y-36448228D01*
X133499000Y-36283816D01*
X133499000Y-36116184D01*
X133531703Y-35951772D01*
X133595853Y-35796900D01*
X133688985Y-35657519D01*
X133807519Y-35538985D01*
X133946900Y-35445853D01*
X134101772Y-35381703D01*
X134266184Y-35349000D01*
X134433816Y-35349000D01*
X134598228Y-35381703D01*
G37*
G36*
X132058228Y-35381703D02*
G01*
X132213100Y-35445853D01*
X132352481Y-35538985D01*
X132471015Y-35657519D01*
X132564147Y-35796900D01*
X132628297Y-35951772D01*
X132661000Y-36116184D01*
X132661000Y-36283816D01*
X132628297Y-36448228D01*
X132564147Y-36603100D01*
X132471015Y-36742481D01*
X132352481Y-36861015D01*
X132213100Y-36954147D01*
X132058228Y-37018297D01*
X131893816Y-37051000D01*
X131726184Y-37051000D01*
X131561772Y-37018297D01*
X131406900Y-36954147D01*
X131267519Y-36861015D01*
X131148985Y-36742481D01*
X131055853Y-36603100D01*
X130991703Y-36448228D01*
X130959000Y-36283816D01*
X130959000Y-36116184D01*
X130991703Y-35951772D01*
X131055853Y-35796900D01*
X131148985Y-35657519D01*
X131267519Y-35538985D01*
X131406900Y-35445853D01*
X131561772Y-35381703D01*
X131726184Y-35349000D01*
X131893816Y-35349000D01*
X132058228Y-35381703D01*
G37*
G36*
X129518228Y-35381703D02*
G01*
X129673100Y-35445853D01*
X129812481Y-35538985D01*
X129931015Y-35657519D01*
X130024147Y-35796900D01*
X130088297Y-35951772D01*
X130121000Y-36116184D01*
X130121000Y-36283816D01*
X130088297Y-36448228D01*
X130024147Y-36603100D01*
X129931015Y-36742481D01*
X129812481Y-36861015D01*
X129673100Y-36954147D01*
X129518228Y-37018297D01*
X129353816Y-37051000D01*
X129186184Y-37051000D01*
X129021772Y-37018297D01*
X128866900Y-36954147D01*
X128727519Y-36861015D01*
X128608985Y-36742481D01*
X128515853Y-36603100D01*
X128451703Y-36448228D01*
X128419000Y-36283816D01*
X128419000Y-36116184D01*
X128451703Y-35951772D01*
X128515853Y-35796900D01*
X128608985Y-35657519D01*
X128727519Y-35538985D01*
X128866900Y-35445853D01*
X129021772Y-35381703D01*
X129186184Y-35349000D01*
X129353816Y-35349000D01*
X129518228Y-35381703D01*
G37*
G36*
X152378228Y-35381703D02*
G01*
X152533100Y-35445853D01*
X152672481Y-35538985D01*
X152791015Y-35657519D01*
X152884147Y-35796900D01*
X152948297Y-35951772D01*
X152981000Y-36116184D01*
X152981000Y-36283816D01*
X152948297Y-36448228D01*
X152884147Y-36603100D01*
X152791015Y-36742481D01*
X152672481Y-36861015D01*
X152533100Y-36954147D01*
X152378228Y-37018297D01*
X152213816Y-37051000D01*
X152046184Y-37051000D01*
X151881772Y-37018297D01*
X151726900Y-36954147D01*
X151587519Y-36861015D01*
X151468985Y-36742481D01*
X151375853Y-36603100D01*
X151311703Y-36448228D01*
X151279000Y-36283816D01*
X151279000Y-36116184D01*
X151311703Y-35951772D01*
X151375853Y-35796900D01*
X151468985Y-35657519D01*
X151587519Y-35538985D01*
X151726900Y-35445853D01*
X151881772Y-35381703D01*
X152046184Y-35349000D01*
X152213816Y-35349000D01*
X152378228Y-35381703D01*
G37*
G36*
X126978228Y-35381703D02*
G01*
X127133100Y-35445853D01*
X127272481Y-35538985D01*
X127391015Y-35657519D01*
X127484147Y-35796900D01*
X127548297Y-35951772D01*
X127581000Y-36116184D01*
X127581000Y-36283816D01*
X127548297Y-36448228D01*
X127484147Y-36603100D01*
X127391015Y-36742481D01*
X127272481Y-36861015D01*
X127133100Y-36954147D01*
X126978228Y-37018297D01*
X126813816Y-37051000D01*
X126646184Y-37051000D01*
X126481772Y-37018297D01*
X126326900Y-36954147D01*
X126187519Y-36861015D01*
X126068985Y-36742481D01*
X125975853Y-36603100D01*
X125911703Y-36448228D01*
X125879000Y-36283816D01*
X125879000Y-36116184D01*
X125911703Y-35951772D01*
X125975853Y-35796900D01*
X126068985Y-35657519D01*
X126187519Y-35538985D01*
X126326900Y-35445853D01*
X126481772Y-35381703D01*
X126646184Y-35349000D01*
X126813816Y-35349000D01*
X126978228Y-35381703D01*
G37*
G36*
X124438228Y-35381703D02*
G01*
X124593100Y-35445853D01*
X124732481Y-35538985D01*
X124851015Y-35657519D01*
X124944147Y-35796900D01*
X125008297Y-35951772D01*
X125041000Y-36116184D01*
X125041000Y-36283816D01*
X125008297Y-36448228D01*
X124944147Y-36603100D01*
X124851015Y-36742481D01*
X124732481Y-36861015D01*
X124593100Y-36954147D01*
X124438228Y-37018297D01*
X124273816Y-37051000D01*
X124106184Y-37051000D01*
X123941772Y-37018297D01*
X123786900Y-36954147D01*
X123647519Y-36861015D01*
X123528985Y-36742481D01*
X123435853Y-36603100D01*
X123371703Y-36448228D01*
X123339000Y-36283816D01*
X123339000Y-36116184D01*
X123371703Y-35951772D01*
X123435853Y-35796900D01*
X123528985Y-35657519D01*
X123647519Y-35538985D01*
X123786900Y-35445853D01*
X123941772Y-35381703D01*
X124106184Y-35349000D01*
X124273816Y-35349000D01*
X124438228Y-35381703D01*
G37*
G36*
X121898228Y-35381703D02*
G01*
X122053100Y-35445853D01*
X122192481Y-35538985D01*
X122311015Y-35657519D01*
X122404147Y-35796900D01*
X122468297Y-35951772D01*
X122501000Y-36116184D01*
X122501000Y-36283816D01*
X122468297Y-36448228D01*
X122404147Y-36603100D01*
X122311015Y-36742481D01*
X122192481Y-36861015D01*
X122053100Y-36954147D01*
X121898228Y-37018297D01*
X121733816Y-37051000D01*
X121566184Y-37051000D01*
X121401772Y-37018297D01*
X121246900Y-36954147D01*
X121107519Y-36861015D01*
X120988985Y-36742481D01*
X120895853Y-36603100D01*
X120831703Y-36448228D01*
X120799000Y-36283816D01*
X120799000Y-36116184D01*
X120831703Y-35951772D01*
X120895853Y-35796900D01*
X120988985Y-35657519D01*
X121107519Y-35538985D01*
X121246900Y-35445853D01*
X121401772Y-35381703D01*
X121566184Y-35349000D01*
X121733816Y-35349000D01*
X121898228Y-35381703D01*
G37*
G36*
X144758228Y-35381703D02*
G01*
X144913100Y-35445853D01*
X145052481Y-35538985D01*
X145171015Y-35657519D01*
X145264147Y-35796900D01*
X145328297Y-35951772D01*
X145361000Y-36116184D01*
X145361000Y-36283816D01*
X145328297Y-36448228D01*
X145264147Y-36603100D01*
X145171015Y-36742481D01*
X145052481Y-36861015D01*
X144913100Y-36954147D01*
X144758228Y-37018297D01*
X144593816Y-37051000D01*
X144426184Y-37051000D01*
X144261772Y-37018297D01*
X144106900Y-36954147D01*
X143967519Y-36861015D01*
X143848985Y-36742481D01*
X143755853Y-36603100D01*
X143691703Y-36448228D01*
X143659000Y-36283816D01*
X143659000Y-36116184D01*
X143691703Y-35951772D01*
X143755853Y-35796900D01*
X143848985Y-35657519D01*
X143967519Y-35538985D01*
X144106900Y-35445853D01*
X144261772Y-35381703D01*
X144426184Y-35349000D01*
X144593816Y-35349000D01*
X144758228Y-35381703D01*
G37*
G36*
X119358228Y-35381703D02*
G01*
X119513100Y-35445853D01*
X119652481Y-35538985D01*
X119771015Y-35657519D01*
X119864147Y-35796900D01*
X119928297Y-35951772D01*
X119961000Y-36116184D01*
X119961000Y-36283816D01*
X119928297Y-36448228D01*
X119864147Y-36603100D01*
X119771015Y-36742481D01*
X119652481Y-36861015D01*
X119513100Y-36954147D01*
X119358228Y-37018297D01*
X119193816Y-37051000D01*
X119026184Y-37051000D01*
X118861772Y-37018297D01*
X118706900Y-36954147D01*
X118567519Y-36861015D01*
X118448985Y-36742481D01*
X118355853Y-36603100D01*
X118291703Y-36448228D01*
X118259000Y-36283816D01*
X118259000Y-36116184D01*
X118291703Y-35951772D01*
X118355853Y-35796900D01*
X118448985Y-35657519D01*
X118567519Y-35538985D01*
X118706900Y-35445853D01*
X118861772Y-35381703D01*
X119026184Y-35349000D01*
X119193816Y-35349000D01*
X119358228Y-35381703D01*
G37*
G36*
X142218228Y-35381703D02*
G01*
X142373100Y-35445853D01*
X142512481Y-35538985D01*
X142631015Y-35657519D01*
X142724147Y-35796900D01*
X142788297Y-35951772D01*
X142821000Y-36116184D01*
X142821000Y-36283816D01*
X142788297Y-36448228D01*
X142724147Y-36603100D01*
X142631015Y-36742481D01*
X142512481Y-36861015D01*
X142373100Y-36954147D01*
X142218228Y-37018297D01*
X142053816Y-37051000D01*
X141886184Y-37051000D01*
X141721772Y-37018297D01*
X141566900Y-36954147D01*
X141427519Y-36861015D01*
X141308985Y-36742481D01*
X141215853Y-36603100D01*
X141151703Y-36448228D01*
X141119000Y-36283816D01*
X141119000Y-36116184D01*
X141151703Y-35951772D01*
X141215853Y-35796900D01*
X141308985Y-35657519D01*
X141427519Y-35538985D01*
X141566900Y-35445853D01*
X141721772Y-35381703D01*
X141886184Y-35349000D01*
X142053816Y-35349000D01*
X142218228Y-35381703D01*
G37*
G36*
X114881000Y-37051000D02*
G01*
X113179000Y-37051000D01*
X113179000Y-35349000D01*
X114881000Y-35349000D01*
X114881000Y-37051000D01*
G37*
G36*
X147298228Y-35381703D02*
G01*
X147453100Y-35445853D01*
X147592481Y-35538985D01*
X147711015Y-35657519D01*
X147804147Y-35796900D01*
X147868297Y-35951772D01*
X147901000Y-36116184D01*
X147901000Y-36283816D01*
X147868297Y-36448228D01*
X147804147Y-36603100D01*
X147711015Y-36742481D01*
X147592481Y-36861015D01*
X147453100Y-36954147D01*
X147298228Y-37018297D01*
X147133816Y-37051000D01*
X146966184Y-37051000D01*
X146801772Y-37018297D01*
X146646900Y-36954147D01*
X146507519Y-36861015D01*
X146388985Y-36742481D01*
X146295853Y-36603100D01*
X146231703Y-36448228D01*
X146199000Y-36283816D01*
X146199000Y-36116184D01*
X146231703Y-35951772D01*
X146295853Y-35796900D01*
X146388985Y-35657519D01*
X146507519Y-35538985D01*
X146646900Y-35445853D01*
X146801772Y-35381703D01*
X146966184Y-35349000D01*
X147133816Y-35349000D01*
X147298228Y-35381703D01*
G37*
G36*
X149838228Y-35381703D02*
G01*
X149993100Y-35445853D01*
X150132481Y-35538985D01*
X150251015Y-35657519D01*
X150344147Y-35796900D01*
X150408297Y-35951772D01*
X150441000Y-36116184D01*
X150441000Y-36283816D01*
X150408297Y-36448228D01*
X150344147Y-36603100D01*
X150251015Y-36742481D01*
X150132481Y-36861015D01*
X149993100Y-36954147D01*
X149838228Y-37018297D01*
X149673816Y-37051000D01*
X149506184Y-37051000D01*
X149341772Y-37018297D01*
X149186900Y-36954147D01*
X149047519Y-36861015D01*
X148928985Y-36742481D01*
X148835853Y-36603100D01*
X148771703Y-36448228D01*
X148739000Y-36283816D01*
X148739000Y-36116184D01*
X148771703Y-35951772D01*
X148835853Y-35796900D01*
X148928985Y-35657519D01*
X149047519Y-35538985D01*
X149186900Y-35445853D01*
X149341772Y-35381703D01*
X149506184Y-35349000D01*
X149673816Y-35349000D01*
X149838228Y-35381703D01*
G37*
G36*
X157458228Y-35381703D02*
G01*
X157613100Y-35445853D01*
X157752481Y-35538985D01*
X157871015Y-35657519D01*
X157964147Y-35796900D01*
X158028297Y-35951772D01*
X158061000Y-36116184D01*
X158061000Y-36283816D01*
X158028297Y-36448228D01*
X157964147Y-36603100D01*
X157871015Y-36742481D01*
X157752481Y-36861015D01*
X157613100Y-36954147D01*
X157458228Y-37018297D01*
X157293816Y-37051000D01*
X157126184Y-37051000D01*
X156961772Y-37018297D01*
X156806900Y-36954147D01*
X156667519Y-36861015D01*
X156548985Y-36742481D01*
X156455853Y-36603100D01*
X156391703Y-36448228D01*
X156359000Y-36283816D01*
X156359000Y-36116184D01*
X156391703Y-35951772D01*
X156455853Y-35796900D01*
X156548985Y-35657519D01*
X156667519Y-35538985D01*
X156806900Y-35445853D01*
X156961772Y-35381703D01*
X157126184Y-35349000D01*
X157293816Y-35349000D01*
X157458228Y-35381703D01*
G37*
G36*
X159998228Y-35381703D02*
G01*
X160153100Y-35445853D01*
X160292481Y-35538985D01*
X160411015Y-35657519D01*
X160504147Y-35796900D01*
X160568297Y-35951772D01*
X160601000Y-36116184D01*
X160601000Y-36283816D01*
X160568297Y-36448228D01*
X160504147Y-36603100D01*
X160411015Y-36742481D01*
X160292481Y-36861015D01*
X160153100Y-36954147D01*
X159998228Y-37018297D01*
X159833816Y-37051000D01*
X159666184Y-37051000D01*
X159501772Y-37018297D01*
X159346900Y-36954147D01*
X159207519Y-36861015D01*
X159088985Y-36742481D01*
X158995853Y-36603100D01*
X158931703Y-36448228D01*
X158899000Y-36283816D01*
X158899000Y-36116184D01*
X158931703Y-35951772D01*
X158995853Y-35796900D01*
X159088985Y-35657519D01*
X159207519Y-35538985D01*
X159346900Y-35445853D01*
X159501772Y-35381703D01*
X159666184Y-35349000D01*
X159833816Y-35349000D01*
X159998228Y-35381703D01*
G37*
G36*
X162538228Y-35381703D02*
G01*
X162693100Y-35445853D01*
X162832481Y-35538985D01*
X162951015Y-35657519D01*
X163044147Y-35796900D01*
X163108297Y-35951772D01*
X163141000Y-36116184D01*
X163141000Y-36283816D01*
X163108297Y-36448228D01*
X163044147Y-36603100D01*
X162951015Y-36742481D01*
X162832481Y-36861015D01*
X162693100Y-36954147D01*
X162538228Y-37018297D01*
X162373816Y-37051000D01*
X162206184Y-37051000D01*
X162041772Y-37018297D01*
X161886900Y-36954147D01*
X161747519Y-36861015D01*
X161628985Y-36742481D01*
X161535853Y-36603100D01*
X161471703Y-36448228D01*
X161439000Y-36283816D01*
X161439000Y-36116184D01*
X161471703Y-35951772D01*
X161535853Y-35796900D01*
X161628985Y-35657519D01*
X161747519Y-35538985D01*
X161886900Y-35445853D01*
X162041772Y-35381703D01*
X162206184Y-35349000D01*
X162373816Y-35349000D01*
X162538228Y-35381703D01*
G37*
G36*
X154918228Y-35381703D02*
G01*
X155073100Y-35445853D01*
X155212481Y-35538985D01*
X155331015Y-35657519D01*
X155424147Y-35796900D01*
X155488297Y-35951772D01*
X155521000Y-36116184D01*
X155521000Y-36283816D01*
X155488297Y-36448228D01*
X155424147Y-36603100D01*
X155331015Y-36742481D01*
X155212481Y-36861015D01*
X155073100Y-36954147D01*
X154918228Y-37018297D01*
X154753816Y-37051000D01*
X154586184Y-37051000D01*
X154421772Y-37018297D01*
X154266900Y-36954147D01*
X154127519Y-36861015D01*
X154008985Y-36742481D01*
X153915853Y-36603100D01*
X153851703Y-36448228D01*
X153819000Y-36283816D01*
X153819000Y-36116184D01*
X153851703Y-35951772D01*
X153915853Y-35796900D01*
X154008985Y-35657519D01*
X154127519Y-35538985D01*
X154266900Y-35445853D01*
X154421772Y-35381703D01*
X154586184Y-35349000D01*
X154753816Y-35349000D01*
X154918228Y-35381703D01*
G37*
G36*
X116818228Y-35381703D02*
G01*
X116973100Y-35445853D01*
X117112481Y-35538985D01*
X117231015Y-35657519D01*
X117324147Y-35796900D01*
X117388297Y-35951772D01*
X117421000Y-36116184D01*
X117421000Y-36283816D01*
X117388297Y-36448228D01*
X117324147Y-36603100D01*
X117231015Y-36742481D01*
X117112481Y-36861015D01*
X116973100Y-36954147D01*
X116818228Y-37018297D01*
X116653816Y-37051000D01*
X116486184Y-37051000D01*
X116321772Y-37018297D01*
X116166900Y-36954147D01*
X116027519Y-36861015D01*
X115908985Y-36742481D01*
X115815853Y-36603100D01*
X115751703Y-36448228D01*
X115719000Y-36283816D01*
X115719000Y-36116184D01*
X115751703Y-35951772D01*
X115815853Y-35796900D01*
X115908985Y-35657519D01*
X116027519Y-35538985D01*
X116166900Y-35445853D01*
X116321772Y-35381703D01*
X116486184Y-35349000D01*
X116653816Y-35349000D01*
X116818228Y-35381703D01*
G37*
G36*
X189821779Y-34715546D02*
G01*
X189988225Y-34784490D01*
X190138023Y-34884582D01*
X190265418Y-35011977D01*
X190365510Y-35161775D01*
X190434454Y-35328221D01*
X190469601Y-35504917D01*
X190469601Y-35685081D01*
X190434454Y-35861777D01*
X190365510Y-36028223D01*
X190265418Y-36178021D01*
X190138023Y-36305416D01*
X189988225Y-36405508D01*
X189821779Y-36474452D01*
X189645083Y-36509599D01*
X189464919Y-36509599D01*
X189288223Y-36474452D01*
X189121777Y-36405508D01*
X188971979Y-36305416D01*
X188844584Y-36178021D01*
X188744492Y-36028223D01*
X188675548Y-35861777D01*
X188640401Y-35685081D01*
X188640401Y-35504917D01*
X188675548Y-35328221D01*
X188744492Y-35161775D01*
X188844584Y-35011977D01*
X188971979Y-34884582D01*
X189121777Y-34784490D01*
X189288223Y-34715546D01*
X189464919Y-34680399D01*
X189645083Y-34680399D01*
X189821779Y-34715546D01*
G37*
G36*
X192361779Y-34715546D02*
G01*
X192528225Y-34784490D01*
X192678023Y-34884582D01*
X192805418Y-35011977D01*
X192905510Y-35161775D01*
X192974454Y-35328221D01*
X193009601Y-35504917D01*
X193009601Y-35685081D01*
X192974454Y-35861777D01*
X192905510Y-36028223D01*
X192805418Y-36178021D01*
X192678023Y-36305416D01*
X192528225Y-36405508D01*
X192361779Y-36474452D01*
X192185083Y-36509599D01*
X192004919Y-36509599D01*
X191828223Y-36474452D01*
X191661777Y-36405508D01*
X191511979Y-36305416D01*
X191384584Y-36178021D01*
X191284492Y-36028223D01*
X191215548Y-35861777D01*
X191180401Y-35685081D01*
X191180401Y-35504917D01*
X191215548Y-35328221D01*
X191284492Y-35161775D01*
X191384584Y-35011977D01*
X191511979Y-34884582D01*
X191661777Y-34784490D01*
X191828223Y-34715546D01*
X192004919Y-34680399D01*
X192185083Y-34680399D01*
X192361779Y-34715546D01*
G37*
G36*
X192361779Y-32175546D02*
G01*
X192528225Y-32244490D01*
X192678023Y-32344582D01*
X192805418Y-32471977D01*
X192905510Y-32621775D01*
X192974454Y-32788221D01*
X193009601Y-32964917D01*
X193009601Y-33145081D01*
X192974454Y-33321777D01*
X192905510Y-33488223D01*
X192805418Y-33638021D01*
X192678023Y-33765416D01*
X192528225Y-33865508D01*
X192361779Y-33934452D01*
X192185083Y-33969599D01*
X192004919Y-33969599D01*
X191828223Y-33934452D01*
X191661777Y-33865508D01*
X191511979Y-33765416D01*
X191384584Y-33638021D01*
X191284492Y-33488223D01*
X191215548Y-33321777D01*
X191180401Y-33145081D01*
X191180401Y-32964917D01*
X191215548Y-32788221D01*
X191284492Y-32621775D01*
X191384584Y-32471977D01*
X191511979Y-32344582D01*
X191661777Y-32244490D01*
X191828223Y-32175546D01*
X192004919Y-32140399D01*
X192185083Y-32140399D01*
X192361779Y-32175546D01*
G37*
G36*
X189821779Y-32175546D02*
G01*
X189988225Y-32244490D01*
X190138023Y-32344582D01*
X190265418Y-32471977D01*
X190365510Y-32621775D01*
X190434454Y-32788221D01*
X190469601Y-32964917D01*
X190469601Y-33145081D01*
X190434454Y-33321777D01*
X190365510Y-33488223D01*
X190265418Y-33638021D01*
X190138023Y-33765416D01*
X189988225Y-33865508D01*
X189821779Y-33934452D01*
X189645083Y-33969599D01*
X189464919Y-33969599D01*
X189288223Y-33934452D01*
X189121777Y-33865508D01*
X188971979Y-33765416D01*
X188844584Y-33638021D01*
X188744492Y-33488223D01*
X188675548Y-33321777D01*
X188640401Y-33145081D01*
X188640401Y-32964917D01*
X188675548Y-32788221D01*
X188744492Y-32621775D01*
X188844584Y-32471977D01*
X188971979Y-32344582D01*
X189121777Y-32244490D01*
X189288223Y-32175546D01*
X189464919Y-32140399D01*
X189645083Y-32140399D01*
X189821779Y-32175546D01*
G37*
G36*
X181016564Y-29659389D02*
G01*
X181207833Y-29738615D01*
X181207835Y-29738616D01*
X181379973Y-29853635D01*
X181526365Y-30000027D01*
X181580987Y-30081774D01*
X181641385Y-30172167D01*
X181720611Y-30363436D01*
X181761000Y-30566484D01*
X181761000Y-30773516D01*
X181720611Y-30976564D01*
X181641385Y-31167833D01*
X181641384Y-31167835D01*
X181526365Y-31339973D01*
X181379973Y-31486365D01*
X181207835Y-31601384D01*
X181207834Y-31601385D01*
X181207833Y-31601385D01*
X181016564Y-31680611D01*
X180813516Y-31721000D01*
X180606484Y-31721000D01*
X180403436Y-31680611D01*
X180212167Y-31601385D01*
X180212166Y-31601385D01*
X180212165Y-31601384D01*
X180040027Y-31486365D01*
X179893635Y-31339973D01*
X179778616Y-31167835D01*
X179778615Y-31167833D01*
X179699389Y-30976564D01*
X179659000Y-30773516D01*
X179659000Y-30566484D01*
X179699389Y-30363436D01*
X179778615Y-30172167D01*
X179839014Y-30081774D01*
X179893635Y-30000027D01*
X180040027Y-29853635D01*
X180212165Y-29738616D01*
X180212167Y-29738615D01*
X180403436Y-29659389D01*
X180606484Y-29619000D01*
X180813516Y-29619000D01*
X181016564Y-29659389D01*
G37*
G36*
X174516564Y-29659389D02*
G01*
X174707833Y-29738615D01*
X174707835Y-29738616D01*
X174879973Y-29853635D01*
X175026365Y-30000027D01*
X175080987Y-30081774D01*
X175141385Y-30172167D01*
X175220611Y-30363436D01*
X175261000Y-30566484D01*
X175261000Y-30773516D01*
X175220611Y-30976564D01*
X175141385Y-31167833D01*
X175141384Y-31167835D01*
X175026365Y-31339973D01*
X174879973Y-31486365D01*
X174707835Y-31601384D01*
X174707834Y-31601385D01*
X174707833Y-31601385D01*
X174516564Y-31680611D01*
X174313516Y-31721000D01*
X174106484Y-31721000D01*
X173903436Y-31680611D01*
X173712167Y-31601385D01*
X173712166Y-31601385D01*
X173712165Y-31601384D01*
X173540027Y-31486365D01*
X173393635Y-31339973D01*
X173278616Y-31167835D01*
X173278615Y-31167833D01*
X173199389Y-30976564D01*
X173159000Y-30773516D01*
X173159000Y-30566484D01*
X173199389Y-30363436D01*
X173278615Y-30172167D01*
X173339014Y-30081774D01*
X173393635Y-30000027D01*
X173540027Y-29853635D01*
X173712165Y-29738616D01*
X173712167Y-29738615D01*
X173903436Y-29659389D01*
X174106484Y-29619000D01*
X174313516Y-29619000D01*
X174516564Y-29659389D01*
G37*
G36*
X192361779Y-29635546D02*
G01*
X192528225Y-29704490D01*
X192678023Y-29804582D01*
X192805418Y-29931977D01*
X192905510Y-30081775D01*
X192974454Y-30248221D01*
X193009601Y-30424917D01*
X193009601Y-30605081D01*
X192974454Y-30781777D01*
X192905510Y-30948223D01*
X192805418Y-31098021D01*
X192678023Y-31225416D01*
X192528225Y-31325508D01*
X192361779Y-31394452D01*
X192185083Y-31429599D01*
X192004919Y-31429599D01*
X191828223Y-31394452D01*
X191661777Y-31325508D01*
X191511979Y-31225416D01*
X191384584Y-31098021D01*
X191284492Y-30948223D01*
X191215548Y-30781777D01*
X191180401Y-30605081D01*
X191180401Y-30424917D01*
X191215548Y-30248221D01*
X191284492Y-30081775D01*
X191384584Y-29931977D01*
X191511979Y-29804582D01*
X191661777Y-29704490D01*
X191828223Y-29635546D01*
X192004919Y-29600399D01*
X192185083Y-29600399D01*
X192361779Y-29635546D01*
G37*
G36*
X189821779Y-29635546D02*
G01*
X189988225Y-29704490D01*
X190138023Y-29804582D01*
X190265418Y-29931977D01*
X190365510Y-30081775D01*
X190434454Y-30248221D01*
X190469601Y-30424917D01*
X190469601Y-30605081D01*
X190434454Y-30781777D01*
X190365510Y-30948223D01*
X190265418Y-31098021D01*
X190138023Y-31225416D01*
X189988225Y-31325508D01*
X189821779Y-31394452D01*
X189645083Y-31429599D01*
X189464919Y-31429599D01*
X189288223Y-31394452D01*
X189121777Y-31325508D01*
X188971979Y-31225416D01*
X188844584Y-31098021D01*
X188744492Y-30948223D01*
X188675548Y-30781777D01*
X188640401Y-30605081D01*
X188640401Y-30424917D01*
X188675548Y-30248221D01*
X188744492Y-30081775D01*
X188844584Y-29931977D01*
X188971979Y-29804582D01*
X189121777Y-29704490D01*
X189288223Y-29635546D01*
X189464919Y-29600399D01*
X189645083Y-29600399D01*
X189821779Y-29635546D01*
G37*
G36*
X189821779Y-27095546D02*
G01*
X189988225Y-27164490D01*
X190138023Y-27264582D01*
X190265418Y-27391977D01*
X190365510Y-27541775D01*
X190434454Y-27708221D01*
X190469601Y-27884917D01*
X190469601Y-28065081D01*
X190434454Y-28241777D01*
X190365510Y-28408223D01*
X190265418Y-28558021D01*
X190138023Y-28685416D01*
X189988225Y-28785508D01*
X189821779Y-28854452D01*
X189645083Y-28889599D01*
X189464919Y-28889599D01*
X189288223Y-28854452D01*
X189121777Y-28785508D01*
X188971979Y-28685416D01*
X188844584Y-28558021D01*
X188744492Y-28408223D01*
X188675548Y-28241777D01*
X188640401Y-28065081D01*
X188640401Y-27884917D01*
X188675548Y-27708221D01*
X188744492Y-27541775D01*
X188844584Y-27391977D01*
X188971979Y-27264582D01*
X189121777Y-27164490D01*
X189288223Y-27095546D01*
X189464919Y-27060399D01*
X189645083Y-27060399D01*
X189821779Y-27095546D01*
G37*
G36*
X192361779Y-27095546D02*
G01*
X192528225Y-27164490D01*
X192678023Y-27264582D01*
X192805418Y-27391977D01*
X192905510Y-27541775D01*
X192974454Y-27708221D01*
X193009601Y-27884917D01*
X193009601Y-28065081D01*
X192974454Y-28241777D01*
X192905510Y-28408223D01*
X192805418Y-28558021D01*
X192678023Y-28685416D01*
X192528225Y-28785508D01*
X192361779Y-28854452D01*
X192185083Y-28889599D01*
X192004919Y-28889599D01*
X191828223Y-28854452D01*
X191661777Y-28785508D01*
X191511979Y-28685416D01*
X191384584Y-28558021D01*
X191284492Y-28408223D01*
X191215548Y-28241777D01*
X191180401Y-28065081D01*
X191180401Y-27884917D01*
X191215548Y-27708221D01*
X191284492Y-27541775D01*
X191384584Y-27391977D01*
X191511979Y-27264582D01*
X191661777Y-27164490D01*
X191828223Y-27095546D01*
X192004919Y-27060399D01*
X192185083Y-27060399D01*
X192361779Y-27095546D01*
G37*
G36*
X181016564Y-25159389D02*
G01*
X181207833Y-25238615D01*
X181207835Y-25238616D01*
X181366926Y-25344917D01*
X181379973Y-25353635D01*
X181526365Y-25500027D01*
X181641385Y-25672167D01*
X181720611Y-25863436D01*
X181761000Y-26066484D01*
X181761000Y-26273516D01*
X181720611Y-26476564D01*
X181641385Y-26667833D01*
X181641384Y-26667835D01*
X181526365Y-26839973D01*
X181379973Y-26986365D01*
X181207835Y-27101384D01*
X181207834Y-27101385D01*
X181207833Y-27101385D01*
X181016564Y-27180611D01*
X180813516Y-27221000D01*
X180606484Y-27221000D01*
X180403436Y-27180611D01*
X180212167Y-27101385D01*
X180212166Y-27101385D01*
X180212165Y-27101384D01*
X180040027Y-26986365D01*
X179893635Y-26839973D01*
X179778616Y-26667835D01*
X179778615Y-26667833D01*
X179699389Y-26476564D01*
X179659000Y-26273516D01*
X179659000Y-26066484D01*
X179699389Y-25863436D01*
X179778615Y-25672167D01*
X179893635Y-25500027D01*
X180040027Y-25353635D01*
X180053074Y-25344917D01*
X180212165Y-25238616D01*
X180212167Y-25238615D01*
X180403436Y-25159389D01*
X180606484Y-25119000D01*
X180813516Y-25119000D01*
X181016564Y-25159389D01*
G37*
G36*
X174516564Y-25159389D02*
G01*
X174707833Y-25238615D01*
X174707835Y-25238616D01*
X174866926Y-25344917D01*
X174879973Y-25353635D01*
X175026365Y-25500027D01*
X175141385Y-25672167D01*
X175220611Y-25863436D01*
X175261000Y-26066484D01*
X175261000Y-26273516D01*
X175220611Y-26476564D01*
X175141385Y-26667833D01*
X175141384Y-26667835D01*
X175026365Y-26839973D01*
X174879973Y-26986365D01*
X174707835Y-27101384D01*
X174707834Y-27101385D01*
X174707833Y-27101385D01*
X174516564Y-27180611D01*
X174313516Y-27221000D01*
X174106484Y-27221000D01*
X173903436Y-27180611D01*
X173712167Y-27101385D01*
X173712166Y-27101385D01*
X173712165Y-27101384D01*
X173540027Y-26986365D01*
X173393635Y-26839973D01*
X173278616Y-26667835D01*
X173278615Y-26667833D01*
X173199389Y-26476564D01*
X173159000Y-26273516D01*
X173159000Y-26066484D01*
X173199389Y-25863436D01*
X173278615Y-25672167D01*
X173393635Y-25500027D01*
X173540027Y-25353635D01*
X173553074Y-25344917D01*
X173712165Y-25238616D01*
X173712167Y-25238615D01*
X173903436Y-25159389D01*
X174106484Y-25119000D01*
X174313516Y-25119000D01*
X174516564Y-25159389D01*
G37*
G36*
X192361779Y-24555546D02*
G01*
X192528225Y-24624490D01*
X192678023Y-24724582D01*
X192805418Y-24851977D01*
X192905510Y-25001775D01*
X192974454Y-25168221D01*
X193009601Y-25344917D01*
X193009601Y-25525081D01*
X192974454Y-25701777D01*
X192905510Y-25868223D01*
X192805418Y-26018021D01*
X192678023Y-26145416D01*
X192528225Y-26245508D01*
X192361779Y-26314452D01*
X192185083Y-26349599D01*
X192004919Y-26349599D01*
X191828223Y-26314452D01*
X191661777Y-26245508D01*
X191511979Y-26145416D01*
X191384584Y-26018021D01*
X191284492Y-25868223D01*
X191215548Y-25701777D01*
X191180401Y-25525081D01*
X191180401Y-25344917D01*
X191215548Y-25168221D01*
X191284492Y-25001775D01*
X191384584Y-24851977D01*
X191511979Y-24724582D01*
X191661777Y-24624490D01*
X191828223Y-24555546D01*
X192004919Y-24520399D01*
X192185083Y-24520399D01*
X192361779Y-24555546D01*
G37*
G36*
X189821779Y-24555546D02*
G01*
X189988225Y-24624490D01*
X190138023Y-24724582D01*
X190265418Y-24851977D01*
X190365510Y-25001775D01*
X190434454Y-25168221D01*
X190469601Y-25344917D01*
X190469601Y-25525081D01*
X190434454Y-25701777D01*
X190365510Y-25868223D01*
X190265418Y-26018021D01*
X190138023Y-26145416D01*
X189988225Y-26245508D01*
X189821779Y-26314452D01*
X189645083Y-26349599D01*
X189464919Y-26349599D01*
X189288223Y-26314452D01*
X189121777Y-26245508D01*
X188971979Y-26145416D01*
X188844584Y-26018021D01*
X188744492Y-25868223D01*
X188675548Y-25701777D01*
X188640401Y-25525081D01*
X188640401Y-25344917D01*
X188675548Y-25168221D01*
X188744492Y-25001775D01*
X188844584Y-24851977D01*
X188971979Y-24724582D01*
X189121777Y-24624490D01*
X189288223Y-24555546D01*
X189464919Y-24520399D01*
X189645083Y-24520399D01*
X189821779Y-24555546D01*
G37*
G36*
X109920257Y-18746297D02*
G01*
X110026580Y-18767446D01*
X110327043Y-18891902D01*
X110597452Y-19072584D01*
X110827416Y-19302548D01*
X111008098Y-19572957D01*
X111008099Y-19572959D01*
X111132554Y-19873421D01*
X111196001Y-20192388D01*
X111196001Y-20517610D01*
X111132554Y-20836577D01*
X111037767Y-21065415D01*
X111008098Y-21137041D01*
X110827416Y-21407450D01*
X110597452Y-21637414D01*
X110327043Y-21818096D01*
X110026580Y-21942552D01*
X109920257Y-21963701D01*
X109707612Y-22005999D01*
X109382390Y-22005999D01*
X109169745Y-21963701D01*
X109063422Y-21942552D01*
X108762959Y-21818096D01*
X108492550Y-21637414D01*
X108262586Y-21407450D01*
X108081904Y-21137041D01*
X108052236Y-21065415D01*
X107957448Y-20836577D01*
X107894001Y-20517610D01*
X107894001Y-20192388D01*
X107957448Y-19873421D01*
X108081903Y-19572959D01*
X108081904Y-19572957D01*
X108262586Y-19302548D01*
X108492550Y-19072584D01*
X108762959Y-18891902D01*
X109063422Y-18767446D01*
X109169745Y-18746297D01*
X109382390Y-18703999D01*
X109707612Y-18703999D01*
X109920257Y-18746297D01*
G37*
G36*
X192470257Y-18746297D02*
G01*
X192576580Y-18767446D01*
X192877043Y-18891902D01*
X193147452Y-19072584D01*
X193377416Y-19302548D01*
X193558098Y-19572957D01*
X193558099Y-19572959D01*
X193682554Y-19873421D01*
X193746001Y-20192388D01*
X193746001Y-20517610D01*
X193682554Y-20836577D01*
X193587767Y-21065415D01*
X193558098Y-21137041D01*
X193377416Y-21407450D01*
X193147452Y-21637414D01*
X192877043Y-21818096D01*
X192576580Y-21942552D01*
X192470257Y-21963701D01*
X192257612Y-22005999D01*
X191932390Y-22005999D01*
X191719745Y-21963701D01*
X191613422Y-21942552D01*
X191312959Y-21818096D01*
X191042550Y-21637414D01*
X190812586Y-21407450D01*
X190631904Y-21137041D01*
X190602236Y-21065415D01*
X190507448Y-20836577D01*
X190444001Y-20517610D01*
X190444001Y-20192388D01*
X190507448Y-19873421D01*
X190631903Y-19572959D01*
X190631904Y-19572957D01*
X190812586Y-19302548D01*
X191042550Y-19072584D01*
X191312959Y-18891902D01*
X191613422Y-18767446D01*
X191719745Y-18746297D01*
X191932390Y-18703999D01*
X192257612Y-18703999D01*
X192470257Y-18746297D01*
G37*
G36*
X141561779Y-19475546D02*
G01*
X141728225Y-19544490D01*
X141878023Y-19644582D01*
X142005418Y-19771977D01*
X142105510Y-19921775D01*
X142174454Y-20088221D01*
X142209601Y-20264917D01*
X142209601Y-20445081D01*
X142174454Y-20621777D01*
X142105510Y-20788223D01*
X142005418Y-20938021D01*
X141878023Y-21065416D01*
X141728225Y-21165508D01*
X141561779Y-21234452D01*
X141385083Y-21269599D01*
X141204919Y-21269599D01*
X141028223Y-21234452D01*
X140861777Y-21165508D01*
X140711979Y-21065416D01*
X140584584Y-20938021D01*
X140484492Y-20788223D01*
X140415548Y-20621777D01*
X140380401Y-20445081D01*
X140380401Y-20264917D01*
X140415548Y-20088221D01*
X140484492Y-19921775D01*
X140584584Y-19771977D01*
X140711979Y-19644582D01*
X140861777Y-19544490D01*
X141028223Y-19475546D01*
X141204919Y-19440399D01*
X141385083Y-19440399D01*
X141561779Y-19475546D01*
G37*
G36*
X146641779Y-19475546D02*
G01*
X146808225Y-19544490D01*
X146958023Y-19644582D01*
X147085418Y-19771977D01*
X147185510Y-19921775D01*
X147254454Y-20088221D01*
X147289601Y-20264917D01*
X147289601Y-20445081D01*
X147254454Y-20621777D01*
X147185510Y-20788223D01*
X147085418Y-20938021D01*
X146958023Y-21065416D01*
X146808225Y-21165508D01*
X146641779Y-21234452D01*
X146465083Y-21269599D01*
X146284919Y-21269599D01*
X146108223Y-21234452D01*
X145941777Y-21165508D01*
X145791979Y-21065416D01*
X145664584Y-20938021D01*
X145564492Y-20788223D01*
X145495548Y-20621777D01*
X145460401Y-20445081D01*
X145460401Y-20264917D01*
X145495548Y-20088221D01*
X145564492Y-19921775D01*
X145664584Y-19771977D01*
X145791979Y-19644582D01*
X145941777Y-19544490D01*
X146108223Y-19475546D01*
X146284919Y-19440399D01*
X146465083Y-19440399D01*
X146641779Y-19475546D01*
G37*
G36*
X139021779Y-19475546D02*
G01*
X139188225Y-19544490D01*
X139338023Y-19644582D01*
X139465418Y-19771977D01*
X139565510Y-19921775D01*
X139634454Y-20088221D01*
X139669601Y-20264917D01*
X139669601Y-20445081D01*
X139634454Y-20621777D01*
X139565510Y-20788223D01*
X139465418Y-20938021D01*
X139338023Y-21065416D01*
X139188225Y-21165508D01*
X139021779Y-21234452D01*
X138845083Y-21269599D01*
X138664919Y-21269599D01*
X138488223Y-21234452D01*
X138321777Y-21165508D01*
X138171979Y-21065416D01*
X138044584Y-20938021D01*
X137944492Y-20788223D01*
X137875548Y-20621777D01*
X137840401Y-20445081D01*
X137840401Y-20264917D01*
X137875548Y-20088221D01*
X137944492Y-19921775D01*
X138044584Y-19771977D01*
X138171979Y-19644582D01*
X138321777Y-19544490D01*
X138488223Y-19475546D01*
X138664919Y-19440399D01*
X138845083Y-19440399D01*
X139021779Y-19475546D01*
G37*
G36*
X169501779Y-19475546D02*
G01*
X169668225Y-19544490D01*
X169818023Y-19644582D01*
X169945418Y-19771977D01*
X170045510Y-19921775D01*
X170114454Y-20088221D01*
X170149601Y-20264917D01*
X170149601Y-20445081D01*
X170114454Y-20621777D01*
X170045510Y-20788223D01*
X169945418Y-20938021D01*
X169818023Y-21065416D01*
X169668225Y-21165508D01*
X169501779Y-21234452D01*
X169325083Y-21269599D01*
X169144919Y-21269599D01*
X168968223Y-21234452D01*
X168801777Y-21165508D01*
X168651979Y-21065416D01*
X168524584Y-20938021D01*
X168424492Y-20788223D01*
X168355548Y-20621777D01*
X168320401Y-20445081D01*
X168320401Y-20264917D01*
X168355548Y-20088221D01*
X168424492Y-19921775D01*
X168524584Y-19771977D01*
X168651979Y-19644582D01*
X168801777Y-19544490D01*
X168968223Y-19475546D01*
X169144919Y-19440399D01*
X169325083Y-19440399D01*
X169501779Y-19475546D01*
G37*
G36*
X164421779Y-19475546D02*
G01*
X164588225Y-19544490D01*
X164738023Y-19644582D01*
X164865418Y-19771977D01*
X164965510Y-19921775D01*
X165034454Y-20088221D01*
X165069601Y-20264917D01*
X165069601Y-20445081D01*
X165034454Y-20621777D01*
X164965510Y-20788223D01*
X164865418Y-20938021D01*
X164738023Y-21065416D01*
X164588225Y-21165508D01*
X164421779Y-21234452D01*
X164245083Y-21269599D01*
X164064919Y-21269599D01*
X163888223Y-21234452D01*
X163721777Y-21165508D01*
X163571979Y-21065416D01*
X163444584Y-20938021D01*
X163344492Y-20788223D01*
X163275548Y-20621777D01*
X163240401Y-20445081D01*
X163240401Y-20264917D01*
X163275548Y-20088221D01*
X163344492Y-19921775D01*
X163444584Y-19771977D01*
X163571979Y-19644582D01*
X163721777Y-19544490D01*
X163888223Y-19475546D01*
X164064919Y-19440399D01*
X164245083Y-19440399D01*
X164421779Y-19475546D01*
G37*
G36*
X161881779Y-19475546D02*
G01*
X162048225Y-19544490D01*
X162198023Y-19644582D01*
X162325418Y-19771977D01*
X162425510Y-19921775D01*
X162494454Y-20088221D01*
X162529601Y-20264917D01*
X162529601Y-20445081D01*
X162494454Y-20621777D01*
X162425510Y-20788223D01*
X162325418Y-20938021D01*
X162198023Y-21065416D01*
X162048225Y-21165508D01*
X161881779Y-21234452D01*
X161705083Y-21269599D01*
X161524919Y-21269599D01*
X161348223Y-21234452D01*
X161181777Y-21165508D01*
X161031979Y-21065416D01*
X160904584Y-20938021D01*
X160804492Y-20788223D01*
X160735548Y-20621777D01*
X160700401Y-20445081D01*
X160700401Y-20264917D01*
X160735548Y-20088221D01*
X160804492Y-19921775D01*
X160904584Y-19771977D01*
X161031979Y-19644582D01*
X161181777Y-19544490D01*
X161348223Y-19475546D01*
X161524919Y-19440399D01*
X161705083Y-19440399D01*
X161881779Y-19475546D01*
G37*
G36*
X136481779Y-19475546D02*
G01*
X136648225Y-19544490D01*
X136798023Y-19644582D01*
X136925418Y-19771977D01*
X137025510Y-19921775D01*
X137094454Y-20088221D01*
X137129601Y-20264917D01*
X137129601Y-20445081D01*
X137094454Y-20621777D01*
X137025510Y-20788223D01*
X136925418Y-20938021D01*
X136798023Y-21065416D01*
X136648225Y-21165508D01*
X136481779Y-21234452D01*
X136305083Y-21269599D01*
X136124919Y-21269599D01*
X135948223Y-21234452D01*
X135781777Y-21165508D01*
X135631979Y-21065416D01*
X135504584Y-20938021D01*
X135404492Y-20788223D01*
X135335548Y-20621777D01*
X135300401Y-20445081D01*
X135300401Y-20264917D01*
X135335548Y-20088221D01*
X135404492Y-19921775D01*
X135504584Y-19771977D01*
X135631979Y-19644582D01*
X135781777Y-19544490D01*
X135948223Y-19475546D01*
X136124919Y-19440399D01*
X136305083Y-19440399D01*
X136481779Y-19475546D01*
G37*
G36*
X156801779Y-19475546D02*
G01*
X156968225Y-19544490D01*
X157118023Y-19644582D01*
X157245418Y-19771977D01*
X157345510Y-19921775D01*
X157414454Y-20088221D01*
X157449601Y-20264917D01*
X157449601Y-20445081D01*
X157414454Y-20621777D01*
X157345510Y-20788223D01*
X157245418Y-20938021D01*
X157118023Y-21065416D01*
X156968225Y-21165508D01*
X156801779Y-21234452D01*
X156625083Y-21269599D01*
X156444919Y-21269599D01*
X156268223Y-21234452D01*
X156101777Y-21165508D01*
X155951979Y-21065416D01*
X155824584Y-20938021D01*
X155724492Y-20788223D01*
X155655548Y-20621777D01*
X155620401Y-20445081D01*
X155620401Y-20264917D01*
X155655548Y-20088221D01*
X155724492Y-19921775D01*
X155824584Y-19771977D01*
X155951979Y-19644582D01*
X156101777Y-19544490D01*
X156268223Y-19475546D01*
X156444919Y-19440399D01*
X156625083Y-19440399D01*
X156801779Y-19475546D01*
G37*
G36*
X151721779Y-19475546D02*
G01*
X151888225Y-19544490D01*
X152038023Y-19644582D01*
X152165418Y-19771977D01*
X152265510Y-19921775D01*
X152334454Y-20088221D01*
X152369601Y-20264917D01*
X152369601Y-20445081D01*
X152334454Y-20621777D01*
X152265510Y-20788223D01*
X152165418Y-20938021D01*
X152038023Y-21065416D01*
X151888225Y-21165508D01*
X151721779Y-21234452D01*
X151545083Y-21269599D01*
X151364919Y-21269599D01*
X151188223Y-21234452D01*
X151021777Y-21165508D01*
X150871979Y-21065416D01*
X150744584Y-20938021D01*
X150644492Y-20788223D01*
X150575548Y-20621777D01*
X150540401Y-20445081D01*
X150540401Y-20264917D01*
X150575548Y-20088221D01*
X150644492Y-19921775D01*
X150744584Y-19771977D01*
X150871979Y-19644582D01*
X151021777Y-19544490D01*
X151188223Y-19475546D01*
X151364919Y-19440399D01*
X151545083Y-19440399D01*
X151721779Y-19475546D01*
G37*
G36*
X149181779Y-19475546D02*
G01*
X149348225Y-19544490D01*
X149498023Y-19644582D01*
X149625418Y-19771977D01*
X149725510Y-19921775D01*
X149794454Y-20088221D01*
X149829601Y-20264917D01*
X149829601Y-20445081D01*
X149794454Y-20621777D01*
X149725510Y-20788223D01*
X149625418Y-20938021D01*
X149498023Y-21065416D01*
X149348225Y-21165508D01*
X149181779Y-21234452D01*
X149005083Y-21269599D01*
X148824919Y-21269599D01*
X148648223Y-21234452D01*
X148481777Y-21165508D01*
X148331979Y-21065416D01*
X148204584Y-20938021D01*
X148104492Y-20788223D01*
X148035548Y-20621777D01*
X148000401Y-20445081D01*
X148000401Y-20264917D01*
X148035548Y-20088221D01*
X148104492Y-19921775D01*
X148204584Y-19771977D01*
X148331979Y-19644582D01*
X148481777Y-19544490D01*
X148648223Y-19475546D01*
X148824919Y-19440399D01*
X149005083Y-19440399D01*
X149181779Y-19475546D01*
G37*
G36*
X123781779Y-19475546D02*
G01*
X123948225Y-19544490D01*
X124098023Y-19644582D01*
X124225418Y-19771977D01*
X124325510Y-19921775D01*
X124394454Y-20088221D01*
X124429601Y-20264917D01*
X124429601Y-20445081D01*
X124394454Y-20621777D01*
X124325510Y-20788223D01*
X124225418Y-20938021D01*
X124098023Y-21065416D01*
X123948225Y-21165508D01*
X123781779Y-21234452D01*
X123605083Y-21269599D01*
X123424919Y-21269599D01*
X123248223Y-21234452D01*
X123081777Y-21165508D01*
X122931979Y-21065416D01*
X122804584Y-20938021D01*
X122704492Y-20788223D01*
X122635548Y-20621777D01*
X122600401Y-20445081D01*
X122600401Y-20264917D01*
X122635548Y-20088221D01*
X122704492Y-19921775D01*
X122804584Y-19771977D01*
X122931979Y-19644582D01*
X123081777Y-19544490D01*
X123248223Y-19475546D01*
X123424919Y-19440399D01*
X123605083Y-19440399D01*
X123781779Y-19475546D01*
G37*
G36*
X126321779Y-19475546D02*
G01*
X126488225Y-19544490D01*
X126638023Y-19644582D01*
X126765418Y-19771977D01*
X126865510Y-19921775D01*
X126934454Y-20088221D01*
X126969601Y-20264917D01*
X126969601Y-20445081D01*
X126934454Y-20621777D01*
X126865510Y-20788223D01*
X126765418Y-20938021D01*
X126638023Y-21065416D01*
X126488225Y-21165508D01*
X126321779Y-21234452D01*
X126145083Y-21269599D01*
X125964919Y-21269599D01*
X125788223Y-21234452D01*
X125621777Y-21165508D01*
X125471979Y-21065416D01*
X125344584Y-20938021D01*
X125244492Y-20788223D01*
X125175548Y-20621777D01*
X125140401Y-20445081D01*
X125140401Y-20264917D01*
X125175548Y-20088221D01*
X125244492Y-19921775D01*
X125344584Y-19771977D01*
X125471979Y-19644582D01*
X125621777Y-19544490D01*
X125788223Y-19475546D01*
X125964919Y-19440399D01*
X126145083Y-19440399D01*
X126321779Y-19475546D01*
G37*
G36*
X128861779Y-19475546D02*
G01*
X129028225Y-19544490D01*
X129178023Y-19644582D01*
X129305418Y-19771977D01*
X129405510Y-19921775D01*
X129474454Y-20088221D01*
X129509601Y-20264917D01*
X129509601Y-20445081D01*
X129474454Y-20621777D01*
X129405510Y-20788223D01*
X129305418Y-20938021D01*
X129178023Y-21065416D01*
X129028225Y-21165508D01*
X128861779Y-21234452D01*
X128685083Y-21269599D01*
X128504919Y-21269599D01*
X128328223Y-21234452D01*
X128161777Y-21165508D01*
X128011979Y-21065416D01*
X127884584Y-20938021D01*
X127784492Y-20788223D01*
X127715548Y-20621777D01*
X127680401Y-20445081D01*
X127680401Y-20264917D01*
X127715548Y-20088221D01*
X127784492Y-19921775D01*
X127884584Y-19771977D01*
X128011979Y-19644582D01*
X128161777Y-19544490D01*
X128328223Y-19475546D01*
X128504919Y-19440399D01*
X128685083Y-19440399D01*
X128861779Y-19475546D01*
G37*
G36*
X131401779Y-19475546D02*
G01*
X131568225Y-19544490D01*
X131718023Y-19644582D01*
X131845418Y-19771977D01*
X131945510Y-19921775D01*
X132014454Y-20088221D01*
X132049601Y-20264917D01*
X132049601Y-20445081D01*
X132014454Y-20621777D01*
X131945510Y-20788223D01*
X131845418Y-20938021D01*
X131718023Y-21065416D01*
X131568225Y-21165508D01*
X131401779Y-21234452D01*
X131225083Y-21269599D01*
X131044919Y-21269599D01*
X130868223Y-21234452D01*
X130701777Y-21165508D01*
X130551979Y-21065416D01*
X130424584Y-20938021D01*
X130324492Y-20788223D01*
X130255548Y-20621777D01*
X130220401Y-20445081D01*
X130220401Y-20264917D01*
X130255548Y-20088221D01*
X130324492Y-19921775D01*
X130424584Y-19771977D01*
X130551979Y-19644582D01*
X130701777Y-19544490D01*
X130868223Y-19475546D01*
X131044919Y-19440399D01*
X131225083Y-19440399D01*
X131401779Y-19475546D01*
G37*
G36*
X133941779Y-19475546D02*
G01*
X134108225Y-19544490D01*
X134258023Y-19644582D01*
X134385418Y-19771977D01*
X134485510Y-19921775D01*
X134554454Y-20088221D01*
X134589601Y-20264917D01*
X134589601Y-20445081D01*
X134554454Y-20621777D01*
X134485510Y-20788223D01*
X134385418Y-20938021D01*
X134258023Y-21065416D01*
X134108225Y-21165508D01*
X133941779Y-21234452D01*
X133765083Y-21269599D01*
X133584919Y-21269599D01*
X133408223Y-21234452D01*
X133241777Y-21165508D01*
X133091979Y-21065416D01*
X132964584Y-20938021D01*
X132864492Y-20788223D01*
X132795548Y-20621777D01*
X132760401Y-20445081D01*
X132760401Y-20264917D01*
X132795548Y-20088221D01*
X132864492Y-19921775D01*
X132964584Y-19771977D01*
X133091979Y-19644582D01*
X133241777Y-19544490D01*
X133408223Y-19475546D01*
X133584919Y-19440399D01*
X133765083Y-19440399D01*
X133941779Y-19475546D01*
G37*
G36*
X159341779Y-19475546D02*
G01*
X159508225Y-19544490D01*
X159658023Y-19644582D01*
X159785418Y-19771977D01*
X159885510Y-19921775D01*
X159954454Y-20088221D01*
X159989601Y-20264917D01*
X159989601Y-20445081D01*
X159954454Y-20621777D01*
X159885510Y-20788223D01*
X159785418Y-20938021D01*
X159658023Y-21065416D01*
X159508225Y-21165508D01*
X159341779Y-21234452D01*
X159165083Y-21269599D01*
X158984919Y-21269599D01*
X158808223Y-21234452D01*
X158641777Y-21165508D01*
X158491979Y-21065416D01*
X158364584Y-20938021D01*
X158264492Y-20788223D01*
X158195548Y-20621777D01*
X158160401Y-20445081D01*
X158160401Y-20264917D01*
X158195548Y-20088221D01*
X158264492Y-19921775D01*
X158364584Y-19771977D01*
X158491979Y-19644582D01*
X158641777Y-19544490D01*
X158808223Y-19475546D01*
X158984919Y-19440399D01*
X159165083Y-19440399D01*
X159341779Y-19475546D01*
G37*
G36*
X172041779Y-19475546D02*
G01*
X172208225Y-19544490D01*
X172358023Y-19644582D01*
X172485418Y-19771977D01*
X172585510Y-19921775D01*
X172654454Y-20088221D01*
X172689601Y-20264917D01*
X172689601Y-20445081D01*
X172654454Y-20621777D01*
X172585510Y-20788223D01*
X172485418Y-20938021D01*
X172358023Y-21065416D01*
X172208225Y-21165508D01*
X172041779Y-21234452D01*
X171865083Y-21269599D01*
X171684919Y-21269599D01*
X171508223Y-21234452D01*
X171341777Y-21165508D01*
X171191979Y-21065416D01*
X171064584Y-20938021D01*
X170964492Y-20788223D01*
X170895548Y-20621777D01*
X170860401Y-20445081D01*
X170860401Y-20264917D01*
X170895548Y-20088221D01*
X170964492Y-19921775D01*
X171064584Y-19771977D01*
X171191979Y-19644582D01*
X171341777Y-19544490D01*
X171508223Y-19475546D01*
X171684919Y-19440399D01*
X171865083Y-19440399D01*
X172041779Y-19475546D01*
G37*
G36*
X174581779Y-19475546D02*
G01*
X174748225Y-19544490D01*
X174898023Y-19644582D01*
X175025418Y-19771977D01*
X175125510Y-19921775D01*
X175194454Y-20088221D01*
X175229601Y-20264917D01*
X175229601Y-20445081D01*
X175194454Y-20621777D01*
X175125510Y-20788223D01*
X175025418Y-20938021D01*
X174898023Y-21065416D01*
X174748225Y-21165508D01*
X174581779Y-21234452D01*
X174405083Y-21269599D01*
X174224919Y-21269599D01*
X174048223Y-21234452D01*
X173881777Y-21165508D01*
X173731979Y-21065416D01*
X173604584Y-20938021D01*
X173504492Y-20788223D01*
X173435548Y-20621777D01*
X173400401Y-20445081D01*
X173400401Y-20264917D01*
X173435548Y-20088221D01*
X173504492Y-19921775D01*
X173604584Y-19771977D01*
X173731979Y-19644582D01*
X173881777Y-19544490D01*
X174048223Y-19475546D01*
X174224919Y-19440399D01*
X174405083Y-19440399D01*
X174581779Y-19475546D01*
G37*
G36*
X177121779Y-19475546D02*
G01*
X177288225Y-19544490D01*
X177438023Y-19644582D01*
X177565418Y-19771977D01*
X177665510Y-19921775D01*
X177734454Y-20088221D01*
X177769601Y-20264917D01*
X177769601Y-20445081D01*
X177734454Y-20621777D01*
X177665510Y-20788223D01*
X177565418Y-20938021D01*
X177438023Y-21065416D01*
X177288225Y-21165508D01*
X177121779Y-21234452D01*
X176945083Y-21269599D01*
X176764919Y-21269599D01*
X176588223Y-21234452D01*
X176421777Y-21165508D01*
X176271979Y-21065416D01*
X176144584Y-20938021D01*
X176044492Y-20788223D01*
X175975548Y-20621777D01*
X175940401Y-20445081D01*
X175940401Y-20264917D01*
X175975548Y-20088221D01*
X176044492Y-19921775D01*
X176144584Y-19771977D01*
X176271979Y-19644582D01*
X176421777Y-19544490D01*
X176588223Y-19475546D01*
X176764919Y-19440399D01*
X176945083Y-19440399D01*
X177121779Y-19475546D01*
G37*
G36*
X179661779Y-19475546D02*
G01*
X179828225Y-19544490D01*
X179978023Y-19644582D01*
X180105418Y-19771977D01*
X180205510Y-19921775D01*
X180274454Y-20088221D01*
X180309601Y-20264917D01*
X180309601Y-20445081D01*
X180274454Y-20621777D01*
X180205510Y-20788223D01*
X180105418Y-20938021D01*
X179978023Y-21065416D01*
X179828225Y-21165508D01*
X179661779Y-21234452D01*
X179485083Y-21269599D01*
X179304919Y-21269599D01*
X179128223Y-21234452D01*
X178961777Y-21165508D01*
X178811979Y-21065416D01*
X178684584Y-20938021D01*
X178584492Y-20788223D01*
X178515548Y-20621777D01*
X178480401Y-20445081D01*
X178480401Y-20264917D01*
X178515548Y-20088221D01*
X178584492Y-19921775D01*
X178684584Y-19771977D01*
X178811979Y-19644582D01*
X178961777Y-19544490D01*
X179128223Y-19475546D01*
X179304919Y-19440399D01*
X179485083Y-19440399D01*
X179661779Y-19475546D01*
G37*
G36*
X154261779Y-19475546D02*
G01*
X154428225Y-19544490D01*
X154578023Y-19644582D01*
X154705418Y-19771977D01*
X154805510Y-19921775D01*
X154874454Y-20088221D01*
X154909601Y-20264917D01*
X154909601Y-20445081D01*
X154874454Y-20621777D01*
X154805510Y-20788223D01*
X154705418Y-20938021D01*
X154578023Y-21065416D01*
X154428225Y-21165508D01*
X154261779Y-21234452D01*
X154085083Y-21269599D01*
X153904919Y-21269599D01*
X153728223Y-21234452D01*
X153561777Y-21165508D01*
X153411979Y-21065416D01*
X153284584Y-20938021D01*
X153184492Y-20788223D01*
X153115548Y-20621777D01*
X153080401Y-20445081D01*
X153080401Y-20264917D01*
X153115548Y-20088221D01*
X153184492Y-19921775D01*
X153284584Y-19771977D01*
X153411979Y-19644582D01*
X153561777Y-19544490D01*
X153728223Y-19475546D01*
X153904919Y-19440399D01*
X154085083Y-19440399D01*
X154261779Y-19475546D01*
G37*
G36*
X182201779Y-19475546D02*
G01*
X182368225Y-19544490D01*
X182518023Y-19644582D01*
X182645418Y-19771977D01*
X182745510Y-19921775D01*
X182814454Y-20088221D01*
X182849601Y-20264917D01*
X182849601Y-20445081D01*
X182814454Y-20621777D01*
X182745510Y-20788223D01*
X182645418Y-20938021D01*
X182518023Y-21065416D01*
X182368225Y-21165508D01*
X182201779Y-21234452D01*
X182025083Y-21269599D01*
X181844919Y-21269599D01*
X181668223Y-21234452D01*
X181501777Y-21165508D01*
X181351979Y-21065416D01*
X181224584Y-20938021D01*
X181124492Y-20788223D01*
X181055548Y-20621777D01*
X181020401Y-20445081D01*
X181020401Y-20264917D01*
X181055548Y-20088221D01*
X181124492Y-19921775D01*
X181224584Y-19771977D01*
X181351979Y-19644582D01*
X181501777Y-19544490D01*
X181668223Y-19475546D01*
X181844919Y-19440399D01*
X182025083Y-19440399D01*
X182201779Y-19475546D01*
G37*
G36*
X184741779Y-19475546D02*
G01*
X184908225Y-19544490D01*
X185058023Y-19644582D01*
X185185418Y-19771977D01*
X185285510Y-19921775D01*
X185354454Y-20088221D01*
X185389601Y-20264917D01*
X185389601Y-20445081D01*
X185354454Y-20621777D01*
X185285510Y-20788223D01*
X185185418Y-20938021D01*
X185058023Y-21065416D01*
X184908225Y-21165508D01*
X184741779Y-21234452D01*
X184565083Y-21269599D01*
X184384919Y-21269599D01*
X184208223Y-21234452D01*
X184041777Y-21165508D01*
X183891979Y-21065416D01*
X183764584Y-20938021D01*
X183664492Y-20788223D01*
X183595548Y-20621777D01*
X183560401Y-20445081D01*
X183560401Y-20264917D01*
X183595548Y-20088221D01*
X183664492Y-19921775D01*
X183764584Y-19771977D01*
X183891979Y-19644582D01*
X184041777Y-19544490D01*
X184208223Y-19475546D01*
X184384919Y-19440399D01*
X184565083Y-19440399D01*
X184741779Y-19475546D01*
G37*
G36*
X187281779Y-19475546D02*
G01*
X187448225Y-19544490D01*
X187598023Y-19644582D01*
X187725418Y-19771977D01*
X187825510Y-19921775D01*
X187894454Y-20088221D01*
X187929601Y-20264917D01*
X187929601Y-20445081D01*
X187894454Y-20621777D01*
X187825510Y-20788223D01*
X187725418Y-20938021D01*
X187598023Y-21065416D01*
X187448225Y-21165508D01*
X187281779Y-21234452D01*
X187105083Y-21269599D01*
X186924919Y-21269599D01*
X186748223Y-21234452D01*
X186581777Y-21165508D01*
X186431979Y-21065416D01*
X186304584Y-20938021D01*
X186204492Y-20788223D01*
X186135548Y-20621777D01*
X186100401Y-20445081D01*
X186100401Y-20264917D01*
X186135548Y-20088221D01*
X186204492Y-19921775D01*
X186304584Y-19771977D01*
X186431979Y-19644582D01*
X186581777Y-19544490D01*
X186748223Y-19475546D01*
X186924919Y-19440399D01*
X187105083Y-19440399D01*
X187281779Y-19475546D01*
G37*
M02*
