G04 #@! TF.GenerationSoftware,KiCad,Pcbnew,(5.1.5)-2*
G04 #@! TF.CreationDate,2020-01-02T03:10:15+01:00*
G04 #@! TF.ProjectId,CDP1802_Tester,43445031-3830-4325-9f54-65737465722e,rev?*
G04 #@! TF.SameCoordinates,Original*
G04 #@! TF.FileFunction,Copper,L2,Bot*
G04 #@! TF.FilePolarity,Positive*
%FSLAX46Y46*%
G04 Gerber Fmt 4.6, Leading zero omitted, Abs format (unit mm)*
G04 Created by KiCad (PCBNEW (5.1.5)-2) date 2020-01-02 03:10:15*
%MOMM*%
%LPD*%
G04 APERTURE LIST*
%ADD10O,1.727200X1.727200*%
%ADD11C,2.000000*%
%ADD12O,1.600000X1.600000*%
%ADD13R,1.600000X1.600000*%
%ADD14C,1.000000*%
%ADD15C,0.800000*%
%ADD16C,0.250000*%
%ADD17C,0.400000*%
G04 APERTURE END LIST*
D10*
X146375001Y-20354999D03*
X141295001Y-20354999D03*
X138755001Y-20354999D03*
X136215001Y-20354999D03*
X133675001Y-20354999D03*
X131135001Y-20354999D03*
X128595001Y-20354999D03*
X126055001Y-20354999D03*
X181935001Y-68614999D03*
X179395001Y-68614999D03*
X176855001Y-68614999D03*
X174315001Y-68614999D03*
X171775001Y-68614999D03*
X169235001Y-68614999D03*
X166695001Y-68614999D03*
X164155001Y-68614999D03*
X159075001Y-68614999D03*
X156535001Y-68614999D03*
X153995001Y-68614999D03*
X151455001Y-68614999D03*
X148915001Y-68614999D03*
X146375001Y-68614999D03*
X143835001Y-68614999D03*
X141295001Y-68614999D03*
X121991001Y-68614999D03*
X137231001Y-68614999D03*
X134691001Y-68614999D03*
X132151001Y-68614999D03*
X114371001Y-68614999D03*
X116911001Y-68614999D03*
X119451001Y-68614999D03*
X124531001Y-68614999D03*
X127071001Y-68614999D03*
X129611001Y-68614999D03*
X123515001Y-20354999D03*
X148915001Y-20354999D03*
X151455001Y-20354999D03*
X153995001Y-20354999D03*
X156535001Y-20354999D03*
X159075001Y-20354999D03*
X161615001Y-20354999D03*
X164155001Y-20354999D03*
X169235001Y-20354999D03*
X171775001Y-20354999D03*
X174315001Y-20354999D03*
X176855001Y-20354999D03*
X179395001Y-20354999D03*
X181935001Y-20354999D03*
X184475001Y-20354999D03*
X187015001Y-20354999D03*
X189555001Y-68614999D03*
X192095001Y-68614999D03*
X189555001Y-66074999D03*
X192095001Y-66074999D03*
X189555001Y-63534999D03*
X192095001Y-63534999D03*
X189555001Y-60994999D03*
X192095001Y-60994999D03*
X189555001Y-58454999D03*
X192095001Y-58454999D03*
X189555001Y-55914999D03*
X192095001Y-55914999D03*
X189555001Y-53374999D03*
X192095001Y-53374999D03*
X189555001Y-50834999D03*
X192095001Y-50834999D03*
X189555001Y-48294999D03*
X192095001Y-48294999D03*
X189555001Y-45754999D03*
X192095001Y-45754999D03*
X189555001Y-43214999D03*
X192095001Y-43214999D03*
X189555001Y-40674999D03*
X192095001Y-40674999D03*
X189555001Y-38134999D03*
X192095001Y-38134999D03*
X189555001Y-35594999D03*
X192095001Y-35594999D03*
X189555001Y-33054999D03*
X192095001Y-33054999D03*
X189555001Y-30514999D03*
X192095001Y-30514999D03*
X189555001Y-27974999D03*
X192095001Y-27974999D03*
X189555001Y-25434999D03*
X192095001Y-25434999D03*
D11*
X180710000Y-61474998D03*
X180710000Y-56974998D03*
X174210000Y-61474998D03*
X174210000Y-56974998D03*
X174210000Y-46706665D03*
X174210000Y-51206665D03*
X180710000Y-46706665D03*
X180710000Y-51206665D03*
X180710000Y-40938333D03*
X180710000Y-36438333D03*
X174210000Y-40938333D03*
X174210000Y-36438333D03*
X174210000Y-26170000D03*
X174210000Y-30670000D03*
X180710000Y-26170000D03*
X180710000Y-30670000D03*
D12*
X114030000Y-51440000D03*
X162290000Y-36200000D03*
X116570000Y-51440000D03*
X159750000Y-36200000D03*
X119110000Y-51440000D03*
X157210000Y-36200000D03*
X121650000Y-51440000D03*
X154670000Y-36200000D03*
X124190000Y-51440000D03*
X152130000Y-36200000D03*
X126730000Y-51440000D03*
X149590000Y-36200000D03*
X129270000Y-51440000D03*
X147050000Y-36200000D03*
X131810000Y-51440000D03*
X144510000Y-36200000D03*
X134350000Y-51440000D03*
X141970000Y-36200000D03*
X136890000Y-51440000D03*
X139430000Y-36200000D03*
X139430000Y-51440000D03*
X136890000Y-36200000D03*
X141970000Y-51440000D03*
X134350000Y-36200000D03*
X144510000Y-51440000D03*
X131810000Y-36200000D03*
X147050000Y-51440000D03*
X129270000Y-36200000D03*
X149590000Y-51440000D03*
X126730000Y-36200000D03*
X152130000Y-51440000D03*
X124190000Y-36200000D03*
X154670000Y-51440000D03*
X121650000Y-36200000D03*
X157210000Y-51440000D03*
X119110000Y-36200000D03*
X159750000Y-51440000D03*
X116570000Y-36200000D03*
X162290000Y-51440000D03*
D13*
X114030000Y-36200000D03*
D11*
X111290000Y-57920000D03*
X111290000Y-62420000D03*
X117790000Y-57920000D03*
X117790000Y-62420000D03*
D14*
X157710000Y-22570000D03*
X116500000Y-18770000D03*
X165150000Y-35840000D03*
D15*
X172510000Y-54150000D03*
X170130000Y-54090000D03*
X172350000Y-43710000D03*
X170130000Y-43630000D03*
X172180000Y-32610000D03*
X168610000Y-37280000D03*
D14*
X150290000Y-23680000D03*
D15*
X134410000Y-63680000D03*
X136940000Y-64250000D03*
X139430000Y-64720000D03*
X141960000Y-65300000D03*
X144490000Y-65740000D03*
X145540000Y-66410000D03*
X147500000Y-66540000D03*
X149880000Y-62140000D03*
X148090000Y-61280000D03*
X149910000Y-66910000D03*
X152820000Y-61830000D03*
X149310000Y-60000000D03*
X159830000Y-26190000D03*
X158060000Y-27370000D03*
X116940000Y-45530000D03*
X155000000Y-27830000D03*
X116890000Y-46730000D03*
X120680000Y-46890000D03*
X117310000Y-28930000D03*
X143360000Y-21140000D03*
X129340000Y-29700000D03*
X124480000Y-31180000D03*
X121760000Y-29770000D03*
X118990000Y-24720000D03*
X115790000Y-41390000D03*
D16*
X180710000Y-61474998D02*
X174210000Y-61474998D01*
X153995001Y-64774999D02*
X153995001Y-68614999D01*
X157430000Y-61340000D02*
X153995001Y-64774999D01*
X174210000Y-61474998D02*
X174075002Y-61340000D01*
X174075002Y-61340000D02*
X157430000Y-61340000D01*
D17*
X136215001Y-20354999D02*
X138755001Y-20354999D01*
X174210000Y-26170000D02*
X180710000Y-26170000D01*
X174210000Y-26170000D02*
X173030000Y-26170000D01*
X173030000Y-26170000D02*
X171080000Y-28120000D01*
X171080000Y-28120000D02*
X171080000Y-35220000D01*
X172298333Y-36438333D02*
X174210000Y-36438333D01*
X171080000Y-35220000D02*
X172298333Y-36438333D01*
X174210000Y-36438333D02*
X180710000Y-36438333D01*
X174210000Y-36438333D02*
X172731667Y-36438333D01*
X172731667Y-36438333D02*
X171320000Y-37850000D01*
X171320000Y-37850000D02*
X171320000Y-45740000D01*
X172286665Y-46706665D02*
X174210000Y-46706665D01*
X171320000Y-45740000D02*
X172286665Y-46706665D01*
X174210000Y-46706665D02*
X173463335Y-46706665D01*
X173463335Y-46706665D02*
X171440000Y-48730000D01*
X171440000Y-48730000D02*
X171440000Y-56190000D01*
X172224998Y-56974998D02*
X174210000Y-56974998D01*
X171440000Y-56190000D02*
X172224998Y-56974998D01*
X174210000Y-56974998D02*
X180710000Y-56974998D01*
X180710000Y-46706665D02*
X174210000Y-46706665D01*
X180710000Y-26170000D02*
X184620000Y-26170000D01*
X185355001Y-25434999D02*
X189555001Y-25434999D01*
X184620000Y-26170000D02*
X185355001Y-25434999D01*
X189555001Y-25434999D02*
X192095001Y-25434999D01*
X162290000Y-27140000D02*
X157650000Y-22500000D01*
X157650000Y-22500000D02*
X157650000Y-22510000D01*
X157650000Y-22510000D02*
X157710000Y-22570000D01*
X165150000Y-35840000D02*
X165200000Y-35790000D01*
X165200000Y-35790000D02*
X165200000Y-28470000D01*
X163870000Y-27140000D02*
X162290000Y-27140000D01*
X165200000Y-28470000D02*
X163870000Y-27140000D01*
X162650000Y-35840000D02*
X162290000Y-36200000D01*
X165150000Y-35840000D02*
X162650000Y-35840000D01*
X111020000Y-62440000D02*
X117520000Y-62440000D01*
D16*
X180710000Y-51206665D02*
X174210000Y-51206665D01*
X174210000Y-51206665D02*
X174210000Y-52450000D01*
X174210000Y-52450000D02*
X172510000Y-54150000D01*
X155190000Y-60850000D02*
X151455001Y-64584999D01*
X161110000Y-60850000D02*
X155190000Y-60850000D01*
X151455001Y-64584999D02*
X151455001Y-68614999D01*
X170130000Y-54090000D02*
X167870000Y-54090000D01*
X167870000Y-54090000D02*
X161110000Y-60850000D01*
X180710000Y-40938333D02*
X174210000Y-40938333D01*
X174210000Y-40938333D02*
X174210000Y-41850000D01*
X174210000Y-41850000D02*
X172350000Y-43710000D01*
X148915001Y-64404999D02*
X148915001Y-68614999D01*
X160710000Y-60370000D02*
X152950000Y-60370000D01*
X170130000Y-43630000D02*
X170130000Y-50950000D01*
X152950000Y-60370000D02*
X148915001Y-64404999D01*
X170130000Y-50950000D02*
X160710000Y-60370000D01*
X180710000Y-30670000D02*
X174210000Y-30670000D01*
X174210000Y-30670000D02*
X174120000Y-30670000D01*
X174120000Y-30670000D02*
X172180000Y-32610000D01*
X146375001Y-64384999D02*
X146375001Y-68614999D01*
X169090000Y-37760000D02*
X169090000Y-51190000D01*
X168610000Y-37280000D02*
X169090000Y-37760000D01*
X169090000Y-51190000D02*
X160420000Y-59860000D01*
X160420000Y-59860000D02*
X150900000Y-59860000D01*
X150900000Y-59860000D02*
X146375001Y-64384999D01*
D17*
X152130000Y-25100000D02*
X150710000Y-23680000D01*
X150710000Y-23680000D02*
X150290000Y-23680000D01*
X152130000Y-25100000D02*
X152130000Y-36200000D01*
D16*
X134350000Y-63620000D02*
X134350000Y-51440000D01*
X134410000Y-63680000D02*
X134350000Y-63620000D01*
X136890000Y-64200000D02*
X136890000Y-51440000D01*
X136940000Y-64250000D02*
X136890000Y-64200000D01*
X139430000Y-64720000D02*
X139430000Y-51440000D01*
X141970000Y-65290000D02*
X141970000Y-51440000D01*
X141960000Y-65300000D02*
X141970000Y-65290000D01*
X144510000Y-65720000D02*
X144510000Y-51440000D01*
X144490000Y-65740000D02*
X144510000Y-65720000D01*
X145540000Y-66410000D02*
X145570000Y-66380000D01*
X145570000Y-66380000D02*
X145570000Y-54640000D01*
X147050000Y-53160000D02*
X147050000Y-51440000D01*
X145570000Y-54640000D02*
X147050000Y-53160000D01*
X147500000Y-66540000D02*
X147500000Y-64520000D01*
X147500000Y-64520000D02*
X149880000Y-62140000D01*
X148090000Y-61280000D02*
X148090000Y-59860000D01*
X149590000Y-58360000D02*
X149590000Y-51440000D01*
X148090000Y-59860000D02*
X149590000Y-58360000D01*
X149910000Y-66910000D02*
X150370000Y-66450000D01*
X150370000Y-66450000D02*
X150370000Y-64280000D01*
X150370000Y-64280000D02*
X152820000Y-61830000D01*
X149310000Y-60000000D02*
X149310000Y-59690000D01*
X152130000Y-56870000D02*
X152130000Y-51440000D01*
X149310000Y-59690000D02*
X152130000Y-56870000D01*
X159830000Y-36120000D02*
X159750000Y-36200000D01*
X159830000Y-26190000D02*
X159830000Y-36120000D01*
X179395001Y-20354999D02*
X179395001Y-19555001D01*
X179395001Y-19555001D02*
X178790000Y-18950000D01*
X178790000Y-18950000D02*
X119270000Y-18950000D01*
X119270000Y-18950000D02*
X111270000Y-26950000D01*
X111270000Y-26950000D02*
X111270000Y-39800000D01*
X111270000Y-39800000D02*
X115550000Y-44080000D01*
X115550000Y-44080000D02*
X116950000Y-44080000D01*
X119110000Y-46240000D02*
X119110000Y-51440000D01*
X116950000Y-44080000D02*
X119110000Y-46240000D01*
X157210000Y-28220000D02*
X157210000Y-36200000D01*
X158060000Y-27370000D02*
X157210000Y-28220000D01*
X181935001Y-20354999D02*
X181935001Y-19215001D01*
X181935001Y-19215001D02*
X181200000Y-18480000D01*
X181200000Y-18480000D02*
X119100000Y-18480000D01*
X119100000Y-18480000D02*
X110780000Y-26800000D01*
X110780000Y-26800000D02*
X110780000Y-39970000D01*
X110780000Y-39970000D02*
X116340000Y-45530000D01*
X116340000Y-45530000D02*
X116940000Y-45530000D01*
X154670000Y-28160000D02*
X154670000Y-36200000D01*
X155000000Y-27830000D02*
X154670000Y-28160000D01*
X184475001Y-20354999D02*
X184475001Y-19015001D01*
X184475001Y-19015001D02*
X183480000Y-18020000D01*
X183480000Y-18020000D02*
X118890000Y-18020000D01*
X118890000Y-18020000D02*
X110320000Y-26590000D01*
X110320000Y-26590000D02*
X110320000Y-40220000D01*
X110320000Y-40220000D02*
X116830000Y-46730000D01*
X116830000Y-46730000D02*
X116890000Y-46730000D01*
X120680000Y-46890000D02*
X122060000Y-48270000D01*
X122060000Y-48270000D02*
X123370000Y-48270000D01*
X124190000Y-49090000D02*
X124190000Y-51440000D01*
X123370000Y-48270000D02*
X124190000Y-49090000D01*
X192095001Y-40674999D02*
X192944999Y-40674999D01*
X192944999Y-40674999D02*
X193330000Y-41060000D01*
X193330000Y-41060000D02*
X193330000Y-69670000D01*
X193330000Y-69670000D02*
X192170000Y-70830000D01*
X192170000Y-70830000D02*
X127200000Y-70830000D01*
X127200000Y-70830000D02*
X125760000Y-69390000D01*
X125760000Y-69390000D02*
X125760000Y-53920000D01*
X126730000Y-52950000D02*
X126730000Y-51440000D01*
X125760000Y-53920000D02*
X126730000Y-52950000D01*
X117310000Y-28930000D02*
X113340000Y-28930000D01*
X113340000Y-28930000D02*
X111750000Y-30520000D01*
X111750000Y-30520000D02*
X111750000Y-39380000D01*
X111750000Y-39380000D02*
X115890000Y-43520000D01*
X115890000Y-43520000D02*
X117630000Y-43520000D01*
X117630000Y-43520000D02*
X119700000Y-45590000D01*
X119700000Y-45590000D02*
X128020000Y-45590000D01*
X129270000Y-46840000D02*
X129270000Y-51440000D01*
X128020000Y-45590000D02*
X129270000Y-46840000D01*
X143360000Y-21140000D02*
X142750000Y-21140000D01*
X142750000Y-21140000D02*
X140910000Y-22980000D01*
X140910000Y-22980000D02*
X133480000Y-22980000D01*
X133480000Y-22980000D02*
X130590000Y-25870000D01*
X130590000Y-25870000D02*
X130590000Y-48070000D01*
X131810000Y-49290000D02*
X131810000Y-51440000D01*
X130590000Y-48070000D02*
X131810000Y-49290000D01*
X129270000Y-29770000D02*
X129270000Y-36200000D01*
X129340000Y-29700000D02*
X129270000Y-29770000D01*
X124190000Y-31470000D02*
X124190000Y-36200000D01*
X124480000Y-31180000D02*
X124190000Y-31470000D01*
X166230000Y-27830000D02*
X169235001Y-24824999D01*
X154670000Y-51440000D02*
X154670000Y-50450000D01*
X156250000Y-48870000D02*
X165600000Y-48870000D01*
X169235001Y-24824999D02*
X169235001Y-20354999D01*
X154670000Y-50450000D02*
X156250000Y-48870000D01*
X165600000Y-48870000D02*
X166230000Y-48240000D01*
X166230000Y-48240000D02*
X166230000Y-27830000D01*
X121650000Y-29880000D02*
X121650000Y-36200000D01*
X121760000Y-29770000D02*
X121650000Y-29880000D01*
X157210000Y-50180000D02*
X157210000Y-51440000D01*
X158020000Y-49370000D02*
X157210000Y-50180000D01*
X171775001Y-20354999D02*
X171775001Y-23054999D01*
X166740000Y-48450000D02*
X165820000Y-49370000D01*
X166740000Y-28090000D02*
X166740000Y-48450000D01*
X171775001Y-23054999D02*
X166740000Y-28090000D01*
X165820000Y-49370000D02*
X158020000Y-49370000D01*
X118990000Y-36080000D02*
X119110000Y-36200000D01*
X118990000Y-24720000D02*
X118990000Y-36080000D01*
X173520000Y-23300000D02*
X174315001Y-22504999D01*
X172230000Y-23300000D02*
X173520000Y-23300000D01*
X167220000Y-28310000D02*
X172230000Y-23300000D01*
X159750000Y-50530000D02*
X160440000Y-49840000D01*
X160440000Y-49840000D02*
X166070000Y-49840000D01*
X166070000Y-49840000D02*
X167220000Y-48690000D01*
X174315001Y-22504999D02*
X174315001Y-20354999D01*
X159750000Y-51440000D02*
X159750000Y-50530000D01*
X167220000Y-48690000D02*
X167220000Y-28310000D01*
X176855001Y-22084999D02*
X175090000Y-23850000D01*
X176855001Y-20354999D02*
X176855001Y-22084999D01*
X175090000Y-23850000D02*
X172370000Y-23850000D01*
X167700000Y-48930000D02*
X165190000Y-51440000D01*
X172370000Y-23850000D02*
X167700000Y-28520000D01*
X165190000Y-51440000D02*
X162290000Y-51440000D01*
X167700000Y-28520000D02*
X167700000Y-48930000D01*
X128595001Y-20354999D02*
X128595001Y-30854999D01*
X128595001Y-30854999D02*
X125490000Y-33960000D01*
X125490000Y-33960000D02*
X125490000Y-37440000D01*
X125490000Y-37440000D02*
X122020000Y-40910000D01*
X122020000Y-40910000D02*
X116270000Y-40910000D01*
X116270000Y-40910000D02*
X115790000Y-41390000D01*
D17*
X116500000Y-19210000D02*
X116500000Y-18770000D01*
X121991001Y-62581001D02*
X119860000Y-60450000D01*
X119860000Y-60450000D02*
X110420000Y-60450000D01*
X110420000Y-60450000D02*
X109560000Y-59590000D01*
X109560000Y-26150000D02*
X116500000Y-19210000D01*
X121991001Y-68614999D02*
X121991001Y-62581001D01*
X111290000Y-57920000D02*
X109580000Y-57920000D01*
X109580000Y-57920000D02*
X109550000Y-57890000D01*
X109560000Y-59590000D02*
X109550000Y-57890000D01*
X109550000Y-57890000D02*
X109560000Y-26150000D01*
X117790000Y-57920000D02*
X111290000Y-57920000D01*
M02*
