G04 #@! TF.GenerationSoftware,KiCad,Pcbnew,(5.1.5)-2*
G04 #@! TF.CreationDate,2020-03-13T12:58:49+01:00*
G04 #@! TF.ProjectId,CDP1802_Tester,43445031-3830-4325-9f54-65737465722e,rev?*
G04 #@! TF.SameCoordinates,Original*
G04 #@! TF.FileFunction,Copper,L1,Top*
G04 #@! TF.FilePolarity,Positive*
%FSLAX46Y46*%
G04 Gerber Fmt 4.6, Leading zero omitted, Abs format (unit mm)*
G04 Created by KiCad (PCBNEW (5.1.5)-2) date 2020-03-13 12:58:49*
%MOMM*%
%LPD*%
G04 APERTURE LIST*
%ADD10O,1.700000X1.700000*%
%ADD11R,1.700000X1.700000*%
%ADD12C,2.000000*%
%ADD13O,1.727200X1.727200*%
%ADD14O,1.600000X2.400000*%
%ADD15R,1.600000X2.400000*%
%ADD16C,1.000000*%
%ADD17C,0.800000*%
%ADD18C,0.400000*%
%ADD19C,0.250000*%
G04 APERTURE END LIST*
D10*
X146620000Y-29630000D03*
X144080000Y-29630000D03*
D11*
X141540000Y-29630000D03*
D12*
X180710000Y-61474998D03*
X180710000Y-56974998D03*
X174210000Y-61474998D03*
X174210000Y-56974998D03*
X174210000Y-46706665D03*
X174210000Y-51206665D03*
X180710000Y-46706665D03*
X180710000Y-51206665D03*
X180710000Y-40938333D03*
X180710000Y-36438333D03*
X174210000Y-40938333D03*
X174210000Y-36438333D03*
X174210000Y-26170000D03*
X174210000Y-30670000D03*
X180710000Y-26170000D03*
X180710000Y-30670000D03*
X111290000Y-57920000D03*
X111290000Y-62420000D03*
X117790000Y-57920000D03*
X117790000Y-62420000D03*
D13*
X146375001Y-20354999D03*
X141295001Y-20354999D03*
X138755001Y-20354999D03*
X136215001Y-20354999D03*
X133675001Y-20354999D03*
X131135001Y-20354999D03*
X128595001Y-20354999D03*
X126055001Y-20354999D03*
X181935001Y-68614999D03*
X179395001Y-68614999D03*
X176855001Y-68614999D03*
X174315001Y-68614999D03*
X171775001Y-68614999D03*
X169235001Y-68614999D03*
X166695001Y-68614999D03*
X164155001Y-68614999D03*
X159075001Y-68614999D03*
X156535001Y-68614999D03*
X153995001Y-68614999D03*
X151455001Y-68614999D03*
X148915001Y-68614999D03*
X146375001Y-68614999D03*
X143835001Y-68614999D03*
X141295001Y-68614999D03*
X121991001Y-68614999D03*
X137231001Y-68614999D03*
X134691001Y-68614999D03*
X132151001Y-68614999D03*
X114371001Y-68614999D03*
X116911001Y-68614999D03*
X119451001Y-68614999D03*
X124531001Y-68614999D03*
X127071001Y-68614999D03*
X129611001Y-68614999D03*
X123515001Y-20354999D03*
X148915001Y-20354999D03*
X151455001Y-20354999D03*
X153995001Y-20354999D03*
X156535001Y-20354999D03*
X159075001Y-20354999D03*
X161615001Y-20354999D03*
X164155001Y-20354999D03*
X169235001Y-20354999D03*
X171775001Y-20354999D03*
X174315001Y-20354999D03*
X176855001Y-20354999D03*
X179395001Y-20354999D03*
X181935001Y-20354999D03*
X184475001Y-20354999D03*
X187015001Y-20354999D03*
X189555001Y-68614999D03*
X192095001Y-68614999D03*
X189555001Y-66074999D03*
X192095001Y-66074999D03*
X189555001Y-63534999D03*
X192095001Y-63534999D03*
X189555001Y-60994999D03*
X192095001Y-60994999D03*
X189555001Y-58454999D03*
X192095001Y-58454999D03*
X189555001Y-55914999D03*
X192095001Y-55914999D03*
X189555001Y-53374999D03*
X192095001Y-53374999D03*
X189555001Y-50834999D03*
X192095001Y-50834999D03*
X189555001Y-48294999D03*
X192095001Y-48294999D03*
X189555001Y-45754999D03*
X192095001Y-45754999D03*
X189555001Y-43214999D03*
X192095001Y-43214999D03*
X189555001Y-40674999D03*
X192095001Y-40674999D03*
X189555001Y-38134999D03*
X192095001Y-38134999D03*
X189555001Y-35594999D03*
X192095001Y-35594999D03*
X189555001Y-33054999D03*
X192095001Y-33054999D03*
X189555001Y-30514999D03*
X192095001Y-30514999D03*
X189555001Y-27974999D03*
X192095001Y-27974999D03*
X189555001Y-25434999D03*
X192095001Y-25434999D03*
D14*
X114030000Y-51440000D03*
X162290000Y-36200000D03*
X116570000Y-51440000D03*
X159750000Y-36200000D03*
X119110000Y-51440000D03*
X157210000Y-36200000D03*
X121650000Y-51440000D03*
X154670000Y-36200000D03*
X124190000Y-51440000D03*
X152130000Y-36200000D03*
X126730000Y-51440000D03*
X149590000Y-36200000D03*
X129270000Y-51440000D03*
X147050000Y-36200000D03*
X131810000Y-51440000D03*
X144510000Y-36200000D03*
X134350000Y-51440000D03*
X141970000Y-36200000D03*
X136890000Y-51440000D03*
X139430000Y-36200000D03*
X139430000Y-51440000D03*
X136890000Y-36200000D03*
X141970000Y-51440000D03*
X134350000Y-36200000D03*
X144510000Y-51440000D03*
X131810000Y-36200000D03*
X147050000Y-51440000D03*
X129270000Y-36200000D03*
X149590000Y-51440000D03*
X126730000Y-36200000D03*
X152130000Y-51440000D03*
X124190000Y-36200000D03*
X154670000Y-51440000D03*
X121650000Y-36200000D03*
X157210000Y-51440000D03*
X119110000Y-36200000D03*
X159750000Y-51440000D03*
X116570000Y-36200000D03*
X162290000Y-51440000D03*
D15*
X114030000Y-36200000D03*
D16*
X157710000Y-22570000D03*
X116500000Y-18770000D03*
X165150000Y-35840000D03*
D17*
X172510000Y-54150000D03*
X170130000Y-54090000D03*
X172350000Y-43710000D03*
X170130000Y-43630000D03*
X172180000Y-32610000D03*
X168610000Y-37280000D03*
D16*
X143720000Y-24150000D03*
D17*
X134410000Y-63680000D03*
X136940000Y-64250000D03*
X139430000Y-64720000D03*
X141960000Y-65300000D03*
X144490000Y-65740000D03*
X145540000Y-66410000D03*
X147500000Y-66540000D03*
X149880000Y-62140000D03*
X148090000Y-61280000D03*
X149910000Y-66910000D03*
X152820000Y-61830000D03*
X149310000Y-60000000D03*
X159830000Y-26190000D03*
X158060000Y-27370000D03*
X116940000Y-45530000D03*
X155000000Y-27830000D03*
X116890000Y-46730000D03*
X120680000Y-46890000D03*
X117310000Y-28930000D03*
X143360000Y-21140000D03*
X129340000Y-29700000D03*
X124480000Y-31180000D03*
X121760000Y-29770000D03*
X118990000Y-24720000D03*
X115790000Y-41390000D03*
X145160000Y-23580000D03*
D18*
X157710000Y-22570000D02*
X157640000Y-22500000D01*
X157640000Y-22500000D02*
X139190000Y-22500000D01*
X138755001Y-22065001D02*
X138755001Y-20354999D01*
X139190000Y-22500000D02*
X138755001Y-22065001D01*
X174210000Y-36438333D02*
X171451667Y-36438333D01*
X171451667Y-36438333D02*
X169610000Y-38280000D01*
X169610000Y-38280000D02*
X167440000Y-38280000D01*
X167440000Y-38280000D02*
X165360000Y-36200000D01*
X136215001Y-20354999D02*
X136215001Y-20175001D01*
X136215001Y-20175001D02*
X134810000Y-18770000D01*
X134810000Y-18770000D02*
X116500000Y-18770000D01*
X165360000Y-36200000D02*
X165360000Y-36050000D01*
X165360000Y-36050000D02*
X165150000Y-35840000D01*
D19*
X172510000Y-54150000D02*
X172450000Y-54090000D01*
X172450000Y-54090000D02*
X170130000Y-54090000D01*
X172350000Y-43710000D02*
X172270000Y-43630000D01*
X172270000Y-43630000D02*
X170130000Y-43630000D01*
X169170000Y-36720000D02*
X168610000Y-37280000D01*
X169170000Y-32750000D02*
X169170000Y-36720000D01*
X172180000Y-32610000D02*
X172040000Y-32750000D01*
X172040000Y-32750000D02*
X169170000Y-32750000D01*
D18*
X110610000Y-28160000D02*
X110610000Y-28310000D01*
X116760000Y-22010000D02*
X110610000Y-28160000D01*
X133675001Y-20354999D02*
X133675001Y-21574999D01*
X133240000Y-22010000D02*
X116760000Y-22010000D01*
X133675001Y-21574999D02*
X133240000Y-22010000D01*
X110610000Y-28160000D02*
X110610000Y-50070000D01*
X111980000Y-51440000D02*
X114030000Y-51440000D01*
X110610000Y-50070000D02*
X111980000Y-51440000D01*
X133675001Y-20354999D02*
X133675001Y-22635001D01*
X133675001Y-22635001D02*
X135190000Y-24150000D01*
X135190000Y-24150000D02*
X143720000Y-24150000D01*
D19*
X150330000Y-38090000D02*
X149590000Y-37350000D01*
X188550000Y-47020000D02*
X187450000Y-45920000D01*
X149590000Y-37350000D02*
X149590000Y-36200000D01*
X170790000Y-38190000D02*
X169950000Y-39030000D01*
X190740000Y-47020000D02*
X188550000Y-47020000D01*
X192095001Y-48294999D02*
X192014999Y-48294999D01*
X167040000Y-39030000D02*
X166100000Y-38090000D01*
X187450000Y-42300000D02*
X183340000Y-38190000D01*
X192014999Y-48294999D02*
X190740000Y-47020000D01*
X169950000Y-39030000D02*
X167040000Y-39030000D01*
X187450000Y-45920000D02*
X187450000Y-42300000D01*
X183340000Y-38190000D02*
X170790000Y-38190000D01*
X166100000Y-38090000D02*
X150330000Y-38090000D01*
X147050000Y-37350000D02*
X147050000Y-36200000D01*
X148250000Y-38550000D02*
X147050000Y-37350000D01*
X166740000Y-39540000D02*
X165750000Y-38550000D01*
X170190000Y-39540000D02*
X166740000Y-39540000D01*
X188224999Y-48294999D02*
X186920000Y-46990000D01*
X186920000Y-42560000D02*
X183000000Y-38640000D01*
X189555001Y-48294999D02*
X188224999Y-48294999D01*
X165750000Y-38550000D02*
X148250000Y-38550000D01*
X171090000Y-38640000D02*
X170190000Y-39540000D01*
X186920000Y-46990000D02*
X186920000Y-42560000D01*
X183000000Y-38640000D02*
X171090000Y-38640000D01*
X145800000Y-39010000D02*
X144510000Y-37720000D01*
X190920000Y-49590000D02*
X188460000Y-49590000D01*
X192095001Y-50834999D02*
X192095001Y-50765001D01*
X186330000Y-47460000D02*
X186330000Y-42790000D01*
X192095001Y-50765001D02*
X190920000Y-49590000D01*
X186330000Y-42790000D02*
X182660000Y-39120000D01*
X171360000Y-39120000D02*
X170440000Y-40040000D01*
X144510000Y-37720000D02*
X144510000Y-36200000D01*
X182660000Y-39120000D02*
X171360000Y-39120000D01*
X188460000Y-49590000D02*
X186330000Y-47460000D01*
X170440000Y-40040000D02*
X166530000Y-40040000D01*
X165500000Y-39010000D02*
X145800000Y-39010000D01*
X166530000Y-40040000D02*
X165500000Y-39010000D01*
X192095001Y-58245001D02*
X192095001Y-58454999D01*
X186300000Y-60300000D02*
X186300000Y-59330000D01*
X181680000Y-63230000D02*
X181680000Y-63220000D01*
X137660000Y-63230000D02*
X181680000Y-63230000D01*
X190990000Y-57140000D02*
X192095001Y-58245001D01*
X185390030Y-61209970D02*
X186300000Y-60300000D01*
X183690030Y-61209970D02*
X185390030Y-61209970D01*
X181680000Y-63220000D02*
X183690030Y-61209970D01*
X188490000Y-57140000D02*
X190990000Y-57140000D01*
X186300000Y-59330000D02*
X188490000Y-57140000D01*
X137660000Y-63230000D02*
X134860000Y-63230000D01*
X134860000Y-63230000D02*
X134410000Y-63680000D01*
X143410000Y-39470000D02*
X141970000Y-38030000D01*
X141970000Y-38030000D02*
X141970000Y-36200000D01*
X166300000Y-40540000D02*
X165230000Y-39470000D01*
X170576410Y-40540000D02*
X166300000Y-40540000D01*
X165230000Y-39470000D02*
X143410000Y-39470000D01*
X188994999Y-50834999D02*
X185879990Y-47719990D01*
X185879990Y-47719990D02*
X185879990Y-43009990D01*
X189555001Y-50834999D02*
X188994999Y-50834999D01*
X185879990Y-43009990D02*
X182440010Y-39570010D01*
X171546400Y-39570010D02*
X170576410Y-40540000D01*
X182440010Y-39570010D02*
X171546400Y-39570010D01*
X187815001Y-58454999D02*
X189555001Y-58454999D01*
X186760000Y-59510000D02*
X187815001Y-58454999D01*
X186760000Y-60500000D02*
X186760000Y-59510000D01*
X137490000Y-63700000D02*
X181860000Y-63700000D01*
X183900020Y-61659980D02*
X185600020Y-61659980D01*
X136940000Y-64250000D02*
X137490000Y-63700000D01*
X181860000Y-63700000D02*
X183900020Y-61659980D01*
X185600020Y-61659980D02*
X186760000Y-60500000D01*
X140950000Y-39930000D02*
X139430000Y-38410000D01*
X139430000Y-38410000D02*
X139430000Y-36200000D01*
X167400000Y-42330000D02*
X165000000Y-39930000D01*
X183310000Y-42330000D02*
X167400000Y-42330000D01*
X185090000Y-44110000D02*
X183310000Y-42330000D01*
X165000000Y-39930000D02*
X140950000Y-39930000D01*
X192095001Y-53374999D02*
X192095001Y-53295001D01*
X192095001Y-53295001D02*
X190870000Y-52070000D01*
X190870000Y-52070000D02*
X188170000Y-52070000D01*
X188170000Y-52070000D02*
X185090000Y-48990000D01*
X185090000Y-48990000D02*
X185090000Y-44110000D01*
X190760000Y-59710000D02*
X192044999Y-60994999D01*
X187220000Y-60120000D02*
X187630000Y-59710000D01*
X187220000Y-60749990D02*
X187220000Y-60120000D01*
X192044999Y-60994999D02*
X192095001Y-60994999D01*
X139990000Y-64160000D02*
X182090000Y-64160000D01*
X185860000Y-62109990D02*
X187220000Y-60749990D01*
X139430000Y-64720000D02*
X139990000Y-64160000D01*
X182090000Y-64160000D02*
X184140010Y-62109990D01*
X187630000Y-59710000D02*
X190760000Y-59710000D01*
X184140010Y-62109990D02*
X185860000Y-62109990D01*
X136890000Y-38890000D02*
X136890000Y-36200000D01*
X138390000Y-40390000D02*
X136890000Y-38890000D01*
X167130000Y-42790000D02*
X164730000Y-40390000D01*
X188684999Y-53374999D02*
X184610000Y-49300000D01*
X184610000Y-44290000D02*
X183110000Y-42790000D01*
X164730000Y-40390000D02*
X138390000Y-40390000D01*
X189555001Y-53374999D02*
X188684999Y-53374999D01*
X184610000Y-49300000D02*
X184610000Y-44290000D01*
X183110000Y-42790000D02*
X167130000Y-42790000D01*
X189555001Y-60994999D02*
X188514999Y-60994999D01*
X188095001Y-60994999D02*
X188404999Y-60994999D01*
X187820000Y-61270000D02*
X188095001Y-60994999D01*
X187370000Y-61270000D02*
X187820000Y-61270000D01*
X142620000Y-64640000D02*
X182290000Y-64640000D01*
X188404999Y-60994999D02*
X189555001Y-60994999D01*
X141960000Y-65300000D02*
X142620000Y-64640000D01*
X182290000Y-64640000D02*
X184370000Y-62560000D01*
X184370000Y-62560000D02*
X186080000Y-62560000D01*
X186080000Y-62560000D02*
X187370000Y-61270000D01*
X168150000Y-44450000D02*
X164550000Y-40850000D01*
X183070000Y-44450000D02*
X168150000Y-44450000D01*
X184160000Y-45540000D02*
X183070000Y-44450000D01*
X192095001Y-55825001D02*
X190850000Y-54580000D01*
X136360000Y-40850000D02*
X134350000Y-38840000D01*
X188660000Y-54580000D02*
X184160000Y-50080000D01*
X192095001Y-55914999D02*
X192095001Y-55825001D01*
X190850000Y-54580000D02*
X188660000Y-54580000D01*
X134350000Y-38840000D02*
X134350000Y-36200000D01*
X164550000Y-40850000D02*
X136360000Y-40850000D01*
X184160000Y-50080000D02*
X184160000Y-45540000D01*
X145120000Y-65110000D02*
X144490000Y-65740000D01*
X182490000Y-65110000D02*
X145120000Y-65110000D01*
X184580000Y-63020000D02*
X182490000Y-65110000D01*
X192014999Y-63534999D02*
X190760000Y-62280000D01*
X190760000Y-62280000D02*
X187000000Y-62280000D01*
X192095001Y-63534999D02*
X192014999Y-63534999D01*
X187000000Y-62280000D02*
X186260000Y-63020000D01*
X186260000Y-63020000D02*
X184580000Y-63020000D01*
X134010000Y-41310000D02*
X131810000Y-39110000D01*
X164310000Y-41310000D02*
X134010000Y-41310000D01*
X167910000Y-44910000D02*
X164310000Y-41310000D01*
X131810000Y-39110000D02*
X131810000Y-36200000D01*
X189334999Y-55914999D02*
X183710000Y-50290000D01*
X183710000Y-50290000D02*
X183710000Y-45770000D01*
X183710000Y-45770000D02*
X182850000Y-44910000D01*
X189555001Y-55914999D02*
X189334999Y-55914999D01*
X182850000Y-44910000D02*
X167910000Y-44910000D01*
X146360000Y-65590000D02*
X145540000Y-66410000D01*
X189555001Y-63534999D02*
X184765001Y-63534999D01*
X182710000Y-65590000D02*
X146360000Y-65590000D01*
X184765001Y-63534999D02*
X182710000Y-65590000D01*
X149880000Y-62140000D02*
X149020000Y-61280000D01*
X149020000Y-61280000D02*
X148090000Y-61280000D01*
X147970000Y-66070000D02*
X147500000Y-66540000D01*
X192095001Y-65975001D02*
X190900000Y-64780000D01*
X192095001Y-66074999D02*
X192095001Y-65975001D01*
X190900000Y-64780000D02*
X184180000Y-64780000D01*
X184180000Y-64780000D02*
X182890000Y-66070000D01*
X182890000Y-66070000D02*
X147970000Y-66070000D01*
X152820000Y-61830000D02*
X150990000Y-60000000D01*
X150990000Y-60000000D02*
X149310000Y-60000000D01*
X150230000Y-66590000D02*
X149910000Y-66910000D01*
X187634999Y-66074999D02*
X186870000Y-65310000D01*
X189555001Y-66074999D02*
X187634999Y-66074999D01*
X183130000Y-66590000D02*
X150230000Y-66590000D01*
X186870000Y-65310000D02*
X184410000Y-65310000D01*
X184410000Y-65310000D02*
X183130000Y-66590000D01*
X118930000Y-22840000D02*
X117030000Y-22840000D01*
X117030000Y-22840000D02*
X111450000Y-28420000D01*
X120514990Y-24424990D02*
X118930000Y-22840000D01*
X194430000Y-29980000D02*
X194430000Y-23820000D01*
X194430000Y-23820000D02*
X194220000Y-23820000D01*
X157470000Y-25230000D02*
X120514990Y-25230000D01*
X193895001Y-30514999D02*
X194430000Y-29980000D01*
X192095001Y-30514999D02*
X193895001Y-30514999D01*
X188780000Y-22130000D02*
X160570000Y-22130000D01*
X193450000Y-23050000D02*
X189700000Y-23050000D01*
X111450000Y-28420000D02*
X111450000Y-34960000D01*
X189700000Y-23050000D02*
X188780000Y-22130000D01*
X112690000Y-36200000D02*
X114030000Y-36200000D01*
X194220000Y-23820000D02*
X193450000Y-23050000D01*
X160570000Y-22130000D02*
X157470000Y-25230000D01*
X111450000Y-34960000D02*
X112690000Y-36200000D01*
X120514990Y-25230000D02*
X120514990Y-24424990D01*
X161320000Y-23710000D02*
X159830000Y-25200000D01*
X186160000Y-23710000D02*
X161320000Y-23710000D01*
X186870000Y-24420000D02*
X186160000Y-23710000D01*
X192095001Y-33054999D02*
X192044999Y-33054999D01*
X190740000Y-31750000D02*
X188290000Y-31750000D01*
X159830000Y-25200000D02*
X159830000Y-26190000D01*
X188290000Y-31750000D02*
X186870000Y-30330000D01*
X192044999Y-33054999D02*
X190740000Y-31750000D01*
X186870000Y-30330000D02*
X186870000Y-24420000D01*
X158510000Y-26920000D02*
X158060000Y-27370000D01*
X163070000Y-24170000D02*
X160320000Y-26920000D01*
X188904999Y-33054999D02*
X186360000Y-30510000D01*
X160320000Y-26920000D02*
X158510000Y-26920000D01*
X186360000Y-25010000D02*
X185520000Y-24170000D01*
X189555001Y-33054999D02*
X188904999Y-33054999D01*
X185520000Y-24170000D02*
X163070000Y-24170000D01*
X186360000Y-30510000D02*
X186360000Y-25010000D01*
X116940000Y-45530000D02*
X121240000Y-45530000D01*
X121650000Y-45940000D02*
X121650000Y-51440000D01*
X121240000Y-45530000D02*
X121650000Y-45940000D01*
X159950000Y-28100000D02*
X155270000Y-28100000D01*
X163420000Y-24630000D02*
X159950000Y-28100000D01*
X185870000Y-25940000D02*
X184560000Y-24630000D01*
X191824999Y-35594999D02*
X190550000Y-34320000D01*
X155270000Y-28100000D02*
X155000000Y-27830000D01*
X192095001Y-35594999D02*
X191824999Y-35594999D01*
X190550000Y-34320000D02*
X188900000Y-34320000D01*
X188900000Y-34320000D02*
X185870000Y-31290000D01*
X184560000Y-24630000D02*
X163420000Y-24630000D01*
X185870000Y-31290000D02*
X185870000Y-25940000D01*
X116890000Y-46730000D02*
X120520000Y-46730000D01*
X120520000Y-46730000D02*
X120680000Y-46890000D01*
X184150000Y-27730000D02*
X161110000Y-27730000D01*
X185390000Y-28970000D02*
X184150000Y-27730000D01*
X161110000Y-27730000D02*
X160240000Y-28600000D01*
X154490000Y-28600000D02*
X152520000Y-26630000D01*
X152520000Y-26630000D02*
X131650000Y-26630000D01*
X185390000Y-31720000D02*
X185390000Y-28970000D01*
X189555001Y-35594999D02*
X189264999Y-35594999D01*
X189264999Y-35594999D02*
X185390000Y-31720000D01*
X117640000Y-28600000D02*
X117310000Y-28930000D01*
X160240000Y-28600000D02*
X154490000Y-28600000D01*
X131650000Y-26630000D02*
X129680000Y-28600000D01*
X129680000Y-28600000D02*
X117640000Y-28600000D01*
X192095001Y-38134999D02*
X192985001Y-38134999D01*
X192985001Y-38134999D02*
X194880000Y-36240000D01*
X194880000Y-36240000D02*
X194880000Y-23480000D01*
X194880000Y-23480000D02*
X193730000Y-22330000D01*
X193730000Y-22330000D02*
X189790000Y-22330000D01*
X189790000Y-22330000D02*
X188740000Y-21280000D01*
X188740000Y-21280000D02*
X188740000Y-18930000D01*
X188740000Y-18930000D02*
X188580000Y-19090000D01*
X188580000Y-19090000D02*
X144910000Y-19090000D01*
X144910000Y-19090000D02*
X143360000Y-20640000D01*
X143360000Y-20640000D02*
X143360000Y-21140000D01*
X131950000Y-27090000D02*
X129340000Y-29700000D01*
X152300000Y-27090000D02*
X131950000Y-27090000D01*
X189024999Y-38134999D02*
X184940000Y-34050000D01*
X189555001Y-38134999D02*
X189024999Y-38134999D01*
X160460000Y-29130000D02*
X154340000Y-29130000D01*
X184940000Y-34050000D02*
X184940000Y-29240000D01*
X154340000Y-29130000D02*
X152300000Y-27090000D01*
X184940000Y-29240000D02*
X183930000Y-28230000D01*
X161360000Y-28230000D02*
X160460000Y-29130000D01*
X183930000Y-28230000D02*
X161360000Y-28230000D01*
X192095001Y-43214999D02*
X192794999Y-43214999D01*
X192794999Y-43214999D02*
X193330000Y-43750000D01*
X193330000Y-43750000D02*
X193330000Y-69490000D01*
X193330000Y-69490000D02*
X192240000Y-70580000D01*
X192240000Y-70580000D02*
X126950000Y-70580000D01*
X126950000Y-70580000D02*
X125860000Y-69490000D01*
X125860000Y-69490000D02*
X125860000Y-53830000D01*
X125860000Y-53830000D02*
X125560000Y-53530000D01*
X125560000Y-53530000D02*
X125560000Y-39460000D01*
X126730000Y-38290000D02*
X126730000Y-36200000D01*
X125560000Y-39460000D02*
X126730000Y-38290000D01*
X124730000Y-30930000D02*
X124480000Y-31180000D01*
X183370000Y-29190000D02*
X161830000Y-29190000D01*
X151840000Y-27990000D02*
X132910000Y-27990000D01*
X183970000Y-29790000D02*
X183370000Y-29190000D01*
X189555001Y-43214999D02*
X189114999Y-43214999D01*
X189114999Y-43214999D02*
X183970000Y-38070000D01*
X161830000Y-29190000D02*
X160830000Y-30190000D01*
X183970000Y-38070000D02*
X183970000Y-29790000D01*
X160830000Y-30190000D02*
X154040000Y-30190000D01*
X132910000Y-27990000D02*
X129970000Y-30930000D01*
X154040000Y-30190000D02*
X151840000Y-27990000D01*
X129970000Y-30930000D02*
X124730000Y-30930000D01*
X122440000Y-30450000D02*
X121760000Y-29770000D01*
X183650000Y-28730000D02*
X161630000Y-28730000D01*
X184490000Y-29570000D02*
X183650000Y-28730000D01*
X188754999Y-40674999D02*
X184490000Y-36410000D01*
X184490000Y-36410000D02*
X184490000Y-29570000D01*
X154200000Y-29650000D02*
X152090000Y-27540000D01*
X189555001Y-40674999D02*
X188754999Y-40674999D01*
X161630000Y-28730000D02*
X160710000Y-29650000D01*
X160710000Y-29650000D02*
X154200000Y-29650000D01*
X152090000Y-27540000D02*
X132660000Y-27540000D01*
X132660000Y-27540000D02*
X129750000Y-30450000D01*
X129750000Y-30450000D02*
X122440000Y-30450000D01*
X119960000Y-25690000D02*
X118990000Y-24720000D01*
X188540000Y-22700000D02*
X160760000Y-22700000D01*
X189370000Y-23530000D02*
X188540000Y-22700000D01*
X193385001Y-27974999D02*
X193930000Y-27430000D01*
X193930000Y-27430000D02*
X193930000Y-24360000D01*
X192095001Y-27974999D02*
X193385001Y-27974999D01*
X157770000Y-25690000D02*
X119960000Y-25690000D01*
X160760000Y-22700000D02*
X157770000Y-25690000D01*
X193930000Y-24360000D02*
X193100000Y-23530000D01*
X193100000Y-23530000D02*
X189370000Y-23530000D01*
X116570000Y-27370000D02*
X116570000Y-36200000D01*
X188374999Y-27974999D02*
X187950000Y-27550000D01*
X161040000Y-23210000D02*
X158100000Y-26150000D01*
X187950000Y-27550000D02*
X187950000Y-23610000D01*
X158100000Y-26150000D02*
X117790000Y-26150000D01*
X187550000Y-23210000D02*
X161040000Y-23210000D01*
X189555001Y-27974999D02*
X188374999Y-27974999D01*
X117790000Y-26150000D02*
X116570000Y-27370000D01*
X187950000Y-23610000D02*
X187550000Y-23210000D01*
X115410000Y-60040000D02*
X117790000Y-62420000D01*
X115410000Y-48670000D02*
X115410000Y-60040000D01*
X113730000Y-46990000D02*
X115410000Y-48670000D01*
X115790000Y-41390000D02*
X113730000Y-43450000D01*
X113730000Y-43450000D02*
X113730000Y-46990000D01*
X187015001Y-20354999D02*
X187015001Y-21214999D01*
X187015001Y-21214999D02*
X186580000Y-21650000D01*
X186580000Y-21650000D02*
X160239990Y-21650000D01*
X160239990Y-21650000D02*
X157109990Y-24780000D01*
X157109990Y-24780000D02*
X145570000Y-24780000D01*
X145570000Y-24780000D02*
X144840000Y-24050000D01*
X144840000Y-24050000D02*
X144840000Y-23515010D01*
X144840000Y-23515010D02*
X144904990Y-23580000D01*
X144904990Y-23580000D02*
X145160000Y-23580000D01*
X152130000Y-36200000D02*
X152130000Y-35200000D01*
X152130000Y-35200000D02*
X149380000Y-32450000D01*
X149380000Y-32450000D02*
X144970000Y-32450000D01*
X144080000Y-31560000D02*
X144080000Y-29630000D01*
X144970000Y-32450000D02*
X144080000Y-31560000D01*
M02*
