G04 #@! TF.GenerationSoftware,KiCad,Pcbnew,(5.1.5)-2*
G04 #@! TF.CreationDate,2020-03-13T12:58:49+01:00*
G04 #@! TF.ProjectId,CDP1802_Tester,43445031-3830-4325-9f54-65737465722e,rev?*
G04 #@! TF.SameCoordinates,Original*
G04 #@! TF.FileFunction,Soldermask,Bot*
G04 #@! TF.FilePolarity,Negative*
%FSLAX46Y46*%
G04 Gerber Fmt 4.6, Leading zero omitted, Abs format (unit mm)*
G04 Created by KiCad (PCBNEW (5.1.5)-2) date 2020-03-13 12:58:49*
%MOMM*%
%LPD*%
G04 APERTURE LIST*
%ADD10C,0.100000*%
G04 APERTURE END LIST*
D10*
G36*
X186120257Y-67006297D02*
G01*
X186226580Y-67027446D01*
X186527043Y-67151902D01*
X186797452Y-67332584D01*
X187027416Y-67562548D01*
X187208098Y-67832957D01*
X187208099Y-67832959D01*
X187332554Y-68133421D01*
X187396001Y-68452388D01*
X187396001Y-68777610D01*
X187332554Y-69096577D01*
X187237767Y-69325415D01*
X187208098Y-69397041D01*
X187027416Y-69667450D01*
X186797452Y-69897414D01*
X186527043Y-70078096D01*
X186226580Y-70202552D01*
X186120257Y-70223701D01*
X185907612Y-70265999D01*
X185582390Y-70265999D01*
X185369745Y-70223701D01*
X185263422Y-70202552D01*
X184962959Y-70078096D01*
X184692550Y-69897414D01*
X184462586Y-69667450D01*
X184281904Y-69397041D01*
X184252236Y-69325415D01*
X184157448Y-69096577D01*
X184094001Y-68777610D01*
X184094001Y-68452388D01*
X184157448Y-68133421D01*
X184281903Y-67832959D01*
X184281904Y-67832957D01*
X184462586Y-67562548D01*
X184692550Y-67332584D01*
X184962959Y-67151902D01*
X185263422Y-67027446D01*
X185369745Y-67006297D01*
X185582390Y-66963999D01*
X185907612Y-66963999D01*
X186120257Y-67006297D01*
G37*
G36*
X111190257Y-67006297D02*
G01*
X111296580Y-67027446D01*
X111597043Y-67151902D01*
X111867452Y-67332584D01*
X112097416Y-67562548D01*
X112278098Y-67832957D01*
X112278099Y-67832959D01*
X112402554Y-68133421D01*
X112466001Y-68452388D01*
X112466001Y-68777610D01*
X112402554Y-69096577D01*
X112307767Y-69325415D01*
X112278098Y-69397041D01*
X112097416Y-69667450D01*
X111867452Y-69897414D01*
X111597043Y-70078096D01*
X111296580Y-70202552D01*
X111190257Y-70223701D01*
X110977612Y-70265999D01*
X110652390Y-70265999D01*
X110439745Y-70223701D01*
X110333422Y-70202552D01*
X110032959Y-70078096D01*
X109762550Y-69897414D01*
X109532586Y-69667450D01*
X109351904Y-69397041D01*
X109322236Y-69325415D01*
X109227448Y-69096577D01*
X109164001Y-68777610D01*
X109164001Y-68452388D01*
X109227448Y-68133421D01*
X109351903Y-67832959D01*
X109351904Y-67832957D01*
X109532586Y-67562548D01*
X109762550Y-67332584D01*
X110032959Y-67151902D01*
X110333422Y-67027446D01*
X110439745Y-67006297D01*
X110652390Y-66963999D01*
X110977612Y-66963999D01*
X111190257Y-67006297D01*
G37*
G36*
X137497779Y-67735546D02*
G01*
X137664225Y-67804490D01*
X137814023Y-67904582D01*
X137941418Y-68031977D01*
X138041510Y-68181775D01*
X138110454Y-68348221D01*
X138145601Y-68524917D01*
X138145601Y-68705081D01*
X138110454Y-68881777D01*
X138041510Y-69048223D01*
X137941418Y-69198021D01*
X137814023Y-69325416D01*
X137664225Y-69425508D01*
X137497779Y-69494452D01*
X137321083Y-69529599D01*
X137140919Y-69529599D01*
X136964223Y-69494452D01*
X136797777Y-69425508D01*
X136647979Y-69325416D01*
X136520584Y-69198021D01*
X136420492Y-69048223D01*
X136351548Y-68881777D01*
X136316401Y-68705081D01*
X136316401Y-68524917D01*
X136351548Y-68348221D01*
X136420492Y-68181775D01*
X136520584Y-68031977D01*
X136647979Y-67904582D01*
X136797777Y-67804490D01*
X136964223Y-67735546D01*
X137140919Y-67700399D01*
X137321083Y-67700399D01*
X137497779Y-67735546D01*
G37*
G36*
X144101779Y-67735546D02*
G01*
X144268225Y-67804490D01*
X144418023Y-67904582D01*
X144545418Y-68031977D01*
X144645510Y-68181775D01*
X144714454Y-68348221D01*
X144749601Y-68524917D01*
X144749601Y-68705081D01*
X144714454Y-68881777D01*
X144645510Y-69048223D01*
X144545418Y-69198021D01*
X144418023Y-69325416D01*
X144268225Y-69425508D01*
X144101779Y-69494452D01*
X143925083Y-69529599D01*
X143744919Y-69529599D01*
X143568223Y-69494452D01*
X143401777Y-69425508D01*
X143251979Y-69325416D01*
X143124584Y-69198021D01*
X143024492Y-69048223D01*
X142955548Y-68881777D01*
X142920401Y-68705081D01*
X142920401Y-68524917D01*
X142955548Y-68348221D01*
X143024492Y-68181775D01*
X143124584Y-68031977D01*
X143251979Y-67904582D01*
X143401777Y-67804490D01*
X143568223Y-67735546D01*
X143744919Y-67700399D01*
X143925083Y-67700399D01*
X144101779Y-67735546D01*
G37*
G36*
X129877779Y-67735546D02*
G01*
X130044225Y-67804490D01*
X130194023Y-67904582D01*
X130321418Y-68031977D01*
X130421510Y-68181775D01*
X130490454Y-68348221D01*
X130525601Y-68524917D01*
X130525601Y-68705081D01*
X130490454Y-68881777D01*
X130421510Y-69048223D01*
X130321418Y-69198021D01*
X130194023Y-69325416D01*
X130044225Y-69425508D01*
X129877779Y-69494452D01*
X129701083Y-69529599D01*
X129520919Y-69529599D01*
X129344223Y-69494452D01*
X129177777Y-69425508D01*
X129027979Y-69325416D01*
X128900584Y-69198021D01*
X128800492Y-69048223D01*
X128731548Y-68881777D01*
X128696401Y-68705081D01*
X128696401Y-68524917D01*
X128731548Y-68348221D01*
X128800492Y-68181775D01*
X128900584Y-68031977D01*
X129027979Y-67904582D01*
X129177777Y-67804490D01*
X129344223Y-67735546D01*
X129520919Y-67700399D01*
X129701083Y-67700399D01*
X129877779Y-67735546D01*
G37*
G36*
X127337779Y-67735546D02*
G01*
X127504225Y-67804490D01*
X127654023Y-67904582D01*
X127781418Y-68031977D01*
X127881510Y-68181775D01*
X127950454Y-68348221D01*
X127985601Y-68524917D01*
X127985601Y-68705081D01*
X127950454Y-68881777D01*
X127881510Y-69048223D01*
X127781418Y-69198021D01*
X127654023Y-69325416D01*
X127504225Y-69425508D01*
X127337779Y-69494452D01*
X127161083Y-69529599D01*
X126980919Y-69529599D01*
X126804223Y-69494452D01*
X126637777Y-69425508D01*
X126487979Y-69325416D01*
X126360584Y-69198021D01*
X126260492Y-69048223D01*
X126191548Y-68881777D01*
X126156401Y-68705081D01*
X126156401Y-68524917D01*
X126191548Y-68348221D01*
X126260492Y-68181775D01*
X126360584Y-68031977D01*
X126487979Y-67904582D01*
X126637777Y-67804490D01*
X126804223Y-67735546D01*
X126980919Y-67700399D01*
X127161083Y-67700399D01*
X127337779Y-67735546D01*
G37*
G36*
X124797779Y-67735546D02*
G01*
X124964225Y-67804490D01*
X125114023Y-67904582D01*
X125241418Y-68031977D01*
X125341510Y-68181775D01*
X125410454Y-68348221D01*
X125445601Y-68524917D01*
X125445601Y-68705081D01*
X125410454Y-68881777D01*
X125341510Y-69048223D01*
X125241418Y-69198021D01*
X125114023Y-69325416D01*
X124964225Y-69425508D01*
X124797779Y-69494452D01*
X124621083Y-69529599D01*
X124440919Y-69529599D01*
X124264223Y-69494452D01*
X124097777Y-69425508D01*
X123947979Y-69325416D01*
X123820584Y-69198021D01*
X123720492Y-69048223D01*
X123651548Y-68881777D01*
X123616401Y-68705081D01*
X123616401Y-68524917D01*
X123651548Y-68348221D01*
X123720492Y-68181775D01*
X123820584Y-68031977D01*
X123947979Y-67904582D01*
X124097777Y-67804490D01*
X124264223Y-67735546D01*
X124440919Y-67700399D01*
X124621083Y-67700399D01*
X124797779Y-67735546D01*
G37*
G36*
X119717779Y-67735546D02*
G01*
X119884225Y-67804490D01*
X120034023Y-67904582D01*
X120161418Y-68031977D01*
X120261510Y-68181775D01*
X120330454Y-68348221D01*
X120365601Y-68524917D01*
X120365601Y-68705081D01*
X120330454Y-68881777D01*
X120261510Y-69048223D01*
X120161418Y-69198021D01*
X120034023Y-69325416D01*
X119884225Y-69425508D01*
X119717779Y-69494452D01*
X119541083Y-69529599D01*
X119360919Y-69529599D01*
X119184223Y-69494452D01*
X119017777Y-69425508D01*
X118867979Y-69325416D01*
X118740584Y-69198021D01*
X118640492Y-69048223D01*
X118571548Y-68881777D01*
X118536401Y-68705081D01*
X118536401Y-68524917D01*
X118571548Y-68348221D01*
X118640492Y-68181775D01*
X118740584Y-68031977D01*
X118867979Y-67904582D01*
X119017777Y-67804490D01*
X119184223Y-67735546D01*
X119360919Y-67700399D01*
X119541083Y-67700399D01*
X119717779Y-67735546D01*
G37*
G36*
X117177779Y-67735546D02*
G01*
X117344225Y-67804490D01*
X117494023Y-67904582D01*
X117621418Y-68031977D01*
X117721510Y-68181775D01*
X117790454Y-68348221D01*
X117825601Y-68524917D01*
X117825601Y-68705081D01*
X117790454Y-68881777D01*
X117721510Y-69048223D01*
X117621418Y-69198021D01*
X117494023Y-69325416D01*
X117344225Y-69425508D01*
X117177779Y-69494452D01*
X117001083Y-69529599D01*
X116820919Y-69529599D01*
X116644223Y-69494452D01*
X116477777Y-69425508D01*
X116327979Y-69325416D01*
X116200584Y-69198021D01*
X116100492Y-69048223D01*
X116031548Y-68881777D01*
X115996401Y-68705081D01*
X115996401Y-68524917D01*
X116031548Y-68348221D01*
X116100492Y-68181775D01*
X116200584Y-68031977D01*
X116327979Y-67904582D01*
X116477777Y-67804490D01*
X116644223Y-67735546D01*
X116820919Y-67700399D01*
X117001083Y-67700399D01*
X117177779Y-67735546D01*
G37*
G36*
X114637779Y-67735546D02*
G01*
X114804225Y-67804490D01*
X114954023Y-67904582D01*
X115081418Y-68031977D01*
X115181510Y-68181775D01*
X115250454Y-68348221D01*
X115285601Y-68524917D01*
X115285601Y-68705081D01*
X115250454Y-68881777D01*
X115181510Y-69048223D01*
X115081418Y-69198021D01*
X114954023Y-69325416D01*
X114804225Y-69425508D01*
X114637779Y-69494452D01*
X114461083Y-69529599D01*
X114280919Y-69529599D01*
X114104223Y-69494452D01*
X113937777Y-69425508D01*
X113787979Y-69325416D01*
X113660584Y-69198021D01*
X113560492Y-69048223D01*
X113491548Y-68881777D01*
X113456401Y-68705081D01*
X113456401Y-68524917D01*
X113491548Y-68348221D01*
X113560492Y-68181775D01*
X113660584Y-68031977D01*
X113787979Y-67904582D01*
X113937777Y-67804490D01*
X114104223Y-67735546D01*
X114280919Y-67700399D01*
X114461083Y-67700399D01*
X114637779Y-67735546D01*
G37*
G36*
X192361779Y-67735546D02*
G01*
X192528225Y-67804490D01*
X192678023Y-67904582D01*
X192805418Y-68031977D01*
X192905510Y-68181775D01*
X192974454Y-68348221D01*
X193009601Y-68524917D01*
X193009601Y-68705081D01*
X192974454Y-68881777D01*
X192905510Y-69048223D01*
X192805418Y-69198021D01*
X192678023Y-69325416D01*
X192528225Y-69425508D01*
X192361779Y-69494452D01*
X192185083Y-69529599D01*
X192004919Y-69529599D01*
X191828223Y-69494452D01*
X191661777Y-69425508D01*
X191511979Y-69325416D01*
X191384584Y-69198021D01*
X191284492Y-69048223D01*
X191215548Y-68881777D01*
X191180401Y-68705081D01*
X191180401Y-68524917D01*
X191215548Y-68348221D01*
X191284492Y-68181775D01*
X191384584Y-68031977D01*
X191511979Y-67904582D01*
X191661777Y-67804490D01*
X191828223Y-67735546D01*
X192004919Y-67700399D01*
X192185083Y-67700399D01*
X192361779Y-67735546D01*
G37*
G36*
X132417779Y-67735546D02*
G01*
X132584225Y-67804490D01*
X132734023Y-67904582D01*
X132861418Y-68031977D01*
X132961510Y-68181775D01*
X133030454Y-68348221D01*
X133065601Y-68524917D01*
X133065601Y-68705081D01*
X133030454Y-68881777D01*
X132961510Y-69048223D01*
X132861418Y-69198021D01*
X132734023Y-69325416D01*
X132584225Y-69425508D01*
X132417779Y-69494452D01*
X132241083Y-69529599D01*
X132060919Y-69529599D01*
X131884223Y-69494452D01*
X131717777Y-69425508D01*
X131567979Y-69325416D01*
X131440584Y-69198021D01*
X131340492Y-69048223D01*
X131271548Y-68881777D01*
X131236401Y-68705081D01*
X131236401Y-68524917D01*
X131271548Y-68348221D01*
X131340492Y-68181775D01*
X131440584Y-68031977D01*
X131567979Y-67904582D01*
X131717777Y-67804490D01*
X131884223Y-67735546D01*
X132060919Y-67700399D01*
X132241083Y-67700399D01*
X132417779Y-67735546D01*
G37*
G36*
X134957779Y-67735546D02*
G01*
X135124225Y-67804490D01*
X135274023Y-67904582D01*
X135401418Y-68031977D01*
X135501510Y-68181775D01*
X135570454Y-68348221D01*
X135605601Y-68524917D01*
X135605601Y-68705081D01*
X135570454Y-68881777D01*
X135501510Y-69048223D01*
X135401418Y-69198021D01*
X135274023Y-69325416D01*
X135124225Y-69425508D01*
X134957779Y-69494452D01*
X134781083Y-69529599D01*
X134600919Y-69529599D01*
X134424223Y-69494452D01*
X134257777Y-69425508D01*
X134107979Y-69325416D01*
X133980584Y-69198021D01*
X133880492Y-69048223D01*
X133811548Y-68881777D01*
X133776401Y-68705081D01*
X133776401Y-68524917D01*
X133811548Y-68348221D01*
X133880492Y-68181775D01*
X133980584Y-68031977D01*
X134107979Y-67904582D01*
X134257777Y-67804490D01*
X134424223Y-67735546D01*
X134600919Y-67700399D01*
X134781083Y-67700399D01*
X134957779Y-67735546D01*
G37*
G36*
X122257779Y-67735546D02*
G01*
X122424225Y-67804490D01*
X122574023Y-67904582D01*
X122701418Y-68031977D01*
X122801510Y-68181775D01*
X122870454Y-68348221D01*
X122905601Y-68524917D01*
X122905601Y-68705081D01*
X122870454Y-68881777D01*
X122801510Y-69048223D01*
X122701418Y-69198021D01*
X122574023Y-69325416D01*
X122424225Y-69425508D01*
X122257779Y-69494452D01*
X122081083Y-69529599D01*
X121900919Y-69529599D01*
X121724223Y-69494452D01*
X121557777Y-69425508D01*
X121407979Y-69325416D01*
X121280584Y-69198021D01*
X121180492Y-69048223D01*
X121111548Y-68881777D01*
X121076401Y-68705081D01*
X121076401Y-68524917D01*
X121111548Y-68348221D01*
X121180492Y-68181775D01*
X121280584Y-68031977D01*
X121407979Y-67904582D01*
X121557777Y-67804490D01*
X121724223Y-67735546D01*
X121900919Y-67700399D01*
X122081083Y-67700399D01*
X122257779Y-67735546D01*
G37*
G36*
X141561779Y-67735546D02*
G01*
X141728225Y-67804490D01*
X141878023Y-67904582D01*
X142005418Y-68031977D01*
X142105510Y-68181775D01*
X142174454Y-68348221D01*
X142209601Y-68524917D01*
X142209601Y-68705081D01*
X142174454Y-68881777D01*
X142105510Y-69048223D01*
X142005418Y-69198021D01*
X141878023Y-69325416D01*
X141728225Y-69425508D01*
X141561779Y-69494452D01*
X141385083Y-69529599D01*
X141204919Y-69529599D01*
X141028223Y-69494452D01*
X140861777Y-69425508D01*
X140711979Y-69325416D01*
X140584584Y-69198021D01*
X140484492Y-69048223D01*
X140415548Y-68881777D01*
X140380401Y-68705081D01*
X140380401Y-68524917D01*
X140415548Y-68348221D01*
X140484492Y-68181775D01*
X140584584Y-68031977D01*
X140711979Y-67904582D01*
X140861777Y-67804490D01*
X141028223Y-67735546D01*
X141204919Y-67700399D01*
X141385083Y-67700399D01*
X141561779Y-67735546D01*
G37*
G36*
X146641779Y-67735546D02*
G01*
X146808225Y-67804490D01*
X146958023Y-67904582D01*
X147085418Y-68031977D01*
X147185510Y-68181775D01*
X147254454Y-68348221D01*
X147289601Y-68524917D01*
X147289601Y-68705081D01*
X147254454Y-68881777D01*
X147185510Y-69048223D01*
X147085418Y-69198021D01*
X146958023Y-69325416D01*
X146808225Y-69425508D01*
X146641779Y-69494452D01*
X146465083Y-69529599D01*
X146284919Y-69529599D01*
X146108223Y-69494452D01*
X145941777Y-69425508D01*
X145791979Y-69325416D01*
X145664584Y-69198021D01*
X145564492Y-69048223D01*
X145495548Y-68881777D01*
X145460401Y-68705081D01*
X145460401Y-68524917D01*
X145495548Y-68348221D01*
X145564492Y-68181775D01*
X145664584Y-68031977D01*
X145791979Y-67904582D01*
X145941777Y-67804490D01*
X146108223Y-67735546D01*
X146284919Y-67700399D01*
X146465083Y-67700399D01*
X146641779Y-67735546D01*
G37*
G36*
X177121779Y-67735546D02*
G01*
X177288225Y-67804490D01*
X177438023Y-67904582D01*
X177565418Y-68031977D01*
X177665510Y-68181775D01*
X177734454Y-68348221D01*
X177769601Y-68524917D01*
X177769601Y-68705081D01*
X177734454Y-68881777D01*
X177665510Y-69048223D01*
X177565418Y-69198021D01*
X177438023Y-69325416D01*
X177288225Y-69425508D01*
X177121779Y-69494452D01*
X176945083Y-69529599D01*
X176764919Y-69529599D01*
X176588223Y-69494452D01*
X176421777Y-69425508D01*
X176271979Y-69325416D01*
X176144584Y-69198021D01*
X176044492Y-69048223D01*
X175975548Y-68881777D01*
X175940401Y-68705081D01*
X175940401Y-68524917D01*
X175975548Y-68348221D01*
X176044492Y-68181775D01*
X176144584Y-68031977D01*
X176271979Y-67904582D01*
X176421777Y-67804490D01*
X176588223Y-67735546D01*
X176764919Y-67700399D01*
X176945083Y-67700399D01*
X177121779Y-67735546D01*
G37*
G36*
X189821779Y-67735546D02*
G01*
X189988225Y-67804490D01*
X190138023Y-67904582D01*
X190265418Y-68031977D01*
X190365510Y-68181775D01*
X190434454Y-68348221D01*
X190469601Y-68524917D01*
X190469601Y-68705081D01*
X190434454Y-68881777D01*
X190365510Y-69048223D01*
X190265418Y-69198021D01*
X190138023Y-69325416D01*
X189988225Y-69425508D01*
X189821779Y-69494452D01*
X189645083Y-69529599D01*
X189464919Y-69529599D01*
X189288223Y-69494452D01*
X189121777Y-69425508D01*
X188971979Y-69325416D01*
X188844584Y-69198021D01*
X188744492Y-69048223D01*
X188675548Y-68881777D01*
X188640401Y-68705081D01*
X188640401Y-68524917D01*
X188675548Y-68348221D01*
X188744492Y-68181775D01*
X188844584Y-68031977D01*
X188971979Y-67904582D01*
X189121777Y-67804490D01*
X189288223Y-67735546D01*
X189464919Y-67700399D01*
X189645083Y-67700399D01*
X189821779Y-67735546D01*
G37*
G36*
X182201779Y-67735546D02*
G01*
X182368225Y-67804490D01*
X182518023Y-67904582D01*
X182645418Y-68031977D01*
X182745510Y-68181775D01*
X182814454Y-68348221D01*
X182849601Y-68524917D01*
X182849601Y-68705081D01*
X182814454Y-68881777D01*
X182745510Y-69048223D01*
X182645418Y-69198021D01*
X182518023Y-69325416D01*
X182368225Y-69425508D01*
X182201779Y-69494452D01*
X182025083Y-69529599D01*
X181844919Y-69529599D01*
X181668223Y-69494452D01*
X181501777Y-69425508D01*
X181351979Y-69325416D01*
X181224584Y-69198021D01*
X181124492Y-69048223D01*
X181055548Y-68881777D01*
X181020401Y-68705081D01*
X181020401Y-68524917D01*
X181055548Y-68348221D01*
X181124492Y-68181775D01*
X181224584Y-68031977D01*
X181351979Y-67904582D01*
X181501777Y-67804490D01*
X181668223Y-67735546D01*
X181844919Y-67700399D01*
X182025083Y-67700399D01*
X182201779Y-67735546D01*
G37*
G36*
X179661779Y-67735546D02*
G01*
X179828225Y-67804490D01*
X179978023Y-67904582D01*
X180105418Y-68031977D01*
X180205510Y-68181775D01*
X180274454Y-68348221D01*
X180309601Y-68524917D01*
X180309601Y-68705081D01*
X180274454Y-68881777D01*
X180205510Y-69048223D01*
X180105418Y-69198021D01*
X179978023Y-69325416D01*
X179828225Y-69425508D01*
X179661779Y-69494452D01*
X179485083Y-69529599D01*
X179304919Y-69529599D01*
X179128223Y-69494452D01*
X178961777Y-69425508D01*
X178811979Y-69325416D01*
X178684584Y-69198021D01*
X178584492Y-69048223D01*
X178515548Y-68881777D01*
X178480401Y-68705081D01*
X178480401Y-68524917D01*
X178515548Y-68348221D01*
X178584492Y-68181775D01*
X178684584Y-68031977D01*
X178811979Y-67904582D01*
X178961777Y-67804490D01*
X179128223Y-67735546D01*
X179304919Y-67700399D01*
X179485083Y-67700399D01*
X179661779Y-67735546D01*
G37*
G36*
X149181779Y-67735546D02*
G01*
X149348225Y-67804490D01*
X149498023Y-67904582D01*
X149625418Y-68031977D01*
X149725510Y-68181775D01*
X149794454Y-68348221D01*
X149829601Y-68524917D01*
X149829601Y-68705081D01*
X149794454Y-68881777D01*
X149725510Y-69048223D01*
X149625418Y-69198021D01*
X149498023Y-69325416D01*
X149348225Y-69425508D01*
X149181779Y-69494452D01*
X149005083Y-69529599D01*
X148824919Y-69529599D01*
X148648223Y-69494452D01*
X148481777Y-69425508D01*
X148331979Y-69325416D01*
X148204584Y-69198021D01*
X148104492Y-69048223D01*
X148035548Y-68881777D01*
X148000401Y-68705081D01*
X148000401Y-68524917D01*
X148035548Y-68348221D01*
X148104492Y-68181775D01*
X148204584Y-68031977D01*
X148331979Y-67904582D01*
X148481777Y-67804490D01*
X148648223Y-67735546D01*
X148824919Y-67700399D01*
X149005083Y-67700399D01*
X149181779Y-67735546D01*
G37*
G36*
X174581779Y-67735546D02*
G01*
X174748225Y-67804490D01*
X174898023Y-67904582D01*
X175025418Y-68031977D01*
X175125510Y-68181775D01*
X175194454Y-68348221D01*
X175229601Y-68524917D01*
X175229601Y-68705081D01*
X175194454Y-68881777D01*
X175125510Y-69048223D01*
X175025418Y-69198021D01*
X174898023Y-69325416D01*
X174748225Y-69425508D01*
X174581779Y-69494452D01*
X174405083Y-69529599D01*
X174224919Y-69529599D01*
X174048223Y-69494452D01*
X173881777Y-69425508D01*
X173731979Y-69325416D01*
X173604584Y-69198021D01*
X173504492Y-69048223D01*
X173435548Y-68881777D01*
X173400401Y-68705081D01*
X173400401Y-68524917D01*
X173435548Y-68348221D01*
X173504492Y-68181775D01*
X173604584Y-68031977D01*
X173731979Y-67904582D01*
X173881777Y-67804490D01*
X174048223Y-67735546D01*
X174224919Y-67700399D01*
X174405083Y-67700399D01*
X174581779Y-67735546D01*
G37*
G36*
X172041779Y-67735546D02*
G01*
X172208225Y-67804490D01*
X172358023Y-67904582D01*
X172485418Y-68031977D01*
X172585510Y-68181775D01*
X172654454Y-68348221D01*
X172689601Y-68524917D01*
X172689601Y-68705081D01*
X172654454Y-68881777D01*
X172585510Y-69048223D01*
X172485418Y-69198021D01*
X172358023Y-69325416D01*
X172208225Y-69425508D01*
X172041779Y-69494452D01*
X171865083Y-69529599D01*
X171684919Y-69529599D01*
X171508223Y-69494452D01*
X171341777Y-69425508D01*
X171191979Y-69325416D01*
X171064584Y-69198021D01*
X170964492Y-69048223D01*
X170895548Y-68881777D01*
X170860401Y-68705081D01*
X170860401Y-68524917D01*
X170895548Y-68348221D01*
X170964492Y-68181775D01*
X171064584Y-68031977D01*
X171191979Y-67904582D01*
X171341777Y-67804490D01*
X171508223Y-67735546D01*
X171684919Y-67700399D01*
X171865083Y-67700399D01*
X172041779Y-67735546D01*
G37*
G36*
X169501779Y-67735546D02*
G01*
X169668225Y-67804490D01*
X169818023Y-67904582D01*
X169945418Y-68031977D01*
X170045510Y-68181775D01*
X170114454Y-68348221D01*
X170149601Y-68524917D01*
X170149601Y-68705081D01*
X170114454Y-68881777D01*
X170045510Y-69048223D01*
X169945418Y-69198021D01*
X169818023Y-69325416D01*
X169668225Y-69425508D01*
X169501779Y-69494452D01*
X169325083Y-69529599D01*
X169144919Y-69529599D01*
X168968223Y-69494452D01*
X168801777Y-69425508D01*
X168651979Y-69325416D01*
X168524584Y-69198021D01*
X168424492Y-69048223D01*
X168355548Y-68881777D01*
X168320401Y-68705081D01*
X168320401Y-68524917D01*
X168355548Y-68348221D01*
X168424492Y-68181775D01*
X168524584Y-68031977D01*
X168651979Y-67904582D01*
X168801777Y-67804490D01*
X168968223Y-67735546D01*
X169144919Y-67700399D01*
X169325083Y-67700399D01*
X169501779Y-67735546D01*
G37*
G36*
X166961779Y-67735546D02*
G01*
X167128225Y-67804490D01*
X167278023Y-67904582D01*
X167405418Y-68031977D01*
X167505510Y-68181775D01*
X167574454Y-68348221D01*
X167609601Y-68524917D01*
X167609601Y-68705081D01*
X167574454Y-68881777D01*
X167505510Y-69048223D01*
X167405418Y-69198021D01*
X167278023Y-69325416D01*
X167128225Y-69425508D01*
X166961779Y-69494452D01*
X166785083Y-69529599D01*
X166604919Y-69529599D01*
X166428223Y-69494452D01*
X166261777Y-69425508D01*
X166111979Y-69325416D01*
X165984584Y-69198021D01*
X165884492Y-69048223D01*
X165815548Y-68881777D01*
X165780401Y-68705081D01*
X165780401Y-68524917D01*
X165815548Y-68348221D01*
X165884492Y-68181775D01*
X165984584Y-68031977D01*
X166111979Y-67904582D01*
X166261777Y-67804490D01*
X166428223Y-67735546D01*
X166604919Y-67700399D01*
X166785083Y-67700399D01*
X166961779Y-67735546D01*
G37*
G36*
X164421779Y-67735546D02*
G01*
X164588225Y-67804490D01*
X164738023Y-67904582D01*
X164865418Y-68031977D01*
X164965510Y-68181775D01*
X165034454Y-68348221D01*
X165069601Y-68524917D01*
X165069601Y-68705081D01*
X165034454Y-68881777D01*
X164965510Y-69048223D01*
X164865418Y-69198021D01*
X164738023Y-69325416D01*
X164588225Y-69425508D01*
X164421779Y-69494452D01*
X164245083Y-69529599D01*
X164064919Y-69529599D01*
X163888223Y-69494452D01*
X163721777Y-69425508D01*
X163571979Y-69325416D01*
X163444584Y-69198021D01*
X163344492Y-69048223D01*
X163275548Y-68881777D01*
X163240401Y-68705081D01*
X163240401Y-68524917D01*
X163275548Y-68348221D01*
X163344492Y-68181775D01*
X163444584Y-68031977D01*
X163571979Y-67904582D01*
X163721777Y-67804490D01*
X163888223Y-67735546D01*
X164064919Y-67700399D01*
X164245083Y-67700399D01*
X164421779Y-67735546D01*
G37*
G36*
X159341779Y-67735546D02*
G01*
X159508225Y-67804490D01*
X159658023Y-67904582D01*
X159785418Y-68031977D01*
X159885510Y-68181775D01*
X159954454Y-68348221D01*
X159989601Y-68524917D01*
X159989601Y-68705081D01*
X159954454Y-68881777D01*
X159885510Y-69048223D01*
X159785418Y-69198021D01*
X159658023Y-69325416D01*
X159508225Y-69425508D01*
X159341779Y-69494452D01*
X159165083Y-69529599D01*
X158984919Y-69529599D01*
X158808223Y-69494452D01*
X158641777Y-69425508D01*
X158491979Y-69325416D01*
X158364584Y-69198021D01*
X158264492Y-69048223D01*
X158195548Y-68881777D01*
X158160401Y-68705081D01*
X158160401Y-68524917D01*
X158195548Y-68348221D01*
X158264492Y-68181775D01*
X158364584Y-68031977D01*
X158491979Y-67904582D01*
X158641777Y-67804490D01*
X158808223Y-67735546D01*
X158984919Y-67700399D01*
X159165083Y-67700399D01*
X159341779Y-67735546D01*
G37*
G36*
X156801779Y-67735546D02*
G01*
X156968225Y-67804490D01*
X157118023Y-67904582D01*
X157245418Y-68031977D01*
X157345510Y-68181775D01*
X157414454Y-68348221D01*
X157449601Y-68524917D01*
X157449601Y-68705081D01*
X157414454Y-68881777D01*
X157345510Y-69048223D01*
X157245418Y-69198021D01*
X157118023Y-69325416D01*
X156968225Y-69425508D01*
X156801779Y-69494452D01*
X156625083Y-69529599D01*
X156444919Y-69529599D01*
X156268223Y-69494452D01*
X156101777Y-69425508D01*
X155951979Y-69325416D01*
X155824584Y-69198021D01*
X155724492Y-69048223D01*
X155655548Y-68881777D01*
X155620401Y-68705081D01*
X155620401Y-68524917D01*
X155655548Y-68348221D01*
X155724492Y-68181775D01*
X155824584Y-68031977D01*
X155951979Y-67904582D01*
X156101777Y-67804490D01*
X156268223Y-67735546D01*
X156444919Y-67700399D01*
X156625083Y-67700399D01*
X156801779Y-67735546D01*
G37*
G36*
X154261779Y-67735546D02*
G01*
X154428225Y-67804490D01*
X154578023Y-67904582D01*
X154705418Y-68031977D01*
X154805510Y-68181775D01*
X154874454Y-68348221D01*
X154909601Y-68524917D01*
X154909601Y-68705081D01*
X154874454Y-68881777D01*
X154805510Y-69048223D01*
X154705418Y-69198021D01*
X154578023Y-69325416D01*
X154428225Y-69425508D01*
X154261779Y-69494452D01*
X154085083Y-69529599D01*
X153904919Y-69529599D01*
X153728223Y-69494452D01*
X153561777Y-69425508D01*
X153411979Y-69325416D01*
X153284584Y-69198021D01*
X153184492Y-69048223D01*
X153115548Y-68881777D01*
X153080401Y-68705081D01*
X153080401Y-68524917D01*
X153115548Y-68348221D01*
X153184492Y-68181775D01*
X153284584Y-68031977D01*
X153411979Y-67904582D01*
X153561777Y-67804490D01*
X153728223Y-67735546D01*
X153904919Y-67700399D01*
X154085083Y-67700399D01*
X154261779Y-67735546D01*
G37*
G36*
X151721779Y-67735546D02*
G01*
X151888225Y-67804490D01*
X152038023Y-67904582D01*
X152165418Y-68031977D01*
X152265510Y-68181775D01*
X152334454Y-68348221D01*
X152369601Y-68524917D01*
X152369601Y-68705081D01*
X152334454Y-68881777D01*
X152265510Y-69048223D01*
X152165418Y-69198021D01*
X152038023Y-69325416D01*
X151888225Y-69425508D01*
X151721779Y-69494452D01*
X151545083Y-69529599D01*
X151364919Y-69529599D01*
X151188223Y-69494452D01*
X151021777Y-69425508D01*
X150871979Y-69325416D01*
X150744584Y-69198021D01*
X150644492Y-69048223D01*
X150575548Y-68881777D01*
X150540401Y-68705081D01*
X150540401Y-68524917D01*
X150575548Y-68348221D01*
X150644492Y-68181775D01*
X150744584Y-68031977D01*
X150871979Y-67904582D01*
X151021777Y-67804490D01*
X151188223Y-67735546D01*
X151364919Y-67700399D01*
X151545083Y-67700399D01*
X151721779Y-67735546D01*
G37*
G36*
X192361779Y-65195546D02*
G01*
X192528225Y-65264490D01*
X192678023Y-65364582D01*
X192805418Y-65491977D01*
X192905510Y-65641775D01*
X192974454Y-65808221D01*
X193009601Y-65984917D01*
X193009601Y-66165081D01*
X192974454Y-66341777D01*
X192905510Y-66508223D01*
X192805418Y-66658021D01*
X192678023Y-66785416D01*
X192528225Y-66885508D01*
X192361779Y-66954452D01*
X192185083Y-66989599D01*
X192004919Y-66989599D01*
X191828223Y-66954452D01*
X191661777Y-66885508D01*
X191511979Y-66785416D01*
X191384584Y-66658021D01*
X191284492Y-66508223D01*
X191215548Y-66341777D01*
X191180401Y-66165081D01*
X191180401Y-65984917D01*
X191215548Y-65808221D01*
X191284492Y-65641775D01*
X191384584Y-65491977D01*
X191511979Y-65364582D01*
X191661777Y-65264490D01*
X191828223Y-65195546D01*
X192004919Y-65160399D01*
X192185083Y-65160399D01*
X192361779Y-65195546D01*
G37*
G36*
X189821779Y-65195546D02*
G01*
X189988225Y-65264490D01*
X190138023Y-65364582D01*
X190265418Y-65491977D01*
X190365510Y-65641775D01*
X190434454Y-65808221D01*
X190469601Y-65984917D01*
X190469601Y-66165081D01*
X190434454Y-66341777D01*
X190365510Y-66508223D01*
X190265418Y-66658021D01*
X190138023Y-66785416D01*
X189988225Y-66885508D01*
X189821779Y-66954452D01*
X189645083Y-66989599D01*
X189464919Y-66989599D01*
X189288223Y-66954452D01*
X189121777Y-66885508D01*
X188971979Y-66785416D01*
X188844584Y-66658021D01*
X188744492Y-66508223D01*
X188675548Y-66341777D01*
X188640401Y-66165081D01*
X188640401Y-65984917D01*
X188675548Y-65808221D01*
X188744492Y-65641775D01*
X188844584Y-65491977D01*
X188971979Y-65364582D01*
X189121777Y-65264490D01*
X189288223Y-65195546D01*
X189464919Y-65160399D01*
X189645083Y-65160399D01*
X189821779Y-65195546D01*
G37*
G36*
X189821779Y-62655546D02*
G01*
X189988225Y-62724490D01*
X190138023Y-62824582D01*
X190265418Y-62951977D01*
X190365510Y-63101775D01*
X190434454Y-63268221D01*
X190469601Y-63444917D01*
X190469601Y-63625081D01*
X190434454Y-63801777D01*
X190365510Y-63968223D01*
X190265418Y-64118021D01*
X190138023Y-64245416D01*
X189988225Y-64345508D01*
X189821779Y-64414452D01*
X189645083Y-64449599D01*
X189464919Y-64449599D01*
X189288223Y-64414452D01*
X189121777Y-64345508D01*
X188971979Y-64245416D01*
X188844584Y-64118021D01*
X188744492Y-63968223D01*
X188675548Y-63801777D01*
X188640401Y-63625081D01*
X188640401Y-63444917D01*
X188675548Y-63268221D01*
X188744492Y-63101775D01*
X188844584Y-62951977D01*
X188971979Y-62824582D01*
X189121777Y-62724490D01*
X189288223Y-62655546D01*
X189464919Y-62620399D01*
X189645083Y-62620399D01*
X189821779Y-62655546D01*
G37*
G36*
X192361779Y-62655546D02*
G01*
X192528225Y-62724490D01*
X192678023Y-62824582D01*
X192805418Y-62951977D01*
X192905510Y-63101775D01*
X192974454Y-63268221D01*
X193009601Y-63444917D01*
X193009601Y-63625081D01*
X192974454Y-63801777D01*
X192905510Y-63968223D01*
X192805418Y-64118021D01*
X192678023Y-64245416D01*
X192528225Y-64345508D01*
X192361779Y-64414452D01*
X192185083Y-64449599D01*
X192004919Y-64449599D01*
X191828223Y-64414452D01*
X191661777Y-64345508D01*
X191511979Y-64245416D01*
X191384584Y-64118021D01*
X191284492Y-63968223D01*
X191215548Y-63801777D01*
X191180401Y-63625081D01*
X191180401Y-63444917D01*
X191215548Y-63268221D01*
X191284492Y-63101775D01*
X191384584Y-62951977D01*
X191511979Y-62824582D01*
X191661777Y-62724490D01*
X191828223Y-62655546D01*
X192004919Y-62620399D01*
X192185083Y-62620399D01*
X192361779Y-62655546D01*
G37*
G36*
X111596564Y-61409389D02*
G01*
X111787833Y-61488615D01*
X111787835Y-61488616D01*
X111959973Y-61603635D01*
X112106365Y-61750027D01*
X112212988Y-61909599D01*
X112221385Y-61922167D01*
X112300611Y-62113436D01*
X112341000Y-62316484D01*
X112341000Y-62523516D01*
X112300611Y-62726564D01*
X112260010Y-62824583D01*
X112221384Y-62917835D01*
X112106365Y-63089973D01*
X111959973Y-63236365D01*
X111787835Y-63351384D01*
X111787834Y-63351385D01*
X111787833Y-63351385D01*
X111596564Y-63430611D01*
X111393516Y-63471000D01*
X111186484Y-63471000D01*
X110983436Y-63430611D01*
X110792167Y-63351385D01*
X110792166Y-63351385D01*
X110792165Y-63351384D01*
X110620027Y-63236365D01*
X110473635Y-63089973D01*
X110358616Y-62917835D01*
X110319990Y-62824583D01*
X110279389Y-62726564D01*
X110239000Y-62523516D01*
X110239000Y-62316484D01*
X110279389Y-62113436D01*
X110358615Y-61922167D01*
X110367013Y-61909599D01*
X110473635Y-61750027D01*
X110620027Y-61603635D01*
X110792165Y-61488616D01*
X110792167Y-61488615D01*
X110983436Y-61409389D01*
X111186484Y-61369000D01*
X111393516Y-61369000D01*
X111596564Y-61409389D01*
G37*
G36*
X118096564Y-61409389D02*
G01*
X118287833Y-61488615D01*
X118287835Y-61488616D01*
X118459973Y-61603635D01*
X118606365Y-61750027D01*
X118712988Y-61909599D01*
X118721385Y-61922167D01*
X118800611Y-62113436D01*
X118841000Y-62316484D01*
X118841000Y-62523516D01*
X118800611Y-62726564D01*
X118760010Y-62824583D01*
X118721384Y-62917835D01*
X118606365Y-63089973D01*
X118459973Y-63236365D01*
X118287835Y-63351384D01*
X118287834Y-63351385D01*
X118287833Y-63351385D01*
X118096564Y-63430611D01*
X117893516Y-63471000D01*
X117686484Y-63471000D01*
X117483436Y-63430611D01*
X117292167Y-63351385D01*
X117292166Y-63351385D01*
X117292165Y-63351384D01*
X117120027Y-63236365D01*
X116973635Y-63089973D01*
X116858616Y-62917835D01*
X116819990Y-62824583D01*
X116779389Y-62726564D01*
X116739000Y-62523516D01*
X116739000Y-62316484D01*
X116779389Y-62113436D01*
X116858615Y-61922167D01*
X116867013Y-61909599D01*
X116973635Y-61750027D01*
X117120027Y-61603635D01*
X117292165Y-61488616D01*
X117292167Y-61488615D01*
X117483436Y-61409389D01*
X117686484Y-61369000D01*
X117893516Y-61369000D01*
X118096564Y-61409389D01*
G37*
G36*
X174516564Y-60464387D02*
G01*
X174707833Y-60543613D01*
X174707835Y-60543614D01*
X174879973Y-60658633D01*
X175026365Y-60805025D01*
X175141385Y-60977165D01*
X175220611Y-61168434D01*
X175261000Y-61371482D01*
X175261000Y-61578514D01*
X175220611Y-61781562D01*
X175141385Y-61972831D01*
X175141384Y-61972833D01*
X175026365Y-62144971D01*
X174879973Y-62291363D01*
X174707835Y-62406382D01*
X174707834Y-62406383D01*
X174707833Y-62406383D01*
X174516564Y-62485609D01*
X174313516Y-62525998D01*
X174106484Y-62525998D01*
X173903436Y-62485609D01*
X173712167Y-62406383D01*
X173712166Y-62406383D01*
X173712165Y-62406382D01*
X173540027Y-62291363D01*
X173393635Y-62144971D01*
X173278616Y-61972833D01*
X173278615Y-61972831D01*
X173199389Y-61781562D01*
X173159000Y-61578514D01*
X173159000Y-61371482D01*
X173199389Y-61168434D01*
X173278615Y-60977165D01*
X173393635Y-60805025D01*
X173540027Y-60658633D01*
X173712165Y-60543614D01*
X173712167Y-60543613D01*
X173903436Y-60464387D01*
X174106484Y-60423998D01*
X174313516Y-60423998D01*
X174516564Y-60464387D01*
G37*
G36*
X181016564Y-60464387D02*
G01*
X181207833Y-60543613D01*
X181207835Y-60543614D01*
X181379973Y-60658633D01*
X181526365Y-60805025D01*
X181641385Y-60977165D01*
X181720611Y-61168434D01*
X181761000Y-61371482D01*
X181761000Y-61578514D01*
X181720611Y-61781562D01*
X181641385Y-61972831D01*
X181641384Y-61972833D01*
X181526365Y-62144971D01*
X181379973Y-62291363D01*
X181207835Y-62406382D01*
X181207834Y-62406383D01*
X181207833Y-62406383D01*
X181016564Y-62485609D01*
X180813516Y-62525998D01*
X180606484Y-62525998D01*
X180403436Y-62485609D01*
X180212167Y-62406383D01*
X180212166Y-62406383D01*
X180212165Y-62406382D01*
X180040027Y-62291363D01*
X179893635Y-62144971D01*
X179778616Y-61972833D01*
X179778615Y-61972831D01*
X179699389Y-61781562D01*
X179659000Y-61578514D01*
X179659000Y-61371482D01*
X179699389Y-61168434D01*
X179778615Y-60977165D01*
X179893635Y-60805025D01*
X180040027Y-60658633D01*
X180212165Y-60543614D01*
X180212167Y-60543613D01*
X180403436Y-60464387D01*
X180606484Y-60423998D01*
X180813516Y-60423998D01*
X181016564Y-60464387D01*
G37*
G36*
X189821779Y-60115546D02*
G01*
X189988225Y-60184490D01*
X190138023Y-60284582D01*
X190265418Y-60411977D01*
X190365510Y-60561775D01*
X190434454Y-60728221D01*
X190469601Y-60904917D01*
X190469601Y-61085081D01*
X190434454Y-61261777D01*
X190365510Y-61428223D01*
X190265418Y-61578021D01*
X190138023Y-61705416D01*
X189988225Y-61805508D01*
X189821779Y-61874452D01*
X189645083Y-61909599D01*
X189464919Y-61909599D01*
X189288223Y-61874452D01*
X189121777Y-61805508D01*
X188971979Y-61705416D01*
X188844584Y-61578021D01*
X188744492Y-61428223D01*
X188675548Y-61261777D01*
X188640401Y-61085081D01*
X188640401Y-60904917D01*
X188675548Y-60728221D01*
X188744492Y-60561775D01*
X188844584Y-60411977D01*
X188971979Y-60284582D01*
X189121777Y-60184490D01*
X189288223Y-60115546D01*
X189464919Y-60080399D01*
X189645083Y-60080399D01*
X189821779Y-60115546D01*
G37*
G36*
X192361779Y-60115546D02*
G01*
X192528225Y-60184490D01*
X192678023Y-60284582D01*
X192805418Y-60411977D01*
X192905510Y-60561775D01*
X192974454Y-60728221D01*
X193009601Y-60904917D01*
X193009601Y-61085081D01*
X192974454Y-61261777D01*
X192905510Y-61428223D01*
X192805418Y-61578021D01*
X192678023Y-61705416D01*
X192528225Y-61805508D01*
X192361779Y-61874452D01*
X192185083Y-61909599D01*
X192004919Y-61909599D01*
X191828223Y-61874452D01*
X191661777Y-61805508D01*
X191511979Y-61705416D01*
X191384584Y-61578021D01*
X191284492Y-61428223D01*
X191215548Y-61261777D01*
X191180401Y-61085081D01*
X191180401Y-60904917D01*
X191215548Y-60728221D01*
X191284492Y-60561775D01*
X191384584Y-60411977D01*
X191511979Y-60284582D01*
X191661777Y-60184490D01*
X191828223Y-60115546D01*
X192004919Y-60080399D01*
X192185083Y-60080399D01*
X192361779Y-60115546D01*
G37*
G36*
X189821779Y-57575546D02*
G01*
X189988225Y-57644490D01*
X190138023Y-57744582D01*
X190265418Y-57871977D01*
X190365510Y-58021775D01*
X190434454Y-58188221D01*
X190469601Y-58364917D01*
X190469601Y-58545081D01*
X190434454Y-58721777D01*
X190365510Y-58888223D01*
X190265418Y-59038021D01*
X190138023Y-59165416D01*
X189988225Y-59265508D01*
X189821779Y-59334452D01*
X189645083Y-59369599D01*
X189464919Y-59369599D01*
X189288223Y-59334452D01*
X189121777Y-59265508D01*
X188971979Y-59165416D01*
X188844584Y-59038021D01*
X188744492Y-58888223D01*
X188675548Y-58721777D01*
X188640401Y-58545081D01*
X188640401Y-58364917D01*
X188675548Y-58188221D01*
X188744492Y-58021775D01*
X188844584Y-57871977D01*
X188971979Y-57744582D01*
X189121777Y-57644490D01*
X189288223Y-57575546D01*
X189464919Y-57540399D01*
X189645083Y-57540399D01*
X189821779Y-57575546D01*
G37*
G36*
X192361779Y-57575546D02*
G01*
X192528225Y-57644490D01*
X192678023Y-57744582D01*
X192805418Y-57871977D01*
X192905510Y-58021775D01*
X192974454Y-58188221D01*
X193009601Y-58364917D01*
X193009601Y-58545081D01*
X192974454Y-58721777D01*
X192905510Y-58888223D01*
X192805418Y-59038021D01*
X192678023Y-59165416D01*
X192528225Y-59265508D01*
X192361779Y-59334452D01*
X192185083Y-59369599D01*
X192004919Y-59369599D01*
X191828223Y-59334452D01*
X191661777Y-59265508D01*
X191511979Y-59165416D01*
X191384584Y-59038021D01*
X191284492Y-58888223D01*
X191215548Y-58721777D01*
X191180401Y-58545081D01*
X191180401Y-58364917D01*
X191215548Y-58188221D01*
X191284492Y-58021775D01*
X191384584Y-57871977D01*
X191511979Y-57744582D01*
X191661777Y-57644490D01*
X191828223Y-57575546D01*
X192004919Y-57540399D01*
X192185083Y-57540399D01*
X192361779Y-57575546D01*
G37*
G36*
X118096564Y-56909389D02*
G01*
X118287833Y-56988615D01*
X118287835Y-56988616D01*
X118422374Y-57078512D01*
X118459973Y-57103635D01*
X118606365Y-57250027D01*
X118721385Y-57422167D01*
X118800611Y-57613436D01*
X118841000Y-57816484D01*
X118841000Y-58023516D01*
X118800611Y-58226564D01*
X118721385Y-58417833D01*
X118721384Y-58417835D01*
X118606365Y-58589973D01*
X118459973Y-58736365D01*
X118287835Y-58851384D01*
X118287834Y-58851385D01*
X118287833Y-58851385D01*
X118096564Y-58930611D01*
X117893516Y-58971000D01*
X117686484Y-58971000D01*
X117483436Y-58930611D01*
X117292167Y-58851385D01*
X117292166Y-58851385D01*
X117292165Y-58851384D01*
X117120027Y-58736365D01*
X116973635Y-58589973D01*
X116858616Y-58417835D01*
X116858615Y-58417833D01*
X116779389Y-58226564D01*
X116739000Y-58023516D01*
X116739000Y-57816484D01*
X116779389Y-57613436D01*
X116858615Y-57422167D01*
X116973635Y-57250027D01*
X117120027Y-57103635D01*
X117157626Y-57078512D01*
X117292165Y-56988616D01*
X117292167Y-56988615D01*
X117483436Y-56909389D01*
X117686484Y-56869000D01*
X117893516Y-56869000D01*
X118096564Y-56909389D01*
G37*
G36*
X111596564Y-56909389D02*
G01*
X111787833Y-56988615D01*
X111787835Y-56988616D01*
X111922374Y-57078512D01*
X111959973Y-57103635D01*
X112106365Y-57250027D01*
X112221385Y-57422167D01*
X112300611Y-57613436D01*
X112341000Y-57816484D01*
X112341000Y-58023516D01*
X112300611Y-58226564D01*
X112221385Y-58417833D01*
X112221384Y-58417835D01*
X112106365Y-58589973D01*
X111959973Y-58736365D01*
X111787835Y-58851384D01*
X111787834Y-58851385D01*
X111787833Y-58851385D01*
X111596564Y-58930611D01*
X111393516Y-58971000D01*
X111186484Y-58971000D01*
X110983436Y-58930611D01*
X110792167Y-58851385D01*
X110792166Y-58851385D01*
X110792165Y-58851384D01*
X110620027Y-58736365D01*
X110473635Y-58589973D01*
X110358616Y-58417835D01*
X110358615Y-58417833D01*
X110279389Y-58226564D01*
X110239000Y-58023516D01*
X110239000Y-57816484D01*
X110279389Y-57613436D01*
X110358615Y-57422167D01*
X110473635Y-57250027D01*
X110620027Y-57103635D01*
X110657626Y-57078512D01*
X110792165Y-56988616D01*
X110792167Y-56988615D01*
X110983436Y-56909389D01*
X111186484Y-56869000D01*
X111393516Y-56869000D01*
X111596564Y-56909389D01*
G37*
G36*
X181016564Y-55964387D02*
G01*
X181207833Y-56043613D01*
X181207835Y-56043614D01*
X181379973Y-56158633D01*
X181526365Y-56305025D01*
X181641385Y-56477165D01*
X181720611Y-56668434D01*
X181761000Y-56871482D01*
X181761000Y-57078514D01*
X181720611Y-57281562D01*
X181641385Y-57472831D01*
X181641384Y-57472833D01*
X181526365Y-57644971D01*
X181379973Y-57791363D01*
X181207835Y-57906382D01*
X181207834Y-57906383D01*
X181207833Y-57906383D01*
X181016564Y-57985609D01*
X180813516Y-58025998D01*
X180606484Y-58025998D01*
X180403436Y-57985609D01*
X180212167Y-57906383D01*
X180212166Y-57906383D01*
X180212165Y-57906382D01*
X180040027Y-57791363D01*
X179893635Y-57644971D01*
X179778616Y-57472833D01*
X179778615Y-57472831D01*
X179699389Y-57281562D01*
X179659000Y-57078514D01*
X179659000Y-56871482D01*
X179699389Y-56668434D01*
X179778615Y-56477165D01*
X179893635Y-56305025D01*
X180040027Y-56158633D01*
X180212165Y-56043614D01*
X180212167Y-56043613D01*
X180403436Y-55964387D01*
X180606484Y-55923998D01*
X180813516Y-55923998D01*
X181016564Y-55964387D01*
G37*
G36*
X174516564Y-55964387D02*
G01*
X174707833Y-56043613D01*
X174707835Y-56043614D01*
X174879973Y-56158633D01*
X175026365Y-56305025D01*
X175141385Y-56477165D01*
X175220611Y-56668434D01*
X175261000Y-56871482D01*
X175261000Y-57078514D01*
X175220611Y-57281562D01*
X175141385Y-57472831D01*
X175141384Y-57472833D01*
X175026365Y-57644971D01*
X174879973Y-57791363D01*
X174707835Y-57906382D01*
X174707834Y-57906383D01*
X174707833Y-57906383D01*
X174516564Y-57985609D01*
X174313516Y-58025998D01*
X174106484Y-58025998D01*
X173903436Y-57985609D01*
X173712167Y-57906383D01*
X173712166Y-57906383D01*
X173712165Y-57906382D01*
X173540027Y-57791363D01*
X173393635Y-57644971D01*
X173278616Y-57472833D01*
X173278615Y-57472831D01*
X173199389Y-57281562D01*
X173159000Y-57078514D01*
X173159000Y-56871482D01*
X173199389Y-56668434D01*
X173278615Y-56477165D01*
X173393635Y-56305025D01*
X173540027Y-56158633D01*
X173712165Y-56043614D01*
X173712167Y-56043613D01*
X173903436Y-55964387D01*
X174106484Y-55923998D01*
X174313516Y-55923998D01*
X174516564Y-55964387D01*
G37*
G36*
X189821779Y-55035546D02*
G01*
X189988225Y-55104490D01*
X190138023Y-55204582D01*
X190265418Y-55331977D01*
X190365510Y-55481775D01*
X190434454Y-55648221D01*
X190469601Y-55824917D01*
X190469601Y-56005081D01*
X190434454Y-56181777D01*
X190365510Y-56348223D01*
X190265418Y-56498021D01*
X190138023Y-56625416D01*
X189988225Y-56725508D01*
X189821779Y-56794452D01*
X189645083Y-56829599D01*
X189464919Y-56829599D01*
X189288223Y-56794452D01*
X189121777Y-56725508D01*
X188971979Y-56625416D01*
X188844584Y-56498021D01*
X188744492Y-56348223D01*
X188675548Y-56181777D01*
X188640401Y-56005081D01*
X188640401Y-55824917D01*
X188675548Y-55648221D01*
X188744492Y-55481775D01*
X188844584Y-55331977D01*
X188971979Y-55204582D01*
X189121777Y-55104490D01*
X189288223Y-55035546D01*
X189464919Y-55000399D01*
X189645083Y-55000399D01*
X189821779Y-55035546D01*
G37*
G36*
X192361779Y-55035546D02*
G01*
X192528225Y-55104490D01*
X192678023Y-55204582D01*
X192805418Y-55331977D01*
X192905510Y-55481775D01*
X192974454Y-55648221D01*
X193009601Y-55824917D01*
X193009601Y-56005081D01*
X192974454Y-56181777D01*
X192905510Y-56348223D01*
X192805418Y-56498021D01*
X192678023Y-56625416D01*
X192528225Y-56725508D01*
X192361779Y-56794452D01*
X192185083Y-56829599D01*
X192004919Y-56829599D01*
X191828223Y-56794452D01*
X191661777Y-56725508D01*
X191511979Y-56625416D01*
X191384584Y-56498021D01*
X191284492Y-56348223D01*
X191215548Y-56181777D01*
X191180401Y-56005081D01*
X191180401Y-55824917D01*
X191215548Y-55648221D01*
X191284492Y-55481775D01*
X191384584Y-55331977D01*
X191511979Y-55204582D01*
X191661777Y-55104490D01*
X191828223Y-55035546D01*
X192004919Y-55000399D01*
X192185083Y-55000399D01*
X192361779Y-55035546D01*
G37*
G36*
X192361779Y-52495546D02*
G01*
X192528225Y-52564490D01*
X192678023Y-52664582D01*
X192805418Y-52791977D01*
X192905510Y-52941775D01*
X192974454Y-53108221D01*
X193009601Y-53284917D01*
X193009601Y-53465081D01*
X192974454Y-53641777D01*
X192905510Y-53808223D01*
X192805418Y-53958021D01*
X192678023Y-54085416D01*
X192528225Y-54185508D01*
X192361779Y-54254452D01*
X192185083Y-54289599D01*
X192004919Y-54289599D01*
X191828223Y-54254452D01*
X191661777Y-54185508D01*
X191511979Y-54085416D01*
X191384584Y-53958021D01*
X191284492Y-53808223D01*
X191215548Y-53641777D01*
X191180401Y-53465081D01*
X191180401Y-53284917D01*
X191215548Y-53108221D01*
X191284492Y-52941775D01*
X191384584Y-52791977D01*
X191511979Y-52664582D01*
X191661777Y-52564490D01*
X191828223Y-52495546D01*
X192004919Y-52460399D01*
X192185083Y-52460399D01*
X192361779Y-52495546D01*
G37*
G36*
X189821779Y-52495546D02*
G01*
X189988225Y-52564490D01*
X190138023Y-52664582D01*
X190265418Y-52791977D01*
X190365510Y-52941775D01*
X190434454Y-53108221D01*
X190469601Y-53284917D01*
X190469601Y-53465081D01*
X190434454Y-53641777D01*
X190365510Y-53808223D01*
X190265418Y-53958021D01*
X190138023Y-54085416D01*
X189988225Y-54185508D01*
X189821779Y-54254452D01*
X189645083Y-54289599D01*
X189464919Y-54289599D01*
X189288223Y-54254452D01*
X189121777Y-54185508D01*
X188971979Y-54085416D01*
X188844584Y-53958021D01*
X188744492Y-53808223D01*
X188675548Y-53641777D01*
X188640401Y-53465081D01*
X188640401Y-53284917D01*
X188675548Y-53108221D01*
X188744492Y-52941775D01*
X188844584Y-52791977D01*
X188971979Y-52664582D01*
X189121777Y-52564490D01*
X189288223Y-52495546D01*
X189464919Y-52460399D01*
X189645083Y-52460399D01*
X189821779Y-52495546D01*
G37*
G36*
X134516823Y-50201313D02*
G01*
X134677242Y-50249976D01*
X134724582Y-50275280D01*
X134825078Y-50328996D01*
X134954659Y-50435341D01*
X135061004Y-50564922D01*
X135061005Y-50564924D01*
X135140024Y-50712758D01*
X135188687Y-50873178D01*
X135201000Y-50998197D01*
X135201000Y-51881804D01*
X135188687Y-52006823D01*
X135140024Y-52167242D01*
X135113280Y-52217276D01*
X135061004Y-52315078D01*
X134954659Y-52444659D01*
X134825077Y-52551005D01*
X134677241Y-52630024D01*
X134516822Y-52678687D01*
X134350000Y-52695117D01*
X134183177Y-52678687D01*
X134022758Y-52630024D01*
X133874924Y-52551005D01*
X133874922Y-52551004D01*
X133745341Y-52444659D01*
X133638995Y-52315077D01*
X133559976Y-52167241D01*
X133511313Y-52006822D01*
X133499000Y-51881803D01*
X133499000Y-50998197D01*
X133511314Y-50873177D01*
X133559977Y-50712758D01*
X133638996Y-50564924D01*
X133638997Y-50564922D01*
X133745342Y-50435341D01*
X133874923Y-50328996D01*
X133975419Y-50275280D01*
X134022759Y-50249976D01*
X134183178Y-50201313D01*
X134350000Y-50184883D01*
X134516823Y-50201313D01*
G37*
G36*
X159916823Y-50201313D02*
G01*
X160077242Y-50249976D01*
X160124582Y-50275280D01*
X160225078Y-50328996D01*
X160354659Y-50435341D01*
X160461004Y-50564922D01*
X160461005Y-50564924D01*
X160540024Y-50712758D01*
X160588687Y-50873178D01*
X160601000Y-50998197D01*
X160601000Y-51881804D01*
X160588687Y-52006823D01*
X160540024Y-52167242D01*
X160513280Y-52217276D01*
X160461004Y-52315078D01*
X160354659Y-52444659D01*
X160225077Y-52551005D01*
X160077241Y-52630024D01*
X159916822Y-52678687D01*
X159750000Y-52695117D01*
X159583177Y-52678687D01*
X159422758Y-52630024D01*
X159274924Y-52551005D01*
X159274922Y-52551004D01*
X159145341Y-52444659D01*
X159038995Y-52315077D01*
X158959976Y-52167241D01*
X158911313Y-52006822D01*
X158899000Y-51881803D01*
X158899000Y-50998197D01*
X158911314Y-50873177D01*
X158959977Y-50712758D01*
X159038996Y-50564924D01*
X159038997Y-50564922D01*
X159145342Y-50435341D01*
X159274923Y-50328996D01*
X159375419Y-50275280D01*
X159422759Y-50249976D01*
X159583178Y-50201313D01*
X159750000Y-50184883D01*
X159916823Y-50201313D01*
G37*
G36*
X157376823Y-50201313D02*
G01*
X157537242Y-50249976D01*
X157584582Y-50275280D01*
X157685078Y-50328996D01*
X157814659Y-50435341D01*
X157921004Y-50564922D01*
X157921005Y-50564924D01*
X158000024Y-50712758D01*
X158048687Y-50873178D01*
X158061000Y-50998197D01*
X158061000Y-51881804D01*
X158048687Y-52006823D01*
X158000024Y-52167242D01*
X157973280Y-52217276D01*
X157921004Y-52315078D01*
X157814659Y-52444659D01*
X157685077Y-52551005D01*
X157537241Y-52630024D01*
X157376822Y-52678687D01*
X157210000Y-52695117D01*
X157043177Y-52678687D01*
X156882758Y-52630024D01*
X156734924Y-52551005D01*
X156734922Y-52551004D01*
X156605341Y-52444659D01*
X156498995Y-52315077D01*
X156419976Y-52167241D01*
X156371313Y-52006822D01*
X156359000Y-51881803D01*
X156359000Y-50998197D01*
X156371314Y-50873177D01*
X156419977Y-50712758D01*
X156498996Y-50564924D01*
X156498997Y-50564922D01*
X156605342Y-50435341D01*
X156734923Y-50328996D01*
X156835419Y-50275280D01*
X156882759Y-50249976D01*
X157043178Y-50201313D01*
X157210000Y-50184883D01*
X157376823Y-50201313D01*
G37*
G36*
X154836823Y-50201313D02*
G01*
X154997242Y-50249976D01*
X155044582Y-50275280D01*
X155145078Y-50328996D01*
X155274659Y-50435341D01*
X155381004Y-50564922D01*
X155381005Y-50564924D01*
X155460024Y-50712758D01*
X155508687Y-50873178D01*
X155521000Y-50998197D01*
X155521000Y-51881804D01*
X155508687Y-52006823D01*
X155460024Y-52167242D01*
X155433280Y-52217276D01*
X155381004Y-52315078D01*
X155274659Y-52444659D01*
X155145077Y-52551005D01*
X154997241Y-52630024D01*
X154836822Y-52678687D01*
X154670000Y-52695117D01*
X154503177Y-52678687D01*
X154342758Y-52630024D01*
X154194924Y-52551005D01*
X154194922Y-52551004D01*
X154065341Y-52444659D01*
X153958995Y-52315077D01*
X153879976Y-52167241D01*
X153831313Y-52006822D01*
X153819000Y-51881803D01*
X153819000Y-50998197D01*
X153831314Y-50873177D01*
X153879977Y-50712758D01*
X153958996Y-50564924D01*
X153958997Y-50564922D01*
X154065342Y-50435341D01*
X154194923Y-50328996D01*
X154295419Y-50275280D01*
X154342759Y-50249976D01*
X154503178Y-50201313D01*
X154670000Y-50184883D01*
X154836823Y-50201313D01*
G37*
G36*
X119276823Y-50201313D02*
G01*
X119437242Y-50249976D01*
X119484582Y-50275280D01*
X119585078Y-50328996D01*
X119714659Y-50435341D01*
X119821004Y-50564922D01*
X119821005Y-50564924D01*
X119900024Y-50712758D01*
X119948687Y-50873178D01*
X119961000Y-50998197D01*
X119961000Y-51881804D01*
X119948687Y-52006823D01*
X119900024Y-52167242D01*
X119873280Y-52217276D01*
X119821004Y-52315078D01*
X119714659Y-52444659D01*
X119585077Y-52551005D01*
X119437241Y-52630024D01*
X119276822Y-52678687D01*
X119110000Y-52695117D01*
X118943177Y-52678687D01*
X118782758Y-52630024D01*
X118634924Y-52551005D01*
X118634922Y-52551004D01*
X118505341Y-52444659D01*
X118398995Y-52315077D01*
X118319976Y-52167241D01*
X118271313Y-52006822D01*
X118259000Y-51881803D01*
X118259000Y-50998197D01*
X118271314Y-50873177D01*
X118319977Y-50712758D01*
X118398996Y-50564924D01*
X118398997Y-50564922D01*
X118505342Y-50435341D01*
X118634923Y-50328996D01*
X118735419Y-50275280D01*
X118782759Y-50249976D01*
X118943178Y-50201313D01*
X119110000Y-50184883D01*
X119276823Y-50201313D01*
G37*
G36*
X116736823Y-50201313D02*
G01*
X116897242Y-50249976D01*
X116944582Y-50275280D01*
X117045078Y-50328996D01*
X117174659Y-50435341D01*
X117281004Y-50564922D01*
X117281005Y-50564924D01*
X117360024Y-50712758D01*
X117408687Y-50873178D01*
X117421000Y-50998197D01*
X117421000Y-51881804D01*
X117408687Y-52006823D01*
X117360024Y-52167242D01*
X117333280Y-52217276D01*
X117281004Y-52315078D01*
X117174659Y-52444659D01*
X117045077Y-52551005D01*
X116897241Y-52630024D01*
X116736822Y-52678687D01*
X116570000Y-52695117D01*
X116403177Y-52678687D01*
X116242758Y-52630024D01*
X116094924Y-52551005D01*
X116094922Y-52551004D01*
X115965341Y-52444659D01*
X115858995Y-52315077D01*
X115779976Y-52167241D01*
X115731313Y-52006822D01*
X115719000Y-51881803D01*
X115719000Y-50998197D01*
X115731314Y-50873177D01*
X115779977Y-50712758D01*
X115858996Y-50564924D01*
X115858997Y-50564922D01*
X115965342Y-50435341D01*
X116094923Y-50328996D01*
X116195419Y-50275280D01*
X116242759Y-50249976D01*
X116403178Y-50201313D01*
X116570000Y-50184883D01*
X116736823Y-50201313D01*
G37*
G36*
X121816823Y-50201313D02*
G01*
X121977242Y-50249976D01*
X122024582Y-50275280D01*
X122125078Y-50328996D01*
X122254659Y-50435341D01*
X122361004Y-50564922D01*
X122361005Y-50564924D01*
X122440024Y-50712758D01*
X122488687Y-50873178D01*
X122501000Y-50998197D01*
X122501000Y-51881804D01*
X122488687Y-52006823D01*
X122440024Y-52167242D01*
X122413280Y-52217276D01*
X122361004Y-52315078D01*
X122254659Y-52444659D01*
X122125077Y-52551005D01*
X121977241Y-52630024D01*
X121816822Y-52678687D01*
X121650000Y-52695117D01*
X121483177Y-52678687D01*
X121322758Y-52630024D01*
X121174924Y-52551005D01*
X121174922Y-52551004D01*
X121045341Y-52444659D01*
X120938995Y-52315077D01*
X120859976Y-52167241D01*
X120811313Y-52006822D01*
X120799000Y-51881803D01*
X120799000Y-50998197D01*
X120811314Y-50873177D01*
X120859977Y-50712758D01*
X120938996Y-50564924D01*
X120938997Y-50564922D01*
X121045342Y-50435341D01*
X121174923Y-50328996D01*
X121275419Y-50275280D01*
X121322759Y-50249976D01*
X121483178Y-50201313D01*
X121650000Y-50184883D01*
X121816823Y-50201313D01*
G37*
G36*
X114196823Y-50201313D02*
G01*
X114357242Y-50249976D01*
X114404582Y-50275280D01*
X114505078Y-50328996D01*
X114634659Y-50435341D01*
X114741004Y-50564922D01*
X114741005Y-50564924D01*
X114820024Y-50712758D01*
X114868687Y-50873178D01*
X114881000Y-50998197D01*
X114881000Y-51881804D01*
X114868687Y-52006823D01*
X114820024Y-52167242D01*
X114793280Y-52217276D01*
X114741004Y-52315078D01*
X114634659Y-52444659D01*
X114505077Y-52551005D01*
X114357241Y-52630024D01*
X114196822Y-52678687D01*
X114030000Y-52695117D01*
X113863177Y-52678687D01*
X113702758Y-52630024D01*
X113554924Y-52551005D01*
X113554922Y-52551004D01*
X113425341Y-52444659D01*
X113318995Y-52315077D01*
X113239976Y-52167241D01*
X113191313Y-52006822D01*
X113179000Y-51881803D01*
X113179000Y-50998197D01*
X113191314Y-50873177D01*
X113239977Y-50712758D01*
X113318996Y-50564924D01*
X113318997Y-50564922D01*
X113425342Y-50435341D01*
X113554923Y-50328996D01*
X113655419Y-50275280D01*
X113702759Y-50249976D01*
X113863178Y-50201313D01*
X114030000Y-50184883D01*
X114196823Y-50201313D01*
G37*
G36*
X124356823Y-50201313D02*
G01*
X124517242Y-50249976D01*
X124564582Y-50275280D01*
X124665078Y-50328996D01*
X124794659Y-50435341D01*
X124901004Y-50564922D01*
X124901005Y-50564924D01*
X124980024Y-50712758D01*
X125028687Y-50873178D01*
X125041000Y-50998197D01*
X125041000Y-51881804D01*
X125028687Y-52006823D01*
X124980024Y-52167242D01*
X124953280Y-52217276D01*
X124901004Y-52315078D01*
X124794659Y-52444659D01*
X124665077Y-52551005D01*
X124517241Y-52630024D01*
X124356822Y-52678687D01*
X124190000Y-52695117D01*
X124023177Y-52678687D01*
X123862758Y-52630024D01*
X123714924Y-52551005D01*
X123714922Y-52551004D01*
X123585341Y-52444659D01*
X123478995Y-52315077D01*
X123399976Y-52167241D01*
X123351313Y-52006822D01*
X123339000Y-51881803D01*
X123339000Y-50998197D01*
X123351314Y-50873177D01*
X123399977Y-50712758D01*
X123478996Y-50564924D01*
X123478997Y-50564922D01*
X123585342Y-50435341D01*
X123714923Y-50328996D01*
X123815419Y-50275280D01*
X123862759Y-50249976D01*
X124023178Y-50201313D01*
X124190000Y-50184883D01*
X124356823Y-50201313D01*
G37*
G36*
X126896823Y-50201313D02*
G01*
X127057242Y-50249976D01*
X127104582Y-50275280D01*
X127205078Y-50328996D01*
X127334659Y-50435341D01*
X127441004Y-50564922D01*
X127441005Y-50564924D01*
X127520024Y-50712758D01*
X127568687Y-50873178D01*
X127581000Y-50998197D01*
X127581000Y-51881804D01*
X127568687Y-52006823D01*
X127520024Y-52167242D01*
X127493280Y-52217276D01*
X127441004Y-52315078D01*
X127334659Y-52444659D01*
X127205077Y-52551005D01*
X127057241Y-52630024D01*
X126896822Y-52678687D01*
X126730000Y-52695117D01*
X126563177Y-52678687D01*
X126402758Y-52630024D01*
X126254924Y-52551005D01*
X126254922Y-52551004D01*
X126125341Y-52444659D01*
X126018995Y-52315077D01*
X125939976Y-52167241D01*
X125891313Y-52006822D01*
X125879000Y-51881803D01*
X125879000Y-50998197D01*
X125891314Y-50873177D01*
X125939977Y-50712758D01*
X126018996Y-50564924D01*
X126018997Y-50564922D01*
X126125342Y-50435341D01*
X126254923Y-50328996D01*
X126355419Y-50275280D01*
X126402759Y-50249976D01*
X126563178Y-50201313D01*
X126730000Y-50184883D01*
X126896823Y-50201313D01*
G37*
G36*
X131976823Y-50201313D02*
G01*
X132137242Y-50249976D01*
X132184582Y-50275280D01*
X132285078Y-50328996D01*
X132414659Y-50435341D01*
X132521004Y-50564922D01*
X132521005Y-50564924D01*
X132600024Y-50712758D01*
X132648687Y-50873178D01*
X132661000Y-50998197D01*
X132661000Y-51881804D01*
X132648687Y-52006823D01*
X132600024Y-52167242D01*
X132573280Y-52217276D01*
X132521004Y-52315078D01*
X132414659Y-52444659D01*
X132285077Y-52551005D01*
X132137241Y-52630024D01*
X131976822Y-52678687D01*
X131810000Y-52695117D01*
X131643177Y-52678687D01*
X131482758Y-52630024D01*
X131334924Y-52551005D01*
X131334922Y-52551004D01*
X131205341Y-52444659D01*
X131098995Y-52315077D01*
X131019976Y-52167241D01*
X130971313Y-52006822D01*
X130959000Y-51881803D01*
X130959000Y-50998197D01*
X130971314Y-50873177D01*
X131019977Y-50712758D01*
X131098996Y-50564924D01*
X131098997Y-50564922D01*
X131205342Y-50435341D01*
X131334923Y-50328996D01*
X131435419Y-50275280D01*
X131482759Y-50249976D01*
X131643178Y-50201313D01*
X131810000Y-50184883D01*
X131976823Y-50201313D01*
G37*
G36*
X162456823Y-50201313D02*
G01*
X162617242Y-50249976D01*
X162664582Y-50275280D01*
X162765078Y-50328996D01*
X162894659Y-50435341D01*
X163001004Y-50564922D01*
X163001005Y-50564924D01*
X163080024Y-50712758D01*
X163128687Y-50873178D01*
X163141000Y-50998197D01*
X163141000Y-51881804D01*
X163128687Y-52006823D01*
X163080024Y-52167242D01*
X163053280Y-52217276D01*
X163001004Y-52315078D01*
X162894659Y-52444659D01*
X162765077Y-52551005D01*
X162617241Y-52630024D01*
X162456822Y-52678687D01*
X162290000Y-52695117D01*
X162123177Y-52678687D01*
X161962758Y-52630024D01*
X161814924Y-52551005D01*
X161814922Y-52551004D01*
X161685341Y-52444659D01*
X161578995Y-52315077D01*
X161499976Y-52167241D01*
X161451313Y-52006822D01*
X161439000Y-51881803D01*
X161439000Y-50998197D01*
X161451314Y-50873177D01*
X161499977Y-50712758D01*
X161578996Y-50564924D01*
X161578997Y-50564922D01*
X161685342Y-50435341D01*
X161814923Y-50328996D01*
X161915419Y-50275280D01*
X161962759Y-50249976D01*
X162123178Y-50201313D01*
X162290000Y-50184883D01*
X162456823Y-50201313D01*
G37*
G36*
X152296823Y-50201313D02*
G01*
X152457242Y-50249976D01*
X152504582Y-50275280D01*
X152605078Y-50328996D01*
X152734659Y-50435341D01*
X152841004Y-50564922D01*
X152841005Y-50564924D01*
X152920024Y-50712758D01*
X152968687Y-50873178D01*
X152981000Y-50998197D01*
X152981000Y-51881804D01*
X152968687Y-52006823D01*
X152920024Y-52167242D01*
X152893280Y-52217276D01*
X152841004Y-52315078D01*
X152734659Y-52444659D01*
X152605077Y-52551005D01*
X152457241Y-52630024D01*
X152296822Y-52678687D01*
X152130000Y-52695117D01*
X151963177Y-52678687D01*
X151802758Y-52630024D01*
X151654924Y-52551005D01*
X151654922Y-52551004D01*
X151525341Y-52444659D01*
X151418995Y-52315077D01*
X151339976Y-52167241D01*
X151291313Y-52006822D01*
X151279000Y-51881803D01*
X151279000Y-50998197D01*
X151291314Y-50873177D01*
X151339977Y-50712758D01*
X151418996Y-50564924D01*
X151418997Y-50564922D01*
X151525342Y-50435341D01*
X151654923Y-50328996D01*
X151755419Y-50275280D01*
X151802759Y-50249976D01*
X151963178Y-50201313D01*
X152130000Y-50184883D01*
X152296823Y-50201313D01*
G37*
G36*
X149756823Y-50201313D02*
G01*
X149917242Y-50249976D01*
X149964582Y-50275280D01*
X150065078Y-50328996D01*
X150194659Y-50435341D01*
X150301004Y-50564922D01*
X150301005Y-50564924D01*
X150380024Y-50712758D01*
X150428687Y-50873178D01*
X150441000Y-50998197D01*
X150441000Y-51881804D01*
X150428687Y-52006823D01*
X150380024Y-52167242D01*
X150353280Y-52217276D01*
X150301004Y-52315078D01*
X150194659Y-52444659D01*
X150065077Y-52551005D01*
X149917241Y-52630024D01*
X149756822Y-52678687D01*
X149590000Y-52695117D01*
X149423177Y-52678687D01*
X149262758Y-52630024D01*
X149114924Y-52551005D01*
X149114922Y-52551004D01*
X148985341Y-52444659D01*
X148878995Y-52315077D01*
X148799976Y-52167241D01*
X148751313Y-52006822D01*
X148739000Y-51881803D01*
X148739000Y-50998197D01*
X148751314Y-50873177D01*
X148799977Y-50712758D01*
X148878996Y-50564924D01*
X148878997Y-50564922D01*
X148985342Y-50435341D01*
X149114923Y-50328996D01*
X149215419Y-50275280D01*
X149262759Y-50249976D01*
X149423178Y-50201313D01*
X149590000Y-50184883D01*
X149756823Y-50201313D01*
G37*
G36*
X147216823Y-50201313D02*
G01*
X147377242Y-50249976D01*
X147424582Y-50275280D01*
X147525078Y-50328996D01*
X147654659Y-50435341D01*
X147761004Y-50564922D01*
X147761005Y-50564924D01*
X147840024Y-50712758D01*
X147888687Y-50873178D01*
X147901000Y-50998197D01*
X147901000Y-51881804D01*
X147888687Y-52006823D01*
X147840024Y-52167242D01*
X147813280Y-52217276D01*
X147761004Y-52315078D01*
X147654659Y-52444659D01*
X147525077Y-52551005D01*
X147377241Y-52630024D01*
X147216822Y-52678687D01*
X147050000Y-52695117D01*
X146883177Y-52678687D01*
X146722758Y-52630024D01*
X146574924Y-52551005D01*
X146574922Y-52551004D01*
X146445341Y-52444659D01*
X146338995Y-52315077D01*
X146259976Y-52167241D01*
X146211313Y-52006822D01*
X146199000Y-51881803D01*
X146199000Y-50998197D01*
X146211314Y-50873177D01*
X146259977Y-50712758D01*
X146338996Y-50564924D01*
X146338997Y-50564922D01*
X146445342Y-50435341D01*
X146574923Y-50328996D01*
X146675419Y-50275280D01*
X146722759Y-50249976D01*
X146883178Y-50201313D01*
X147050000Y-50184883D01*
X147216823Y-50201313D01*
G37*
G36*
X144676823Y-50201313D02*
G01*
X144837242Y-50249976D01*
X144884582Y-50275280D01*
X144985078Y-50328996D01*
X145114659Y-50435341D01*
X145221004Y-50564922D01*
X145221005Y-50564924D01*
X145300024Y-50712758D01*
X145348687Y-50873178D01*
X145361000Y-50998197D01*
X145361000Y-51881804D01*
X145348687Y-52006823D01*
X145300024Y-52167242D01*
X145273280Y-52217276D01*
X145221004Y-52315078D01*
X145114659Y-52444659D01*
X144985077Y-52551005D01*
X144837241Y-52630024D01*
X144676822Y-52678687D01*
X144510000Y-52695117D01*
X144343177Y-52678687D01*
X144182758Y-52630024D01*
X144034924Y-52551005D01*
X144034922Y-52551004D01*
X143905341Y-52444659D01*
X143798995Y-52315077D01*
X143719976Y-52167241D01*
X143671313Y-52006822D01*
X143659000Y-51881803D01*
X143659000Y-50998197D01*
X143671314Y-50873177D01*
X143719977Y-50712758D01*
X143798996Y-50564924D01*
X143798997Y-50564922D01*
X143905342Y-50435341D01*
X144034923Y-50328996D01*
X144135419Y-50275280D01*
X144182759Y-50249976D01*
X144343178Y-50201313D01*
X144510000Y-50184883D01*
X144676823Y-50201313D01*
G37*
G36*
X142136823Y-50201313D02*
G01*
X142297242Y-50249976D01*
X142344582Y-50275280D01*
X142445078Y-50328996D01*
X142574659Y-50435341D01*
X142681004Y-50564922D01*
X142681005Y-50564924D01*
X142760024Y-50712758D01*
X142808687Y-50873178D01*
X142821000Y-50998197D01*
X142821000Y-51881804D01*
X142808687Y-52006823D01*
X142760024Y-52167242D01*
X142733280Y-52217276D01*
X142681004Y-52315078D01*
X142574659Y-52444659D01*
X142445077Y-52551005D01*
X142297241Y-52630024D01*
X142136822Y-52678687D01*
X141970000Y-52695117D01*
X141803177Y-52678687D01*
X141642758Y-52630024D01*
X141494924Y-52551005D01*
X141494922Y-52551004D01*
X141365341Y-52444659D01*
X141258995Y-52315077D01*
X141179976Y-52167241D01*
X141131313Y-52006822D01*
X141119000Y-51881803D01*
X141119000Y-50998197D01*
X141131314Y-50873177D01*
X141179977Y-50712758D01*
X141258996Y-50564924D01*
X141258997Y-50564922D01*
X141365342Y-50435341D01*
X141494923Y-50328996D01*
X141595419Y-50275280D01*
X141642759Y-50249976D01*
X141803178Y-50201313D01*
X141970000Y-50184883D01*
X142136823Y-50201313D01*
G37*
G36*
X139596823Y-50201313D02*
G01*
X139757242Y-50249976D01*
X139804582Y-50275280D01*
X139905078Y-50328996D01*
X140034659Y-50435341D01*
X140141004Y-50564922D01*
X140141005Y-50564924D01*
X140220024Y-50712758D01*
X140268687Y-50873178D01*
X140281000Y-50998197D01*
X140281000Y-51881804D01*
X140268687Y-52006823D01*
X140220024Y-52167242D01*
X140193280Y-52217276D01*
X140141004Y-52315078D01*
X140034659Y-52444659D01*
X139905077Y-52551005D01*
X139757241Y-52630024D01*
X139596822Y-52678687D01*
X139430000Y-52695117D01*
X139263177Y-52678687D01*
X139102758Y-52630024D01*
X138954924Y-52551005D01*
X138954922Y-52551004D01*
X138825341Y-52444659D01*
X138718995Y-52315077D01*
X138639976Y-52167241D01*
X138591313Y-52006822D01*
X138579000Y-51881803D01*
X138579000Y-50998197D01*
X138591314Y-50873177D01*
X138639977Y-50712758D01*
X138718996Y-50564924D01*
X138718997Y-50564922D01*
X138825342Y-50435341D01*
X138954923Y-50328996D01*
X139055419Y-50275280D01*
X139102759Y-50249976D01*
X139263178Y-50201313D01*
X139430000Y-50184883D01*
X139596823Y-50201313D01*
G37*
G36*
X137056823Y-50201313D02*
G01*
X137217242Y-50249976D01*
X137264582Y-50275280D01*
X137365078Y-50328996D01*
X137494659Y-50435341D01*
X137601004Y-50564922D01*
X137601005Y-50564924D01*
X137680024Y-50712758D01*
X137728687Y-50873178D01*
X137741000Y-50998197D01*
X137741000Y-51881804D01*
X137728687Y-52006823D01*
X137680024Y-52167242D01*
X137653280Y-52217276D01*
X137601004Y-52315078D01*
X137494659Y-52444659D01*
X137365077Y-52551005D01*
X137217241Y-52630024D01*
X137056822Y-52678687D01*
X136890000Y-52695117D01*
X136723177Y-52678687D01*
X136562758Y-52630024D01*
X136414924Y-52551005D01*
X136414922Y-52551004D01*
X136285341Y-52444659D01*
X136178995Y-52315077D01*
X136099976Y-52167241D01*
X136051313Y-52006822D01*
X136039000Y-51881803D01*
X136039000Y-50998197D01*
X136051314Y-50873177D01*
X136099977Y-50712758D01*
X136178996Y-50564924D01*
X136178997Y-50564922D01*
X136285342Y-50435341D01*
X136414923Y-50328996D01*
X136515419Y-50275280D01*
X136562759Y-50249976D01*
X136723178Y-50201313D01*
X136890000Y-50184883D01*
X137056823Y-50201313D01*
G37*
G36*
X129436823Y-50201313D02*
G01*
X129597242Y-50249976D01*
X129644582Y-50275280D01*
X129745078Y-50328996D01*
X129874659Y-50435341D01*
X129981004Y-50564922D01*
X129981005Y-50564924D01*
X130060024Y-50712758D01*
X130108687Y-50873178D01*
X130121000Y-50998197D01*
X130121000Y-51881804D01*
X130108687Y-52006823D01*
X130060024Y-52167242D01*
X130033280Y-52217276D01*
X129981004Y-52315078D01*
X129874659Y-52444659D01*
X129745077Y-52551005D01*
X129597241Y-52630024D01*
X129436822Y-52678687D01*
X129270000Y-52695117D01*
X129103177Y-52678687D01*
X128942758Y-52630024D01*
X128794924Y-52551005D01*
X128794922Y-52551004D01*
X128665341Y-52444659D01*
X128558995Y-52315077D01*
X128479976Y-52167241D01*
X128431313Y-52006822D01*
X128419000Y-51881803D01*
X128419000Y-50998197D01*
X128431314Y-50873177D01*
X128479977Y-50712758D01*
X128558996Y-50564924D01*
X128558997Y-50564922D01*
X128665342Y-50435341D01*
X128794923Y-50328996D01*
X128895419Y-50275280D01*
X128942759Y-50249976D01*
X129103178Y-50201313D01*
X129270000Y-50184883D01*
X129436823Y-50201313D01*
G37*
G36*
X181016564Y-50196054D02*
G01*
X181151574Y-50251977D01*
X181207835Y-50275281D01*
X181288225Y-50328996D01*
X181379973Y-50390300D01*
X181526365Y-50536692D01*
X181641385Y-50708832D01*
X181720611Y-50900101D01*
X181761000Y-51103149D01*
X181761000Y-51310181D01*
X181720611Y-51513229D01*
X181665820Y-51645507D01*
X181641384Y-51704500D01*
X181526365Y-51876638D01*
X181379973Y-52023030D01*
X181207835Y-52138049D01*
X181207834Y-52138050D01*
X181207833Y-52138050D01*
X181016564Y-52217276D01*
X180813516Y-52257665D01*
X180606484Y-52257665D01*
X180403436Y-52217276D01*
X180212167Y-52138050D01*
X180212166Y-52138050D01*
X180212165Y-52138049D01*
X180040027Y-52023030D01*
X179893635Y-51876638D01*
X179778616Y-51704500D01*
X179754180Y-51645507D01*
X179699389Y-51513229D01*
X179659000Y-51310181D01*
X179659000Y-51103149D01*
X179699389Y-50900101D01*
X179778615Y-50708832D01*
X179893635Y-50536692D01*
X180040027Y-50390300D01*
X180131775Y-50328996D01*
X180212165Y-50275281D01*
X180268426Y-50251977D01*
X180403436Y-50196054D01*
X180606484Y-50155665D01*
X180813516Y-50155665D01*
X181016564Y-50196054D01*
G37*
G36*
X174516564Y-50196054D02*
G01*
X174651574Y-50251977D01*
X174707835Y-50275281D01*
X174788225Y-50328996D01*
X174879973Y-50390300D01*
X175026365Y-50536692D01*
X175141385Y-50708832D01*
X175220611Y-50900101D01*
X175261000Y-51103149D01*
X175261000Y-51310181D01*
X175220611Y-51513229D01*
X175165820Y-51645507D01*
X175141384Y-51704500D01*
X175026365Y-51876638D01*
X174879973Y-52023030D01*
X174707835Y-52138049D01*
X174707834Y-52138050D01*
X174707833Y-52138050D01*
X174516564Y-52217276D01*
X174313516Y-52257665D01*
X174106484Y-52257665D01*
X173903436Y-52217276D01*
X173712167Y-52138050D01*
X173712166Y-52138050D01*
X173712165Y-52138049D01*
X173540027Y-52023030D01*
X173393635Y-51876638D01*
X173278616Y-51704500D01*
X173254180Y-51645507D01*
X173199389Y-51513229D01*
X173159000Y-51310181D01*
X173159000Y-51103149D01*
X173199389Y-50900101D01*
X173278615Y-50708832D01*
X173393635Y-50536692D01*
X173540027Y-50390300D01*
X173631775Y-50328996D01*
X173712165Y-50275281D01*
X173768426Y-50251977D01*
X173903436Y-50196054D01*
X174106484Y-50155665D01*
X174313516Y-50155665D01*
X174516564Y-50196054D01*
G37*
G36*
X192361779Y-49955546D02*
G01*
X192528225Y-50024490D01*
X192678023Y-50124582D01*
X192805418Y-50251977D01*
X192905510Y-50401775D01*
X192974454Y-50568221D01*
X193009601Y-50744917D01*
X193009601Y-50925081D01*
X192974454Y-51101777D01*
X192905510Y-51268223D01*
X192805418Y-51418021D01*
X192678023Y-51545416D01*
X192528225Y-51645508D01*
X192361779Y-51714452D01*
X192185083Y-51749599D01*
X192004919Y-51749599D01*
X191828223Y-51714452D01*
X191661777Y-51645508D01*
X191511979Y-51545416D01*
X191384584Y-51418021D01*
X191284492Y-51268223D01*
X191215548Y-51101777D01*
X191180401Y-50925081D01*
X191180401Y-50744917D01*
X191215548Y-50568221D01*
X191284492Y-50401775D01*
X191384584Y-50251977D01*
X191511979Y-50124582D01*
X191661777Y-50024490D01*
X191828223Y-49955546D01*
X192004919Y-49920399D01*
X192185083Y-49920399D01*
X192361779Y-49955546D01*
G37*
G36*
X189821779Y-49955546D02*
G01*
X189988225Y-50024490D01*
X190138023Y-50124582D01*
X190265418Y-50251977D01*
X190365510Y-50401775D01*
X190434454Y-50568221D01*
X190469601Y-50744917D01*
X190469601Y-50925081D01*
X190434454Y-51101777D01*
X190365510Y-51268223D01*
X190265418Y-51418021D01*
X190138023Y-51545416D01*
X189988225Y-51645508D01*
X189821779Y-51714452D01*
X189645083Y-51749599D01*
X189464919Y-51749599D01*
X189288223Y-51714452D01*
X189121777Y-51645508D01*
X188971979Y-51545416D01*
X188844584Y-51418021D01*
X188744492Y-51268223D01*
X188675548Y-51101777D01*
X188640401Y-50925081D01*
X188640401Y-50744917D01*
X188675548Y-50568221D01*
X188744492Y-50401775D01*
X188844584Y-50251977D01*
X188971979Y-50124582D01*
X189121777Y-50024490D01*
X189288223Y-49955546D01*
X189464919Y-49920399D01*
X189645083Y-49920399D01*
X189821779Y-49955546D01*
G37*
G36*
X192361779Y-47415546D02*
G01*
X192528225Y-47484490D01*
X192678023Y-47584582D01*
X192805418Y-47711977D01*
X192905510Y-47861775D01*
X192974454Y-48028221D01*
X193009601Y-48204917D01*
X193009601Y-48385081D01*
X192974454Y-48561777D01*
X192905510Y-48728223D01*
X192805418Y-48878021D01*
X192678023Y-49005416D01*
X192528225Y-49105508D01*
X192361779Y-49174452D01*
X192185083Y-49209599D01*
X192004919Y-49209599D01*
X191828223Y-49174452D01*
X191661777Y-49105508D01*
X191511979Y-49005416D01*
X191384584Y-48878021D01*
X191284492Y-48728223D01*
X191215548Y-48561777D01*
X191180401Y-48385081D01*
X191180401Y-48204917D01*
X191215548Y-48028221D01*
X191284492Y-47861775D01*
X191384584Y-47711977D01*
X191511979Y-47584582D01*
X191661777Y-47484490D01*
X191828223Y-47415546D01*
X192004919Y-47380399D01*
X192185083Y-47380399D01*
X192361779Y-47415546D01*
G37*
G36*
X189821779Y-47415546D02*
G01*
X189988225Y-47484490D01*
X190138023Y-47584582D01*
X190265418Y-47711977D01*
X190365510Y-47861775D01*
X190434454Y-48028221D01*
X190469601Y-48204917D01*
X190469601Y-48385081D01*
X190434454Y-48561777D01*
X190365510Y-48728223D01*
X190265418Y-48878021D01*
X190138023Y-49005416D01*
X189988225Y-49105508D01*
X189821779Y-49174452D01*
X189645083Y-49209599D01*
X189464919Y-49209599D01*
X189288223Y-49174452D01*
X189121777Y-49105508D01*
X188971979Y-49005416D01*
X188844584Y-48878021D01*
X188744492Y-48728223D01*
X188675548Y-48561777D01*
X188640401Y-48385081D01*
X188640401Y-48204917D01*
X188675548Y-48028221D01*
X188744492Y-47861775D01*
X188844584Y-47711977D01*
X188971979Y-47584582D01*
X189121777Y-47484490D01*
X189288223Y-47415546D01*
X189464919Y-47380399D01*
X189645083Y-47380399D01*
X189821779Y-47415546D01*
G37*
G36*
X181016564Y-45696054D02*
G01*
X181207833Y-45775280D01*
X181207835Y-45775281D01*
X181379973Y-45890300D01*
X181526365Y-46036692D01*
X181627616Y-46188224D01*
X181641385Y-46208832D01*
X181720611Y-46400101D01*
X181761000Y-46603149D01*
X181761000Y-46810181D01*
X181720611Y-47013229D01*
X181641385Y-47204498D01*
X181641384Y-47204500D01*
X181526365Y-47376638D01*
X181379973Y-47523030D01*
X181207835Y-47638049D01*
X181207834Y-47638050D01*
X181207833Y-47638050D01*
X181016564Y-47717276D01*
X180813516Y-47757665D01*
X180606484Y-47757665D01*
X180403436Y-47717276D01*
X180212167Y-47638050D01*
X180212166Y-47638050D01*
X180212165Y-47638049D01*
X180040027Y-47523030D01*
X179893635Y-47376638D01*
X179778616Y-47204500D01*
X179778615Y-47204498D01*
X179699389Y-47013229D01*
X179659000Y-46810181D01*
X179659000Y-46603149D01*
X179699389Y-46400101D01*
X179778615Y-46208832D01*
X179792385Y-46188224D01*
X179893635Y-46036692D01*
X180040027Y-45890300D01*
X180212165Y-45775281D01*
X180212167Y-45775280D01*
X180403436Y-45696054D01*
X180606484Y-45655665D01*
X180813516Y-45655665D01*
X181016564Y-45696054D01*
G37*
G36*
X174516564Y-45696054D02*
G01*
X174707833Y-45775280D01*
X174707835Y-45775281D01*
X174879973Y-45890300D01*
X175026365Y-46036692D01*
X175127616Y-46188224D01*
X175141385Y-46208832D01*
X175220611Y-46400101D01*
X175261000Y-46603149D01*
X175261000Y-46810181D01*
X175220611Y-47013229D01*
X175141385Y-47204498D01*
X175141384Y-47204500D01*
X175026365Y-47376638D01*
X174879973Y-47523030D01*
X174707835Y-47638049D01*
X174707834Y-47638050D01*
X174707833Y-47638050D01*
X174516564Y-47717276D01*
X174313516Y-47757665D01*
X174106484Y-47757665D01*
X173903436Y-47717276D01*
X173712167Y-47638050D01*
X173712166Y-47638050D01*
X173712165Y-47638049D01*
X173540027Y-47523030D01*
X173393635Y-47376638D01*
X173278616Y-47204500D01*
X173278615Y-47204498D01*
X173199389Y-47013229D01*
X173159000Y-46810181D01*
X173159000Y-46603149D01*
X173199389Y-46400101D01*
X173278615Y-46208832D01*
X173292385Y-46188224D01*
X173393635Y-46036692D01*
X173540027Y-45890300D01*
X173712165Y-45775281D01*
X173712167Y-45775280D01*
X173903436Y-45696054D01*
X174106484Y-45655665D01*
X174313516Y-45655665D01*
X174516564Y-45696054D01*
G37*
G36*
X192361779Y-44875546D02*
G01*
X192528225Y-44944490D01*
X192678023Y-45044582D01*
X192805418Y-45171977D01*
X192905510Y-45321775D01*
X192974454Y-45488221D01*
X193009601Y-45664917D01*
X193009601Y-45845081D01*
X192974454Y-46021777D01*
X192905510Y-46188223D01*
X192805418Y-46338021D01*
X192678023Y-46465416D01*
X192528225Y-46565508D01*
X192361779Y-46634452D01*
X192185083Y-46669599D01*
X192004919Y-46669599D01*
X191828223Y-46634452D01*
X191661777Y-46565508D01*
X191511979Y-46465416D01*
X191384584Y-46338021D01*
X191284492Y-46188223D01*
X191215548Y-46021777D01*
X191180401Y-45845081D01*
X191180401Y-45664917D01*
X191215548Y-45488221D01*
X191284492Y-45321775D01*
X191384584Y-45171977D01*
X191511979Y-45044582D01*
X191661777Y-44944490D01*
X191828223Y-44875546D01*
X192004919Y-44840399D01*
X192185083Y-44840399D01*
X192361779Y-44875546D01*
G37*
G36*
X189821779Y-44875546D02*
G01*
X189988225Y-44944490D01*
X190138023Y-45044582D01*
X190265418Y-45171977D01*
X190365510Y-45321775D01*
X190434454Y-45488221D01*
X190469601Y-45664917D01*
X190469601Y-45845081D01*
X190434454Y-46021777D01*
X190365510Y-46188223D01*
X190265418Y-46338021D01*
X190138023Y-46465416D01*
X189988225Y-46565508D01*
X189821779Y-46634452D01*
X189645083Y-46669599D01*
X189464919Y-46669599D01*
X189288223Y-46634452D01*
X189121777Y-46565508D01*
X188971979Y-46465416D01*
X188844584Y-46338021D01*
X188744492Y-46188223D01*
X188675548Y-46021777D01*
X188640401Y-45845081D01*
X188640401Y-45664917D01*
X188675548Y-45488221D01*
X188744492Y-45321775D01*
X188844584Y-45171977D01*
X188971979Y-45044582D01*
X189121777Y-44944490D01*
X189288223Y-44875546D01*
X189464919Y-44840399D01*
X189645083Y-44840399D01*
X189821779Y-44875546D01*
G37*
G36*
X189821779Y-42335546D02*
G01*
X189988225Y-42404490D01*
X190138023Y-42504582D01*
X190265418Y-42631977D01*
X190365510Y-42781775D01*
X190434454Y-42948221D01*
X190469601Y-43124917D01*
X190469601Y-43305081D01*
X190434454Y-43481777D01*
X190365510Y-43648223D01*
X190265418Y-43798021D01*
X190138023Y-43925416D01*
X189988225Y-44025508D01*
X189821779Y-44094452D01*
X189645083Y-44129599D01*
X189464919Y-44129599D01*
X189288223Y-44094452D01*
X189121777Y-44025508D01*
X188971979Y-43925416D01*
X188844584Y-43798021D01*
X188744492Y-43648223D01*
X188675548Y-43481777D01*
X188640401Y-43305081D01*
X188640401Y-43124917D01*
X188675548Y-42948221D01*
X188744492Y-42781775D01*
X188844584Y-42631977D01*
X188971979Y-42504582D01*
X189121777Y-42404490D01*
X189288223Y-42335546D01*
X189464919Y-42300399D01*
X189645083Y-42300399D01*
X189821779Y-42335546D01*
G37*
G36*
X192361779Y-42335546D02*
G01*
X192528225Y-42404490D01*
X192678023Y-42504582D01*
X192805418Y-42631977D01*
X192905510Y-42781775D01*
X192974454Y-42948221D01*
X193009601Y-43124917D01*
X193009601Y-43305081D01*
X192974454Y-43481777D01*
X192905510Y-43648223D01*
X192805418Y-43798021D01*
X192678023Y-43925416D01*
X192528225Y-44025508D01*
X192361779Y-44094452D01*
X192185083Y-44129599D01*
X192004919Y-44129599D01*
X191828223Y-44094452D01*
X191661777Y-44025508D01*
X191511979Y-43925416D01*
X191384584Y-43798021D01*
X191284492Y-43648223D01*
X191215548Y-43481777D01*
X191180401Y-43305081D01*
X191180401Y-43124917D01*
X191215548Y-42948221D01*
X191284492Y-42781775D01*
X191384584Y-42631977D01*
X191511979Y-42504582D01*
X191661777Y-42404490D01*
X191828223Y-42335546D01*
X192004919Y-42300399D01*
X192185083Y-42300399D01*
X192361779Y-42335546D01*
G37*
G36*
X181016564Y-39927722D02*
G01*
X181207833Y-40006948D01*
X181207835Y-40006949D01*
X181379973Y-40121968D01*
X181526365Y-40268360D01*
X181619817Y-40408220D01*
X181641385Y-40440500D01*
X181720611Y-40631769D01*
X181761000Y-40834817D01*
X181761000Y-41041849D01*
X181720611Y-41244897D01*
X181662406Y-41385416D01*
X181641384Y-41436168D01*
X181526365Y-41608306D01*
X181379973Y-41754698D01*
X181207835Y-41869717D01*
X181207834Y-41869718D01*
X181207833Y-41869718D01*
X181016564Y-41948944D01*
X180813516Y-41989333D01*
X180606484Y-41989333D01*
X180403436Y-41948944D01*
X180212167Y-41869718D01*
X180212166Y-41869718D01*
X180212165Y-41869717D01*
X180040027Y-41754698D01*
X179893635Y-41608306D01*
X179778616Y-41436168D01*
X179757594Y-41385416D01*
X179699389Y-41244897D01*
X179659000Y-41041849D01*
X179659000Y-40834817D01*
X179699389Y-40631769D01*
X179778615Y-40440500D01*
X179800184Y-40408220D01*
X179893635Y-40268360D01*
X180040027Y-40121968D01*
X180212165Y-40006949D01*
X180212167Y-40006948D01*
X180403436Y-39927722D01*
X180606484Y-39887333D01*
X180813516Y-39887333D01*
X181016564Y-39927722D01*
G37*
G36*
X174516564Y-39927722D02*
G01*
X174707833Y-40006948D01*
X174707835Y-40006949D01*
X174879973Y-40121968D01*
X175026365Y-40268360D01*
X175119817Y-40408220D01*
X175141385Y-40440500D01*
X175220611Y-40631769D01*
X175261000Y-40834817D01*
X175261000Y-41041849D01*
X175220611Y-41244897D01*
X175162406Y-41385416D01*
X175141384Y-41436168D01*
X175026365Y-41608306D01*
X174879973Y-41754698D01*
X174707835Y-41869717D01*
X174707834Y-41869718D01*
X174707833Y-41869718D01*
X174516564Y-41948944D01*
X174313516Y-41989333D01*
X174106484Y-41989333D01*
X173903436Y-41948944D01*
X173712167Y-41869718D01*
X173712166Y-41869718D01*
X173712165Y-41869717D01*
X173540027Y-41754698D01*
X173393635Y-41608306D01*
X173278616Y-41436168D01*
X173257594Y-41385416D01*
X173199389Y-41244897D01*
X173159000Y-41041849D01*
X173159000Y-40834817D01*
X173199389Y-40631769D01*
X173278615Y-40440500D01*
X173300184Y-40408220D01*
X173393635Y-40268360D01*
X173540027Y-40121968D01*
X173712165Y-40006949D01*
X173712167Y-40006948D01*
X173903436Y-39927722D01*
X174106484Y-39887333D01*
X174313516Y-39887333D01*
X174516564Y-39927722D01*
G37*
G36*
X189821779Y-39795546D02*
G01*
X189988225Y-39864490D01*
X190138023Y-39964582D01*
X190265418Y-40091977D01*
X190365510Y-40241775D01*
X190434454Y-40408221D01*
X190469601Y-40584917D01*
X190469601Y-40765081D01*
X190434454Y-40941777D01*
X190365510Y-41108223D01*
X190265418Y-41258021D01*
X190138023Y-41385416D01*
X189988225Y-41485508D01*
X189821779Y-41554452D01*
X189645083Y-41589599D01*
X189464919Y-41589599D01*
X189288223Y-41554452D01*
X189121777Y-41485508D01*
X188971979Y-41385416D01*
X188844584Y-41258021D01*
X188744492Y-41108223D01*
X188675548Y-40941777D01*
X188640401Y-40765081D01*
X188640401Y-40584917D01*
X188675548Y-40408221D01*
X188744492Y-40241775D01*
X188844584Y-40091977D01*
X188971979Y-39964582D01*
X189121777Y-39864490D01*
X189288223Y-39795546D01*
X189464919Y-39760399D01*
X189645083Y-39760399D01*
X189821779Y-39795546D01*
G37*
G36*
X192361779Y-39795546D02*
G01*
X192528225Y-39864490D01*
X192678023Y-39964582D01*
X192805418Y-40091977D01*
X192905510Y-40241775D01*
X192974454Y-40408221D01*
X193009601Y-40584917D01*
X193009601Y-40765081D01*
X192974454Y-40941777D01*
X192905510Y-41108223D01*
X192805418Y-41258021D01*
X192678023Y-41385416D01*
X192528225Y-41485508D01*
X192361779Y-41554452D01*
X192185083Y-41589599D01*
X192004919Y-41589599D01*
X191828223Y-41554452D01*
X191661777Y-41485508D01*
X191511979Y-41385416D01*
X191384584Y-41258021D01*
X191284492Y-41108223D01*
X191215548Y-40941777D01*
X191180401Y-40765081D01*
X191180401Y-40584917D01*
X191215548Y-40408221D01*
X191284492Y-40241775D01*
X191384584Y-40091977D01*
X191511979Y-39964582D01*
X191661777Y-39864490D01*
X191828223Y-39795546D01*
X192004919Y-39760399D01*
X192185083Y-39760399D01*
X192361779Y-39795546D01*
G37*
G36*
X189821779Y-37255546D02*
G01*
X189988225Y-37324490D01*
X190138023Y-37424582D01*
X190265418Y-37551977D01*
X190365510Y-37701775D01*
X190434454Y-37868221D01*
X190469601Y-38044917D01*
X190469601Y-38225081D01*
X190434454Y-38401777D01*
X190365510Y-38568223D01*
X190265418Y-38718021D01*
X190138023Y-38845416D01*
X189988225Y-38945508D01*
X189821779Y-39014452D01*
X189645083Y-39049599D01*
X189464919Y-39049599D01*
X189288223Y-39014452D01*
X189121777Y-38945508D01*
X188971979Y-38845416D01*
X188844584Y-38718021D01*
X188744492Y-38568223D01*
X188675548Y-38401777D01*
X188640401Y-38225081D01*
X188640401Y-38044917D01*
X188675548Y-37868221D01*
X188744492Y-37701775D01*
X188844584Y-37551977D01*
X188971979Y-37424582D01*
X189121777Y-37324490D01*
X189288223Y-37255546D01*
X189464919Y-37220399D01*
X189645083Y-37220399D01*
X189821779Y-37255546D01*
G37*
G36*
X192361779Y-37255546D02*
G01*
X192528225Y-37324490D01*
X192678023Y-37424582D01*
X192805418Y-37551977D01*
X192905510Y-37701775D01*
X192974454Y-37868221D01*
X193009601Y-38044917D01*
X193009601Y-38225081D01*
X192974454Y-38401777D01*
X192905510Y-38568223D01*
X192805418Y-38718021D01*
X192678023Y-38845416D01*
X192528225Y-38945508D01*
X192361779Y-39014452D01*
X192185083Y-39049599D01*
X192004919Y-39049599D01*
X191828223Y-39014452D01*
X191661777Y-38945508D01*
X191511979Y-38845416D01*
X191384584Y-38718021D01*
X191284492Y-38568223D01*
X191215548Y-38401777D01*
X191180401Y-38225081D01*
X191180401Y-38044917D01*
X191215548Y-37868221D01*
X191284492Y-37701775D01*
X191384584Y-37551977D01*
X191511979Y-37424582D01*
X191661777Y-37324490D01*
X191828223Y-37255546D01*
X192004919Y-37220399D01*
X192185083Y-37220399D01*
X192361779Y-37255546D01*
G37*
G36*
X181016564Y-35427722D02*
G01*
X181207833Y-35506948D01*
X181207835Y-35506949D01*
X181379973Y-35621968D01*
X181526365Y-35768360D01*
X181641385Y-35940500D01*
X181720611Y-36131769D01*
X181761000Y-36334817D01*
X181761000Y-36541849D01*
X181720611Y-36744897D01*
X181645082Y-36927241D01*
X181641384Y-36936168D01*
X181526365Y-37108306D01*
X181379973Y-37254698D01*
X181207835Y-37369717D01*
X181207834Y-37369718D01*
X181207833Y-37369718D01*
X181016564Y-37448944D01*
X180813516Y-37489333D01*
X180606484Y-37489333D01*
X180403436Y-37448944D01*
X180212167Y-37369718D01*
X180212166Y-37369718D01*
X180212165Y-37369717D01*
X180040027Y-37254698D01*
X179893635Y-37108306D01*
X179778616Y-36936168D01*
X179774918Y-36927241D01*
X179699389Y-36744897D01*
X179659000Y-36541849D01*
X179659000Y-36334817D01*
X179699389Y-36131769D01*
X179778615Y-35940500D01*
X179893635Y-35768360D01*
X180040027Y-35621968D01*
X180212165Y-35506949D01*
X180212167Y-35506948D01*
X180403436Y-35427722D01*
X180606484Y-35387333D01*
X180813516Y-35387333D01*
X181016564Y-35427722D01*
G37*
G36*
X174516564Y-35427722D02*
G01*
X174707833Y-35506948D01*
X174707835Y-35506949D01*
X174879973Y-35621968D01*
X175026365Y-35768360D01*
X175141385Y-35940500D01*
X175220611Y-36131769D01*
X175261000Y-36334817D01*
X175261000Y-36541849D01*
X175220611Y-36744897D01*
X175145082Y-36927241D01*
X175141384Y-36936168D01*
X175026365Y-37108306D01*
X174879973Y-37254698D01*
X174707835Y-37369717D01*
X174707834Y-37369718D01*
X174707833Y-37369718D01*
X174516564Y-37448944D01*
X174313516Y-37489333D01*
X174106484Y-37489333D01*
X173903436Y-37448944D01*
X173712167Y-37369718D01*
X173712166Y-37369718D01*
X173712165Y-37369717D01*
X173540027Y-37254698D01*
X173393635Y-37108306D01*
X173278616Y-36936168D01*
X173274918Y-36927241D01*
X173199389Y-36744897D01*
X173159000Y-36541849D01*
X173159000Y-36334817D01*
X173199389Y-36131769D01*
X173278615Y-35940500D01*
X173393635Y-35768360D01*
X173540027Y-35621968D01*
X173712165Y-35506949D01*
X173712167Y-35506948D01*
X173903436Y-35427722D01*
X174106484Y-35387333D01*
X174313516Y-35387333D01*
X174516564Y-35427722D01*
G37*
G36*
X149756823Y-34961313D02*
G01*
X149917242Y-35009976D01*
X150049906Y-35080886D01*
X150065078Y-35088996D01*
X150194659Y-35195341D01*
X150301004Y-35324922D01*
X150301005Y-35324924D01*
X150380024Y-35472758D01*
X150380025Y-35472761D01*
X150390396Y-35506949D01*
X150428687Y-35633178D01*
X150441000Y-35758197D01*
X150441000Y-36641804D01*
X150428687Y-36766823D01*
X150380024Y-36927242D01*
X150309114Y-37059906D01*
X150301004Y-37075078D01*
X150273734Y-37108306D01*
X150194659Y-37204659D01*
X150065077Y-37311005D01*
X149917241Y-37390024D01*
X149756822Y-37438687D01*
X149590000Y-37455117D01*
X149423177Y-37438687D01*
X149262758Y-37390024D01*
X149114924Y-37311005D01*
X149114922Y-37311004D01*
X148985341Y-37204659D01*
X148906266Y-37108306D01*
X148878995Y-37075077D01*
X148799976Y-36927241D01*
X148751313Y-36766822D01*
X148739000Y-36641803D01*
X148739000Y-35758197D01*
X148751314Y-35633177D01*
X148799977Y-35472758D01*
X148878996Y-35324924D01*
X148878997Y-35324922D01*
X148985342Y-35195341D01*
X149114923Y-35088996D01*
X149130095Y-35080886D01*
X149262759Y-35009976D01*
X149423178Y-34961313D01*
X149590000Y-34944883D01*
X149756823Y-34961313D01*
G37*
G36*
X119276823Y-34961313D02*
G01*
X119437242Y-35009976D01*
X119569906Y-35080886D01*
X119585078Y-35088996D01*
X119714659Y-35195341D01*
X119821004Y-35324922D01*
X119821005Y-35324924D01*
X119900024Y-35472758D01*
X119900025Y-35472761D01*
X119910396Y-35506949D01*
X119948687Y-35633178D01*
X119961000Y-35758197D01*
X119961000Y-36641804D01*
X119948687Y-36766823D01*
X119900024Y-36927242D01*
X119829114Y-37059906D01*
X119821004Y-37075078D01*
X119793734Y-37108306D01*
X119714659Y-37204659D01*
X119585077Y-37311005D01*
X119437241Y-37390024D01*
X119276822Y-37438687D01*
X119110000Y-37455117D01*
X118943177Y-37438687D01*
X118782758Y-37390024D01*
X118634924Y-37311005D01*
X118634922Y-37311004D01*
X118505341Y-37204659D01*
X118426266Y-37108306D01*
X118398995Y-37075077D01*
X118319976Y-36927241D01*
X118271313Y-36766822D01*
X118259000Y-36641803D01*
X118259000Y-35758197D01*
X118271314Y-35633177D01*
X118319977Y-35472758D01*
X118398996Y-35324924D01*
X118398997Y-35324922D01*
X118505342Y-35195341D01*
X118634923Y-35088996D01*
X118650095Y-35080886D01*
X118782759Y-35009976D01*
X118943178Y-34961313D01*
X119110000Y-34944883D01*
X119276823Y-34961313D01*
G37*
G36*
X121816823Y-34961313D02*
G01*
X121977242Y-35009976D01*
X122109906Y-35080886D01*
X122125078Y-35088996D01*
X122254659Y-35195341D01*
X122361004Y-35324922D01*
X122361005Y-35324924D01*
X122440024Y-35472758D01*
X122440025Y-35472761D01*
X122450396Y-35506949D01*
X122488687Y-35633178D01*
X122501000Y-35758197D01*
X122501000Y-36641804D01*
X122488687Y-36766823D01*
X122440024Y-36927242D01*
X122369114Y-37059906D01*
X122361004Y-37075078D01*
X122333734Y-37108306D01*
X122254659Y-37204659D01*
X122125077Y-37311005D01*
X121977241Y-37390024D01*
X121816822Y-37438687D01*
X121650000Y-37455117D01*
X121483177Y-37438687D01*
X121322758Y-37390024D01*
X121174924Y-37311005D01*
X121174922Y-37311004D01*
X121045341Y-37204659D01*
X120966266Y-37108306D01*
X120938995Y-37075077D01*
X120859976Y-36927241D01*
X120811313Y-36766822D01*
X120799000Y-36641803D01*
X120799000Y-35758197D01*
X120811314Y-35633177D01*
X120859977Y-35472758D01*
X120938996Y-35324924D01*
X120938997Y-35324922D01*
X121045342Y-35195341D01*
X121174923Y-35088996D01*
X121190095Y-35080886D01*
X121322759Y-35009976D01*
X121483178Y-34961313D01*
X121650000Y-34944883D01*
X121816823Y-34961313D01*
G37*
G36*
X124356823Y-34961313D02*
G01*
X124517242Y-35009976D01*
X124649906Y-35080886D01*
X124665078Y-35088996D01*
X124794659Y-35195341D01*
X124901004Y-35324922D01*
X124901005Y-35324924D01*
X124980024Y-35472758D01*
X124980025Y-35472761D01*
X124990396Y-35506949D01*
X125028687Y-35633178D01*
X125041000Y-35758197D01*
X125041000Y-36641804D01*
X125028687Y-36766823D01*
X124980024Y-36927242D01*
X124909114Y-37059906D01*
X124901004Y-37075078D01*
X124873734Y-37108306D01*
X124794659Y-37204659D01*
X124665077Y-37311005D01*
X124517241Y-37390024D01*
X124356822Y-37438687D01*
X124190000Y-37455117D01*
X124023177Y-37438687D01*
X123862758Y-37390024D01*
X123714924Y-37311005D01*
X123714922Y-37311004D01*
X123585341Y-37204659D01*
X123506266Y-37108306D01*
X123478995Y-37075077D01*
X123399976Y-36927241D01*
X123351313Y-36766822D01*
X123339000Y-36641803D01*
X123339000Y-35758197D01*
X123351314Y-35633177D01*
X123399977Y-35472758D01*
X123478996Y-35324924D01*
X123478997Y-35324922D01*
X123585342Y-35195341D01*
X123714923Y-35088996D01*
X123730095Y-35080886D01*
X123862759Y-35009976D01*
X124023178Y-34961313D01*
X124190000Y-34944883D01*
X124356823Y-34961313D01*
G37*
G36*
X126896823Y-34961313D02*
G01*
X127057242Y-35009976D01*
X127189906Y-35080886D01*
X127205078Y-35088996D01*
X127334659Y-35195341D01*
X127441004Y-35324922D01*
X127441005Y-35324924D01*
X127520024Y-35472758D01*
X127520025Y-35472761D01*
X127530396Y-35506949D01*
X127568687Y-35633178D01*
X127581000Y-35758197D01*
X127581000Y-36641804D01*
X127568687Y-36766823D01*
X127520024Y-36927242D01*
X127449114Y-37059906D01*
X127441004Y-37075078D01*
X127413734Y-37108306D01*
X127334659Y-37204659D01*
X127205077Y-37311005D01*
X127057241Y-37390024D01*
X126896822Y-37438687D01*
X126730000Y-37455117D01*
X126563177Y-37438687D01*
X126402758Y-37390024D01*
X126254924Y-37311005D01*
X126254922Y-37311004D01*
X126125341Y-37204659D01*
X126046266Y-37108306D01*
X126018995Y-37075077D01*
X125939976Y-36927241D01*
X125891313Y-36766822D01*
X125879000Y-36641803D01*
X125879000Y-35758197D01*
X125891314Y-35633177D01*
X125939977Y-35472758D01*
X126018996Y-35324924D01*
X126018997Y-35324922D01*
X126125342Y-35195341D01*
X126254923Y-35088996D01*
X126270095Y-35080886D01*
X126402759Y-35009976D01*
X126563178Y-34961313D01*
X126730000Y-34944883D01*
X126896823Y-34961313D01*
G37*
G36*
X131976823Y-34961313D02*
G01*
X132137242Y-35009976D01*
X132269906Y-35080886D01*
X132285078Y-35088996D01*
X132414659Y-35195341D01*
X132521004Y-35324922D01*
X132521005Y-35324924D01*
X132600024Y-35472758D01*
X132600025Y-35472761D01*
X132610396Y-35506949D01*
X132648687Y-35633178D01*
X132661000Y-35758197D01*
X132661000Y-36641804D01*
X132648687Y-36766823D01*
X132600024Y-36927242D01*
X132529114Y-37059906D01*
X132521004Y-37075078D01*
X132493734Y-37108306D01*
X132414659Y-37204659D01*
X132285077Y-37311005D01*
X132137241Y-37390024D01*
X131976822Y-37438687D01*
X131810000Y-37455117D01*
X131643177Y-37438687D01*
X131482758Y-37390024D01*
X131334924Y-37311005D01*
X131334922Y-37311004D01*
X131205341Y-37204659D01*
X131126266Y-37108306D01*
X131098995Y-37075077D01*
X131019976Y-36927241D01*
X130971313Y-36766822D01*
X130959000Y-36641803D01*
X130959000Y-35758197D01*
X130971314Y-35633177D01*
X131019977Y-35472758D01*
X131098996Y-35324924D01*
X131098997Y-35324922D01*
X131205342Y-35195341D01*
X131334923Y-35088996D01*
X131350095Y-35080886D01*
X131482759Y-35009976D01*
X131643178Y-34961313D01*
X131810000Y-34944883D01*
X131976823Y-34961313D01*
G37*
G36*
X134516823Y-34961313D02*
G01*
X134677242Y-35009976D01*
X134809906Y-35080886D01*
X134825078Y-35088996D01*
X134954659Y-35195341D01*
X135061004Y-35324922D01*
X135061005Y-35324924D01*
X135140024Y-35472758D01*
X135140025Y-35472761D01*
X135150396Y-35506949D01*
X135188687Y-35633178D01*
X135201000Y-35758197D01*
X135201000Y-36641804D01*
X135188687Y-36766823D01*
X135140024Y-36927242D01*
X135069114Y-37059906D01*
X135061004Y-37075078D01*
X135033734Y-37108306D01*
X134954659Y-37204659D01*
X134825077Y-37311005D01*
X134677241Y-37390024D01*
X134516822Y-37438687D01*
X134350000Y-37455117D01*
X134183177Y-37438687D01*
X134022758Y-37390024D01*
X133874924Y-37311005D01*
X133874922Y-37311004D01*
X133745341Y-37204659D01*
X133666266Y-37108306D01*
X133638995Y-37075077D01*
X133559976Y-36927241D01*
X133511313Y-36766822D01*
X133499000Y-36641803D01*
X133499000Y-35758197D01*
X133511314Y-35633177D01*
X133559977Y-35472758D01*
X133638996Y-35324924D01*
X133638997Y-35324922D01*
X133745342Y-35195341D01*
X133874923Y-35088996D01*
X133890095Y-35080886D01*
X134022759Y-35009976D01*
X134183178Y-34961313D01*
X134350000Y-34944883D01*
X134516823Y-34961313D01*
G37*
G36*
X129436823Y-34961313D02*
G01*
X129597242Y-35009976D01*
X129729906Y-35080886D01*
X129745078Y-35088996D01*
X129874659Y-35195341D01*
X129981004Y-35324922D01*
X129981005Y-35324924D01*
X130060024Y-35472758D01*
X130060025Y-35472761D01*
X130070396Y-35506949D01*
X130108687Y-35633178D01*
X130121000Y-35758197D01*
X130121000Y-36641804D01*
X130108687Y-36766823D01*
X130060024Y-36927242D01*
X129989114Y-37059906D01*
X129981004Y-37075078D01*
X129953734Y-37108306D01*
X129874659Y-37204659D01*
X129745077Y-37311005D01*
X129597241Y-37390024D01*
X129436822Y-37438687D01*
X129270000Y-37455117D01*
X129103177Y-37438687D01*
X128942758Y-37390024D01*
X128794924Y-37311005D01*
X128794922Y-37311004D01*
X128665341Y-37204659D01*
X128586266Y-37108306D01*
X128558995Y-37075077D01*
X128479976Y-36927241D01*
X128431313Y-36766822D01*
X128419000Y-36641803D01*
X128419000Y-35758197D01*
X128431314Y-35633177D01*
X128479977Y-35472758D01*
X128558996Y-35324924D01*
X128558997Y-35324922D01*
X128665342Y-35195341D01*
X128794923Y-35088996D01*
X128810095Y-35080886D01*
X128942759Y-35009976D01*
X129103178Y-34961313D01*
X129270000Y-34944883D01*
X129436823Y-34961313D01*
G37*
G36*
X116736823Y-34961313D02*
G01*
X116897242Y-35009976D01*
X117029906Y-35080886D01*
X117045078Y-35088996D01*
X117174659Y-35195341D01*
X117281004Y-35324922D01*
X117281005Y-35324924D01*
X117360024Y-35472758D01*
X117360025Y-35472761D01*
X117370396Y-35506949D01*
X117408687Y-35633178D01*
X117421000Y-35758197D01*
X117421000Y-36641804D01*
X117408687Y-36766823D01*
X117360024Y-36927242D01*
X117289114Y-37059906D01*
X117281004Y-37075078D01*
X117253734Y-37108306D01*
X117174659Y-37204659D01*
X117045077Y-37311005D01*
X116897241Y-37390024D01*
X116736822Y-37438687D01*
X116570000Y-37455117D01*
X116403177Y-37438687D01*
X116242758Y-37390024D01*
X116094924Y-37311005D01*
X116094922Y-37311004D01*
X115965341Y-37204659D01*
X115886266Y-37108306D01*
X115858995Y-37075077D01*
X115779976Y-36927241D01*
X115731313Y-36766822D01*
X115719000Y-36641803D01*
X115719000Y-35758197D01*
X115731314Y-35633177D01*
X115779977Y-35472758D01*
X115858996Y-35324924D01*
X115858997Y-35324922D01*
X115965342Y-35195341D01*
X116094923Y-35088996D01*
X116110095Y-35080886D01*
X116242759Y-35009976D01*
X116403178Y-34961313D01*
X116570000Y-34944883D01*
X116736823Y-34961313D01*
G37*
G36*
X142136823Y-34961313D02*
G01*
X142297242Y-35009976D01*
X142429906Y-35080886D01*
X142445078Y-35088996D01*
X142574659Y-35195341D01*
X142681004Y-35324922D01*
X142681005Y-35324924D01*
X142760024Y-35472758D01*
X142760025Y-35472761D01*
X142770396Y-35506949D01*
X142808687Y-35633178D01*
X142821000Y-35758197D01*
X142821000Y-36641804D01*
X142808687Y-36766823D01*
X142760024Y-36927242D01*
X142689114Y-37059906D01*
X142681004Y-37075078D01*
X142653734Y-37108306D01*
X142574659Y-37204659D01*
X142445077Y-37311005D01*
X142297241Y-37390024D01*
X142136822Y-37438687D01*
X141970000Y-37455117D01*
X141803177Y-37438687D01*
X141642758Y-37390024D01*
X141494924Y-37311005D01*
X141494922Y-37311004D01*
X141365341Y-37204659D01*
X141286266Y-37108306D01*
X141258995Y-37075077D01*
X141179976Y-36927241D01*
X141131313Y-36766822D01*
X141119000Y-36641803D01*
X141119000Y-35758197D01*
X141131314Y-35633177D01*
X141179977Y-35472758D01*
X141258996Y-35324924D01*
X141258997Y-35324922D01*
X141365342Y-35195341D01*
X141494923Y-35088996D01*
X141510095Y-35080886D01*
X141642759Y-35009976D01*
X141803178Y-34961313D01*
X141970000Y-34944883D01*
X142136823Y-34961313D01*
G37*
G36*
X144676823Y-34961313D02*
G01*
X144837242Y-35009976D01*
X144969906Y-35080886D01*
X144985078Y-35088996D01*
X145114659Y-35195341D01*
X145221004Y-35324922D01*
X145221005Y-35324924D01*
X145300024Y-35472758D01*
X145300025Y-35472761D01*
X145310396Y-35506949D01*
X145348687Y-35633178D01*
X145361000Y-35758197D01*
X145361000Y-36641804D01*
X145348687Y-36766823D01*
X145300024Y-36927242D01*
X145229114Y-37059906D01*
X145221004Y-37075078D01*
X145193734Y-37108306D01*
X145114659Y-37204659D01*
X144985077Y-37311005D01*
X144837241Y-37390024D01*
X144676822Y-37438687D01*
X144510000Y-37455117D01*
X144343177Y-37438687D01*
X144182758Y-37390024D01*
X144034924Y-37311005D01*
X144034922Y-37311004D01*
X143905341Y-37204659D01*
X143826266Y-37108306D01*
X143798995Y-37075077D01*
X143719976Y-36927241D01*
X143671313Y-36766822D01*
X143659000Y-36641803D01*
X143659000Y-35758197D01*
X143671314Y-35633177D01*
X143719977Y-35472758D01*
X143798996Y-35324924D01*
X143798997Y-35324922D01*
X143905342Y-35195341D01*
X144034923Y-35088996D01*
X144050095Y-35080886D01*
X144182759Y-35009976D01*
X144343178Y-34961313D01*
X144510000Y-34944883D01*
X144676823Y-34961313D01*
G37*
G36*
X147216823Y-34961313D02*
G01*
X147377242Y-35009976D01*
X147509906Y-35080886D01*
X147525078Y-35088996D01*
X147654659Y-35195341D01*
X147761004Y-35324922D01*
X147761005Y-35324924D01*
X147840024Y-35472758D01*
X147840025Y-35472761D01*
X147850396Y-35506949D01*
X147888687Y-35633178D01*
X147901000Y-35758197D01*
X147901000Y-36641804D01*
X147888687Y-36766823D01*
X147840024Y-36927242D01*
X147769114Y-37059906D01*
X147761004Y-37075078D01*
X147733734Y-37108306D01*
X147654659Y-37204659D01*
X147525077Y-37311005D01*
X147377241Y-37390024D01*
X147216822Y-37438687D01*
X147050000Y-37455117D01*
X146883177Y-37438687D01*
X146722758Y-37390024D01*
X146574924Y-37311005D01*
X146574922Y-37311004D01*
X146445341Y-37204659D01*
X146366266Y-37108306D01*
X146338995Y-37075077D01*
X146259976Y-36927241D01*
X146211313Y-36766822D01*
X146199000Y-36641803D01*
X146199000Y-35758197D01*
X146211314Y-35633177D01*
X146259977Y-35472758D01*
X146338996Y-35324924D01*
X146338997Y-35324922D01*
X146445342Y-35195341D01*
X146574923Y-35088996D01*
X146590095Y-35080886D01*
X146722759Y-35009976D01*
X146883178Y-34961313D01*
X147050000Y-34944883D01*
X147216823Y-34961313D01*
G37*
G36*
X152296823Y-34961313D02*
G01*
X152457242Y-35009976D01*
X152589906Y-35080886D01*
X152605078Y-35088996D01*
X152734659Y-35195341D01*
X152841004Y-35324922D01*
X152841005Y-35324924D01*
X152920024Y-35472758D01*
X152920025Y-35472761D01*
X152930396Y-35506949D01*
X152968687Y-35633178D01*
X152981000Y-35758197D01*
X152981000Y-36641804D01*
X152968687Y-36766823D01*
X152920024Y-36927242D01*
X152849114Y-37059906D01*
X152841004Y-37075078D01*
X152813734Y-37108306D01*
X152734659Y-37204659D01*
X152605077Y-37311005D01*
X152457241Y-37390024D01*
X152296822Y-37438687D01*
X152130000Y-37455117D01*
X151963177Y-37438687D01*
X151802758Y-37390024D01*
X151654924Y-37311005D01*
X151654922Y-37311004D01*
X151525341Y-37204659D01*
X151446266Y-37108306D01*
X151418995Y-37075077D01*
X151339976Y-36927241D01*
X151291313Y-36766822D01*
X151279000Y-36641803D01*
X151279000Y-35758197D01*
X151291314Y-35633177D01*
X151339977Y-35472758D01*
X151418996Y-35324924D01*
X151418997Y-35324922D01*
X151525342Y-35195341D01*
X151654923Y-35088996D01*
X151670095Y-35080886D01*
X151802759Y-35009976D01*
X151963178Y-34961313D01*
X152130000Y-34944883D01*
X152296823Y-34961313D01*
G37*
G36*
X154836823Y-34961313D02*
G01*
X154997242Y-35009976D01*
X155129906Y-35080886D01*
X155145078Y-35088996D01*
X155274659Y-35195341D01*
X155381004Y-35324922D01*
X155381005Y-35324924D01*
X155460024Y-35472758D01*
X155460025Y-35472761D01*
X155470396Y-35506949D01*
X155508687Y-35633178D01*
X155521000Y-35758197D01*
X155521000Y-36641804D01*
X155508687Y-36766823D01*
X155460024Y-36927242D01*
X155389114Y-37059906D01*
X155381004Y-37075078D01*
X155353734Y-37108306D01*
X155274659Y-37204659D01*
X155145077Y-37311005D01*
X154997241Y-37390024D01*
X154836822Y-37438687D01*
X154670000Y-37455117D01*
X154503177Y-37438687D01*
X154342758Y-37390024D01*
X154194924Y-37311005D01*
X154194922Y-37311004D01*
X154065341Y-37204659D01*
X153986266Y-37108306D01*
X153958995Y-37075077D01*
X153879976Y-36927241D01*
X153831313Y-36766822D01*
X153819000Y-36641803D01*
X153819000Y-35758197D01*
X153831314Y-35633177D01*
X153879977Y-35472758D01*
X153958996Y-35324924D01*
X153958997Y-35324922D01*
X154065342Y-35195341D01*
X154194923Y-35088996D01*
X154210095Y-35080886D01*
X154342759Y-35009976D01*
X154503178Y-34961313D01*
X154670000Y-34944883D01*
X154836823Y-34961313D01*
G37*
G36*
X157376823Y-34961313D02*
G01*
X157537242Y-35009976D01*
X157669906Y-35080886D01*
X157685078Y-35088996D01*
X157814659Y-35195341D01*
X157921004Y-35324922D01*
X157921005Y-35324924D01*
X158000024Y-35472758D01*
X158000025Y-35472761D01*
X158010396Y-35506949D01*
X158048687Y-35633178D01*
X158061000Y-35758197D01*
X158061000Y-36641804D01*
X158048687Y-36766823D01*
X158000024Y-36927242D01*
X157929114Y-37059906D01*
X157921004Y-37075078D01*
X157893734Y-37108306D01*
X157814659Y-37204659D01*
X157685077Y-37311005D01*
X157537241Y-37390024D01*
X157376822Y-37438687D01*
X157210000Y-37455117D01*
X157043177Y-37438687D01*
X156882758Y-37390024D01*
X156734924Y-37311005D01*
X156734922Y-37311004D01*
X156605341Y-37204659D01*
X156526266Y-37108306D01*
X156498995Y-37075077D01*
X156419976Y-36927241D01*
X156371313Y-36766822D01*
X156359000Y-36641803D01*
X156359000Y-35758197D01*
X156371314Y-35633177D01*
X156419977Y-35472758D01*
X156498996Y-35324924D01*
X156498997Y-35324922D01*
X156605342Y-35195341D01*
X156734923Y-35088996D01*
X156750095Y-35080886D01*
X156882759Y-35009976D01*
X157043178Y-34961313D01*
X157210000Y-34944883D01*
X157376823Y-34961313D01*
G37*
G36*
X159916823Y-34961313D02*
G01*
X160077242Y-35009976D01*
X160209906Y-35080886D01*
X160225078Y-35088996D01*
X160354659Y-35195341D01*
X160461004Y-35324922D01*
X160461005Y-35324924D01*
X160540024Y-35472758D01*
X160540025Y-35472761D01*
X160550396Y-35506949D01*
X160588687Y-35633178D01*
X160601000Y-35758197D01*
X160601000Y-36641804D01*
X160588687Y-36766823D01*
X160540024Y-36927242D01*
X160469114Y-37059906D01*
X160461004Y-37075078D01*
X160433734Y-37108306D01*
X160354659Y-37204659D01*
X160225077Y-37311005D01*
X160077241Y-37390024D01*
X159916822Y-37438687D01*
X159750000Y-37455117D01*
X159583177Y-37438687D01*
X159422758Y-37390024D01*
X159274924Y-37311005D01*
X159274922Y-37311004D01*
X159145341Y-37204659D01*
X159066266Y-37108306D01*
X159038995Y-37075077D01*
X158959976Y-36927241D01*
X158911313Y-36766822D01*
X158899000Y-36641803D01*
X158899000Y-35758197D01*
X158911314Y-35633177D01*
X158959977Y-35472758D01*
X159038996Y-35324924D01*
X159038997Y-35324922D01*
X159145342Y-35195341D01*
X159274923Y-35088996D01*
X159290095Y-35080886D01*
X159422759Y-35009976D01*
X159583178Y-34961313D01*
X159750000Y-34944883D01*
X159916823Y-34961313D01*
G37*
G36*
X162456823Y-34961313D02*
G01*
X162617242Y-35009976D01*
X162749906Y-35080886D01*
X162765078Y-35088996D01*
X162894659Y-35195341D01*
X163001004Y-35324922D01*
X163001005Y-35324924D01*
X163080024Y-35472758D01*
X163080025Y-35472761D01*
X163090396Y-35506949D01*
X163128687Y-35633178D01*
X163141000Y-35758197D01*
X163141000Y-36641804D01*
X163128687Y-36766823D01*
X163080024Y-36927242D01*
X163009114Y-37059906D01*
X163001004Y-37075078D01*
X162973734Y-37108306D01*
X162894659Y-37204659D01*
X162765077Y-37311005D01*
X162617241Y-37390024D01*
X162456822Y-37438687D01*
X162290000Y-37455117D01*
X162123177Y-37438687D01*
X161962758Y-37390024D01*
X161814924Y-37311005D01*
X161814922Y-37311004D01*
X161685341Y-37204659D01*
X161606266Y-37108306D01*
X161578995Y-37075077D01*
X161499976Y-36927241D01*
X161451313Y-36766822D01*
X161439000Y-36641803D01*
X161439000Y-35758197D01*
X161451314Y-35633177D01*
X161499977Y-35472758D01*
X161578996Y-35324924D01*
X161578997Y-35324922D01*
X161685342Y-35195341D01*
X161814923Y-35088996D01*
X161830095Y-35080886D01*
X161962759Y-35009976D01*
X162123178Y-34961313D01*
X162290000Y-34944883D01*
X162456823Y-34961313D01*
G37*
G36*
X139596823Y-34961313D02*
G01*
X139757242Y-35009976D01*
X139889906Y-35080886D01*
X139905078Y-35088996D01*
X140034659Y-35195341D01*
X140141004Y-35324922D01*
X140141005Y-35324924D01*
X140220024Y-35472758D01*
X140220025Y-35472761D01*
X140230396Y-35506949D01*
X140268687Y-35633178D01*
X140281000Y-35758197D01*
X140281000Y-36641804D01*
X140268687Y-36766823D01*
X140220024Y-36927242D01*
X140149114Y-37059906D01*
X140141004Y-37075078D01*
X140113734Y-37108306D01*
X140034659Y-37204659D01*
X139905077Y-37311005D01*
X139757241Y-37390024D01*
X139596822Y-37438687D01*
X139430000Y-37455117D01*
X139263177Y-37438687D01*
X139102758Y-37390024D01*
X138954924Y-37311005D01*
X138954922Y-37311004D01*
X138825341Y-37204659D01*
X138746266Y-37108306D01*
X138718995Y-37075077D01*
X138639976Y-36927241D01*
X138591313Y-36766822D01*
X138579000Y-36641803D01*
X138579000Y-35758197D01*
X138591314Y-35633177D01*
X138639977Y-35472758D01*
X138718996Y-35324924D01*
X138718997Y-35324922D01*
X138825342Y-35195341D01*
X138954923Y-35088996D01*
X138970095Y-35080886D01*
X139102759Y-35009976D01*
X139263178Y-34961313D01*
X139430000Y-34944883D01*
X139596823Y-34961313D01*
G37*
G36*
X137056823Y-34961313D02*
G01*
X137217242Y-35009976D01*
X137349906Y-35080886D01*
X137365078Y-35088996D01*
X137494659Y-35195341D01*
X137601004Y-35324922D01*
X137601005Y-35324924D01*
X137680024Y-35472758D01*
X137680025Y-35472761D01*
X137690396Y-35506949D01*
X137728687Y-35633178D01*
X137741000Y-35758197D01*
X137741000Y-36641804D01*
X137728687Y-36766823D01*
X137680024Y-36927242D01*
X137609114Y-37059906D01*
X137601004Y-37075078D01*
X137573734Y-37108306D01*
X137494659Y-37204659D01*
X137365077Y-37311005D01*
X137217241Y-37390024D01*
X137056822Y-37438687D01*
X136890000Y-37455117D01*
X136723177Y-37438687D01*
X136562758Y-37390024D01*
X136414924Y-37311005D01*
X136414922Y-37311004D01*
X136285341Y-37204659D01*
X136206266Y-37108306D01*
X136178995Y-37075077D01*
X136099976Y-36927241D01*
X136051313Y-36766822D01*
X136039000Y-36641803D01*
X136039000Y-35758197D01*
X136051314Y-35633177D01*
X136099977Y-35472758D01*
X136178996Y-35324924D01*
X136178997Y-35324922D01*
X136285342Y-35195341D01*
X136414923Y-35088996D01*
X136430095Y-35080886D01*
X136562759Y-35009976D01*
X136723178Y-34961313D01*
X136890000Y-34944883D01*
X137056823Y-34961313D01*
G37*
G36*
X114881000Y-37451000D02*
G01*
X113179000Y-37451000D01*
X113179000Y-34949000D01*
X114881000Y-34949000D01*
X114881000Y-37451000D01*
G37*
G36*
X192361779Y-34715546D02*
G01*
X192528225Y-34784490D01*
X192678023Y-34884582D01*
X192805418Y-35011977D01*
X192905510Y-35161775D01*
X192974454Y-35328221D01*
X193009601Y-35504917D01*
X193009601Y-35685081D01*
X192974454Y-35861777D01*
X192905510Y-36028223D01*
X192805418Y-36178021D01*
X192678023Y-36305416D01*
X192528225Y-36405508D01*
X192361779Y-36474452D01*
X192185083Y-36509599D01*
X192004919Y-36509599D01*
X191828223Y-36474452D01*
X191661777Y-36405508D01*
X191511979Y-36305416D01*
X191384584Y-36178021D01*
X191284492Y-36028223D01*
X191215548Y-35861777D01*
X191180401Y-35685081D01*
X191180401Y-35504917D01*
X191215548Y-35328221D01*
X191284492Y-35161775D01*
X191384584Y-35011977D01*
X191511979Y-34884582D01*
X191661777Y-34784490D01*
X191828223Y-34715546D01*
X192004919Y-34680399D01*
X192185083Y-34680399D01*
X192361779Y-34715546D01*
G37*
G36*
X189821779Y-34715546D02*
G01*
X189988225Y-34784490D01*
X190138023Y-34884582D01*
X190265418Y-35011977D01*
X190365510Y-35161775D01*
X190434454Y-35328221D01*
X190469601Y-35504917D01*
X190469601Y-35685081D01*
X190434454Y-35861777D01*
X190365510Y-36028223D01*
X190265418Y-36178021D01*
X190138023Y-36305416D01*
X189988225Y-36405508D01*
X189821779Y-36474452D01*
X189645083Y-36509599D01*
X189464919Y-36509599D01*
X189288223Y-36474452D01*
X189121777Y-36405508D01*
X188971979Y-36305416D01*
X188844584Y-36178021D01*
X188744492Y-36028223D01*
X188675548Y-35861777D01*
X188640401Y-35685081D01*
X188640401Y-35504917D01*
X188675548Y-35328221D01*
X188744492Y-35161775D01*
X188844584Y-35011977D01*
X188971979Y-34884582D01*
X189121777Y-34784490D01*
X189288223Y-34715546D01*
X189464919Y-34680399D01*
X189645083Y-34680399D01*
X189821779Y-34715546D01*
G37*
G36*
X192361779Y-32175546D02*
G01*
X192528225Y-32244490D01*
X192678023Y-32344582D01*
X192805418Y-32471977D01*
X192905510Y-32621775D01*
X192974454Y-32788221D01*
X193009601Y-32964917D01*
X193009601Y-33145081D01*
X192974454Y-33321777D01*
X192905510Y-33488223D01*
X192805418Y-33638021D01*
X192678023Y-33765416D01*
X192528225Y-33865508D01*
X192361779Y-33934452D01*
X192185083Y-33969599D01*
X192004919Y-33969599D01*
X191828223Y-33934452D01*
X191661777Y-33865508D01*
X191511979Y-33765416D01*
X191384584Y-33638021D01*
X191284492Y-33488223D01*
X191215548Y-33321777D01*
X191180401Y-33145081D01*
X191180401Y-32964917D01*
X191215548Y-32788221D01*
X191284492Y-32621775D01*
X191384584Y-32471977D01*
X191511979Y-32344582D01*
X191661777Y-32244490D01*
X191828223Y-32175546D01*
X192004919Y-32140399D01*
X192185083Y-32140399D01*
X192361779Y-32175546D01*
G37*
G36*
X189821779Y-32175546D02*
G01*
X189988225Y-32244490D01*
X190138023Y-32344582D01*
X190265418Y-32471977D01*
X190365510Y-32621775D01*
X190434454Y-32788221D01*
X190469601Y-32964917D01*
X190469601Y-33145081D01*
X190434454Y-33321777D01*
X190365510Y-33488223D01*
X190265418Y-33638021D01*
X190138023Y-33765416D01*
X189988225Y-33865508D01*
X189821779Y-33934452D01*
X189645083Y-33969599D01*
X189464919Y-33969599D01*
X189288223Y-33934452D01*
X189121777Y-33865508D01*
X188971979Y-33765416D01*
X188844584Y-33638021D01*
X188744492Y-33488223D01*
X188675548Y-33321777D01*
X188640401Y-33145081D01*
X188640401Y-32964917D01*
X188675548Y-32788221D01*
X188744492Y-32621775D01*
X188844584Y-32471977D01*
X188971979Y-32344582D01*
X189121777Y-32244490D01*
X189288223Y-32175546D01*
X189464919Y-32140399D01*
X189645083Y-32140399D01*
X189821779Y-32175546D01*
G37*
G36*
X174516564Y-29659389D02*
G01*
X174659855Y-29718742D01*
X174707835Y-29738616D01*
X174879973Y-29853635D01*
X175026365Y-30000027D01*
X175080987Y-30081774D01*
X175141385Y-30172167D01*
X175220611Y-30363436D01*
X175261000Y-30566484D01*
X175261000Y-30773516D01*
X175220611Y-30976564D01*
X175141385Y-31167833D01*
X175141384Y-31167835D01*
X175026365Y-31339973D01*
X174879973Y-31486365D01*
X174707835Y-31601384D01*
X174707834Y-31601385D01*
X174707833Y-31601385D01*
X174516564Y-31680611D01*
X174313516Y-31721000D01*
X174106484Y-31721000D01*
X173903436Y-31680611D01*
X173712167Y-31601385D01*
X173712166Y-31601385D01*
X173712165Y-31601384D01*
X173540027Y-31486365D01*
X173393635Y-31339973D01*
X173278616Y-31167835D01*
X173278615Y-31167833D01*
X173199389Y-30976564D01*
X173159000Y-30773516D01*
X173159000Y-30566484D01*
X173199389Y-30363436D01*
X173278615Y-30172167D01*
X173339014Y-30081774D01*
X173393635Y-30000027D01*
X173540027Y-29853635D01*
X173712165Y-29738616D01*
X173760145Y-29718742D01*
X173903436Y-29659389D01*
X174106484Y-29619000D01*
X174313516Y-29619000D01*
X174516564Y-29659389D01*
G37*
G36*
X181016564Y-29659389D02*
G01*
X181159855Y-29718742D01*
X181207835Y-29738616D01*
X181379973Y-29853635D01*
X181526365Y-30000027D01*
X181580987Y-30081774D01*
X181641385Y-30172167D01*
X181720611Y-30363436D01*
X181761000Y-30566484D01*
X181761000Y-30773516D01*
X181720611Y-30976564D01*
X181641385Y-31167833D01*
X181641384Y-31167835D01*
X181526365Y-31339973D01*
X181379973Y-31486365D01*
X181207835Y-31601384D01*
X181207834Y-31601385D01*
X181207833Y-31601385D01*
X181016564Y-31680611D01*
X180813516Y-31721000D01*
X180606484Y-31721000D01*
X180403436Y-31680611D01*
X180212167Y-31601385D01*
X180212166Y-31601385D01*
X180212165Y-31601384D01*
X180040027Y-31486365D01*
X179893635Y-31339973D01*
X179778616Y-31167835D01*
X179778615Y-31167833D01*
X179699389Y-30976564D01*
X179659000Y-30773516D01*
X179659000Y-30566484D01*
X179699389Y-30363436D01*
X179778615Y-30172167D01*
X179839014Y-30081774D01*
X179893635Y-30000027D01*
X180040027Y-29853635D01*
X180212165Y-29738616D01*
X180260145Y-29718742D01*
X180403436Y-29659389D01*
X180606484Y-29619000D01*
X180813516Y-29619000D01*
X181016564Y-29659389D01*
G37*
G36*
X192361779Y-29635546D02*
G01*
X192528225Y-29704490D01*
X192678023Y-29804582D01*
X192805418Y-29931977D01*
X192905510Y-30081775D01*
X192974454Y-30248221D01*
X193009601Y-30424917D01*
X193009601Y-30605081D01*
X192974454Y-30781777D01*
X192905510Y-30948223D01*
X192805418Y-31098021D01*
X192678023Y-31225416D01*
X192528225Y-31325508D01*
X192361779Y-31394452D01*
X192185083Y-31429599D01*
X192004919Y-31429599D01*
X191828223Y-31394452D01*
X191661777Y-31325508D01*
X191511979Y-31225416D01*
X191384584Y-31098021D01*
X191284492Y-30948223D01*
X191215548Y-30781777D01*
X191180401Y-30605081D01*
X191180401Y-30424917D01*
X191215548Y-30248221D01*
X191284492Y-30081775D01*
X191384584Y-29931977D01*
X191511979Y-29804582D01*
X191661777Y-29704490D01*
X191828223Y-29635546D01*
X192004919Y-29600399D01*
X192185083Y-29600399D01*
X192361779Y-29635546D01*
G37*
G36*
X189821779Y-29635546D02*
G01*
X189988225Y-29704490D01*
X190138023Y-29804582D01*
X190265418Y-29931977D01*
X190365510Y-30081775D01*
X190434454Y-30248221D01*
X190469601Y-30424917D01*
X190469601Y-30605081D01*
X190434454Y-30781777D01*
X190365510Y-30948223D01*
X190265418Y-31098021D01*
X190138023Y-31225416D01*
X189988225Y-31325508D01*
X189821779Y-31394452D01*
X189645083Y-31429599D01*
X189464919Y-31429599D01*
X189288223Y-31394452D01*
X189121777Y-31325508D01*
X188971979Y-31225416D01*
X188844584Y-31098021D01*
X188744492Y-30948223D01*
X188675548Y-30781777D01*
X188640401Y-30605081D01*
X188640401Y-30424917D01*
X188675548Y-30248221D01*
X188744492Y-30081775D01*
X188844584Y-29931977D01*
X188971979Y-29804582D01*
X189121777Y-29704490D01*
X189288223Y-29635546D01*
X189464919Y-29600399D01*
X189645083Y-29600399D01*
X189821779Y-29635546D01*
G37*
G36*
X144193512Y-28733927D02*
G01*
X144342812Y-28763624D01*
X144506784Y-28831544D01*
X144654354Y-28930147D01*
X144779853Y-29055646D01*
X144878456Y-29203216D01*
X144946376Y-29367188D01*
X144981000Y-29541259D01*
X144981000Y-29718741D01*
X144946376Y-29892812D01*
X144878456Y-30056784D01*
X144779853Y-30204354D01*
X144654354Y-30329853D01*
X144506784Y-30428456D01*
X144342812Y-30496376D01*
X144193512Y-30526073D01*
X144168742Y-30531000D01*
X143991258Y-30531000D01*
X143966488Y-30526073D01*
X143817188Y-30496376D01*
X143653216Y-30428456D01*
X143505646Y-30329853D01*
X143380147Y-30204354D01*
X143281544Y-30056784D01*
X143213624Y-29892812D01*
X143179000Y-29718741D01*
X143179000Y-29541259D01*
X143213624Y-29367188D01*
X143281544Y-29203216D01*
X143380147Y-29055646D01*
X143505646Y-28930147D01*
X143653216Y-28831544D01*
X143817188Y-28763624D01*
X143966488Y-28733927D01*
X143991258Y-28729000D01*
X144168742Y-28729000D01*
X144193512Y-28733927D01*
G37*
G36*
X142441000Y-30531000D02*
G01*
X140639000Y-30531000D01*
X140639000Y-28729000D01*
X142441000Y-28729000D01*
X142441000Y-30531000D01*
G37*
G36*
X146733512Y-28733927D02*
G01*
X146882812Y-28763624D01*
X147046784Y-28831544D01*
X147194354Y-28930147D01*
X147319853Y-29055646D01*
X147418456Y-29203216D01*
X147486376Y-29367188D01*
X147521000Y-29541259D01*
X147521000Y-29718741D01*
X147486376Y-29892812D01*
X147418456Y-30056784D01*
X147319853Y-30204354D01*
X147194354Y-30329853D01*
X147046784Y-30428456D01*
X146882812Y-30496376D01*
X146733512Y-30526073D01*
X146708742Y-30531000D01*
X146531258Y-30531000D01*
X146506488Y-30526073D01*
X146357188Y-30496376D01*
X146193216Y-30428456D01*
X146045646Y-30329853D01*
X145920147Y-30204354D01*
X145821544Y-30056784D01*
X145753624Y-29892812D01*
X145719000Y-29718741D01*
X145719000Y-29541259D01*
X145753624Y-29367188D01*
X145821544Y-29203216D01*
X145920147Y-29055646D01*
X146045646Y-28930147D01*
X146193216Y-28831544D01*
X146357188Y-28763624D01*
X146506488Y-28733927D01*
X146531258Y-28729000D01*
X146708742Y-28729000D01*
X146733512Y-28733927D01*
G37*
G36*
X192361779Y-27095546D02*
G01*
X192528225Y-27164490D01*
X192678023Y-27264582D01*
X192805418Y-27391977D01*
X192905510Y-27541775D01*
X192974454Y-27708221D01*
X193009601Y-27884917D01*
X193009601Y-28065081D01*
X192974454Y-28241777D01*
X192905510Y-28408223D01*
X192805418Y-28558021D01*
X192678023Y-28685416D01*
X192528225Y-28785508D01*
X192361779Y-28854452D01*
X192185083Y-28889599D01*
X192004919Y-28889599D01*
X191828223Y-28854452D01*
X191661777Y-28785508D01*
X191511979Y-28685416D01*
X191384584Y-28558021D01*
X191284492Y-28408223D01*
X191215548Y-28241777D01*
X191180401Y-28065081D01*
X191180401Y-27884917D01*
X191215548Y-27708221D01*
X191284492Y-27541775D01*
X191384584Y-27391977D01*
X191511979Y-27264582D01*
X191661777Y-27164490D01*
X191828223Y-27095546D01*
X192004919Y-27060399D01*
X192185083Y-27060399D01*
X192361779Y-27095546D01*
G37*
G36*
X189821779Y-27095546D02*
G01*
X189988225Y-27164490D01*
X190138023Y-27264582D01*
X190265418Y-27391977D01*
X190365510Y-27541775D01*
X190434454Y-27708221D01*
X190469601Y-27884917D01*
X190469601Y-28065081D01*
X190434454Y-28241777D01*
X190365510Y-28408223D01*
X190265418Y-28558021D01*
X190138023Y-28685416D01*
X189988225Y-28785508D01*
X189821779Y-28854452D01*
X189645083Y-28889599D01*
X189464919Y-28889599D01*
X189288223Y-28854452D01*
X189121777Y-28785508D01*
X188971979Y-28685416D01*
X188844584Y-28558021D01*
X188744492Y-28408223D01*
X188675548Y-28241777D01*
X188640401Y-28065081D01*
X188640401Y-27884917D01*
X188675548Y-27708221D01*
X188744492Y-27541775D01*
X188844584Y-27391977D01*
X188971979Y-27264582D01*
X189121777Y-27164490D01*
X189288223Y-27095546D01*
X189464919Y-27060399D01*
X189645083Y-27060399D01*
X189821779Y-27095546D01*
G37*
G36*
X174516564Y-25159389D02*
G01*
X174707833Y-25238615D01*
X174707835Y-25238616D01*
X174866926Y-25344917D01*
X174879973Y-25353635D01*
X175026365Y-25500027D01*
X175141385Y-25672167D01*
X175220611Y-25863436D01*
X175261000Y-26066484D01*
X175261000Y-26273516D01*
X175220611Y-26476564D01*
X175141385Y-26667833D01*
X175141384Y-26667835D01*
X175026365Y-26839973D01*
X174879973Y-26986365D01*
X174707835Y-27101384D01*
X174707834Y-27101385D01*
X174707833Y-27101385D01*
X174516564Y-27180611D01*
X174313516Y-27221000D01*
X174106484Y-27221000D01*
X173903436Y-27180611D01*
X173712167Y-27101385D01*
X173712166Y-27101385D01*
X173712165Y-27101384D01*
X173540027Y-26986365D01*
X173393635Y-26839973D01*
X173278616Y-26667835D01*
X173278615Y-26667833D01*
X173199389Y-26476564D01*
X173159000Y-26273516D01*
X173159000Y-26066484D01*
X173199389Y-25863436D01*
X173278615Y-25672167D01*
X173393635Y-25500027D01*
X173540027Y-25353635D01*
X173553074Y-25344917D01*
X173712165Y-25238616D01*
X173712167Y-25238615D01*
X173903436Y-25159389D01*
X174106484Y-25119000D01*
X174313516Y-25119000D01*
X174516564Y-25159389D01*
G37*
G36*
X181016564Y-25159389D02*
G01*
X181207833Y-25238615D01*
X181207835Y-25238616D01*
X181366926Y-25344917D01*
X181379973Y-25353635D01*
X181526365Y-25500027D01*
X181641385Y-25672167D01*
X181720611Y-25863436D01*
X181761000Y-26066484D01*
X181761000Y-26273516D01*
X181720611Y-26476564D01*
X181641385Y-26667833D01*
X181641384Y-26667835D01*
X181526365Y-26839973D01*
X181379973Y-26986365D01*
X181207835Y-27101384D01*
X181207834Y-27101385D01*
X181207833Y-27101385D01*
X181016564Y-27180611D01*
X180813516Y-27221000D01*
X180606484Y-27221000D01*
X180403436Y-27180611D01*
X180212167Y-27101385D01*
X180212166Y-27101385D01*
X180212165Y-27101384D01*
X180040027Y-26986365D01*
X179893635Y-26839973D01*
X179778616Y-26667835D01*
X179778615Y-26667833D01*
X179699389Y-26476564D01*
X179659000Y-26273516D01*
X179659000Y-26066484D01*
X179699389Y-25863436D01*
X179778615Y-25672167D01*
X179893635Y-25500027D01*
X180040027Y-25353635D01*
X180053074Y-25344917D01*
X180212165Y-25238616D01*
X180212167Y-25238615D01*
X180403436Y-25159389D01*
X180606484Y-25119000D01*
X180813516Y-25119000D01*
X181016564Y-25159389D01*
G37*
G36*
X189821779Y-24555546D02*
G01*
X189988225Y-24624490D01*
X190138023Y-24724582D01*
X190265418Y-24851977D01*
X190365510Y-25001775D01*
X190434454Y-25168221D01*
X190469601Y-25344917D01*
X190469601Y-25525081D01*
X190434454Y-25701777D01*
X190365510Y-25868223D01*
X190265418Y-26018021D01*
X190138023Y-26145416D01*
X189988225Y-26245508D01*
X189821779Y-26314452D01*
X189645083Y-26349599D01*
X189464919Y-26349599D01*
X189288223Y-26314452D01*
X189121777Y-26245508D01*
X188971979Y-26145416D01*
X188844584Y-26018021D01*
X188744492Y-25868223D01*
X188675548Y-25701777D01*
X188640401Y-25525081D01*
X188640401Y-25344917D01*
X188675548Y-25168221D01*
X188744492Y-25001775D01*
X188844584Y-24851977D01*
X188971979Y-24724582D01*
X189121777Y-24624490D01*
X189288223Y-24555546D01*
X189464919Y-24520399D01*
X189645083Y-24520399D01*
X189821779Y-24555546D01*
G37*
G36*
X192361779Y-24555546D02*
G01*
X192528225Y-24624490D01*
X192678023Y-24724582D01*
X192805418Y-24851977D01*
X192905510Y-25001775D01*
X192974454Y-25168221D01*
X193009601Y-25344917D01*
X193009601Y-25525081D01*
X192974454Y-25701777D01*
X192905510Y-25868223D01*
X192805418Y-26018021D01*
X192678023Y-26145416D01*
X192528225Y-26245508D01*
X192361779Y-26314452D01*
X192185083Y-26349599D01*
X192004919Y-26349599D01*
X191828223Y-26314452D01*
X191661777Y-26245508D01*
X191511979Y-26145416D01*
X191384584Y-26018021D01*
X191284492Y-25868223D01*
X191215548Y-25701777D01*
X191180401Y-25525081D01*
X191180401Y-25344917D01*
X191215548Y-25168221D01*
X191284492Y-25001775D01*
X191384584Y-24851977D01*
X191511979Y-24724582D01*
X191661777Y-24624490D01*
X191828223Y-24555546D01*
X192004919Y-24520399D01*
X192185083Y-24520399D01*
X192361779Y-24555546D01*
G37*
G36*
X192470257Y-18746297D02*
G01*
X192576580Y-18767446D01*
X192877043Y-18891902D01*
X193147452Y-19072584D01*
X193377416Y-19302548D01*
X193558098Y-19572957D01*
X193558099Y-19572959D01*
X193682554Y-19873421D01*
X193746001Y-20192388D01*
X193746001Y-20517610D01*
X193682554Y-20836577D01*
X193587767Y-21065415D01*
X193558098Y-21137041D01*
X193377416Y-21407450D01*
X193147452Y-21637414D01*
X192877043Y-21818096D01*
X192576580Y-21942552D01*
X192470257Y-21963701D01*
X192257612Y-22005999D01*
X191932390Y-22005999D01*
X191719745Y-21963701D01*
X191613422Y-21942552D01*
X191312959Y-21818096D01*
X191042550Y-21637414D01*
X190812586Y-21407450D01*
X190631904Y-21137041D01*
X190602236Y-21065415D01*
X190507448Y-20836577D01*
X190444001Y-20517610D01*
X190444001Y-20192388D01*
X190507448Y-19873421D01*
X190631903Y-19572959D01*
X190631904Y-19572957D01*
X190812586Y-19302548D01*
X191042550Y-19072584D01*
X191312959Y-18891902D01*
X191613422Y-18767446D01*
X191719745Y-18746297D01*
X191932390Y-18703999D01*
X192257612Y-18703999D01*
X192470257Y-18746297D01*
G37*
G36*
X109920257Y-18746297D02*
G01*
X110026580Y-18767446D01*
X110327043Y-18891902D01*
X110597452Y-19072584D01*
X110827416Y-19302548D01*
X111008098Y-19572957D01*
X111008099Y-19572959D01*
X111132554Y-19873421D01*
X111196001Y-20192388D01*
X111196001Y-20517610D01*
X111132554Y-20836577D01*
X111037767Y-21065415D01*
X111008098Y-21137041D01*
X110827416Y-21407450D01*
X110597452Y-21637414D01*
X110327043Y-21818096D01*
X110026580Y-21942552D01*
X109920257Y-21963701D01*
X109707612Y-22005999D01*
X109382390Y-22005999D01*
X109169745Y-21963701D01*
X109063422Y-21942552D01*
X108762959Y-21818096D01*
X108492550Y-21637414D01*
X108262586Y-21407450D01*
X108081904Y-21137041D01*
X108052236Y-21065415D01*
X107957448Y-20836577D01*
X107894001Y-20517610D01*
X107894001Y-20192388D01*
X107957448Y-19873421D01*
X108081903Y-19572959D01*
X108081904Y-19572957D01*
X108262586Y-19302548D01*
X108492550Y-19072584D01*
X108762959Y-18891902D01*
X109063422Y-18767446D01*
X109169745Y-18746297D01*
X109382390Y-18703999D01*
X109707612Y-18703999D01*
X109920257Y-18746297D01*
G37*
G36*
X159341779Y-19475546D02*
G01*
X159508225Y-19544490D01*
X159658023Y-19644582D01*
X159785418Y-19771977D01*
X159885510Y-19921775D01*
X159954454Y-20088221D01*
X159989601Y-20264917D01*
X159989601Y-20445081D01*
X159954454Y-20621777D01*
X159885510Y-20788223D01*
X159785418Y-20938021D01*
X159658023Y-21065416D01*
X159508225Y-21165508D01*
X159341779Y-21234452D01*
X159165083Y-21269599D01*
X158984919Y-21269599D01*
X158808223Y-21234452D01*
X158641777Y-21165508D01*
X158491979Y-21065416D01*
X158364584Y-20938021D01*
X158264492Y-20788223D01*
X158195548Y-20621777D01*
X158160401Y-20445081D01*
X158160401Y-20264917D01*
X158195548Y-20088221D01*
X158264492Y-19921775D01*
X158364584Y-19771977D01*
X158491979Y-19644582D01*
X158641777Y-19544490D01*
X158808223Y-19475546D01*
X158984919Y-19440399D01*
X159165083Y-19440399D01*
X159341779Y-19475546D01*
G37*
G36*
X133941779Y-19475546D02*
G01*
X134108225Y-19544490D01*
X134258023Y-19644582D01*
X134385418Y-19771977D01*
X134485510Y-19921775D01*
X134554454Y-20088221D01*
X134589601Y-20264917D01*
X134589601Y-20445081D01*
X134554454Y-20621777D01*
X134485510Y-20788223D01*
X134385418Y-20938021D01*
X134258023Y-21065416D01*
X134108225Y-21165508D01*
X133941779Y-21234452D01*
X133765083Y-21269599D01*
X133584919Y-21269599D01*
X133408223Y-21234452D01*
X133241777Y-21165508D01*
X133091979Y-21065416D01*
X132964584Y-20938021D01*
X132864492Y-20788223D01*
X132795548Y-20621777D01*
X132760401Y-20445081D01*
X132760401Y-20264917D01*
X132795548Y-20088221D01*
X132864492Y-19921775D01*
X132964584Y-19771977D01*
X133091979Y-19644582D01*
X133241777Y-19544490D01*
X133408223Y-19475546D01*
X133584919Y-19440399D01*
X133765083Y-19440399D01*
X133941779Y-19475546D01*
G37*
G36*
X131401779Y-19475546D02*
G01*
X131568225Y-19544490D01*
X131718023Y-19644582D01*
X131845418Y-19771977D01*
X131945510Y-19921775D01*
X132014454Y-20088221D01*
X132049601Y-20264917D01*
X132049601Y-20445081D01*
X132014454Y-20621777D01*
X131945510Y-20788223D01*
X131845418Y-20938021D01*
X131718023Y-21065416D01*
X131568225Y-21165508D01*
X131401779Y-21234452D01*
X131225083Y-21269599D01*
X131044919Y-21269599D01*
X130868223Y-21234452D01*
X130701777Y-21165508D01*
X130551979Y-21065416D01*
X130424584Y-20938021D01*
X130324492Y-20788223D01*
X130255548Y-20621777D01*
X130220401Y-20445081D01*
X130220401Y-20264917D01*
X130255548Y-20088221D01*
X130324492Y-19921775D01*
X130424584Y-19771977D01*
X130551979Y-19644582D01*
X130701777Y-19544490D01*
X130868223Y-19475546D01*
X131044919Y-19440399D01*
X131225083Y-19440399D01*
X131401779Y-19475546D01*
G37*
G36*
X128861779Y-19475546D02*
G01*
X129028225Y-19544490D01*
X129178023Y-19644582D01*
X129305418Y-19771977D01*
X129405510Y-19921775D01*
X129474454Y-20088221D01*
X129509601Y-20264917D01*
X129509601Y-20445081D01*
X129474454Y-20621777D01*
X129405510Y-20788223D01*
X129305418Y-20938021D01*
X129178023Y-21065416D01*
X129028225Y-21165508D01*
X128861779Y-21234452D01*
X128685083Y-21269599D01*
X128504919Y-21269599D01*
X128328223Y-21234452D01*
X128161777Y-21165508D01*
X128011979Y-21065416D01*
X127884584Y-20938021D01*
X127784492Y-20788223D01*
X127715548Y-20621777D01*
X127680401Y-20445081D01*
X127680401Y-20264917D01*
X127715548Y-20088221D01*
X127784492Y-19921775D01*
X127884584Y-19771977D01*
X128011979Y-19644582D01*
X128161777Y-19544490D01*
X128328223Y-19475546D01*
X128504919Y-19440399D01*
X128685083Y-19440399D01*
X128861779Y-19475546D01*
G37*
G36*
X126321779Y-19475546D02*
G01*
X126488225Y-19544490D01*
X126638023Y-19644582D01*
X126765418Y-19771977D01*
X126865510Y-19921775D01*
X126934454Y-20088221D01*
X126969601Y-20264917D01*
X126969601Y-20445081D01*
X126934454Y-20621777D01*
X126865510Y-20788223D01*
X126765418Y-20938021D01*
X126638023Y-21065416D01*
X126488225Y-21165508D01*
X126321779Y-21234452D01*
X126145083Y-21269599D01*
X125964919Y-21269599D01*
X125788223Y-21234452D01*
X125621777Y-21165508D01*
X125471979Y-21065416D01*
X125344584Y-20938021D01*
X125244492Y-20788223D01*
X125175548Y-20621777D01*
X125140401Y-20445081D01*
X125140401Y-20264917D01*
X125175548Y-20088221D01*
X125244492Y-19921775D01*
X125344584Y-19771977D01*
X125471979Y-19644582D01*
X125621777Y-19544490D01*
X125788223Y-19475546D01*
X125964919Y-19440399D01*
X126145083Y-19440399D01*
X126321779Y-19475546D01*
G37*
G36*
X136481779Y-19475546D02*
G01*
X136648225Y-19544490D01*
X136798023Y-19644582D01*
X136925418Y-19771977D01*
X137025510Y-19921775D01*
X137094454Y-20088221D01*
X137129601Y-20264917D01*
X137129601Y-20445081D01*
X137094454Y-20621777D01*
X137025510Y-20788223D01*
X136925418Y-20938021D01*
X136798023Y-21065416D01*
X136648225Y-21165508D01*
X136481779Y-21234452D01*
X136305083Y-21269599D01*
X136124919Y-21269599D01*
X135948223Y-21234452D01*
X135781777Y-21165508D01*
X135631979Y-21065416D01*
X135504584Y-20938021D01*
X135404492Y-20788223D01*
X135335548Y-20621777D01*
X135300401Y-20445081D01*
X135300401Y-20264917D01*
X135335548Y-20088221D01*
X135404492Y-19921775D01*
X135504584Y-19771977D01*
X135631979Y-19644582D01*
X135781777Y-19544490D01*
X135948223Y-19475546D01*
X136124919Y-19440399D01*
X136305083Y-19440399D01*
X136481779Y-19475546D01*
G37*
G36*
X139021779Y-19475546D02*
G01*
X139188225Y-19544490D01*
X139338023Y-19644582D01*
X139465418Y-19771977D01*
X139565510Y-19921775D01*
X139634454Y-20088221D01*
X139669601Y-20264917D01*
X139669601Y-20445081D01*
X139634454Y-20621777D01*
X139565510Y-20788223D01*
X139465418Y-20938021D01*
X139338023Y-21065416D01*
X139188225Y-21165508D01*
X139021779Y-21234452D01*
X138845083Y-21269599D01*
X138664919Y-21269599D01*
X138488223Y-21234452D01*
X138321777Y-21165508D01*
X138171979Y-21065416D01*
X138044584Y-20938021D01*
X137944492Y-20788223D01*
X137875548Y-20621777D01*
X137840401Y-20445081D01*
X137840401Y-20264917D01*
X137875548Y-20088221D01*
X137944492Y-19921775D01*
X138044584Y-19771977D01*
X138171979Y-19644582D01*
X138321777Y-19544490D01*
X138488223Y-19475546D01*
X138664919Y-19440399D01*
X138845083Y-19440399D01*
X139021779Y-19475546D01*
G37*
G36*
X141561779Y-19475546D02*
G01*
X141728225Y-19544490D01*
X141878023Y-19644582D01*
X142005418Y-19771977D01*
X142105510Y-19921775D01*
X142174454Y-20088221D01*
X142209601Y-20264917D01*
X142209601Y-20445081D01*
X142174454Y-20621777D01*
X142105510Y-20788223D01*
X142005418Y-20938021D01*
X141878023Y-21065416D01*
X141728225Y-21165508D01*
X141561779Y-21234452D01*
X141385083Y-21269599D01*
X141204919Y-21269599D01*
X141028223Y-21234452D01*
X140861777Y-21165508D01*
X140711979Y-21065416D01*
X140584584Y-20938021D01*
X140484492Y-20788223D01*
X140415548Y-20621777D01*
X140380401Y-20445081D01*
X140380401Y-20264917D01*
X140415548Y-20088221D01*
X140484492Y-19921775D01*
X140584584Y-19771977D01*
X140711979Y-19644582D01*
X140861777Y-19544490D01*
X141028223Y-19475546D01*
X141204919Y-19440399D01*
X141385083Y-19440399D01*
X141561779Y-19475546D01*
G37*
G36*
X146641779Y-19475546D02*
G01*
X146808225Y-19544490D01*
X146958023Y-19644582D01*
X147085418Y-19771977D01*
X147185510Y-19921775D01*
X147254454Y-20088221D01*
X147289601Y-20264917D01*
X147289601Y-20445081D01*
X147254454Y-20621777D01*
X147185510Y-20788223D01*
X147085418Y-20938021D01*
X146958023Y-21065416D01*
X146808225Y-21165508D01*
X146641779Y-21234452D01*
X146465083Y-21269599D01*
X146284919Y-21269599D01*
X146108223Y-21234452D01*
X145941777Y-21165508D01*
X145791979Y-21065416D01*
X145664584Y-20938021D01*
X145564492Y-20788223D01*
X145495548Y-20621777D01*
X145460401Y-20445081D01*
X145460401Y-20264917D01*
X145495548Y-20088221D01*
X145564492Y-19921775D01*
X145664584Y-19771977D01*
X145791979Y-19644582D01*
X145941777Y-19544490D01*
X146108223Y-19475546D01*
X146284919Y-19440399D01*
X146465083Y-19440399D01*
X146641779Y-19475546D01*
G37*
G36*
X123781779Y-19475546D02*
G01*
X123948225Y-19544490D01*
X124098023Y-19644582D01*
X124225418Y-19771977D01*
X124325510Y-19921775D01*
X124394454Y-20088221D01*
X124429601Y-20264917D01*
X124429601Y-20445081D01*
X124394454Y-20621777D01*
X124325510Y-20788223D01*
X124225418Y-20938021D01*
X124098023Y-21065416D01*
X123948225Y-21165508D01*
X123781779Y-21234452D01*
X123605083Y-21269599D01*
X123424919Y-21269599D01*
X123248223Y-21234452D01*
X123081777Y-21165508D01*
X122931979Y-21065416D01*
X122804584Y-20938021D01*
X122704492Y-20788223D01*
X122635548Y-20621777D01*
X122600401Y-20445081D01*
X122600401Y-20264917D01*
X122635548Y-20088221D01*
X122704492Y-19921775D01*
X122804584Y-19771977D01*
X122931979Y-19644582D01*
X123081777Y-19544490D01*
X123248223Y-19475546D01*
X123424919Y-19440399D01*
X123605083Y-19440399D01*
X123781779Y-19475546D01*
G37*
G36*
X164421779Y-19475546D02*
G01*
X164588225Y-19544490D01*
X164738023Y-19644582D01*
X164865418Y-19771977D01*
X164965510Y-19921775D01*
X165034454Y-20088221D01*
X165069601Y-20264917D01*
X165069601Y-20445081D01*
X165034454Y-20621777D01*
X164965510Y-20788223D01*
X164865418Y-20938021D01*
X164738023Y-21065416D01*
X164588225Y-21165508D01*
X164421779Y-21234452D01*
X164245083Y-21269599D01*
X164064919Y-21269599D01*
X163888223Y-21234452D01*
X163721777Y-21165508D01*
X163571979Y-21065416D01*
X163444584Y-20938021D01*
X163344492Y-20788223D01*
X163275548Y-20621777D01*
X163240401Y-20445081D01*
X163240401Y-20264917D01*
X163275548Y-20088221D01*
X163344492Y-19921775D01*
X163444584Y-19771977D01*
X163571979Y-19644582D01*
X163721777Y-19544490D01*
X163888223Y-19475546D01*
X164064919Y-19440399D01*
X164245083Y-19440399D01*
X164421779Y-19475546D01*
G37*
G36*
X169501779Y-19475546D02*
G01*
X169668225Y-19544490D01*
X169818023Y-19644582D01*
X169945418Y-19771977D01*
X170045510Y-19921775D01*
X170114454Y-20088221D01*
X170149601Y-20264917D01*
X170149601Y-20445081D01*
X170114454Y-20621777D01*
X170045510Y-20788223D01*
X169945418Y-20938021D01*
X169818023Y-21065416D01*
X169668225Y-21165508D01*
X169501779Y-21234452D01*
X169325083Y-21269599D01*
X169144919Y-21269599D01*
X168968223Y-21234452D01*
X168801777Y-21165508D01*
X168651979Y-21065416D01*
X168524584Y-20938021D01*
X168424492Y-20788223D01*
X168355548Y-20621777D01*
X168320401Y-20445081D01*
X168320401Y-20264917D01*
X168355548Y-20088221D01*
X168424492Y-19921775D01*
X168524584Y-19771977D01*
X168651979Y-19644582D01*
X168801777Y-19544490D01*
X168968223Y-19475546D01*
X169144919Y-19440399D01*
X169325083Y-19440399D01*
X169501779Y-19475546D01*
G37*
G36*
X172041779Y-19475546D02*
G01*
X172208225Y-19544490D01*
X172358023Y-19644582D01*
X172485418Y-19771977D01*
X172585510Y-19921775D01*
X172654454Y-20088221D01*
X172689601Y-20264917D01*
X172689601Y-20445081D01*
X172654454Y-20621777D01*
X172585510Y-20788223D01*
X172485418Y-20938021D01*
X172358023Y-21065416D01*
X172208225Y-21165508D01*
X172041779Y-21234452D01*
X171865083Y-21269599D01*
X171684919Y-21269599D01*
X171508223Y-21234452D01*
X171341777Y-21165508D01*
X171191979Y-21065416D01*
X171064584Y-20938021D01*
X170964492Y-20788223D01*
X170895548Y-20621777D01*
X170860401Y-20445081D01*
X170860401Y-20264917D01*
X170895548Y-20088221D01*
X170964492Y-19921775D01*
X171064584Y-19771977D01*
X171191979Y-19644582D01*
X171341777Y-19544490D01*
X171508223Y-19475546D01*
X171684919Y-19440399D01*
X171865083Y-19440399D01*
X172041779Y-19475546D01*
G37*
G36*
X156801779Y-19475546D02*
G01*
X156968225Y-19544490D01*
X157118023Y-19644582D01*
X157245418Y-19771977D01*
X157345510Y-19921775D01*
X157414454Y-20088221D01*
X157449601Y-20264917D01*
X157449601Y-20445081D01*
X157414454Y-20621777D01*
X157345510Y-20788223D01*
X157245418Y-20938021D01*
X157118023Y-21065416D01*
X156968225Y-21165508D01*
X156801779Y-21234452D01*
X156625083Y-21269599D01*
X156444919Y-21269599D01*
X156268223Y-21234452D01*
X156101777Y-21165508D01*
X155951979Y-21065416D01*
X155824584Y-20938021D01*
X155724492Y-20788223D01*
X155655548Y-20621777D01*
X155620401Y-20445081D01*
X155620401Y-20264917D01*
X155655548Y-20088221D01*
X155724492Y-19921775D01*
X155824584Y-19771977D01*
X155951979Y-19644582D01*
X156101777Y-19544490D01*
X156268223Y-19475546D01*
X156444919Y-19440399D01*
X156625083Y-19440399D01*
X156801779Y-19475546D01*
G37*
G36*
X154261779Y-19475546D02*
G01*
X154428225Y-19544490D01*
X154578023Y-19644582D01*
X154705418Y-19771977D01*
X154805510Y-19921775D01*
X154874454Y-20088221D01*
X154909601Y-20264917D01*
X154909601Y-20445081D01*
X154874454Y-20621777D01*
X154805510Y-20788223D01*
X154705418Y-20938021D01*
X154578023Y-21065416D01*
X154428225Y-21165508D01*
X154261779Y-21234452D01*
X154085083Y-21269599D01*
X153904919Y-21269599D01*
X153728223Y-21234452D01*
X153561777Y-21165508D01*
X153411979Y-21065416D01*
X153284584Y-20938021D01*
X153184492Y-20788223D01*
X153115548Y-20621777D01*
X153080401Y-20445081D01*
X153080401Y-20264917D01*
X153115548Y-20088221D01*
X153184492Y-19921775D01*
X153284584Y-19771977D01*
X153411979Y-19644582D01*
X153561777Y-19544490D01*
X153728223Y-19475546D01*
X153904919Y-19440399D01*
X154085083Y-19440399D01*
X154261779Y-19475546D01*
G37*
G36*
X161881779Y-19475546D02*
G01*
X162048225Y-19544490D01*
X162198023Y-19644582D01*
X162325418Y-19771977D01*
X162425510Y-19921775D01*
X162494454Y-20088221D01*
X162529601Y-20264917D01*
X162529601Y-20445081D01*
X162494454Y-20621777D01*
X162425510Y-20788223D01*
X162325418Y-20938021D01*
X162198023Y-21065416D01*
X162048225Y-21165508D01*
X161881779Y-21234452D01*
X161705083Y-21269599D01*
X161524919Y-21269599D01*
X161348223Y-21234452D01*
X161181777Y-21165508D01*
X161031979Y-21065416D01*
X160904584Y-20938021D01*
X160804492Y-20788223D01*
X160735548Y-20621777D01*
X160700401Y-20445081D01*
X160700401Y-20264917D01*
X160735548Y-20088221D01*
X160804492Y-19921775D01*
X160904584Y-19771977D01*
X161031979Y-19644582D01*
X161181777Y-19544490D01*
X161348223Y-19475546D01*
X161524919Y-19440399D01*
X161705083Y-19440399D01*
X161881779Y-19475546D01*
G37*
G36*
X149181779Y-19475546D02*
G01*
X149348225Y-19544490D01*
X149498023Y-19644582D01*
X149625418Y-19771977D01*
X149725510Y-19921775D01*
X149794454Y-20088221D01*
X149829601Y-20264917D01*
X149829601Y-20445081D01*
X149794454Y-20621777D01*
X149725510Y-20788223D01*
X149625418Y-20938021D01*
X149498023Y-21065416D01*
X149348225Y-21165508D01*
X149181779Y-21234452D01*
X149005083Y-21269599D01*
X148824919Y-21269599D01*
X148648223Y-21234452D01*
X148481777Y-21165508D01*
X148331979Y-21065416D01*
X148204584Y-20938021D01*
X148104492Y-20788223D01*
X148035548Y-20621777D01*
X148000401Y-20445081D01*
X148000401Y-20264917D01*
X148035548Y-20088221D01*
X148104492Y-19921775D01*
X148204584Y-19771977D01*
X148331979Y-19644582D01*
X148481777Y-19544490D01*
X148648223Y-19475546D01*
X148824919Y-19440399D01*
X149005083Y-19440399D01*
X149181779Y-19475546D01*
G37*
G36*
X174581779Y-19475546D02*
G01*
X174748225Y-19544490D01*
X174898023Y-19644582D01*
X175025418Y-19771977D01*
X175125510Y-19921775D01*
X175194454Y-20088221D01*
X175229601Y-20264917D01*
X175229601Y-20445081D01*
X175194454Y-20621777D01*
X175125510Y-20788223D01*
X175025418Y-20938021D01*
X174898023Y-21065416D01*
X174748225Y-21165508D01*
X174581779Y-21234452D01*
X174405083Y-21269599D01*
X174224919Y-21269599D01*
X174048223Y-21234452D01*
X173881777Y-21165508D01*
X173731979Y-21065416D01*
X173604584Y-20938021D01*
X173504492Y-20788223D01*
X173435548Y-20621777D01*
X173400401Y-20445081D01*
X173400401Y-20264917D01*
X173435548Y-20088221D01*
X173504492Y-19921775D01*
X173604584Y-19771977D01*
X173731979Y-19644582D01*
X173881777Y-19544490D01*
X174048223Y-19475546D01*
X174224919Y-19440399D01*
X174405083Y-19440399D01*
X174581779Y-19475546D01*
G37*
G36*
X177121779Y-19475546D02*
G01*
X177288225Y-19544490D01*
X177438023Y-19644582D01*
X177565418Y-19771977D01*
X177665510Y-19921775D01*
X177734454Y-20088221D01*
X177769601Y-20264917D01*
X177769601Y-20445081D01*
X177734454Y-20621777D01*
X177665510Y-20788223D01*
X177565418Y-20938021D01*
X177438023Y-21065416D01*
X177288225Y-21165508D01*
X177121779Y-21234452D01*
X176945083Y-21269599D01*
X176764919Y-21269599D01*
X176588223Y-21234452D01*
X176421777Y-21165508D01*
X176271979Y-21065416D01*
X176144584Y-20938021D01*
X176044492Y-20788223D01*
X175975548Y-20621777D01*
X175940401Y-20445081D01*
X175940401Y-20264917D01*
X175975548Y-20088221D01*
X176044492Y-19921775D01*
X176144584Y-19771977D01*
X176271979Y-19644582D01*
X176421777Y-19544490D01*
X176588223Y-19475546D01*
X176764919Y-19440399D01*
X176945083Y-19440399D01*
X177121779Y-19475546D01*
G37*
G36*
X179661779Y-19475546D02*
G01*
X179828225Y-19544490D01*
X179978023Y-19644582D01*
X180105418Y-19771977D01*
X180205510Y-19921775D01*
X180274454Y-20088221D01*
X180309601Y-20264917D01*
X180309601Y-20445081D01*
X180274454Y-20621777D01*
X180205510Y-20788223D01*
X180105418Y-20938021D01*
X179978023Y-21065416D01*
X179828225Y-21165508D01*
X179661779Y-21234452D01*
X179485083Y-21269599D01*
X179304919Y-21269599D01*
X179128223Y-21234452D01*
X178961777Y-21165508D01*
X178811979Y-21065416D01*
X178684584Y-20938021D01*
X178584492Y-20788223D01*
X178515548Y-20621777D01*
X178480401Y-20445081D01*
X178480401Y-20264917D01*
X178515548Y-20088221D01*
X178584492Y-19921775D01*
X178684584Y-19771977D01*
X178811979Y-19644582D01*
X178961777Y-19544490D01*
X179128223Y-19475546D01*
X179304919Y-19440399D01*
X179485083Y-19440399D01*
X179661779Y-19475546D01*
G37*
G36*
X182201779Y-19475546D02*
G01*
X182368225Y-19544490D01*
X182518023Y-19644582D01*
X182645418Y-19771977D01*
X182745510Y-19921775D01*
X182814454Y-20088221D01*
X182849601Y-20264917D01*
X182849601Y-20445081D01*
X182814454Y-20621777D01*
X182745510Y-20788223D01*
X182645418Y-20938021D01*
X182518023Y-21065416D01*
X182368225Y-21165508D01*
X182201779Y-21234452D01*
X182025083Y-21269599D01*
X181844919Y-21269599D01*
X181668223Y-21234452D01*
X181501777Y-21165508D01*
X181351979Y-21065416D01*
X181224584Y-20938021D01*
X181124492Y-20788223D01*
X181055548Y-20621777D01*
X181020401Y-20445081D01*
X181020401Y-20264917D01*
X181055548Y-20088221D01*
X181124492Y-19921775D01*
X181224584Y-19771977D01*
X181351979Y-19644582D01*
X181501777Y-19544490D01*
X181668223Y-19475546D01*
X181844919Y-19440399D01*
X182025083Y-19440399D01*
X182201779Y-19475546D01*
G37*
G36*
X184741779Y-19475546D02*
G01*
X184908225Y-19544490D01*
X185058023Y-19644582D01*
X185185418Y-19771977D01*
X185285510Y-19921775D01*
X185354454Y-20088221D01*
X185389601Y-20264917D01*
X185389601Y-20445081D01*
X185354454Y-20621777D01*
X185285510Y-20788223D01*
X185185418Y-20938021D01*
X185058023Y-21065416D01*
X184908225Y-21165508D01*
X184741779Y-21234452D01*
X184565083Y-21269599D01*
X184384919Y-21269599D01*
X184208223Y-21234452D01*
X184041777Y-21165508D01*
X183891979Y-21065416D01*
X183764584Y-20938021D01*
X183664492Y-20788223D01*
X183595548Y-20621777D01*
X183560401Y-20445081D01*
X183560401Y-20264917D01*
X183595548Y-20088221D01*
X183664492Y-19921775D01*
X183764584Y-19771977D01*
X183891979Y-19644582D01*
X184041777Y-19544490D01*
X184208223Y-19475546D01*
X184384919Y-19440399D01*
X184565083Y-19440399D01*
X184741779Y-19475546D01*
G37*
G36*
X187281779Y-19475546D02*
G01*
X187448225Y-19544490D01*
X187598023Y-19644582D01*
X187725418Y-19771977D01*
X187825510Y-19921775D01*
X187894454Y-20088221D01*
X187929601Y-20264917D01*
X187929601Y-20445081D01*
X187894454Y-20621777D01*
X187825510Y-20788223D01*
X187725418Y-20938021D01*
X187598023Y-21065416D01*
X187448225Y-21165508D01*
X187281779Y-21234452D01*
X187105083Y-21269599D01*
X186924919Y-21269599D01*
X186748223Y-21234452D01*
X186581777Y-21165508D01*
X186431979Y-21065416D01*
X186304584Y-20938021D01*
X186204492Y-20788223D01*
X186135548Y-20621777D01*
X186100401Y-20445081D01*
X186100401Y-20264917D01*
X186135548Y-20088221D01*
X186204492Y-19921775D01*
X186304584Y-19771977D01*
X186431979Y-19644582D01*
X186581777Y-19544490D01*
X186748223Y-19475546D01*
X186924919Y-19440399D01*
X187105083Y-19440399D01*
X187281779Y-19475546D01*
G37*
G36*
X151721779Y-19475546D02*
G01*
X151888225Y-19544490D01*
X152038023Y-19644582D01*
X152165418Y-19771977D01*
X152265510Y-19921775D01*
X152334454Y-20088221D01*
X152369601Y-20264917D01*
X152369601Y-20445081D01*
X152334454Y-20621777D01*
X152265510Y-20788223D01*
X152165418Y-20938021D01*
X152038023Y-21065416D01*
X151888225Y-21165508D01*
X151721779Y-21234452D01*
X151545083Y-21269599D01*
X151364919Y-21269599D01*
X151188223Y-21234452D01*
X151021777Y-21165508D01*
X150871979Y-21065416D01*
X150744584Y-20938021D01*
X150644492Y-20788223D01*
X150575548Y-20621777D01*
X150540401Y-20445081D01*
X150540401Y-20264917D01*
X150575548Y-20088221D01*
X150644492Y-19921775D01*
X150744584Y-19771977D01*
X150871979Y-19644582D01*
X151021777Y-19544490D01*
X151188223Y-19475546D01*
X151364919Y-19440399D01*
X151545083Y-19440399D01*
X151721779Y-19475546D01*
G37*
M02*
