G04 #@! TF.GenerationSoftware,KiCad,Pcbnew,(5.1.5)-2*
G04 #@! TF.CreationDate,2020-03-13T12:58:49+01:00*
G04 #@! TF.ProjectId,CDP1802_Tester,43445031-3830-4325-9f54-65737465722e,rev?*
G04 #@! TF.SameCoordinates,Original*
G04 #@! TF.FileFunction,Copper,L2,Bot*
G04 #@! TF.FilePolarity,Positive*
%FSLAX46Y46*%
G04 Gerber Fmt 4.6, Leading zero omitted, Abs format (unit mm)*
G04 Created by KiCad (PCBNEW (5.1.5)-2) date 2020-03-13 12:58:49*
%MOMM*%
%LPD*%
G04 APERTURE LIST*
%ADD10O,1.700000X1.700000*%
%ADD11R,1.700000X1.700000*%
%ADD12C,2.000000*%
%ADD13O,1.727200X1.727200*%
%ADD14O,1.600000X2.400000*%
%ADD15R,1.600000X2.400000*%
%ADD16C,1.000000*%
%ADD17C,0.800000*%
%ADD18C,0.250000*%
%ADD19C,0.400000*%
%ADD20C,0.254000*%
G04 APERTURE END LIST*
D10*
X146620000Y-29630000D03*
X144080000Y-29630000D03*
D11*
X141540000Y-29630000D03*
D12*
X180710000Y-61474998D03*
X180710000Y-56974998D03*
X174210000Y-61474998D03*
X174210000Y-56974998D03*
X174210000Y-46706665D03*
X174210000Y-51206665D03*
X180710000Y-46706665D03*
X180710000Y-51206665D03*
X180710000Y-40938333D03*
X180710000Y-36438333D03*
X174210000Y-40938333D03*
X174210000Y-36438333D03*
X174210000Y-26170000D03*
X174210000Y-30670000D03*
X180710000Y-26170000D03*
X180710000Y-30670000D03*
X111290000Y-57920000D03*
X111290000Y-62420000D03*
X117790000Y-57920000D03*
X117790000Y-62420000D03*
D13*
X146375001Y-20354999D03*
X141295001Y-20354999D03*
X138755001Y-20354999D03*
X136215001Y-20354999D03*
X133675001Y-20354999D03*
X131135001Y-20354999D03*
X128595001Y-20354999D03*
X126055001Y-20354999D03*
X181935001Y-68614999D03*
X179395001Y-68614999D03*
X176855001Y-68614999D03*
X174315001Y-68614999D03*
X171775001Y-68614999D03*
X169235001Y-68614999D03*
X166695001Y-68614999D03*
X164155001Y-68614999D03*
X159075001Y-68614999D03*
X156535001Y-68614999D03*
X153995001Y-68614999D03*
X151455001Y-68614999D03*
X148915001Y-68614999D03*
X146375001Y-68614999D03*
X143835001Y-68614999D03*
X141295001Y-68614999D03*
X121991001Y-68614999D03*
X137231001Y-68614999D03*
X134691001Y-68614999D03*
X132151001Y-68614999D03*
X114371001Y-68614999D03*
X116911001Y-68614999D03*
X119451001Y-68614999D03*
X124531001Y-68614999D03*
X127071001Y-68614999D03*
X129611001Y-68614999D03*
X123515001Y-20354999D03*
X148915001Y-20354999D03*
X151455001Y-20354999D03*
X153995001Y-20354999D03*
X156535001Y-20354999D03*
X159075001Y-20354999D03*
X161615001Y-20354999D03*
X164155001Y-20354999D03*
X169235001Y-20354999D03*
X171775001Y-20354999D03*
X174315001Y-20354999D03*
X176855001Y-20354999D03*
X179395001Y-20354999D03*
X181935001Y-20354999D03*
X184475001Y-20354999D03*
X187015001Y-20354999D03*
X189555001Y-68614999D03*
X192095001Y-68614999D03*
X189555001Y-66074999D03*
X192095001Y-66074999D03*
X189555001Y-63534999D03*
X192095001Y-63534999D03*
X189555001Y-60994999D03*
X192095001Y-60994999D03*
X189555001Y-58454999D03*
X192095001Y-58454999D03*
X189555001Y-55914999D03*
X192095001Y-55914999D03*
X189555001Y-53374999D03*
X192095001Y-53374999D03*
X189555001Y-50834999D03*
X192095001Y-50834999D03*
X189555001Y-48294999D03*
X192095001Y-48294999D03*
X189555001Y-45754999D03*
X192095001Y-45754999D03*
X189555001Y-43214999D03*
X192095001Y-43214999D03*
X189555001Y-40674999D03*
X192095001Y-40674999D03*
X189555001Y-38134999D03*
X192095001Y-38134999D03*
X189555001Y-35594999D03*
X192095001Y-35594999D03*
X189555001Y-33054999D03*
X192095001Y-33054999D03*
X189555001Y-30514999D03*
X192095001Y-30514999D03*
X189555001Y-27974999D03*
X192095001Y-27974999D03*
X189555001Y-25434999D03*
X192095001Y-25434999D03*
D14*
X114030000Y-51440000D03*
X162290000Y-36200000D03*
X116570000Y-51440000D03*
X159750000Y-36200000D03*
X119110000Y-51440000D03*
X157210000Y-36200000D03*
X121650000Y-51440000D03*
X154670000Y-36200000D03*
X124190000Y-51440000D03*
X152130000Y-36200000D03*
X126730000Y-51440000D03*
X149590000Y-36200000D03*
X129270000Y-51440000D03*
X147050000Y-36200000D03*
X131810000Y-51440000D03*
X144510000Y-36200000D03*
X134350000Y-51440000D03*
X141970000Y-36200000D03*
X136890000Y-51440000D03*
X139430000Y-36200000D03*
X139430000Y-51440000D03*
X136890000Y-36200000D03*
X141970000Y-51440000D03*
X134350000Y-36200000D03*
X144510000Y-51440000D03*
X131810000Y-36200000D03*
X147050000Y-51440000D03*
X129270000Y-36200000D03*
X149590000Y-51440000D03*
X126730000Y-36200000D03*
X152130000Y-51440000D03*
X124190000Y-36200000D03*
X154670000Y-51440000D03*
X121650000Y-36200000D03*
X157210000Y-51440000D03*
X119110000Y-36200000D03*
X159750000Y-51440000D03*
X116570000Y-36200000D03*
X162290000Y-51440000D03*
D15*
X114030000Y-36200000D03*
D16*
X157710000Y-22570000D03*
X116500000Y-18770000D03*
X165150000Y-35840000D03*
D17*
X172510000Y-54150000D03*
X170130000Y-54090000D03*
X172350000Y-43710000D03*
X170130000Y-43630000D03*
X172180000Y-32610000D03*
X168610000Y-37280000D03*
D16*
X143720000Y-24150000D03*
D17*
X134410000Y-63680000D03*
X136940000Y-64250000D03*
X139430000Y-64720000D03*
X141960000Y-65300000D03*
X144490000Y-65740000D03*
X145540000Y-66410000D03*
X147500000Y-66540000D03*
X149880000Y-62140000D03*
X148090000Y-61280000D03*
X149910000Y-66910000D03*
X152820000Y-61830000D03*
X149310000Y-60000000D03*
X159830000Y-26190000D03*
X158060000Y-27370000D03*
X116940000Y-45530000D03*
X155000000Y-27830000D03*
X116890000Y-46730000D03*
X120680000Y-46890000D03*
X117310000Y-28930000D03*
X143360000Y-21140000D03*
X129340000Y-29700000D03*
X124480000Y-31180000D03*
X121760000Y-29770000D03*
X118990000Y-24720000D03*
X115790000Y-41390000D03*
X145160000Y-23580000D03*
D18*
X180710000Y-61474998D02*
X174210000Y-61474998D01*
X153995001Y-64774999D02*
X153995001Y-68614999D01*
X157430000Y-61340000D02*
X153995001Y-64774999D01*
X174210000Y-61474998D02*
X174075002Y-61340000D01*
X174075002Y-61340000D02*
X157430000Y-61340000D01*
D19*
X136215001Y-20354999D02*
X138755001Y-20354999D01*
X174210000Y-26170000D02*
X180710000Y-26170000D01*
X174210000Y-26170000D02*
X173030000Y-26170000D01*
X173030000Y-26170000D02*
X171080000Y-28120000D01*
X171080000Y-28120000D02*
X171080000Y-35220000D01*
X172298333Y-36438333D02*
X174210000Y-36438333D01*
X171080000Y-35220000D02*
X172298333Y-36438333D01*
X174210000Y-36438333D02*
X180710000Y-36438333D01*
X174210000Y-36438333D02*
X172731667Y-36438333D01*
X172731667Y-36438333D02*
X171320000Y-37850000D01*
X171320000Y-37850000D02*
X171320000Y-45740000D01*
X172286665Y-46706665D02*
X174210000Y-46706665D01*
X171320000Y-45740000D02*
X172286665Y-46706665D01*
X174210000Y-46706665D02*
X173463335Y-46706665D01*
X173463335Y-46706665D02*
X171440000Y-48730000D01*
X171440000Y-48730000D02*
X171440000Y-56190000D01*
X172224998Y-56974998D02*
X174210000Y-56974998D01*
X171440000Y-56190000D02*
X172224998Y-56974998D01*
X174210000Y-56974998D02*
X180710000Y-56974998D01*
X180710000Y-46706665D02*
X174210000Y-46706665D01*
X180710000Y-26170000D02*
X184620000Y-26170000D01*
X185355001Y-25434999D02*
X189555001Y-25434999D01*
X184620000Y-26170000D02*
X185355001Y-25434999D01*
X189555001Y-25434999D02*
X192095001Y-25434999D01*
X162290000Y-27140000D02*
X157650000Y-22500000D01*
X157650000Y-22500000D02*
X157650000Y-22510000D01*
X157650000Y-22510000D02*
X157710000Y-22570000D01*
X165150000Y-35840000D02*
X165200000Y-35790000D01*
X165200000Y-35790000D02*
X165200000Y-28470000D01*
X163870000Y-27140000D02*
X162290000Y-27140000D01*
X165200000Y-28470000D02*
X163870000Y-27140000D01*
X162650000Y-35840000D02*
X162290000Y-36200000D01*
X165150000Y-35840000D02*
X162650000Y-35840000D01*
X116500000Y-19210000D02*
X116500000Y-18770000D01*
X121991001Y-62581001D02*
X119860000Y-60450000D01*
X119860000Y-60450000D02*
X110420000Y-60450000D01*
X110420000Y-60450000D02*
X109560000Y-59590000D01*
X109560000Y-26150000D02*
X116500000Y-19210000D01*
X121991001Y-68614999D02*
X121991001Y-62581001D01*
X111290000Y-57920000D02*
X109580000Y-57920000D01*
X109580000Y-57920000D02*
X109550000Y-57890000D01*
X109560000Y-59590000D02*
X109550000Y-57890000D01*
X109550000Y-57890000D02*
X109560000Y-26150000D01*
X117790000Y-57920000D02*
X111290000Y-57920000D01*
D18*
X180710000Y-51206665D02*
X174210000Y-51206665D01*
X174210000Y-51206665D02*
X174210000Y-52450000D01*
X174210000Y-52450000D02*
X172510000Y-54150000D01*
X155190000Y-60850000D02*
X151455001Y-64584999D01*
X161110000Y-60850000D02*
X155190000Y-60850000D01*
X151455001Y-64584999D02*
X151455001Y-68614999D01*
X170130000Y-54090000D02*
X167870000Y-54090000D01*
X167870000Y-54090000D02*
X161110000Y-60850000D01*
X180710000Y-40938333D02*
X174210000Y-40938333D01*
X174210000Y-40938333D02*
X174210000Y-41850000D01*
X174210000Y-41850000D02*
X172350000Y-43710000D01*
X148915001Y-64404999D02*
X148915001Y-68614999D01*
X160710000Y-60370000D02*
X152950000Y-60370000D01*
X170130000Y-43630000D02*
X170130000Y-50950000D01*
X152950000Y-60370000D02*
X148915001Y-64404999D01*
X170130000Y-50950000D02*
X160710000Y-60370000D01*
X180710000Y-30670000D02*
X174210000Y-30670000D01*
X174210000Y-30670000D02*
X174120000Y-30670000D01*
X174120000Y-30670000D02*
X172180000Y-32610000D01*
X146375001Y-64384999D02*
X146375001Y-68614999D01*
X169090000Y-37760000D02*
X169090000Y-51190000D01*
X168610000Y-37280000D02*
X169090000Y-37760000D01*
X169090000Y-51190000D02*
X160420000Y-59860000D01*
X160420000Y-59860000D02*
X150900000Y-59860000D01*
X150900000Y-59860000D02*
X146375001Y-64384999D01*
D19*
X143720000Y-24150000D02*
X144250000Y-24150000D01*
X144250000Y-24150000D02*
X144250000Y-24510000D01*
X144250000Y-24510000D02*
X146750000Y-27010000D01*
X146620000Y-27140000D02*
X146750000Y-27010000D01*
X146620000Y-29630000D02*
X146620000Y-27140000D01*
D18*
X134350000Y-63620000D02*
X134350000Y-51440000D01*
X134410000Y-63680000D02*
X134350000Y-63620000D01*
X136890000Y-64200000D02*
X136890000Y-51440000D01*
X136940000Y-64250000D02*
X136890000Y-64200000D01*
X139430000Y-64720000D02*
X139430000Y-51440000D01*
X141970000Y-65290000D02*
X141970000Y-51440000D01*
X141960000Y-65300000D02*
X141970000Y-65290000D01*
X144510000Y-65720000D02*
X144510000Y-51440000D01*
X144490000Y-65740000D02*
X144510000Y-65720000D01*
X145540000Y-66410000D02*
X145570000Y-66380000D01*
X145570000Y-66380000D02*
X145570000Y-54640000D01*
X147050000Y-53160000D02*
X147050000Y-51440000D01*
X145570000Y-54640000D02*
X147050000Y-53160000D01*
X147500000Y-66540000D02*
X147500000Y-64520000D01*
X147500000Y-64520000D02*
X149880000Y-62140000D01*
X148090000Y-61280000D02*
X148090000Y-59860000D01*
X149590000Y-58360000D02*
X149590000Y-51440000D01*
X148090000Y-59860000D02*
X149590000Y-58360000D01*
X149910000Y-66910000D02*
X150370000Y-66450000D01*
X150370000Y-66450000D02*
X150370000Y-64280000D01*
X150370000Y-64280000D02*
X152820000Y-61830000D01*
X149310000Y-60000000D02*
X149310000Y-59690000D01*
X152130000Y-56870000D02*
X152130000Y-51440000D01*
X149310000Y-59690000D02*
X152130000Y-56870000D01*
X159830000Y-36120000D02*
X159750000Y-36200000D01*
X159830000Y-26190000D02*
X159830000Y-36120000D01*
X179395001Y-20354999D02*
X179395001Y-19555001D01*
X179395001Y-19555001D02*
X178790000Y-18950000D01*
X178790000Y-18950000D02*
X119270000Y-18950000D01*
X119270000Y-18950000D02*
X111270000Y-26950000D01*
X111270000Y-26950000D02*
X111270000Y-39800000D01*
X111270000Y-39800000D02*
X115550000Y-44080000D01*
X115550000Y-44080000D02*
X116950000Y-44080000D01*
X119110000Y-46240000D02*
X119110000Y-51440000D01*
X116950000Y-44080000D02*
X119110000Y-46240000D01*
X157210000Y-28220000D02*
X157210000Y-36200000D01*
X158060000Y-27370000D02*
X157210000Y-28220000D01*
X181935001Y-20354999D02*
X181935001Y-19215001D01*
X181935001Y-19215001D02*
X181200000Y-18480000D01*
X181200000Y-18480000D02*
X119100000Y-18480000D01*
X119100000Y-18480000D02*
X110780000Y-26800000D01*
X110780000Y-26800000D02*
X110780000Y-39970000D01*
X110780000Y-39970000D02*
X116340000Y-45530000D01*
X116340000Y-45530000D02*
X116940000Y-45530000D01*
X154670000Y-28160000D02*
X154670000Y-36200000D01*
X155000000Y-27830000D02*
X154670000Y-28160000D01*
X184475001Y-20354999D02*
X184475001Y-19015001D01*
X184475001Y-19015001D02*
X183480000Y-18020000D01*
X183480000Y-18020000D02*
X118890000Y-18020000D01*
X118890000Y-18020000D02*
X110320000Y-26590000D01*
X110320000Y-26590000D02*
X110320000Y-40220000D01*
X110320000Y-40220000D02*
X116830000Y-46730000D01*
X116830000Y-46730000D02*
X116890000Y-46730000D01*
X120680000Y-46890000D02*
X122060000Y-48270000D01*
X122060000Y-48270000D02*
X123370000Y-48270000D01*
X124190000Y-49090000D02*
X124190000Y-51440000D01*
X123370000Y-48270000D02*
X124190000Y-49090000D01*
X192095001Y-40674999D02*
X192944999Y-40674999D01*
X192944999Y-40674999D02*
X193330000Y-41060000D01*
X193330000Y-41060000D02*
X193330000Y-69670000D01*
X193330000Y-69670000D02*
X192170000Y-70830000D01*
X192170000Y-70830000D02*
X127200000Y-70830000D01*
X127200000Y-70830000D02*
X125760000Y-69390000D01*
X125760000Y-69390000D02*
X125760000Y-53920000D01*
X126730000Y-52950000D02*
X126730000Y-51440000D01*
X125760000Y-53920000D02*
X126730000Y-52950000D01*
X117310000Y-28930000D02*
X113340000Y-28930000D01*
X113340000Y-28930000D02*
X111750000Y-30520000D01*
X111750000Y-30520000D02*
X111750000Y-39380000D01*
X111750000Y-39380000D02*
X115890000Y-43520000D01*
X115890000Y-43520000D02*
X117630000Y-43520000D01*
X117630000Y-43520000D02*
X119700000Y-45590000D01*
X119700000Y-45590000D02*
X128020000Y-45590000D01*
X129270000Y-46840000D02*
X129270000Y-51440000D01*
X128020000Y-45590000D02*
X129270000Y-46840000D01*
X143360000Y-21140000D02*
X142750000Y-21140000D01*
X142750000Y-21140000D02*
X140910000Y-22980000D01*
X140910000Y-22980000D02*
X133480000Y-22980000D01*
X133480000Y-22980000D02*
X130590000Y-25870000D01*
X130590000Y-25870000D02*
X130590000Y-48070000D01*
X131810000Y-49290000D02*
X131810000Y-51440000D01*
X130590000Y-48070000D02*
X131810000Y-49290000D01*
X129270000Y-29770000D02*
X129270000Y-36200000D01*
X129340000Y-29700000D02*
X129270000Y-29770000D01*
X124190000Y-31470000D02*
X124190000Y-36200000D01*
X124480000Y-31180000D02*
X124190000Y-31470000D01*
X166230000Y-27830000D02*
X169235001Y-24824999D01*
X154670000Y-51440000D02*
X154670000Y-50450000D01*
X156250000Y-48870000D02*
X165600000Y-48870000D01*
X169235001Y-24824999D02*
X169235001Y-20354999D01*
X154670000Y-50450000D02*
X156250000Y-48870000D01*
X165600000Y-48870000D02*
X166230000Y-48240000D01*
X166230000Y-48240000D02*
X166230000Y-27830000D01*
X121650000Y-29880000D02*
X121650000Y-36200000D01*
X121760000Y-29770000D02*
X121650000Y-29880000D01*
X157210000Y-50180000D02*
X157210000Y-51440000D01*
X158020000Y-49370000D02*
X157210000Y-50180000D01*
X171775001Y-20354999D02*
X171775001Y-23054999D01*
X166740000Y-48450000D02*
X165820000Y-49370000D01*
X166740000Y-28090000D02*
X166740000Y-48450000D01*
X171775001Y-23054999D02*
X166740000Y-28090000D01*
X165820000Y-49370000D02*
X158020000Y-49370000D01*
X118990000Y-36080000D02*
X119110000Y-36200000D01*
X118990000Y-24720000D02*
X118990000Y-36080000D01*
X173520000Y-23300000D02*
X174315001Y-22504999D01*
X172230000Y-23300000D02*
X173520000Y-23300000D01*
X167220000Y-28310000D02*
X172230000Y-23300000D01*
X159750000Y-50530000D02*
X160440000Y-49840000D01*
X160440000Y-49840000D02*
X166070000Y-49840000D01*
X166070000Y-49840000D02*
X167220000Y-48690000D01*
X174315001Y-22504999D02*
X174315001Y-20354999D01*
X159750000Y-51440000D02*
X159750000Y-50530000D01*
X167220000Y-48690000D02*
X167220000Y-28310000D01*
X176855001Y-22084999D02*
X175090000Y-23850000D01*
X176855001Y-20354999D02*
X176855001Y-22084999D01*
X175090000Y-23850000D02*
X172370000Y-23850000D01*
X167700000Y-48930000D02*
X165190000Y-51440000D01*
X172370000Y-23850000D02*
X167700000Y-28520000D01*
X165190000Y-51440000D02*
X162290000Y-51440000D01*
X167700000Y-28520000D02*
X167700000Y-48930000D01*
D19*
X111020000Y-62440000D02*
X117520000Y-62440000D01*
D18*
X128595001Y-20354999D02*
X128595001Y-30854999D01*
X128595001Y-30854999D02*
X125490000Y-33960000D01*
X125490000Y-33960000D02*
X125490000Y-37440000D01*
X125490000Y-37440000D02*
X122020000Y-40910000D01*
X122020000Y-40910000D02*
X116270000Y-40910000D01*
X116270000Y-40910000D02*
X115790000Y-41390000D01*
X145160000Y-23580000D02*
X145090000Y-23580000D01*
X145090000Y-23580000D02*
X144500000Y-22990000D01*
X144500000Y-22990000D02*
X143410000Y-22990000D01*
X143410000Y-22990000D02*
X141670000Y-24730000D01*
X141670000Y-29500000D02*
X141540000Y-29630000D01*
X141670000Y-24730000D02*
X141670000Y-29500000D01*
D20*
G36*
X108486332Y-18374368D02*
G01*
X108120272Y-18618961D01*
X107808963Y-18930270D01*
X107564370Y-19296330D01*
X107395891Y-19703074D01*
X107310001Y-20134871D01*
X107310001Y-20575127D01*
X107395891Y-21006924D01*
X107564370Y-21413668D01*
X107808963Y-21779728D01*
X108120272Y-22091037D01*
X108486332Y-22335630D01*
X108893076Y-22504109D01*
X109324873Y-22589999D01*
X109765129Y-22589999D01*
X110196926Y-22504109D01*
X110603670Y-22335630D01*
X110969730Y-22091037D01*
X111281039Y-21779728D01*
X111525632Y-21413668D01*
X111694111Y-21006924D01*
X111780001Y-20575127D01*
X111780001Y-20134871D01*
X111694111Y-19703074D01*
X111525632Y-19296330D01*
X111281039Y-18930270D01*
X110969730Y-18618961D01*
X110603670Y-18374368D01*
X110255135Y-18230000D01*
X117605198Y-18230000D01*
X109809003Y-26026196D01*
X109779999Y-26049999D01*
X109748763Y-26088061D01*
X109685026Y-26165724D01*
X109648089Y-26234828D01*
X109614454Y-26297754D01*
X109570997Y-26441015D01*
X109560000Y-26552668D01*
X109560000Y-26552678D01*
X109556324Y-26590000D01*
X109560000Y-26627322D01*
X109560001Y-40182668D01*
X109556324Y-40220000D01*
X109560001Y-40257333D01*
X109570998Y-40368986D01*
X109575174Y-40382752D01*
X109614454Y-40512246D01*
X109685026Y-40644276D01*
X109746354Y-40719003D01*
X109780000Y-40760001D01*
X109808998Y-40783799D01*
X115855000Y-46829802D01*
X115855000Y-46831939D01*
X115894774Y-47031898D01*
X115972795Y-47220256D01*
X116086063Y-47389774D01*
X116230226Y-47533937D01*
X116399744Y-47647205D01*
X116588102Y-47725226D01*
X116788061Y-47765000D01*
X116991939Y-47765000D01*
X117191898Y-47725226D01*
X117380256Y-47647205D01*
X117549774Y-47533937D01*
X117693937Y-47389774D01*
X117807205Y-47220256D01*
X117885226Y-47031898D01*
X117925000Y-46831939D01*
X117925000Y-46628061D01*
X117885226Y-46428102D01*
X117807205Y-46239744D01*
X117758877Y-46167415D01*
X117840482Y-46045284D01*
X118350000Y-46554802D01*
X118350001Y-49819099D01*
X118308900Y-49841068D01*
X118090393Y-50020392D01*
X117911068Y-50238899D01*
X117840000Y-50371858D01*
X117768932Y-50238899D01*
X117589608Y-50020392D01*
X117371101Y-49841068D01*
X117121808Y-49707818D01*
X116851309Y-49625764D01*
X116570000Y-49598057D01*
X116288692Y-49625764D01*
X116018193Y-49707818D01*
X115768900Y-49841068D01*
X115550393Y-50020392D01*
X115371068Y-50238899D01*
X115300000Y-50371858D01*
X115228932Y-50238899D01*
X115049608Y-50020392D01*
X114831101Y-49841068D01*
X114581808Y-49707818D01*
X114311309Y-49625764D01*
X114030000Y-49598057D01*
X113748692Y-49625764D01*
X113478193Y-49707818D01*
X113228900Y-49841068D01*
X113010393Y-50020392D01*
X112831068Y-50238899D01*
X112697818Y-50488192D01*
X112615764Y-50758691D01*
X112595000Y-50969508D01*
X112595000Y-51910491D01*
X112615764Y-52121308D01*
X112697818Y-52391807D01*
X112831068Y-52641100D01*
X113010392Y-52859607D01*
X113228899Y-53038932D01*
X113478192Y-53172182D01*
X113748691Y-53254236D01*
X114030000Y-53281943D01*
X114311308Y-53254236D01*
X114581807Y-53172182D01*
X114831100Y-53038932D01*
X115049607Y-52859608D01*
X115228932Y-52641101D01*
X115300000Y-52508142D01*
X115371068Y-52641100D01*
X115550392Y-52859607D01*
X115768899Y-53038932D01*
X116018192Y-53172182D01*
X116288691Y-53254236D01*
X116570000Y-53281943D01*
X116851308Y-53254236D01*
X117121807Y-53172182D01*
X117371100Y-53038932D01*
X117589607Y-52859608D01*
X117768932Y-52641101D01*
X117840000Y-52508142D01*
X117911068Y-52641100D01*
X118090392Y-52859607D01*
X118308899Y-53038932D01*
X118558192Y-53172182D01*
X118828691Y-53254236D01*
X119110000Y-53281943D01*
X119391308Y-53254236D01*
X119661807Y-53172182D01*
X119911100Y-53038932D01*
X120129607Y-52859608D01*
X120308932Y-52641101D01*
X120380000Y-52508142D01*
X120451068Y-52641100D01*
X120630392Y-52859607D01*
X120848899Y-53038932D01*
X121098192Y-53172182D01*
X121368691Y-53254236D01*
X121650000Y-53281943D01*
X121931308Y-53254236D01*
X122201807Y-53172182D01*
X122451100Y-53038932D01*
X122669607Y-52859608D01*
X122848932Y-52641101D01*
X122920000Y-52508142D01*
X122991068Y-52641100D01*
X123170392Y-52859607D01*
X123388899Y-53038932D01*
X123638192Y-53172182D01*
X123908691Y-53254236D01*
X124190000Y-53281943D01*
X124471308Y-53254236D01*
X124741807Y-53172182D01*
X124991100Y-53038932D01*
X125209607Y-52859608D01*
X125388932Y-52641101D01*
X125460000Y-52508142D01*
X125531068Y-52641100D01*
X125710392Y-52859607D01*
X125729725Y-52875473D01*
X125248998Y-53356201D01*
X125220000Y-53379999D01*
X125196202Y-53408997D01*
X125196201Y-53408998D01*
X125125026Y-53495724D01*
X125054454Y-53627754D01*
X125010998Y-53771015D01*
X124996324Y-53920000D01*
X125000001Y-53957333D01*
X125000000Y-67187192D01*
X124968126Y-67173989D01*
X124678600Y-67116399D01*
X124383402Y-67116399D01*
X124093876Y-67173989D01*
X123821148Y-67286957D01*
X123575699Y-67450960D01*
X123366962Y-67659697D01*
X123259309Y-67820812D01*
X123097855Y-67604706D01*
X122879489Y-67408182D01*
X122626979Y-67258035D01*
X122350028Y-67160036D01*
X122118001Y-67280535D01*
X122118001Y-68487999D01*
X122138001Y-68487999D01*
X122138001Y-68741999D01*
X122118001Y-68741999D01*
X122118001Y-69949463D01*
X122350028Y-70069962D01*
X122626979Y-69971963D01*
X122879489Y-69821816D01*
X123097855Y-69625292D01*
X123259309Y-69409186D01*
X123366962Y-69570301D01*
X123575699Y-69779038D01*
X123821148Y-69943041D01*
X124093876Y-70056009D01*
X124383402Y-70113599D01*
X124678600Y-70113599D01*
X124968126Y-70056009D01*
X125237554Y-69944408D01*
X125249003Y-69953804D01*
X125964601Y-70669403D01*
X111706128Y-70665028D01*
X111873670Y-70595630D01*
X112239730Y-70351037D01*
X112551039Y-70039728D01*
X112795632Y-69673668D01*
X112964111Y-69266924D01*
X112981907Y-69177459D01*
X113042959Y-69324852D01*
X113206962Y-69570301D01*
X113415699Y-69779038D01*
X113661148Y-69943041D01*
X113933876Y-70056009D01*
X114223402Y-70113599D01*
X114518600Y-70113599D01*
X114808126Y-70056009D01*
X115080854Y-69943041D01*
X115326303Y-69779038D01*
X115535040Y-69570301D01*
X115641001Y-69411718D01*
X115746962Y-69570301D01*
X115955699Y-69779038D01*
X116201148Y-69943041D01*
X116473876Y-70056009D01*
X116763402Y-70113599D01*
X117058600Y-70113599D01*
X117348126Y-70056009D01*
X117620854Y-69943041D01*
X117866303Y-69779038D01*
X118075040Y-69570301D01*
X118181001Y-69411718D01*
X118286962Y-69570301D01*
X118495699Y-69779038D01*
X118741148Y-69943041D01*
X119013876Y-70056009D01*
X119303402Y-70113599D01*
X119598600Y-70113599D01*
X119888126Y-70056009D01*
X120160854Y-69943041D01*
X120406303Y-69779038D01*
X120615040Y-69570301D01*
X120722693Y-69409186D01*
X120884147Y-69625292D01*
X121102513Y-69821816D01*
X121355023Y-69971963D01*
X121631974Y-70069962D01*
X121864001Y-69949463D01*
X121864001Y-68741999D01*
X121844001Y-68741999D01*
X121844001Y-68487999D01*
X121864001Y-68487999D01*
X121864001Y-67280535D01*
X121631974Y-67160036D01*
X121355023Y-67258035D01*
X121102513Y-67408182D01*
X120884147Y-67604706D01*
X120722693Y-67820812D01*
X120615040Y-67659697D01*
X120406303Y-67450960D01*
X120160854Y-67286957D01*
X119888126Y-67173989D01*
X119598600Y-67116399D01*
X119303402Y-67116399D01*
X119013876Y-67173989D01*
X118741148Y-67286957D01*
X118495699Y-67450960D01*
X118286962Y-67659697D01*
X118181001Y-67818280D01*
X118075040Y-67659697D01*
X117866303Y-67450960D01*
X117620854Y-67286957D01*
X117348126Y-67173989D01*
X117058600Y-67116399D01*
X116763402Y-67116399D01*
X116473876Y-67173989D01*
X116201148Y-67286957D01*
X115955699Y-67450960D01*
X115746962Y-67659697D01*
X115641001Y-67818280D01*
X115535040Y-67659697D01*
X115326303Y-67450960D01*
X115080854Y-67286957D01*
X114808126Y-67173989D01*
X114518600Y-67116399D01*
X114223402Y-67116399D01*
X113933876Y-67173989D01*
X113661148Y-67286957D01*
X113415699Y-67450960D01*
X113206962Y-67659697D01*
X113042959Y-67905146D01*
X112981907Y-68052539D01*
X112964111Y-67963074D01*
X112795632Y-67556330D01*
X112551039Y-67190270D01*
X112239730Y-66878961D01*
X111873670Y-66634368D01*
X111466926Y-66465889D01*
X111035129Y-66379999D01*
X110594873Y-66379999D01*
X110163076Y-66465889D01*
X109756332Y-66634368D01*
X109390272Y-66878961D01*
X109078963Y-67190270D01*
X108834370Y-67556330D01*
X108665891Y-67963074D01*
X108580001Y-68394871D01*
X108580001Y-68835127D01*
X108665891Y-69266924D01*
X108834370Y-69673668D01*
X109078963Y-70039728D01*
X109390272Y-70351037D01*
X109756332Y-70595630D01*
X109922553Y-70664481D01*
X95980000Y-70660203D01*
X95980000Y-62258967D01*
X109655000Y-62258967D01*
X109655000Y-62581033D01*
X109717832Y-62896912D01*
X109841082Y-63194463D01*
X110020013Y-63462252D01*
X110247748Y-63689987D01*
X110515537Y-63868918D01*
X110813088Y-63992168D01*
X111128967Y-64055000D01*
X111451033Y-64055000D01*
X111766912Y-63992168D01*
X112064463Y-63868918D01*
X112332252Y-63689987D01*
X112559987Y-63462252D01*
X112685105Y-63275000D01*
X116394895Y-63275000D01*
X116520013Y-63462252D01*
X116747748Y-63689987D01*
X117015537Y-63868918D01*
X117313088Y-63992168D01*
X117628967Y-64055000D01*
X117951033Y-64055000D01*
X118266912Y-63992168D01*
X118564463Y-63868918D01*
X118832252Y-63689987D01*
X119059987Y-63462252D01*
X119238918Y-63194463D01*
X119362168Y-62896912D01*
X119425000Y-62581033D01*
X119425000Y-62258967D01*
X119362168Y-61943088D01*
X119238918Y-61645537D01*
X119059987Y-61377748D01*
X118832252Y-61150013D01*
X118564463Y-60971082D01*
X118266912Y-60847832D01*
X117951033Y-60785000D01*
X117628967Y-60785000D01*
X117313088Y-60847832D01*
X117015537Y-60971082D01*
X116747748Y-61150013D01*
X116520013Y-61377748D01*
X116368168Y-61605000D01*
X112711832Y-61605000D01*
X112559987Y-61377748D01*
X112332252Y-61150013D01*
X112064463Y-60971082D01*
X111766912Y-60847832D01*
X111451033Y-60785000D01*
X111128967Y-60785000D01*
X110813088Y-60847832D01*
X110515537Y-60971082D01*
X110247748Y-61150013D01*
X110020013Y-61377748D01*
X109841082Y-61645537D01*
X109717832Y-61943088D01*
X109655000Y-62258967D01*
X95980000Y-62258967D01*
X95980000Y-59055413D01*
X110334192Y-59055413D01*
X110429956Y-59319814D01*
X110719571Y-59460704D01*
X111031108Y-59542384D01*
X111352595Y-59561718D01*
X111671675Y-59517961D01*
X111976088Y-59412795D01*
X112150044Y-59319814D01*
X112245808Y-59055413D01*
X116834192Y-59055413D01*
X116929956Y-59319814D01*
X117219571Y-59460704D01*
X117531108Y-59542384D01*
X117852595Y-59561718D01*
X118171675Y-59517961D01*
X118476088Y-59412795D01*
X118650044Y-59319814D01*
X118745808Y-59055413D01*
X117790000Y-58099605D01*
X116834192Y-59055413D01*
X112245808Y-59055413D01*
X111290000Y-58099605D01*
X110334192Y-59055413D01*
X95980000Y-59055413D01*
X95980000Y-57982595D01*
X109648282Y-57982595D01*
X109692039Y-58301675D01*
X109797205Y-58606088D01*
X109890186Y-58780044D01*
X110154587Y-58875808D01*
X111110395Y-57920000D01*
X111469605Y-57920000D01*
X112425413Y-58875808D01*
X112689814Y-58780044D01*
X112830704Y-58490429D01*
X112912384Y-58178892D01*
X112924189Y-57982595D01*
X116148282Y-57982595D01*
X116192039Y-58301675D01*
X116297205Y-58606088D01*
X116390186Y-58780044D01*
X116654587Y-58875808D01*
X117610395Y-57920000D01*
X117969605Y-57920000D01*
X118925413Y-58875808D01*
X119189814Y-58780044D01*
X119330704Y-58490429D01*
X119412384Y-58178892D01*
X119431718Y-57857405D01*
X119387961Y-57538325D01*
X119282795Y-57233912D01*
X119189814Y-57059956D01*
X118925413Y-56964192D01*
X117969605Y-57920000D01*
X117610395Y-57920000D01*
X116654587Y-56964192D01*
X116390186Y-57059956D01*
X116249296Y-57349571D01*
X116167616Y-57661108D01*
X116148282Y-57982595D01*
X112924189Y-57982595D01*
X112931718Y-57857405D01*
X112887961Y-57538325D01*
X112782795Y-57233912D01*
X112689814Y-57059956D01*
X112425413Y-56964192D01*
X111469605Y-57920000D01*
X111110395Y-57920000D01*
X110154587Y-56964192D01*
X109890186Y-57059956D01*
X109749296Y-57349571D01*
X109667616Y-57661108D01*
X109648282Y-57982595D01*
X95980000Y-57982595D01*
X95980000Y-56784587D01*
X110334192Y-56784587D01*
X111290000Y-57740395D01*
X112245808Y-56784587D01*
X116834192Y-56784587D01*
X117790000Y-57740395D01*
X118745808Y-56784587D01*
X118650044Y-56520186D01*
X118360429Y-56379296D01*
X118048892Y-56297616D01*
X117727405Y-56278282D01*
X117408325Y-56322039D01*
X117103912Y-56427205D01*
X116929956Y-56520186D01*
X116834192Y-56784587D01*
X112245808Y-56784587D01*
X112150044Y-56520186D01*
X111860429Y-56379296D01*
X111548892Y-56297616D01*
X111227405Y-56278282D01*
X110908325Y-56322039D01*
X110603912Y-56427205D01*
X110429956Y-56520186D01*
X110334192Y-56784587D01*
X95980000Y-56784587D01*
X95980000Y-18230000D01*
X108834867Y-18230000D01*
X108486332Y-18374368D01*
G37*
X108486332Y-18374368D02*
X108120272Y-18618961D01*
X107808963Y-18930270D01*
X107564370Y-19296330D01*
X107395891Y-19703074D01*
X107310001Y-20134871D01*
X107310001Y-20575127D01*
X107395891Y-21006924D01*
X107564370Y-21413668D01*
X107808963Y-21779728D01*
X108120272Y-22091037D01*
X108486332Y-22335630D01*
X108893076Y-22504109D01*
X109324873Y-22589999D01*
X109765129Y-22589999D01*
X110196926Y-22504109D01*
X110603670Y-22335630D01*
X110969730Y-22091037D01*
X111281039Y-21779728D01*
X111525632Y-21413668D01*
X111694111Y-21006924D01*
X111780001Y-20575127D01*
X111780001Y-20134871D01*
X111694111Y-19703074D01*
X111525632Y-19296330D01*
X111281039Y-18930270D01*
X110969730Y-18618961D01*
X110603670Y-18374368D01*
X110255135Y-18230000D01*
X117605198Y-18230000D01*
X109809003Y-26026196D01*
X109779999Y-26049999D01*
X109748763Y-26088061D01*
X109685026Y-26165724D01*
X109648089Y-26234828D01*
X109614454Y-26297754D01*
X109570997Y-26441015D01*
X109560000Y-26552668D01*
X109560000Y-26552678D01*
X109556324Y-26590000D01*
X109560000Y-26627322D01*
X109560001Y-40182668D01*
X109556324Y-40220000D01*
X109560001Y-40257333D01*
X109570998Y-40368986D01*
X109575174Y-40382752D01*
X109614454Y-40512246D01*
X109685026Y-40644276D01*
X109746354Y-40719003D01*
X109780000Y-40760001D01*
X109808998Y-40783799D01*
X115855000Y-46829802D01*
X115855000Y-46831939D01*
X115894774Y-47031898D01*
X115972795Y-47220256D01*
X116086063Y-47389774D01*
X116230226Y-47533937D01*
X116399744Y-47647205D01*
X116588102Y-47725226D01*
X116788061Y-47765000D01*
X116991939Y-47765000D01*
X117191898Y-47725226D01*
X117380256Y-47647205D01*
X117549774Y-47533937D01*
X117693937Y-47389774D01*
X117807205Y-47220256D01*
X117885226Y-47031898D01*
X117925000Y-46831939D01*
X117925000Y-46628061D01*
X117885226Y-46428102D01*
X117807205Y-46239744D01*
X117758877Y-46167415D01*
X117840482Y-46045284D01*
X118350000Y-46554802D01*
X118350001Y-49819099D01*
X118308900Y-49841068D01*
X118090393Y-50020392D01*
X117911068Y-50238899D01*
X117840000Y-50371858D01*
X117768932Y-50238899D01*
X117589608Y-50020392D01*
X117371101Y-49841068D01*
X117121808Y-49707818D01*
X116851309Y-49625764D01*
X116570000Y-49598057D01*
X116288692Y-49625764D01*
X116018193Y-49707818D01*
X115768900Y-49841068D01*
X115550393Y-50020392D01*
X115371068Y-50238899D01*
X115300000Y-50371858D01*
X115228932Y-50238899D01*
X115049608Y-50020392D01*
X114831101Y-49841068D01*
X114581808Y-49707818D01*
X114311309Y-49625764D01*
X114030000Y-49598057D01*
X113748692Y-49625764D01*
X113478193Y-49707818D01*
X113228900Y-49841068D01*
X113010393Y-50020392D01*
X112831068Y-50238899D01*
X112697818Y-50488192D01*
X112615764Y-50758691D01*
X112595000Y-50969508D01*
X112595000Y-51910491D01*
X112615764Y-52121308D01*
X112697818Y-52391807D01*
X112831068Y-52641100D01*
X113010392Y-52859607D01*
X113228899Y-53038932D01*
X113478192Y-53172182D01*
X113748691Y-53254236D01*
X114030000Y-53281943D01*
X114311308Y-53254236D01*
X114581807Y-53172182D01*
X114831100Y-53038932D01*
X115049607Y-52859608D01*
X115228932Y-52641101D01*
X115300000Y-52508142D01*
X115371068Y-52641100D01*
X115550392Y-52859607D01*
X115768899Y-53038932D01*
X116018192Y-53172182D01*
X116288691Y-53254236D01*
X116570000Y-53281943D01*
X116851308Y-53254236D01*
X117121807Y-53172182D01*
X117371100Y-53038932D01*
X117589607Y-52859608D01*
X117768932Y-52641101D01*
X117840000Y-52508142D01*
X117911068Y-52641100D01*
X118090392Y-52859607D01*
X118308899Y-53038932D01*
X118558192Y-53172182D01*
X118828691Y-53254236D01*
X119110000Y-53281943D01*
X119391308Y-53254236D01*
X119661807Y-53172182D01*
X119911100Y-53038932D01*
X120129607Y-52859608D01*
X120308932Y-52641101D01*
X120380000Y-52508142D01*
X120451068Y-52641100D01*
X120630392Y-52859607D01*
X120848899Y-53038932D01*
X121098192Y-53172182D01*
X121368691Y-53254236D01*
X121650000Y-53281943D01*
X121931308Y-53254236D01*
X122201807Y-53172182D01*
X122451100Y-53038932D01*
X122669607Y-52859608D01*
X122848932Y-52641101D01*
X122920000Y-52508142D01*
X122991068Y-52641100D01*
X123170392Y-52859607D01*
X123388899Y-53038932D01*
X123638192Y-53172182D01*
X123908691Y-53254236D01*
X124190000Y-53281943D01*
X124471308Y-53254236D01*
X124741807Y-53172182D01*
X124991100Y-53038932D01*
X125209607Y-52859608D01*
X125388932Y-52641101D01*
X125460000Y-52508142D01*
X125531068Y-52641100D01*
X125710392Y-52859607D01*
X125729725Y-52875473D01*
X125248998Y-53356201D01*
X125220000Y-53379999D01*
X125196202Y-53408997D01*
X125196201Y-53408998D01*
X125125026Y-53495724D01*
X125054454Y-53627754D01*
X125010998Y-53771015D01*
X124996324Y-53920000D01*
X125000001Y-53957333D01*
X125000000Y-67187192D01*
X124968126Y-67173989D01*
X124678600Y-67116399D01*
X124383402Y-67116399D01*
X124093876Y-67173989D01*
X123821148Y-67286957D01*
X123575699Y-67450960D01*
X123366962Y-67659697D01*
X123259309Y-67820812D01*
X123097855Y-67604706D01*
X122879489Y-67408182D01*
X122626979Y-67258035D01*
X122350028Y-67160036D01*
X122118001Y-67280535D01*
X122118001Y-68487999D01*
X122138001Y-68487999D01*
X122138001Y-68741999D01*
X122118001Y-68741999D01*
X122118001Y-69949463D01*
X122350028Y-70069962D01*
X122626979Y-69971963D01*
X122879489Y-69821816D01*
X123097855Y-69625292D01*
X123259309Y-69409186D01*
X123366962Y-69570301D01*
X123575699Y-69779038D01*
X123821148Y-69943041D01*
X124093876Y-70056009D01*
X124383402Y-70113599D01*
X124678600Y-70113599D01*
X124968126Y-70056009D01*
X125237554Y-69944408D01*
X125249003Y-69953804D01*
X125964601Y-70669403D01*
X111706128Y-70665028D01*
X111873670Y-70595630D01*
X112239730Y-70351037D01*
X112551039Y-70039728D01*
X112795632Y-69673668D01*
X112964111Y-69266924D01*
X112981907Y-69177459D01*
X113042959Y-69324852D01*
X113206962Y-69570301D01*
X113415699Y-69779038D01*
X113661148Y-69943041D01*
X113933876Y-70056009D01*
X114223402Y-70113599D01*
X114518600Y-70113599D01*
X114808126Y-70056009D01*
X115080854Y-69943041D01*
X115326303Y-69779038D01*
X115535040Y-69570301D01*
X115641001Y-69411718D01*
X115746962Y-69570301D01*
X115955699Y-69779038D01*
X116201148Y-69943041D01*
X116473876Y-70056009D01*
X116763402Y-70113599D01*
X117058600Y-70113599D01*
X117348126Y-70056009D01*
X117620854Y-69943041D01*
X117866303Y-69779038D01*
X118075040Y-69570301D01*
X118181001Y-69411718D01*
X118286962Y-69570301D01*
X118495699Y-69779038D01*
X118741148Y-69943041D01*
X119013876Y-70056009D01*
X119303402Y-70113599D01*
X119598600Y-70113599D01*
X119888126Y-70056009D01*
X120160854Y-69943041D01*
X120406303Y-69779038D01*
X120615040Y-69570301D01*
X120722693Y-69409186D01*
X120884147Y-69625292D01*
X121102513Y-69821816D01*
X121355023Y-69971963D01*
X121631974Y-70069962D01*
X121864001Y-69949463D01*
X121864001Y-68741999D01*
X121844001Y-68741999D01*
X121844001Y-68487999D01*
X121864001Y-68487999D01*
X121864001Y-67280535D01*
X121631974Y-67160036D01*
X121355023Y-67258035D01*
X121102513Y-67408182D01*
X120884147Y-67604706D01*
X120722693Y-67820812D01*
X120615040Y-67659697D01*
X120406303Y-67450960D01*
X120160854Y-67286957D01*
X119888126Y-67173989D01*
X119598600Y-67116399D01*
X119303402Y-67116399D01*
X119013876Y-67173989D01*
X118741148Y-67286957D01*
X118495699Y-67450960D01*
X118286962Y-67659697D01*
X118181001Y-67818280D01*
X118075040Y-67659697D01*
X117866303Y-67450960D01*
X117620854Y-67286957D01*
X117348126Y-67173989D01*
X117058600Y-67116399D01*
X116763402Y-67116399D01*
X116473876Y-67173989D01*
X116201148Y-67286957D01*
X115955699Y-67450960D01*
X115746962Y-67659697D01*
X115641001Y-67818280D01*
X115535040Y-67659697D01*
X115326303Y-67450960D01*
X115080854Y-67286957D01*
X114808126Y-67173989D01*
X114518600Y-67116399D01*
X114223402Y-67116399D01*
X113933876Y-67173989D01*
X113661148Y-67286957D01*
X113415699Y-67450960D01*
X113206962Y-67659697D01*
X113042959Y-67905146D01*
X112981907Y-68052539D01*
X112964111Y-67963074D01*
X112795632Y-67556330D01*
X112551039Y-67190270D01*
X112239730Y-66878961D01*
X111873670Y-66634368D01*
X111466926Y-66465889D01*
X111035129Y-66379999D01*
X110594873Y-66379999D01*
X110163076Y-66465889D01*
X109756332Y-66634368D01*
X109390272Y-66878961D01*
X109078963Y-67190270D01*
X108834370Y-67556330D01*
X108665891Y-67963074D01*
X108580001Y-68394871D01*
X108580001Y-68835127D01*
X108665891Y-69266924D01*
X108834370Y-69673668D01*
X109078963Y-70039728D01*
X109390272Y-70351037D01*
X109756332Y-70595630D01*
X109922553Y-70664481D01*
X95980000Y-70660203D01*
X95980000Y-62258967D01*
X109655000Y-62258967D01*
X109655000Y-62581033D01*
X109717832Y-62896912D01*
X109841082Y-63194463D01*
X110020013Y-63462252D01*
X110247748Y-63689987D01*
X110515537Y-63868918D01*
X110813088Y-63992168D01*
X111128967Y-64055000D01*
X111451033Y-64055000D01*
X111766912Y-63992168D01*
X112064463Y-63868918D01*
X112332252Y-63689987D01*
X112559987Y-63462252D01*
X112685105Y-63275000D01*
X116394895Y-63275000D01*
X116520013Y-63462252D01*
X116747748Y-63689987D01*
X117015537Y-63868918D01*
X117313088Y-63992168D01*
X117628967Y-64055000D01*
X117951033Y-64055000D01*
X118266912Y-63992168D01*
X118564463Y-63868918D01*
X118832252Y-63689987D01*
X119059987Y-63462252D01*
X119238918Y-63194463D01*
X119362168Y-62896912D01*
X119425000Y-62581033D01*
X119425000Y-62258967D01*
X119362168Y-61943088D01*
X119238918Y-61645537D01*
X119059987Y-61377748D01*
X118832252Y-61150013D01*
X118564463Y-60971082D01*
X118266912Y-60847832D01*
X117951033Y-60785000D01*
X117628967Y-60785000D01*
X117313088Y-60847832D01*
X117015537Y-60971082D01*
X116747748Y-61150013D01*
X116520013Y-61377748D01*
X116368168Y-61605000D01*
X112711832Y-61605000D01*
X112559987Y-61377748D01*
X112332252Y-61150013D01*
X112064463Y-60971082D01*
X111766912Y-60847832D01*
X111451033Y-60785000D01*
X111128967Y-60785000D01*
X110813088Y-60847832D01*
X110515537Y-60971082D01*
X110247748Y-61150013D01*
X110020013Y-61377748D01*
X109841082Y-61645537D01*
X109717832Y-61943088D01*
X109655000Y-62258967D01*
X95980000Y-62258967D01*
X95980000Y-59055413D01*
X110334192Y-59055413D01*
X110429956Y-59319814D01*
X110719571Y-59460704D01*
X111031108Y-59542384D01*
X111352595Y-59561718D01*
X111671675Y-59517961D01*
X111976088Y-59412795D01*
X112150044Y-59319814D01*
X112245808Y-59055413D01*
X116834192Y-59055413D01*
X116929956Y-59319814D01*
X117219571Y-59460704D01*
X117531108Y-59542384D01*
X117852595Y-59561718D01*
X118171675Y-59517961D01*
X118476088Y-59412795D01*
X118650044Y-59319814D01*
X118745808Y-59055413D01*
X117790000Y-58099605D01*
X116834192Y-59055413D01*
X112245808Y-59055413D01*
X111290000Y-58099605D01*
X110334192Y-59055413D01*
X95980000Y-59055413D01*
X95980000Y-57982595D01*
X109648282Y-57982595D01*
X109692039Y-58301675D01*
X109797205Y-58606088D01*
X109890186Y-58780044D01*
X110154587Y-58875808D01*
X111110395Y-57920000D01*
X111469605Y-57920000D01*
X112425413Y-58875808D01*
X112689814Y-58780044D01*
X112830704Y-58490429D01*
X112912384Y-58178892D01*
X112924189Y-57982595D01*
X116148282Y-57982595D01*
X116192039Y-58301675D01*
X116297205Y-58606088D01*
X116390186Y-58780044D01*
X116654587Y-58875808D01*
X117610395Y-57920000D01*
X117969605Y-57920000D01*
X118925413Y-58875808D01*
X119189814Y-58780044D01*
X119330704Y-58490429D01*
X119412384Y-58178892D01*
X119431718Y-57857405D01*
X119387961Y-57538325D01*
X119282795Y-57233912D01*
X119189814Y-57059956D01*
X118925413Y-56964192D01*
X117969605Y-57920000D01*
X117610395Y-57920000D01*
X116654587Y-56964192D01*
X116390186Y-57059956D01*
X116249296Y-57349571D01*
X116167616Y-57661108D01*
X116148282Y-57982595D01*
X112924189Y-57982595D01*
X112931718Y-57857405D01*
X112887961Y-57538325D01*
X112782795Y-57233912D01*
X112689814Y-57059956D01*
X112425413Y-56964192D01*
X111469605Y-57920000D01*
X111110395Y-57920000D01*
X110154587Y-56964192D01*
X109890186Y-57059956D01*
X109749296Y-57349571D01*
X109667616Y-57661108D01*
X109648282Y-57982595D01*
X95980000Y-57982595D01*
X95980000Y-56784587D01*
X110334192Y-56784587D01*
X111290000Y-57740395D01*
X112245808Y-56784587D01*
X116834192Y-56784587D01*
X117790000Y-57740395D01*
X118745808Y-56784587D01*
X118650044Y-56520186D01*
X118360429Y-56379296D01*
X118048892Y-56297616D01*
X117727405Y-56278282D01*
X117408325Y-56322039D01*
X117103912Y-56427205D01*
X116929956Y-56520186D01*
X116834192Y-56784587D01*
X112245808Y-56784587D01*
X112150044Y-56520186D01*
X111860429Y-56379296D01*
X111548892Y-56297616D01*
X111227405Y-56278282D01*
X110908325Y-56322039D01*
X110603912Y-56427205D01*
X110429956Y-56520186D01*
X110334192Y-56784587D01*
X95980000Y-56784587D01*
X95980000Y-18230000D01*
X108834867Y-18230000D01*
X108486332Y-18374368D01*
G36*
X191036332Y-18374368D02*
G01*
X190670272Y-18618961D01*
X190358963Y-18930270D01*
X190114370Y-19296330D01*
X189945891Y-19703074D01*
X189860001Y-20134871D01*
X189860001Y-20575127D01*
X189945891Y-21006924D01*
X190114370Y-21413668D01*
X190358963Y-21779728D01*
X190670272Y-22091037D01*
X191036332Y-22335630D01*
X191443076Y-22504109D01*
X191874873Y-22589999D01*
X192315129Y-22589999D01*
X192746926Y-22504109D01*
X193153670Y-22335630D01*
X193519730Y-22091037D01*
X193831039Y-21779728D01*
X194075632Y-21413668D01*
X194244111Y-21006924D01*
X194330001Y-20575127D01*
X194330001Y-20134871D01*
X194244111Y-19703074D01*
X194075632Y-19296330D01*
X193831039Y-18930270D01*
X193519730Y-18618961D01*
X193153670Y-18374368D01*
X192805135Y-18230000D01*
X194230593Y-18230000D01*
X194210753Y-18914457D01*
X194206932Y-18962850D01*
X194212684Y-19011550D01*
X194216075Y-19060482D01*
X194220295Y-19075997D01*
X194222180Y-19091961D01*
X194237320Y-19138598D01*
X194250194Y-19185934D01*
X194257361Y-19200330D01*
X194262323Y-19215616D01*
X194286273Y-19258409D01*
X194308132Y-19302318D01*
X194317965Y-19315034D01*
X194325818Y-19329065D01*
X194357662Y-19366368D01*
X194387662Y-19405164D01*
X194424285Y-19437040D01*
X196840000Y-21760903D01*
X196840001Y-55863771D01*
X194404672Y-58143461D01*
X194371052Y-58171052D01*
X194336716Y-58212891D01*
X194301031Y-58253559D01*
X194295540Y-58263065D01*
X194288575Y-58271551D01*
X194263062Y-58319283D01*
X194235997Y-58366132D01*
X194232466Y-58376524D01*
X194227290Y-58386208D01*
X194211579Y-58438000D01*
X194194173Y-58489229D01*
X194192737Y-58500111D01*
X194189550Y-58510618D01*
X194184244Y-58564493D01*
X194177169Y-58618121D01*
X194180000Y-58661498D01*
X194180001Y-69486561D01*
X194090000Y-69567769D01*
X194090000Y-41097325D01*
X194093676Y-41060000D01*
X194090000Y-41022675D01*
X194090000Y-41022667D01*
X194079003Y-40911014D01*
X194035546Y-40767753D01*
X193964974Y-40635724D01*
X193870001Y-40519999D01*
X193840998Y-40496197D01*
X193508803Y-40164002D01*
X193501957Y-40155660D01*
X193423043Y-39965146D01*
X193259040Y-39719697D01*
X193050303Y-39510960D01*
X192891720Y-39404999D01*
X193050303Y-39299038D01*
X193259040Y-39090301D01*
X193423043Y-38844852D01*
X193536011Y-38572124D01*
X193593601Y-38282598D01*
X193593601Y-37987400D01*
X193536011Y-37697874D01*
X193423043Y-37425146D01*
X193259040Y-37179697D01*
X193050303Y-36970960D01*
X192891720Y-36864999D01*
X193050303Y-36759038D01*
X193259040Y-36550301D01*
X193423043Y-36304852D01*
X193536011Y-36032124D01*
X193593601Y-35742598D01*
X193593601Y-35447400D01*
X193536011Y-35157874D01*
X193423043Y-34885146D01*
X193259040Y-34639697D01*
X193050303Y-34430960D01*
X192891720Y-34324999D01*
X193050303Y-34219038D01*
X193259040Y-34010301D01*
X193423043Y-33764852D01*
X193536011Y-33492124D01*
X193593601Y-33202598D01*
X193593601Y-32907400D01*
X193536011Y-32617874D01*
X193423043Y-32345146D01*
X193259040Y-32099697D01*
X193050303Y-31890960D01*
X192891720Y-31784999D01*
X193050303Y-31679038D01*
X193259040Y-31470301D01*
X193423043Y-31224852D01*
X193536011Y-30952124D01*
X193593601Y-30662598D01*
X193593601Y-30367400D01*
X193536011Y-30077874D01*
X193423043Y-29805146D01*
X193259040Y-29559697D01*
X193050303Y-29350960D01*
X192891720Y-29244999D01*
X193050303Y-29139038D01*
X193259040Y-28930301D01*
X193423043Y-28684852D01*
X193536011Y-28412124D01*
X193593601Y-28122598D01*
X193593601Y-27827400D01*
X193536011Y-27537874D01*
X193423043Y-27265146D01*
X193259040Y-27019697D01*
X193050303Y-26810960D01*
X192884898Y-26700440D01*
X192983489Y-26641816D01*
X193201855Y-26445292D01*
X193377685Y-26209943D01*
X193504223Y-25944813D01*
X193549959Y-25794025D01*
X193428818Y-25561999D01*
X192222001Y-25561999D01*
X192222001Y-25581999D01*
X191968001Y-25581999D01*
X191968001Y-25561999D01*
X189682001Y-25561999D01*
X189682001Y-25581999D01*
X189428001Y-25581999D01*
X189428001Y-25561999D01*
X188221184Y-25561999D01*
X188100043Y-25794025D01*
X188145779Y-25944813D01*
X188272317Y-26209943D01*
X188448147Y-26445292D01*
X188666513Y-26641816D01*
X188765104Y-26700440D01*
X188599699Y-26810960D01*
X188390962Y-27019697D01*
X188226959Y-27265146D01*
X188113991Y-27537874D01*
X188056401Y-27827400D01*
X188056401Y-28122598D01*
X188113991Y-28412124D01*
X188226959Y-28684852D01*
X188390962Y-28930301D01*
X188599699Y-29139038D01*
X188758282Y-29244999D01*
X188599699Y-29350960D01*
X188390962Y-29559697D01*
X188226959Y-29805146D01*
X188113991Y-30077874D01*
X188056401Y-30367400D01*
X188056401Y-30662598D01*
X188113991Y-30952124D01*
X188226959Y-31224852D01*
X188390962Y-31470301D01*
X188599699Y-31679038D01*
X188758282Y-31784999D01*
X188599699Y-31890960D01*
X188390962Y-32099697D01*
X188226959Y-32345146D01*
X188113991Y-32617874D01*
X188056401Y-32907400D01*
X188056401Y-33202598D01*
X188113991Y-33492124D01*
X188226959Y-33764852D01*
X188390962Y-34010301D01*
X188599699Y-34219038D01*
X188758282Y-34324999D01*
X188599699Y-34430960D01*
X188390962Y-34639697D01*
X188226959Y-34885146D01*
X188113991Y-35157874D01*
X188056401Y-35447400D01*
X188056401Y-35742598D01*
X188113991Y-36032124D01*
X188226959Y-36304852D01*
X188390962Y-36550301D01*
X188599699Y-36759038D01*
X188758282Y-36864999D01*
X188599699Y-36970960D01*
X188390962Y-37179697D01*
X188226959Y-37425146D01*
X188113991Y-37697874D01*
X188056401Y-37987400D01*
X188056401Y-38282598D01*
X188113991Y-38572124D01*
X188226959Y-38844852D01*
X188390962Y-39090301D01*
X188599699Y-39299038D01*
X188758282Y-39404999D01*
X188599699Y-39510960D01*
X188390962Y-39719697D01*
X188226959Y-39965146D01*
X188113991Y-40237874D01*
X188056401Y-40527400D01*
X188056401Y-40822598D01*
X188113991Y-41112124D01*
X188226959Y-41384852D01*
X188390962Y-41630301D01*
X188599699Y-41839038D01*
X188758282Y-41944999D01*
X188599699Y-42050960D01*
X188390962Y-42259697D01*
X188226959Y-42505146D01*
X188113991Y-42777874D01*
X188056401Y-43067400D01*
X188056401Y-43362598D01*
X188113991Y-43652124D01*
X188226959Y-43924852D01*
X188390962Y-44170301D01*
X188599699Y-44379038D01*
X188758282Y-44484999D01*
X188599699Y-44590960D01*
X188390962Y-44799697D01*
X188226959Y-45045146D01*
X188113991Y-45317874D01*
X188056401Y-45607400D01*
X188056401Y-45902598D01*
X188113991Y-46192124D01*
X188226959Y-46464852D01*
X188390962Y-46710301D01*
X188599699Y-46919038D01*
X188758282Y-47024999D01*
X188599699Y-47130960D01*
X188390962Y-47339697D01*
X188226959Y-47585146D01*
X188113991Y-47857874D01*
X188056401Y-48147400D01*
X188056401Y-48442598D01*
X188113991Y-48732124D01*
X188226959Y-49004852D01*
X188390962Y-49250301D01*
X188599699Y-49459038D01*
X188758282Y-49564999D01*
X188599699Y-49670960D01*
X188390962Y-49879697D01*
X188226959Y-50125146D01*
X188113991Y-50397874D01*
X188056401Y-50687400D01*
X188056401Y-50982598D01*
X188113991Y-51272124D01*
X188226959Y-51544852D01*
X188390962Y-51790301D01*
X188599699Y-51999038D01*
X188758282Y-52104999D01*
X188599699Y-52210960D01*
X188390962Y-52419697D01*
X188226959Y-52665146D01*
X188113991Y-52937874D01*
X188056401Y-53227400D01*
X188056401Y-53522598D01*
X188113991Y-53812124D01*
X188226959Y-54084852D01*
X188390962Y-54330301D01*
X188599699Y-54539038D01*
X188758282Y-54644999D01*
X188599699Y-54750960D01*
X188390962Y-54959697D01*
X188226959Y-55205146D01*
X188113991Y-55477874D01*
X188056401Y-55767400D01*
X188056401Y-56062598D01*
X188113991Y-56352124D01*
X188226959Y-56624852D01*
X188390962Y-56870301D01*
X188599699Y-57079038D01*
X188758282Y-57184999D01*
X188599699Y-57290960D01*
X188390962Y-57499697D01*
X188226959Y-57745146D01*
X188113991Y-58017874D01*
X188056401Y-58307400D01*
X188056401Y-58602598D01*
X188113991Y-58892124D01*
X188226959Y-59164852D01*
X188390962Y-59410301D01*
X188599699Y-59619038D01*
X188758282Y-59724999D01*
X188599699Y-59830960D01*
X188390962Y-60039697D01*
X188226959Y-60285146D01*
X188113991Y-60557874D01*
X188056401Y-60847400D01*
X188056401Y-61142598D01*
X188113991Y-61432124D01*
X188226959Y-61704852D01*
X188390962Y-61950301D01*
X188599699Y-62159038D01*
X188758282Y-62264999D01*
X188599699Y-62370960D01*
X188390962Y-62579697D01*
X188226959Y-62825146D01*
X188113991Y-63097874D01*
X188056401Y-63387400D01*
X188056401Y-63682598D01*
X188113991Y-63972124D01*
X188226959Y-64244852D01*
X188390962Y-64490301D01*
X188599699Y-64699038D01*
X188758282Y-64804999D01*
X188599699Y-64910960D01*
X188390962Y-65119697D01*
X188226959Y-65365146D01*
X188113991Y-65637874D01*
X188056401Y-65927400D01*
X188056401Y-66222598D01*
X188113991Y-66512124D01*
X188226959Y-66784852D01*
X188390962Y-67030301D01*
X188599699Y-67239038D01*
X188758282Y-67344999D01*
X188599699Y-67450960D01*
X188390962Y-67659697D01*
X188226959Y-67905146D01*
X188113991Y-68177874D01*
X188056401Y-68467400D01*
X188056401Y-68762598D01*
X188113991Y-69052124D01*
X188226959Y-69324852D01*
X188390962Y-69570301D01*
X188599699Y-69779038D01*
X188845148Y-69943041D01*
X189117876Y-70056009D01*
X189188214Y-70070000D01*
X187450767Y-70070000D01*
X187481039Y-70039728D01*
X187725632Y-69673668D01*
X187894111Y-69266924D01*
X187980001Y-68835127D01*
X187980001Y-68394871D01*
X187894111Y-67963074D01*
X187725632Y-67556330D01*
X187481039Y-67190270D01*
X187169730Y-66878961D01*
X186803670Y-66634368D01*
X186396926Y-66465889D01*
X185965129Y-66379999D01*
X185524873Y-66379999D01*
X185093076Y-66465889D01*
X184686332Y-66634368D01*
X184320272Y-66878961D01*
X184008963Y-67190270D01*
X183764370Y-67556330D01*
X183595891Y-67963074D01*
X183510001Y-68394871D01*
X183510001Y-68835127D01*
X183595891Y-69266924D01*
X183764370Y-69673668D01*
X184008963Y-70039728D01*
X184039235Y-70070000D01*
X182301788Y-70070000D01*
X182372126Y-70056009D01*
X182644854Y-69943041D01*
X182890303Y-69779038D01*
X183099040Y-69570301D01*
X183263043Y-69324852D01*
X183376011Y-69052124D01*
X183433601Y-68762598D01*
X183433601Y-68467400D01*
X183376011Y-68177874D01*
X183263043Y-67905146D01*
X183099040Y-67659697D01*
X182890303Y-67450960D01*
X182644854Y-67286957D01*
X182372126Y-67173989D01*
X182082600Y-67116399D01*
X181787402Y-67116399D01*
X181497876Y-67173989D01*
X181225148Y-67286957D01*
X180979699Y-67450960D01*
X180770962Y-67659697D01*
X180665001Y-67818280D01*
X180559040Y-67659697D01*
X180350303Y-67450960D01*
X180104854Y-67286957D01*
X179832126Y-67173989D01*
X179542600Y-67116399D01*
X179247402Y-67116399D01*
X178957876Y-67173989D01*
X178685148Y-67286957D01*
X178439699Y-67450960D01*
X178230962Y-67659697D01*
X178125001Y-67818280D01*
X178019040Y-67659697D01*
X177810303Y-67450960D01*
X177564854Y-67286957D01*
X177292126Y-67173989D01*
X177002600Y-67116399D01*
X176707402Y-67116399D01*
X176417876Y-67173989D01*
X176145148Y-67286957D01*
X175899699Y-67450960D01*
X175690962Y-67659697D01*
X175585001Y-67818280D01*
X175479040Y-67659697D01*
X175270303Y-67450960D01*
X175024854Y-67286957D01*
X174752126Y-67173989D01*
X174462600Y-67116399D01*
X174167402Y-67116399D01*
X173877876Y-67173989D01*
X173605148Y-67286957D01*
X173359699Y-67450960D01*
X173150962Y-67659697D01*
X173045001Y-67818280D01*
X172939040Y-67659697D01*
X172730303Y-67450960D01*
X172484854Y-67286957D01*
X172212126Y-67173989D01*
X171922600Y-67116399D01*
X171627402Y-67116399D01*
X171337876Y-67173989D01*
X171065148Y-67286957D01*
X170819699Y-67450960D01*
X170610962Y-67659697D01*
X170505001Y-67818280D01*
X170399040Y-67659697D01*
X170190303Y-67450960D01*
X169944854Y-67286957D01*
X169672126Y-67173989D01*
X169382600Y-67116399D01*
X169087402Y-67116399D01*
X168797876Y-67173989D01*
X168525148Y-67286957D01*
X168279699Y-67450960D01*
X168070962Y-67659697D01*
X167965001Y-67818280D01*
X167859040Y-67659697D01*
X167650303Y-67450960D01*
X167404854Y-67286957D01*
X167132126Y-67173989D01*
X166842600Y-67116399D01*
X166547402Y-67116399D01*
X166257876Y-67173989D01*
X165985148Y-67286957D01*
X165739699Y-67450960D01*
X165530962Y-67659697D01*
X165425001Y-67818280D01*
X165319040Y-67659697D01*
X165110303Y-67450960D01*
X164864854Y-67286957D01*
X164592126Y-67173989D01*
X164302600Y-67116399D01*
X164007402Y-67116399D01*
X163717876Y-67173989D01*
X163445148Y-67286957D01*
X163199699Y-67450960D01*
X162990962Y-67659697D01*
X162826959Y-67905146D01*
X162713991Y-68177874D01*
X162656401Y-68467400D01*
X162656401Y-68762598D01*
X162713991Y-69052124D01*
X162826959Y-69324852D01*
X162990962Y-69570301D01*
X163199699Y-69779038D01*
X163445148Y-69943041D01*
X163717876Y-70056009D01*
X163788214Y-70070000D01*
X159441788Y-70070000D01*
X159512126Y-70056009D01*
X159784854Y-69943041D01*
X160030303Y-69779038D01*
X160239040Y-69570301D01*
X160403043Y-69324852D01*
X160516011Y-69052124D01*
X160573601Y-68762598D01*
X160573601Y-68467400D01*
X160516011Y-68177874D01*
X160403043Y-67905146D01*
X160239040Y-67659697D01*
X160030303Y-67450960D01*
X159784854Y-67286957D01*
X159512126Y-67173989D01*
X159222600Y-67116399D01*
X158927402Y-67116399D01*
X158637876Y-67173989D01*
X158365148Y-67286957D01*
X158119699Y-67450960D01*
X157910962Y-67659697D01*
X157805001Y-67818280D01*
X157699040Y-67659697D01*
X157490303Y-67450960D01*
X157244854Y-67286957D01*
X156972126Y-67173989D01*
X156682600Y-67116399D01*
X156387402Y-67116399D01*
X156097876Y-67173989D01*
X155825148Y-67286957D01*
X155579699Y-67450960D01*
X155370962Y-67659697D01*
X155265001Y-67818280D01*
X155159040Y-67659697D01*
X154950303Y-67450960D01*
X154755001Y-67320464D01*
X154755001Y-65089800D01*
X157744802Y-62100000D01*
X172699173Y-62100000D01*
X172761082Y-62249461D01*
X172940013Y-62517250D01*
X173167748Y-62744985D01*
X173435537Y-62923916D01*
X173733088Y-63047166D01*
X174048967Y-63109998D01*
X174371033Y-63109998D01*
X174686912Y-63047166D01*
X174984463Y-62923916D01*
X175252252Y-62744985D01*
X175479987Y-62517250D01*
X175658918Y-62249461D01*
X175664909Y-62234998D01*
X179255091Y-62234998D01*
X179261082Y-62249461D01*
X179440013Y-62517250D01*
X179667748Y-62744985D01*
X179935537Y-62923916D01*
X180233088Y-63047166D01*
X180548967Y-63109998D01*
X180871033Y-63109998D01*
X181186912Y-63047166D01*
X181484463Y-62923916D01*
X181752252Y-62744985D01*
X181979987Y-62517250D01*
X182158918Y-62249461D01*
X182282168Y-61951910D01*
X182345000Y-61636031D01*
X182345000Y-61313965D01*
X182282168Y-60998086D01*
X182158918Y-60700535D01*
X181979987Y-60432746D01*
X181752252Y-60205011D01*
X181484463Y-60026080D01*
X181186912Y-59902830D01*
X180871033Y-59839998D01*
X180548967Y-59839998D01*
X180233088Y-59902830D01*
X179935537Y-60026080D01*
X179667748Y-60205011D01*
X179440013Y-60432746D01*
X179261082Y-60700535D01*
X179255091Y-60714998D01*
X175664909Y-60714998D01*
X175658918Y-60700535D01*
X175479987Y-60432746D01*
X175252252Y-60205011D01*
X174984463Y-60026080D01*
X174686912Y-59902830D01*
X174371033Y-59839998D01*
X174048967Y-59839998D01*
X173733088Y-59902830D01*
X173435537Y-60026080D01*
X173167748Y-60205011D01*
X172940013Y-60432746D01*
X172841621Y-60580000D01*
X162454801Y-60580000D01*
X164924390Y-58110411D01*
X173254192Y-58110411D01*
X173349956Y-58374812D01*
X173639571Y-58515702D01*
X173951108Y-58597382D01*
X174272595Y-58616716D01*
X174591675Y-58572959D01*
X174896088Y-58467793D01*
X175070044Y-58374812D01*
X175165808Y-58110411D01*
X179754192Y-58110411D01*
X179849956Y-58374812D01*
X180139571Y-58515702D01*
X180451108Y-58597382D01*
X180772595Y-58616716D01*
X181091675Y-58572959D01*
X181396088Y-58467793D01*
X181570044Y-58374812D01*
X181665808Y-58110411D01*
X180710000Y-57154603D01*
X179754192Y-58110411D01*
X175165808Y-58110411D01*
X174210000Y-57154603D01*
X173254192Y-58110411D01*
X164924390Y-58110411D01*
X165997208Y-57037593D01*
X172568282Y-57037593D01*
X172612039Y-57356673D01*
X172717205Y-57661086D01*
X172810186Y-57835042D01*
X173074587Y-57930806D01*
X174030395Y-56974998D01*
X174389605Y-56974998D01*
X175345413Y-57930806D01*
X175609814Y-57835042D01*
X175750704Y-57545427D01*
X175832384Y-57233890D01*
X175844189Y-57037593D01*
X179068282Y-57037593D01*
X179112039Y-57356673D01*
X179217205Y-57661086D01*
X179310186Y-57835042D01*
X179574587Y-57930806D01*
X180530395Y-56974998D01*
X180889605Y-56974998D01*
X181845413Y-57930806D01*
X182109814Y-57835042D01*
X182250704Y-57545427D01*
X182332384Y-57233890D01*
X182351718Y-56912403D01*
X182307961Y-56593323D01*
X182202795Y-56288910D01*
X182109814Y-56114954D01*
X181845413Y-56019190D01*
X180889605Y-56974998D01*
X180530395Y-56974998D01*
X179574587Y-56019190D01*
X179310186Y-56114954D01*
X179169296Y-56404569D01*
X179087616Y-56716106D01*
X179068282Y-57037593D01*
X175844189Y-57037593D01*
X175851718Y-56912403D01*
X175807961Y-56593323D01*
X175702795Y-56288910D01*
X175609814Y-56114954D01*
X175345413Y-56019190D01*
X174389605Y-56974998D01*
X174030395Y-56974998D01*
X173074587Y-56019190D01*
X172810186Y-56114954D01*
X172669296Y-56404569D01*
X172587616Y-56716106D01*
X172568282Y-57037593D01*
X165997208Y-57037593D01*
X167195216Y-55839585D01*
X173254192Y-55839585D01*
X174210000Y-56795393D01*
X175165808Y-55839585D01*
X179754192Y-55839585D01*
X180710000Y-56795393D01*
X181665808Y-55839585D01*
X181570044Y-55575184D01*
X181280429Y-55434294D01*
X180968892Y-55352614D01*
X180647405Y-55333280D01*
X180328325Y-55377037D01*
X180023912Y-55482203D01*
X179849956Y-55575184D01*
X179754192Y-55839585D01*
X175165808Y-55839585D01*
X175070044Y-55575184D01*
X174780429Y-55434294D01*
X174468892Y-55352614D01*
X174147405Y-55333280D01*
X173828325Y-55377037D01*
X173523912Y-55482203D01*
X173349956Y-55575184D01*
X173254192Y-55839585D01*
X167195216Y-55839585D01*
X168184802Y-54850000D01*
X169426289Y-54850000D01*
X169470226Y-54893937D01*
X169639744Y-55007205D01*
X169828102Y-55085226D01*
X170028061Y-55125000D01*
X170231939Y-55125000D01*
X170431898Y-55085226D01*
X170620256Y-55007205D01*
X170789774Y-54893937D01*
X170933937Y-54749774D01*
X171047205Y-54580256D01*
X171125226Y-54391898D01*
X171165000Y-54191939D01*
X171165000Y-54048061D01*
X171475000Y-54048061D01*
X171475000Y-54251939D01*
X171514774Y-54451898D01*
X171592795Y-54640256D01*
X171706063Y-54809774D01*
X171850226Y-54953937D01*
X172019744Y-55067205D01*
X172208102Y-55145226D01*
X172408061Y-55185000D01*
X172611939Y-55185000D01*
X172811898Y-55145226D01*
X173000256Y-55067205D01*
X173169774Y-54953937D01*
X173313937Y-54809774D01*
X173427205Y-54640256D01*
X173505226Y-54451898D01*
X173545000Y-54251939D01*
X173545000Y-54189801D01*
X174721003Y-53013799D01*
X174750001Y-52990001D01*
X174782828Y-52950001D01*
X174844974Y-52874277D01*
X174915546Y-52742247D01*
X174935709Y-52675778D01*
X174984463Y-52655583D01*
X175252252Y-52476652D01*
X175479987Y-52248917D01*
X175658918Y-51981128D01*
X175664909Y-51966665D01*
X179255091Y-51966665D01*
X179261082Y-51981128D01*
X179440013Y-52248917D01*
X179667748Y-52476652D01*
X179935537Y-52655583D01*
X180233088Y-52778833D01*
X180548967Y-52841665D01*
X180871033Y-52841665D01*
X181186912Y-52778833D01*
X181484463Y-52655583D01*
X181752252Y-52476652D01*
X181979987Y-52248917D01*
X182158918Y-51981128D01*
X182282168Y-51683577D01*
X182345000Y-51367698D01*
X182345000Y-51045632D01*
X182282168Y-50729753D01*
X182158918Y-50432202D01*
X181979987Y-50164413D01*
X181752252Y-49936678D01*
X181484463Y-49757747D01*
X181186912Y-49634497D01*
X180871033Y-49571665D01*
X180548967Y-49571665D01*
X180233088Y-49634497D01*
X179935537Y-49757747D01*
X179667748Y-49936678D01*
X179440013Y-50164413D01*
X179261082Y-50432202D01*
X179255091Y-50446665D01*
X175664909Y-50446665D01*
X175658918Y-50432202D01*
X175479987Y-50164413D01*
X175252252Y-49936678D01*
X174984463Y-49757747D01*
X174686912Y-49634497D01*
X174371033Y-49571665D01*
X174048967Y-49571665D01*
X173733088Y-49634497D01*
X173435537Y-49757747D01*
X173167748Y-49936678D01*
X172940013Y-50164413D01*
X172761082Y-50432202D01*
X172637832Y-50729753D01*
X172575000Y-51045632D01*
X172575000Y-51367698D01*
X172637832Y-51683577D01*
X172761082Y-51981128D01*
X172940013Y-52248917D01*
X173138147Y-52447051D01*
X172470199Y-53115000D01*
X172408061Y-53115000D01*
X172208102Y-53154774D01*
X172019744Y-53232795D01*
X171850226Y-53346063D01*
X171706063Y-53490226D01*
X171592795Y-53659744D01*
X171514774Y-53848102D01*
X171475000Y-54048061D01*
X171165000Y-54048061D01*
X171165000Y-53988061D01*
X171125226Y-53788102D01*
X171047205Y-53599744D01*
X170933937Y-53430226D01*
X170789774Y-53286063D01*
X170620256Y-53172795D01*
X170431898Y-53094774D01*
X170231939Y-53055000D01*
X170028061Y-53055000D01*
X169828102Y-53094774D01*
X169639744Y-53172795D01*
X169470226Y-53286063D01*
X169426289Y-53330000D01*
X168824802Y-53330000D01*
X170641003Y-51513799D01*
X170670001Y-51490001D01*
X170764974Y-51374276D01*
X170835546Y-51242247D01*
X170879003Y-51098986D01*
X170890000Y-50987333D01*
X170890000Y-50987325D01*
X170893676Y-50950000D01*
X170890000Y-50912675D01*
X170890000Y-47842078D01*
X173254192Y-47842078D01*
X173349956Y-48106479D01*
X173639571Y-48247369D01*
X173951108Y-48329049D01*
X174272595Y-48348383D01*
X174591675Y-48304626D01*
X174896088Y-48199460D01*
X175070044Y-48106479D01*
X175165808Y-47842078D01*
X179754192Y-47842078D01*
X179849956Y-48106479D01*
X180139571Y-48247369D01*
X180451108Y-48329049D01*
X180772595Y-48348383D01*
X181091675Y-48304626D01*
X181396088Y-48199460D01*
X181570044Y-48106479D01*
X181665808Y-47842078D01*
X180710000Y-46886270D01*
X179754192Y-47842078D01*
X175165808Y-47842078D01*
X174210000Y-46886270D01*
X173254192Y-47842078D01*
X170890000Y-47842078D01*
X170890000Y-46769260D01*
X172568282Y-46769260D01*
X172612039Y-47088340D01*
X172717205Y-47392753D01*
X172810186Y-47566709D01*
X173074587Y-47662473D01*
X174030395Y-46706665D01*
X174389605Y-46706665D01*
X175345413Y-47662473D01*
X175609814Y-47566709D01*
X175750704Y-47277094D01*
X175832384Y-46965557D01*
X175844189Y-46769260D01*
X179068282Y-46769260D01*
X179112039Y-47088340D01*
X179217205Y-47392753D01*
X179310186Y-47566709D01*
X179574587Y-47662473D01*
X180530395Y-46706665D01*
X180889605Y-46706665D01*
X181845413Y-47662473D01*
X182109814Y-47566709D01*
X182250704Y-47277094D01*
X182332384Y-46965557D01*
X182351718Y-46644070D01*
X182307961Y-46324990D01*
X182202795Y-46020577D01*
X182109814Y-45846621D01*
X181845413Y-45750857D01*
X180889605Y-46706665D01*
X180530395Y-46706665D01*
X179574587Y-45750857D01*
X179310186Y-45846621D01*
X179169296Y-46136236D01*
X179087616Y-46447773D01*
X179068282Y-46769260D01*
X175844189Y-46769260D01*
X175851718Y-46644070D01*
X175807961Y-46324990D01*
X175702795Y-46020577D01*
X175609814Y-45846621D01*
X175345413Y-45750857D01*
X174389605Y-46706665D01*
X174030395Y-46706665D01*
X173074587Y-45750857D01*
X172810186Y-45846621D01*
X172669296Y-46136236D01*
X172587616Y-46447773D01*
X172568282Y-46769260D01*
X170890000Y-46769260D01*
X170890000Y-45571252D01*
X173254192Y-45571252D01*
X174210000Y-46527060D01*
X175165808Y-45571252D01*
X179754192Y-45571252D01*
X180710000Y-46527060D01*
X181665808Y-45571252D01*
X181570044Y-45306851D01*
X181280429Y-45165961D01*
X180968892Y-45084281D01*
X180647405Y-45064947D01*
X180328325Y-45108704D01*
X180023912Y-45213870D01*
X179849956Y-45306851D01*
X179754192Y-45571252D01*
X175165808Y-45571252D01*
X175070044Y-45306851D01*
X174780429Y-45165961D01*
X174468892Y-45084281D01*
X174147405Y-45064947D01*
X173828325Y-45108704D01*
X173523912Y-45213870D01*
X173349956Y-45306851D01*
X173254192Y-45571252D01*
X170890000Y-45571252D01*
X170890000Y-44333711D01*
X170933937Y-44289774D01*
X171047205Y-44120256D01*
X171125226Y-43931898D01*
X171165000Y-43731939D01*
X171165000Y-43608061D01*
X171315000Y-43608061D01*
X171315000Y-43811939D01*
X171354774Y-44011898D01*
X171432795Y-44200256D01*
X171546063Y-44369774D01*
X171690226Y-44513937D01*
X171859744Y-44627205D01*
X172048102Y-44705226D01*
X172248061Y-44745000D01*
X172451939Y-44745000D01*
X172651898Y-44705226D01*
X172840256Y-44627205D01*
X173009774Y-44513937D01*
X173153937Y-44369774D01*
X173267205Y-44200256D01*
X173345226Y-44011898D01*
X173385000Y-43811939D01*
X173385000Y-43749801D01*
X174608754Y-42526047D01*
X174686912Y-42510501D01*
X174984463Y-42387251D01*
X175252252Y-42208320D01*
X175479987Y-41980585D01*
X175658918Y-41712796D01*
X175664909Y-41698333D01*
X179255091Y-41698333D01*
X179261082Y-41712796D01*
X179440013Y-41980585D01*
X179667748Y-42208320D01*
X179935537Y-42387251D01*
X180233088Y-42510501D01*
X180548967Y-42573333D01*
X180871033Y-42573333D01*
X181186912Y-42510501D01*
X181484463Y-42387251D01*
X181752252Y-42208320D01*
X181979987Y-41980585D01*
X182158918Y-41712796D01*
X182282168Y-41415245D01*
X182345000Y-41099366D01*
X182345000Y-40777300D01*
X182282168Y-40461421D01*
X182158918Y-40163870D01*
X181979987Y-39896081D01*
X181752252Y-39668346D01*
X181484463Y-39489415D01*
X181186912Y-39366165D01*
X180871033Y-39303333D01*
X180548967Y-39303333D01*
X180233088Y-39366165D01*
X179935537Y-39489415D01*
X179667748Y-39668346D01*
X179440013Y-39896081D01*
X179261082Y-40163870D01*
X179255091Y-40178333D01*
X175664909Y-40178333D01*
X175658918Y-40163870D01*
X175479987Y-39896081D01*
X175252252Y-39668346D01*
X174984463Y-39489415D01*
X174686912Y-39366165D01*
X174371033Y-39303333D01*
X174048967Y-39303333D01*
X173733088Y-39366165D01*
X173435537Y-39489415D01*
X173167748Y-39668346D01*
X172940013Y-39896081D01*
X172761082Y-40163870D01*
X172637832Y-40461421D01*
X172575000Y-40777300D01*
X172575000Y-41099366D01*
X172637832Y-41415245D01*
X172761082Y-41712796D01*
X172940013Y-41980585D01*
X172972313Y-42012885D01*
X172310199Y-42675000D01*
X172248061Y-42675000D01*
X172048102Y-42714774D01*
X171859744Y-42792795D01*
X171690226Y-42906063D01*
X171546063Y-43050226D01*
X171432795Y-43219744D01*
X171354774Y-43408102D01*
X171315000Y-43608061D01*
X171165000Y-43608061D01*
X171165000Y-43528061D01*
X171125226Y-43328102D01*
X171047205Y-43139744D01*
X170933937Y-42970226D01*
X170789774Y-42826063D01*
X170620256Y-42712795D01*
X170431898Y-42634774D01*
X170231939Y-42595000D01*
X170028061Y-42595000D01*
X169850000Y-42630418D01*
X169850000Y-37797333D01*
X169853677Y-37760000D01*
X169839003Y-37611014D01*
X169827699Y-37573746D01*
X173254192Y-37573746D01*
X173349956Y-37838147D01*
X173639571Y-37979037D01*
X173951108Y-38060717D01*
X174272595Y-38080051D01*
X174591675Y-38036294D01*
X174896088Y-37931128D01*
X175070044Y-37838147D01*
X175165808Y-37573746D01*
X179754192Y-37573746D01*
X179849956Y-37838147D01*
X180139571Y-37979037D01*
X180451108Y-38060717D01*
X180772595Y-38080051D01*
X181091675Y-38036294D01*
X181396088Y-37931128D01*
X181570044Y-37838147D01*
X181665808Y-37573746D01*
X180710000Y-36617938D01*
X179754192Y-37573746D01*
X175165808Y-37573746D01*
X174210000Y-36617938D01*
X173254192Y-37573746D01*
X169827699Y-37573746D01*
X169795546Y-37467753D01*
X169724974Y-37335724D01*
X169688282Y-37291015D01*
X169645000Y-37238275D01*
X169645000Y-37178061D01*
X169605226Y-36978102D01*
X169527205Y-36789744D01*
X169413937Y-36620226D01*
X169294639Y-36500928D01*
X172568282Y-36500928D01*
X172612039Y-36820008D01*
X172717205Y-37124421D01*
X172810186Y-37298377D01*
X173074587Y-37394141D01*
X174030395Y-36438333D01*
X174389605Y-36438333D01*
X175345413Y-37394141D01*
X175609814Y-37298377D01*
X175750704Y-37008762D01*
X175832384Y-36697225D01*
X175844189Y-36500928D01*
X179068282Y-36500928D01*
X179112039Y-36820008D01*
X179217205Y-37124421D01*
X179310186Y-37298377D01*
X179574587Y-37394141D01*
X180530395Y-36438333D01*
X180889605Y-36438333D01*
X181845413Y-37394141D01*
X182109814Y-37298377D01*
X182250704Y-37008762D01*
X182332384Y-36697225D01*
X182351718Y-36375738D01*
X182307961Y-36056658D01*
X182202795Y-35752245D01*
X182109814Y-35578289D01*
X181845413Y-35482525D01*
X180889605Y-36438333D01*
X180530395Y-36438333D01*
X179574587Y-35482525D01*
X179310186Y-35578289D01*
X179169296Y-35867904D01*
X179087616Y-36179441D01*
X179068282Y-36500928D01*
X175844189Y-36500928D01*
X175851718Y-36375738D01*
X175807961Y-36056658D01*
X175702795Y-35752245D01*
X175609814Y-35578289D01*
X175345413Y-35482525D01*
X174389605Y-36438333D01*
X174030395Y-36438333D01*
X173074587Y-35482525D01*
X172810186Y-35578289D01*
X172669296Y-35867904D01*
X172587616Y-36179441D01*
X172568282Y-36500928D01*
X169294639Y-36500928D01*
X169269774Y-36476063D01*
X169100256Y-36362795D01*
X168911898Y-36284774D01*
X168711939Y-36245000D01*
X168508061Y-36245000D01*
X168460000Y-36254560D01*
X168460000Y-35302920D01*
X173254192Y-35302920D01*
X174210000Y-36258728D01*
X175165808Y-35302920D01*
X179754192Y-35302920D01*
X180710000Y-36258728D01*
X181665808Y-35302920D01*
X181570044Y-35038519D01*
X181280429Y-34897629D01*
X180968892Y-34815949D01*
X180647405Y-34796615D01*
X180328325Y-34840372D01*
X180023912Y-34945538D01*
X179849956Y-35038519D01*
X179754192Y-35302920D01*
X175165808Y-35302920D01*
X175070044Y-35038519D01*
X174780429Y-34897629D01*
X174468892Y-34815949D01*
X174147405Y-34796615D01*
X173828325Y-34840372D01*
X173523912Y-34945538D01*
X173349956Y-35038519D01*
X173254192Y-35302920D01*
X168460000Y-35302920D01*
X168460000Y-32508061D01*
X171145000Y-32508061D01*
X171145000Y-32711939D01*
X171184774Y-32911898D01*
X171262795Y-33100256D01*
X171376063Y-33269774D01*
X171520226Y-33413937D01*
X171689744Y-33527205D01*
X171878102Y-33605226D01*
X172078061Y-33645000D01*
X172281939Y-33645000D01*
X172481898Y-33605226D01*
X172670256Y-33527205D01*
X172839774Y-33413937D01*
X172983937Y-33269774D01*
X173097205Y-33100256D01*
X173175226Y-32911898D01*
X173215000Y-32711939D01*
X173215000Y-32649801D01*
X173654985Y-32209817D01*
X173733088Y-32242168D01*
X174048967Y-32305000D01*
X174371033Y-32305000D01*
X174686912Y-32242168D01*
X174984463Y-32118918D01*
X175252252Y-31939987D01*
X175479987Y-31712252D01*
X175658918Y-31444463D01*
X175664909Y-31430000D01*
X179255091Y-31430000D01*
X179261082Y-31444463D01*
X179440013Y-31712252D01*
X179667748Y-31939987D01*
X179935537Y-32118918D01*
X180233088Y-32242168D01*
X180548967Y-32305000D01*
X180871033Y-32305000D01*
X181186912Y-32242168D01*
X181484463Y-32118918D01*
X181752252Y-31939987D01*
X181979987Y-31712252D01*
X182158918Y-31444463D01*
X182282168Y-31146912D01*
X182345000Y-30831033D01*
X182345000Y-30508967D01*
X182282168Y-30193088D01*
X182158918Y-29895537D01*
X181979987Y-29627748D01*
X181752252Y-29400013D01*
X181484463Y-29221082D01*
X181186912Y-29097832D01*
X180871033Y-29035000D01*
X180548967Y-29035000D01*
X180233088Y-29097832D01*
X179935537Y-29221082D01*
X179667748Y-29400013D01*
X179440013Y-29627748D01*
X179261082Y-29895537D01*
X179255091Y-29910000D01*
X175664909Y-29910000D01*
X175658918Y-29895537D01*
X175479987Y-29627748D01*
X175252252Y-29400013D01*
X174984463Y-29221082D01*
X174686912Y-29097832D01*
X174371033Y-29035000D01*
X174048967Y-29035000D01*
X173733088Y-29097832D01*
X173435537Y-29221082D01*
X173167748Y-29400013D01*
X172940013Y-29627748D01*
X172761082Y-29895537D01*
X172637832Y-30193088D01*
X172575000Y-30508967D01*
X172575000Y-30831033D01*
X172626294Y-31088905D01*
X172140199Y-31575000D01*
X172078061Y-31575000D01*
X171878102Y-31614774D01*
X171689744Y-31692795D01*
X171520226Y-31806063D01*
X171376063Y-31950226D01*
X171262795Y-32119744D01*
X171184774Y-32308102D01*
X171145000Y-32508061D01*
X168460000Y-32508061D01*
X168460000Y-28834801D01*
X169989388Y-27305413D01*
X173254192Y-27305413D01*
X173349956Y-27569814D01*
X173639571Y-27710704D01*
X173951108Y-27792384D01*
X174272595Y-27811718D01*
X174591675Y-27767961D01*
X174896088Y-27662795D01*
X175070044Y-27569814D01*
X175165808Y-27305413D01*
X179754192Y-27305413D01*
X179849956Y-27569814D01*
X180139571Y-27710704D01*
X180451108Y-27792384D01*
X180772595Y-27811718D01*
X181091675Y-27767961D01*
X181396088Y-27662795D01*
X181570044Y-27569814D01*
X181665808Y-27305413D01*
X180710000Y-26349605D01*
X179754192Y-27305413D01*
X175165808Y-27305413D01*
X174210000Y-26349605D01*
X173254192Y-27305413D01*
X169989388Y-27305413D01*
X171062206Y-26232595D01*
X172568282Y-26232595D01*
X172612039Y-26551675D01*
X172717205Y-26856088D01*
X172810186Y-27030044D01*
X173074587Y-27125808D01*
X174030395Y-26170000D01*
X174389605Y-26170000D01*
X175345413Y-27125808D01*
X175609814Y-27030044D01*
X175750704Y-26740429D01*
X175832384Y-26428892D01*
X175844189Y-26232595D01*
X179068282Y-26232595D01*
X179112039Y-26551675D01*
X179217205Y-26856088D01*
X179310186Y-27030044D01*
X179574587Y-27125808D01*
X180530395Y-26170000D01*
X180889605Y-26170000D01*
X181845413Y-27125808D01*
X182109814Y-27030044D01*
X182250704Y-26740429D01*
X182332384Y-26428892D01*
X182351718Y-26107405D01*
X182307961Y-25788325D01*
X182202795Y-25483912D01*
X182109814Y-25309956D01*
X181845413Y-25214192D01*
X180889605Y-26170000D01*
X180530395Y-26170000D01*
X179574587Y-25214192D01*
X179310186Y-25309956D01*
X179169296Y-25599571D01*
X179087616Y-25911108D01*
X179068282Y-26232595D01*
X175844189Y-26232595D01*
X175851718Y-26107405D01*
X175807961Y-25788325D01*
X175702795Y-25483912D01*
X175609814Y-25309956D01*
X175345413Y-25214192D01*
X174389605Y-26170000D01*
X174030395Y-26170000D01*
X173074587Y-25214192D01*
X172810186Y-25309956D01*
X172669296Y-25599571D01*
X172587616Y-25911108D01*
X172568282Y-26232595D01*
X171062206Y-26232595D01*
X172684802Y-24610000D01*
X173718443Y-24610000D01*
X173523912Y-24677205D01*
X173349956Y-24770186D01*
X173254192Y-25034587D01*
X174210000Y-25990395D01*
X175165808Y-25034587D01*
X179754192Y-25034587D01*
X180710000Y-25990395D01*
X181624422Y-25075973D01*
X188100043Y-25075973D01*
X188221184Y-25307999D01*
X189428001Y-25307999D01*
X189428001Y-24100535D01*
X189682001Y-24100535D01*
X189682001Y-25307999D01*
X191968001Y-25307999D01*
X191968001Y-24100535D01*
X192222001Y-24100535D01*
X192222001Y-25307999D01*
X193428818Y-25307999D01*
X193549959Y-25075973D01*
X193504223Y-24925185D01*
X193377685Y-24660055D01*
X193201855Y-24424706D01*
X192983489Y-24228182D01*
X192730979Y-24078035D01*
X192454028Y-23980036D01*
X192222001Y-24100535D01*
X191968001Y-24100535D01*
X191735974Y-23980036D01*
X191459023Y-24078035D01*
X191206513Y-24228182D01*
X190988147Y-24424706D01*
X190825001Y-24643077D01*
X190661855Y-24424706D01*
X190443489Y-24228182D01*
X190190979Y-24078035D01*
X189914028Y-23980036D01*
X189682001Y-24100535D01*
X189428001Y-24100535D01*
X189195974Y-23980036D01*
X188919023Y-24078035D01*
X188666513Y-24228182D01*
X188448147Y-24424706D01*
X188272317Y-24660055D01*
X188145779Y-24925185D01*
X188100043Y-25075973D01*
X181624422Y-25075973D01*
X181665808Y-25034587D01*
X181570044Y-24770186D01*
X181280429Y-24629296D01*
X180968892Y-24547616D01*
X180647405Y-24528282D01*
X180328325Y-24572039D01*
X180023912Y-24677205D01*
X179849956Y-24770186D01*
X179754192Y-25034587D01*
X175165808Y-25034587D01*
X175070044Y-24770186D01*
X174780429Y-24629296D01*
X174706832Y-24610000D01*
X175052678Y-24610000D01*
X175090000Y-24613676D01*
X175127322Y-24610000D01*
X175127333Y-24610000D01*
X175238986Y-24599003D01*
X175382247Y-24555546D01*
X175514276Y-24484974D01*
X175630001Y-24390001D01*
X175653804Y-24360997D01*
X177366004Y-22648798D01*
X177395002Y-22625000D01*
X177489975Y-22509275D01*
X177560547Y-22377246D01*
X177604004Y-22233985D01*
X177615001Y-22122332D01*
X177615001Y-22122323D01*
X177618677Y-22085000D01*
X177615001Y-22047677D01*
X177615001Y-21649534D01*
X177810303Y-21519038D01*
X178019040Y-21310301D01*
X178125001Y-21151718D01*
X178230962Y-21310301D01*
X178439699Y-21519038D01*
X178685148Y-21683041D01*
X178957876Y-21796009D01*
X179247402Y-21853599D01*
X179542600Y-21853599D01*
X179832126Y-21796009D01*
X180104854Y-21683041D01*
X180350303Y-21519038D01*
X180559040Y-21310301D01*
X180665001Y-21151718D01*
X180770962Y-21310301D01*
X180979699Y-21519038D01*
X181225148Y-21683041D01*
X181497876Y-21796009D01*
X181787402Y-21853599D01*
X182082600Y-21853599D01*
X182372126Y-21796009D01*
X182644854Y-21683041D01*
X182890303Y-21519038D01*
X183099040Y-21310301D01*
X183205001Y-21151718D01*
X183310962Y-21310301D01*
X183519699Y-21519038D01*
X183765148Y-21683041D01*
X184037876Y-21796009D01*
X184327402Y-21853599D01*
X184622600Y-21853599D01*
X184912126Y-21796009D01*
X185184854Y-21683041D01*
X185430303Y-21519038D01*
X185639040Y-21310301D01*
X185745001Y-21151718D01*
X185850962Y-21310301D01*
X186059699Y-21519038D01*
X186305148Y-21683041D01*
X186577876Y-21796009D01*
X186867402Y-21853599D01*
X187162600Y-21853599D01*
X187452126Y-21796009D01*
X187724854Y-21683041D01*
X187970303Y-21519038D01*
X188179040Y-21310301D01*
X188343043Y-21064852D01*
X188456011Y-20792124D01*
X188513601Y-20502598D01*
X188513601Y-20207400D01*
X188456011Y-19917874D01*
X188343043Y-19645146D01*
X188179040Y-19399697D01*
X187970303Y-19190960D01*
X187724854Y-19026957D01*
X187452126Y-18913989D01*
X187162600Y-18856399D01*
X186867402Y-18856399D01*
X186577876Y-18913989D01*
X186305148Y-19026957D01*
X186059699Y-19190960D01*
X185850962Y-19399697D01*
X185745001Y-19558280D01*
X185639040Y-19399697D01*
X185430303Y-19190960D01*
X185235001Y-19060464D01*
X185235001Y-19052324D01*
X185238677Y-19015001D01*
X185235001Y-18977678D01*
X185235001Y-18977668D01*
X185224004Y-18866015D01*
X185180547Y-18722754D01*
X185155022Y-18675000D01*
X185109975Y-18590724D01*
X185038800Y-18503998D01*
X185015002Y-18475000D01*
X184986004Y-18451202D01*
X184764802Y-18230000D01*
X191384867Y-18230000D01*
X191036332Y-18374368D01*
G37*
X191036332Y-18374368D02*
X190670272Y-18618961D01*
X190358963Y-18930270D01*
X190114370Y-19296330D01*
X189945891Y-19703074D01*
X189860001Y-20134871D01*
X189860001Y-20575127D01*
X189945891Y-21006924D01*
X190114370Y-21413668D01*
X190358963Y-21779728D01*
X190670272Y-22091037D01*
X191036332Y-22335630D01*
X191443076Y-22504109D01*
X191874873Y-22589999D01*
X192315129Y-22589999D01*
X192746926Y-22504109D01*
X193153670Y-22335630D01*
X193519730Y-22091037D01*
X193831039Y-21779728D01*
X194075632Y-21413668D01*
X194244111Y-21006924D01*
X194330001Y-20575127D01*
X194330001Y-20134871D01*
X194244111Y-19703074D01*
X194075632Y-19296330D01*
X193831039Y-18930270D01*
X193519730Y-18618961D01*
X193153670Y-18374368D01*
X192805135Y-18230000D01*
X194230593Y-18230000D01*
X194210753Y-18914457D01*
X194206932Y-18962850D01*
X194212684Y-19011550D01*
X194216075Y-19060482D01*
X194220295Y-19075997D01*
X194222180Y-19091961D01*
X194237320Y-19138598D01*
X194250194Y-19185934D01*
X194257361Y-19200330D01*
X194262323Y-19215616D01*
X194286273Y-19258409D01*
X194308132Y-19302318D01*
X194317965Y-19315034D01*
X194325818Y-19329065D01*
X194357662Y-19366368D01*
X194387662Y-19405164D01*
X194424285Y-19437040D01*
X196840000Y-21760903D01*
X196840001Y-55863771D01*
X194404672Y-58143461D01*
X194371052Y-58171052D01*
X194336716Y-58212891D01*
X194301031Y-58253559D01*
X194295540Y-58263065D01*
X194288575Y-58271551D01*
X194263062Y-58319283D01*
X194235997Y-58366132D01*
X194232466Y-58376524D01*
X194227290Y-58386208D01*
X194211579Y-58438000D01*
X194194173Y-58489229D01*
X194192737Y-58500111D01*
X194189550Y-58510618D01*
X194184244Y-58564493D01*
X194177169Y-58618121D01*
X194180000Y-58661498D01*
X194180001Y-69486561D01*
X194090000Y-69567769D01*
X194090000Y-41097325D01*
X194093676Y-41060000D01*
X194090000Y-41022675D01*
X194090000Y-41022667D01*
X194079003Y-40911014D01*
X194035546Y-40767753D01*
X193964974Y-40635724D01*
X193870001Y-40519999D01*
X193840998Y-40496197D01*
X193508803Y-40164002D01*
X193501957Y-40155660D01*
X193423043Y-39965146D01*
X193259040Y-39719697D01*
X193050303Y-39510960D01*
X192891720Y-39404999D01*
X193050303Y-39299038D01*
X193259040Y-39090301D01*
X193423043Y-38844852D01*
X193536011Y-38572124D01*
X193593601Y-38282598D01*
X193593601Y-37987400D01*
X193536011Y-37697874D01*
X193423043Y-37425146D01*
X193259040Y-37179697D01*
X193050303Y-36970960D01*
X192891720Y-36864999D01*
X193050303Y-36759038D01*
X193259040Y-36550301D01*
X193423043Y-36304852D01*
X193536011Y-36032124D01*
X193593601Y-35742598D01*
X193593601Y-35447400D01*
X193536011Y-35157874D01*
X193423043Y-34885146D01*
X193259040Y-34639697D01*
X193050303Y-34430960D01*
X192891720Y-34324999D01*
X193050303Y-34219038D01*
X193259040Y-34010301D01*
X193423043Y-33764852D01*
X193536011Y-33492124D01*
X193593601Y-33202598D01*
X193593601Y-32907400D01*
X193536011Y-32617874D01*
X193423043Y-32345146D01*
X193259040Y-32099697D01*
X193050303Y-31890960D01*
X192891720Y-31784999D01*
X193050303Y-31679038D01*
X193259040Y-31470301D01*
X193423043Y-31224852D01*
X193536011Y-30952124D01*
X193593601Y-30662598D01*
X193593601Y-30367400D01*
X193536011Y-30077874D01*
X193423043Y-29805146D01*
X193259040Y-29559697D01*
X193050303Y-29350960D01*
X192891720Y-29244999D01*
X193050303Y-29139038D01*
X193259040Y-28930301D01*
X193423043Y-28684852D01*
X193536011Y-28412124D01*
X193593601Y-28122598D01*
X193593601Y-27827400D01*
X193536011Y-27537874D01*
X193423043Y-27265146D01*
X193259040Y-27019697D01*
X193050303Y-26810960D01*
X192884898Y-26700440D01*
X192983489Y-26641816D01*
X193201855Y-26445292D01*
X193377685Y-26209943D01*
X193504223Y-25944813D01*
X193549959Y-25794025D01*
X193428818Y-25561999D01*
X192222001Y-25561999D01*
X192222001Y-25581999D01*
X191968001Y-25581999D01*
X191968001Y-25561999D01*
X189682001Y-25561999D01*
X189682001Y-25581999D01*
X189428001Y-25581999D01*
X189428001Y-25561999D01*
X188221184Y-25561999D01*
X188100043Y-25794025D01*
X188145779Y-25944813D01*
X188272317Y-26209943D01*
X188448147Y-26445292D01*
X188666513Y-26641816D01*
X188765104Y-26700440D01*
X188599699Y-26810960D01*
X188390962Y-27019697D01*
X188226959Y-27265146D01*
X188113991Y-27537874D01*
X188056401Y-27827400D01*
X188056401Y-28122598D01*
X188113991Y-28412124D01*
X188226959Y-28684852D01*
X188390962Y-28930301D01*
X188599699Y-29139038D01*
X188758282Y-29244999D01*
X188599699Y-29350960D01*
X188390962Y-29559697D01*
X188226959Y-29805146D01*
X188113991Y-30077874D01*
X188056401Y-30367400D01*
X188056401Y-30662598D01*
X188113991Y-30952124D01*
X188226959Y-31224852D01*
X188390962Y-31470301D01*
X188599699Y-31679038D01*
X188758282Y-31784999D01*
X188599699Y-31890960D01*
X188390962Y-32099697D01*
X188226959Y-32345146D01*
X188113991Y-32617874D01*
X188056401Y-32907400D01*
X188056401Y-33202598D01*
X188113991Y-33492124D01*
X188226959Y-33764852D01*
X188390962Y-34010301D01*
X188599699Y-34219038D01*
X188758282Y-34324999D01*
X188599699Y-34430960D01*
X188390962Y-34639697D01*
X188226959Y-34885146D01*
X188113991Y-35157874D01*
X188056401Y-35447400D01*
X188056401Y-35742598D01*
X188113991Y-36032124D01*
X188226959Y-36304852D01*
X188390962Y-36550301D01*
X188599699Y-36759038D01*
X188758282Y-36864999D01*
X188599699Y-36970960D01*
X188390962Y-37179697D01*
X188226959Y-37425146D01*
X188113991Y-37697874D01*
X188056401Y-37987400D01*
X188056401Y-38282598D01*
X188113991Y-38572124D01*
X188226959Y-38844852D01*
X188390962Y-39090301D01*
X188599699Y-39299038D01*
X188758282Y-39404999D01*
X188599699Y-39510960D01*
X188390962Y-39719697D01*
X188226959Y-39965146D01*
X188113991Y-40237874D01*
X188056401Y-40527400D01*
X188056401Y-40822598D01*
X188113991Y-41112124D01*
X188226959Y-41384852D01*
X188390962Y-41630301D01*
X188599699Y-41839038D01*
X188758282Y-41944999D01*
X188599699Y-42050960D01*
X188390962Y-42259697D01*
X188226959Y-42505146D01*
X188113991Y-42777874D01*
X188056401Y-43067400D01*
X188056401Y-43362598D01*
X188113991Y-43652124D01*
X188226959Y-43924852D01*
X188390962Y-44170301D01*
X188599699Y-44379038D01*
X188758282Y-44484999D01*
X188599699Y-44590960D01*
X188390962Y-44799697D01*
X188226959Y-45045146D01*
X188113991Y-45317874D01*
X188056401Y-45607400D01*
X188056401Y-45902598D01*
X188113991Y-46192124D01*
X188226959Y-46464852D01*
X188390962Y-46710301D01*
X188599699Y-46919038D01*
X188758282Y-47024999D01*
X188599699Y-47130960D01*
X188390962Y-47339697D01*
X188226959Y-47585146D01*
X188113991Y-47857874D01*
X188056401Y-48147400D01*
X188056401Y-48442598D01*
X188113991Y-48732124D01*
X188226959Y-49004852D01*
X188390962Y-49250301D01*
X188599699Y-49459038D01*
X188758282Y-49564999D01*
X188599699Y-49670960D01*
X188390962Y-49879697D01*
X188226959Y-50125146D01*
X188113991Y-50397874D01*
X188056401Y-50687400D01*
X188056401Y-50982598D01*
X188113991Y-51272124D01*
X188226959Y-51544852D01*
X188390962Y-51790301D01*
X188599699Y-51999038D01*
X188758282Y-52104999D01*
X188599699Y-52210960D01*
X188390962Y-52419697D01*
X188226959Y-52665146D01*
X188113991Y-52937874D01*
X188056401Y-53227400D01*
X188056401Y-53522598D01*
X188113991Y-53812124D01*
X188226959Y-54084852D01*
X188390962Y-54330301D01*
X188599699Y-54539038D01*
X188758282Y-54644999D01*
X188599699Y-54750960D01*
X188390962Y-54959697D01*
X188226959Y-55205146D01*
X188113991Y-55477874D01*
X188056401Y-55767400D01*
X188056401Y-56062598D01*
X188113991Y-56352124D01*
X188226959Y-56624852D01*
X188390962Y-56870301D01*
X188599699Y-57079038D01*
X188758282Y-57184999D01*
X188599699Y-57290960D01*
X188390962Y-57499697D01*
X188226959Y-57745146D01*
X188113991Y-58017874D01*
X188056401Y-58307400D01*
X188056401Y-58602598D01*
X188113991Y-58892124D01*
X188226959Y-59164852D01*
X188390962Y-59410301D01*
X188599699Y-59619038D01*
X188758282Y-59724999D01*
X188599699Y-59830960D01*
X188390962Y-60039697D01*
X188226959Y-60285146D01*
X188113991Y-60557874D01*
X188056401Y-60847400D01*
X188056401Y-61142598D01*
X188113991Y-61432124D01*
X188226959Y-61704852D01*
X188390962Y-61950301D01*
X188599699Y-62159038D01*
X188758282Y-62264999D01*
X188599699Y-62370960D01*
X188390962Y-62579697D01*
X188226959Y-62825146D01*
X188113991Y-63097874D01*
X188056401Y-63387400D01*
X188056401Y-63682598D01*
X188113991Y-63972124D01*
X188226959Y-64244852D01*
X188390962Y-64490301D01*
X188599699Y-64699038D01*
X188758282Y-64804999D01*
X188599699Y-64910960D01*
X188390962Y-65119697D01*
X188226959Y-65365146D01*
X188113991Y-65637874D01*
X188056401Y-65927400D01*
X188056401Y-66222598D01*
X188113991Y-66512124D01*
X188226959Y-66784852D01*
X188390962Y-67030301D01*
X188599699Y-67239038D01*
X188758282Y-67344999D01*
X188599699Y-67450960D01*
X188390962Y-67659697D01*
X188226959Y-67905146D01*
X188113991Y-68177874D01*
X188056401Y-68467400D01*
X188056401Y-68762598D01*
X188113991Y-69052124D01*
X188226959Y-69324852D01*
X188390962Y-69570301D01*
X188599699Y-69779038D01*
X188845148Y-69943041D01*
X189117876Y-70056009D01*
X189188214Y-70070000D01*
X187450767Y-70070000D01*
X187481039Y-70039728D01*
X187725632Y-69673668D01*
X187894111Y-69266924D01*
X187980001Y-68835127D01*
X187980001Y-68394871D01*
X187894111Y-67963074D01*
X187725632Y-67556330D01*
X187481039Y-67190270D01*
X187169730Y-66878961D01*
X186803670Y-66634368D01*
X186396926Y-66465889D01*
X185965129Y-66379999D01*
X185524873Y-66379999D01*
X185093076Y-66465889D01*
X184686332Y-66634368D01*
X184320272Y-66878961D01*
X184008963Y-67190270D01*
X183764370Y-67556330D01*
X183595891Y-67963074D01*
X183510001Y-68394871D01*
X183510001Y-68835127D01*
X183595891Y-69266924D01*
X183764370Y-69673668D01*
X184008963Y-70039728D01*
X184039235Y-70070000D01*
X182301788Y-70070000D01*
X182372126Y-70056009D01*
X182644854Y-69943041D01*
X182890303Y-69779038D01*
X183099040Y-69570301D01*
X183263043Y-69324852D01*
X183376011Y-69052124D01*
X183433601Y-68762598D01*
X183433601Y-68467400D01*
X183376011Y-68177874D01*
X183263043Y-67905146D01*
X183099040Y-67659697D01*
X182890303Y-67450960D01*
X182644854Y-67286957D01*
X182372126Y-67173989D01*
X182082600Y-67116399D01*
X181787402Y-67116399D01*
X181497876Y-67173989D01*
X181225148Y-67286957D01*
X180979699Y-67450960D01*
X180770962Y-67659697D01*
X180665001Y-67818280D01*
X180559040Y-67659697D01*
X180350303Y-67450960D01*
X180104854Y-67286957D01*
X179832126Y-67173989D01*
X179542600Y-67116399D01*
X179247402Y-67116399D01*
X178957876Y-67173989D01*
X178685148Y-67286957D01*
X178439699Y-67450960D01*
X178230962Y-67659697D01*
X178125001Y-67818280D01*
X178019040Y-67659697D01*
X177810303Y-67450960D01*
X177564854Y-67286957D01*
X177292126Y-67173989D01*
X177002600Y-67116399D01*
X176707402Y-67116399D01*
X176417876Y-67173989D01*
X176145148Y-67286957D01*
X175899699Y-67450960D01*
X175690962Y-67659697D01*
X175585001Y-67818280D01*
X175479040Y-67659697D01*
X175270303Y-67450960D01*
X175024854Y-67286957D01*
X174752126Y-67173989D01*
X174462600Y-67116399D01*
X174167402Y-67116399D01*
X173877876Y-67173989D01*
X173605148Y-67286957D01*
X173359699Y-67450960D01*
X173150962Y-67659697D01*
X173045001Y-67818280D01*
X172939040Y-67659697D01*
X172730303Y-67450960D01*
X172484854Y-67286957D01*
X172212126Y-67173989D01*
X171922600Y-67116399D01*
X171627402Y-67116399D01*
X171337876Y-67173989D01*
X171065148Y-67286957D01*
X170819699Y-67450960D01*
X170610962Y-67659697D01*
X170505001Y-67818280D01*
X170399040Y-67659697D01*
X170190303Y-67450960D01*
X169944854Y-67286957D01*
X169672126Y-67173989D01*
X169382600Y-67116399D01*
X169087402Y-67116399D01*
X168797876Y-67173989D01*
X168525148Y-67286957D01*
X168279699Y-67450960D01*
X168070962Y-67659697D01*
X167965001Y-67818280D01*
X167859040Y-67659697D01*
X167650303Y-67450960D01*
X167404854Y-67286957D01*
X167132126Y-67173989D01*
X166842600Y-67116399D01*
X166547402Y-67116399D01*
X166257876Y-67173989D01*
X165985148Y-67286957D01*
X165739699Y-67450960D01*
X165530962Y-67659697D01*
X165425001Y-67818280D01*
X165319040Y-67659697D01*
X165110303Y-67450960D01*
X164864854Y-67286957D01*
X164592126Y-67173989D01*
X164302600Y-67116399D01*
X164007402Y-67116399D01*
X163717876Y-67173989D01*
X163445148Y-67286957D01*
X163199699Y-67450960D01*
X162990962Y-67659697D01*
X162826959Y-67905146D01*
X162713991Y-68177874D01*
X162656401Y-68467400D01*
X162656401Y-68762598D01*
X162713991Y-69052124D01*
X162826959Y-69324852D01*
X162990962Y-69570301D01*
X163199699Y-69779038D01*
X163445148Y-69943041D01*
X163717876Y-70056009D01*
X163788214Y-70070000D01*
X159441788Y-70070000D01*
X159512126Y-70056009D01*
X159784854Y-69943041D01*
X160030303Y-69779038D01*
X160239040Y-69570301D01*
X160403043Y-69324852D01*
X160516011Y-69052124D01*
X160573601Y-68762598D01*
X160573601Y-68467400D01*
X160516011Y-68177874D01*
X160403043Y-67905146D01*
X160239040Y-67659697D01*
X160030303Y-67450960D01*
X159784854Y-67286957D01*
X159512126Y-67173989D01*
X159222600Y-67116399D01*
X158927402Y-67116399D01*
X158637876Y-67173989D01*
X158365148Y-67286957D01*
X158119699Y-67450960D01*
X157910962Y-67659697D01*
X157805001Y-67818280D01*
X157699040Y-67659697D01*
X157490303Y-67450960D01*
X157244854Y-67286957D01*
X156972126Y-67173989D01*
X156682600Y-67116399D01*
X156387402Y-67116399D01*
X156097876Y-67173989D01*
X155825148Y-67286957D01*
X155579699Y-67450960D01*
X155370962Y-67659697D01*
X155265001Y-67818280D01*
X155159040Y-67659697D01*
X154950303Y-67450960D01*
X154755001Y-67320464D01*
X154755001Y-65089800D01*
X157744802Y-62100000D01*
X172699173Y-62100000D01*
X172761082Y-62249461D01*
X172940013Y-62517250D01*
X173167748Y-62744985D01*
X173435537Y-62923916D01*
X173733088Y-63047166D01*
X174048967Y-63109998D01*
X174371033Y-63109998D01*
X174686912Y-63047166D01*
X174984463Y-62923916D01*
X175252252Y-62744985D01*
X175479987Y-62517250D01*
X175658918Y-62249461D01*
X175664909Y-62234998D01*
X179255091Y-62234998D01*
X179261082Y-62249461D01*
X179440013Y-62517250D01*
X179667748Y-62744985D01*
X179935537Y-62923916D01*
X180233088Y-63047166D01*
X180548967Y-63109998D01*
X180871033Y-63109998D01*
X181186912Y-63047166D01*
X181484463Y-62923916D01*
X181752252Y-62744985D01*
X181979987Y-62517250D01*
X182158918Y-62249461D01*
X182282168Y-61951910D01*
X182345000Y-61636031D01*
X182345000Y-61313965D01*
X182282168Y-60998086D01*
X182158918Y-60700535D01*
X181979987Y-60432746D01*
X181752252Y-60205011D01*
X181484463Y-60026080D01*
X181186912Y-59902830D01*
X180871033Y-59839998D01*
X180548967Y-59839998D01*
X180233088Y-59902830D01*
X179935537Y-60026080D01*
X179667748Y-60205011D01*
X179440013Y-60432746D01*
X179261082Y-60700535D01*
X179255091Y-60714998D01*
X175664909Y-60714998D01*
X175658918Y-60700535D01*
X175479987Y-60432746D01*
X175252252Y-60205011D01*
X174984463Y-60026080D01*
X174686912Y-59902830D01*
X174371033Y-59839998D01*
X174048967Y-59839998D01*
X173733088Y-59902830D01*
X173435537Y-60026080D01*
X173167748Y-60205011D01*
X172940013Y-60432746D01*
X172841621Y-60580000D01*
X162454801Y-60580000D01*
X164924390Y-58110411D01*
X173254192Y-58110411D01*
X173349956Y-58374812D01*
X173639571Y-58515702D01*
X173951108Y-58597382D01*
X174272595Y-58616716D01*
X174591675Y-58572959D01*
X174896088Y-58467793D01*
X175070044Y-58374812D01*
X175165808Y-58110411D01*
X179754192Y-58110411D01*
X179849956Y-58374812D01*
X180139571Y-58515702D01*
X180451108Y-58597382D01*
X180772595Y-58616716D01*
X181091675Y-58572959D01*
X181396088Y-58467793D01*
X181570044Y-58374812D01*
X181665808Y-58110411D01*
X180710000Y-57154603D01*
X179754192Y-58110411D01*
X175165808Y-58110411D01*
X174210000Y-57154603D01*
X173254192Y-58110411D01*
X164924390Y-58110411D01*
X165997208Y-57037593D01*
X172568282Y-57037593D01*
X172612039Y-57356673D01*
X172717205Y-57661086D01*
X172810186Y-57835042D01*
X173074587Y-57930806D01*
X174030395Y-56974998D01*
X174389605Y-56974998D01*
X175345413Y-57930806D01*
X175609814Y-57835042D01*
X175750704Y-57545427D01*
X175832384Y-57233890D01*
X175844189Y-57037593D01*
X179068282Y-57037593D01*
X179112039Y-57356673D01*
X179217205Y-57661086D01*
X179310186Y-57835042D01*
X179574587Y-57930806D01*
X180530395Y-56974998D01*
X180889605Y-56974998D01*
X181845413Y-57930806D01*
X182109814Y-57835042D01*
X182250704Y-57545427D01*
X182332384Y-57233890D01*
X182351718Y-56912403D01*
X182307961Y-56593323D01*
X182202795Y-56288910D01*
X182109814Y-56114954D01*
X181845413Y-56019190D01*
X180889605Y-56974998D01*
X180530395Y-56974998D01*
X179574587Y-56019190D01*
X179310186Y-56114954D01*
X179169296Y-56404569D01*
X179087616Y-56716106D01*
X179068282Y-57037593D01*
X175844189Y-57037593D01*
X175851718Y-56912403D01*
X175807961Y-56593323D01*
X175702795Y-56288910D01*
X175609814Y-56114954D01*
X175345413Y-56019190D01*
X174389605Y-56974998D01*
X174030395Y-56974998D01*
X173074587Y-56019190D01*
X172810186Y-56114954D01*
X172669296Y-56404569D01*
X172587616Y-56716106D01*
X172568282Y-57037593D01*
X165997208Y-57037593D01*
X167195216Y-55839585D01*
X173254192Y-55839585D01*
X174210000Y-56795393D01*
X175165808Y-55839585D01*
X179754192Y-55839585D01*
X180710000Y-56795393D01*
X181665808Y-55839585D01*
X181570044Y-55575184D01*
X181280429Y-55434294D01*
X180968892Y-55352614D01*
X180647405Y-55333280D01*
X180328325Y-55377037D01*
X180023912Y-55482203D01*
X179849956Y-55575184D01*
X179754192Y-55839585D01*
X175165808Y-55839585D01*
X175070044Y-55575184D01*
X174780429Y-55434294D01*
X174468892Y-55352614D01*
X174147405Y-55333280D01*
X173828325Y-55377037D01*
X173523912Y-55482203D01*
X173349956Y-55575184D01*
X173254192Y-55839585D01*
X167195216Y-55839585D01*
X168184802Y-54850000D01*
X169426289Y-54850000D01*
X169470226Y-54893937D01*
X169639744Y-55007205D01*
X169828102Y-55085226D01*
X170028061Y-55125000D01*
X170231939Y-55125000D01*
X170431898Y-55085226D01*
X170620256Y-55007205D01*
X170789774Y-54893937D01*
X170933937Y-54749774D01*
X171047205Y-54580256D01*
X171125226Y-54391898D01*
X171165000Y-54191939D01*
X171165000Y-54048061D01*
X171475000Y-54048061D01*
X171475000Y-54251939D01*
X171514774Y-54451898D01*
X171592795Y-54640256D01*
X171706063Y-54809774D01*
X171850226Y-54953937D01*
X172019744Y-55067205D01*
X172208102Y-55145226D01*
X172408061Y-55185000D01*
X172611939Y-55185000D01*
X172811898Y-55145226D01*
X173000256Y-55067205D01*
X173169774Y-54953937D01*
X173313937Y-54809774D01*
X173427205Y-54640256D01*
X173505226Y-54451898D01*
X173545000Y-54251939D01*
X173545000Y-54189801D01*
X174721003Y-53013799D01*
X174750001Y-52990001D01*
X174782828Y-52950001D01*
X174844974Y-52874277D01*
X174915546Y-52742247D01*
X174935709Y-52675778D01*
X174984463Y-52655583D01*
X175252252Y-52476652D01*
X175479987Y-52248917D01*
X175658918Y-51981128D01*
X175664909Y-51966665D01*
X179255091Y-51966665D01*
X179261082Y-51981128D01*
X179440013Y-52248917D01*
X179667748Y-52476652D01*
X179935537Y-52655583D01*
X180233088Y-52778833D01*
X180548967Y-52841665D01*
X180871033Y-52841665D01*
X181186912Y-52778833D01*
X181484463Y-52655583D01*
X181752252Y-52476652D01*
X181979987Y-52248917D01*
X182158918Y-51981128D01*
X182282168Y-51683577D01*
X182345000Y-51367698D01*
X182345000Y-51045632D01*
X182282168Y-50729753D01*
X182158918Y-50432202D01*
X181979987Y-50164413D01*
X181752252Y-49936678D01*
X181484463Y-49757747D01*
X181186912Y-49634497D01*
X180871033Y-49571665D01*
X180548967Y-49571665D01*
X180233088Y-49634497D01*
X179935537Y-49757747D01*
X179667748Y-49936678D01*
X179440013Y-50164413D01*
X179261082Y-50432202D01*
X179255091Y-50446665D01*
X175664909Y-50446665D01*
X175658918Y-50432202D01*
X175479987Y-50164413D01*
X175252252Y-49936678D01*
X174984463Y-49757747D01*
X174686912Y-49634497D01*
X174371033Y-49571665D01*
X174048967Y-49571665D01*
X173733088Y-49634497D01*
X173435537Y-49757747D01*
X173167748Y-49936678D01*
X172940013Y-50164413D01*
X172761082Y-50432202D01*
X172637832Y-50729753D01*
X172575000Y-51045632D01*
X172575000Y-51367698D01*
X172637832Y-51683577D01*
X172761082Y-51981128D01*
X172940013Y-52248917D01*
X173138147Y-52447051D01*
X172470199Y-53115000D01*
X172408061Y-53115000D01*
X172208102Y-53154774D01*
X172019744Y-53232795D01*
X171850226Y-53346063D01*
X171706063Y-53490226D01*
X171592795Y-53659744D01*
X171514774Y-53848102D01*
X171475000Y-54048061D01*
X171165000Y-54048061D01*
X171165000Y-53988061D01*
X171125226Y-53788102D01*
X171047205Y-53599744D01*
X170933937Y-53430226D01*
X170789774Y-53286063D01*
X170620256Y-53172795D01*
X170431898Y-53094774D01*
X170231939Y-53055000D01*
X170028061Y-53055000D01*
X169828102Y-53094774D01*
X169639744Y-53172795D01*
X169470226Y-53286063D01*
X169426289Y-53330000D01*
X168824802Y-53330000D01*
X170641003Y-51513799D01*
X170670001Y-51490001D01*
X170764974Y-51374276D01*
X170835546Y-51242247D01*
X170879003Y-51098986D01*
X170890000Y-50987333D01*
X170890000Y-50987325D01*
X170893676Y-50950000D01*
X170890000Y-50912675D01*
X170890000Y-47842078D01*
X173254192Y-47842078D01*
X173349956Y-48106479D01*
X173639571Y-48247369D01*
X173951108Y-48329049D01*
X174272595Y-48348383D01*
X174591675Y-48304626D01*
X174896088Y-48199460D01*
X175070044Y-48106479D01*
X175165808Y-47842078D01*
X179754192Y-47842078D01*
X179849956Y-48106479D01*
X180139571Y-48247369D01*
X180451108Y-48329049D01*
X180772595Y-48348383D01*
X181091675Y-48304626D01*
X181396088Y-48199460D01*
X181570044Y-48106479D01*
X181665808Y-47842078D01*
X180710000Y-46886270D01*
X179754192Y-47842078D01*
X175165808Y-47842078D01*
X174210000Y-46886270D01*
X173254192Y-47842078D01*
X170890000Y-47842078D01*
X170890000Y-46769260D01*
X172568282Y-46769260D01*
X172612039Y-47088340D01*
X172717205Y-47392753D01*
X172810186Y-47566709D01*
X173074587Y-47662473D01*
X174030395Y-46706665D01*
X174389605Y-46706665D01*
X175345413Y-47662473D01*
X175609814Y-47566709D01*
X175750704Y-47277094D01*
X175832384Y-46965557D01*
X175844189Y-46769260D01*
X179068282Y-46769260D01*
X179112039Y-47088340D01*
X179217205Y-47392753D01*
X179310186Y-47566709D01*
X179574587Y-47662473D01*
X180530395Y-46706665D01*
X180889605Y-46706665D01*
X181845413Y-47662473D01*
X182109814Y-47566709D01*
X182250704Y-47277094D01*
X182332384Y-46965557D01*
X182351718Y-46644070D01*
X182307961Y-46324990D01*
X182202795Y-46020577D01*
X182109814Y-45846621D01*
X181845413Y-45750857D01*
X180889605Y-46706665D01*
X180530395Y-46706665D01*
X179574587Y-45750857D01*
X179310186Y-45846621D01*
X179169296Y-46136236D01*
X179087616Y-46447773D01*
X179068282Y-46769260D01*
X175844189Y-46769260D01*
X175851718Y-46644070D01*
X175807961Y-46324990D01*
X175702795Y-46020577D01*
X175609814Y-45846621D01*
X175345413Y-45750857D01*
X174389605Y-46706665D01*
X174030395Y-46706665D01*
X173074587Y-45750857D01*
X172810186Y-45846621D01*
X172669296Y-46136236D01*
X172587616Y-46447773D01*
X172568282Y-46769260D01*
X170890000Y-46769260D01*
X170890000Y-45571252D01*
X173254192Y-45571252D01*
X174210000Y-46527060D01*
X175165808Y-45571252D01*
X179754192Y-45571252D01*
X180710000Y-46527060D01*
X181665808Y-45571252D01*
X181570044Y-45306851D01*
X181280429Y-45165961D01*
X180968892Y-45084281D01*
X180647405Y-45064947D01*
X180328325Y-45108704D01*
X180023912Y-45213870D01*
X179849956Y-45306851D01*
X179754192Y-45571252D01*
X175165808Y-45571252D01*
X175070044Y-45306851D01*
X174780429Y-45165961D01*
X174468892Y-45084281D01*
X174147405Y-45064947D01*
X173828325Y-45108704D01*
X173523912Y-45213870D01*
X173349956Y-45306851D01*
X173254192Y-45571252D01*
X170890000Y-45571252D01*
X170890000Y-44333711D01*
X170933937Y-44289774D01*
X171047205Y-44120256D01*
X171125226Y-43931898D01*
X171165000Y-43731939D01*
X171165000Y-43608061D01*
X171315000Y-43608061D01*
X171315000Y-43811939D01*
X171354774Y-44011898D01*
X171432795Y-44200256D01*
X171546063Y-44369774D01*
X171690226Y-44513937D01*
X171859744Y-44627205D01*
X172048102Y-44705226D01*
X172248061Y-44745000D01*
X172451939Y-44745000D01*
X172651898Y-44705226D01*
X172840256Y-44627205D01*
X173009774Y-44513937D01*
X173153937Y-44369774D01*
X173267205Y-44200256D01*
X173345226Y-44011898D01*
X173385000Y-43811939D01*
X173385000Y-43749801D01*
X174608754Y-42526047D01*
X174686912Y-42510501D01*
X174984463Y-42387251D01*
X175252252Y-42208320D01*
X175479987Y-41980585D01*
X175658918Y-41712796D01*
X175664909Y-41698333D01*
X179255091Y-41698333D01*
X179261082Y-41712796D01*
X179440013Y-41980585D01*
X179667748Y-42208320D01*
X179935537Y-42387251D01*
X180233088Y-42510501D01*
X180548967Y-42573333D01*
X180871033Y-42573333D01*
X181186912Y-42510501D01*
X181484463Y-42387251D01*
X181752252Y-42208320D01*
X181979987Y-41980585D01*
X182158918Y-41712796D01*
X182282168Y-41415245D01*
X182345000Y-41099366D01*
X182345000Y-40777300D01*
X182282168Y-40461421D01*
X182158918Y-40163870D01*
X181979987Y-39896081D01*
X181752252Y-39668346D01*
X181484463Y-39489415D01*
X181186912Y-39366165D01*
X180871033Y-39303333D01*
X180548967Y-39303333D01*
X180233088Y-39366165D01*
X179935537Y-39489415D01*
X179667748Y-39668346D01*
X179440013Y-39896081D01*
X179261082Y-40163870D01*
X179255091Y-40178333D01*
X175664909Y-40178333D01*
X175658918Y-40163870D01*
X175479987Y-39896081D01*
X175252252Y-39668346D01*
X174984463Y-39489415D01*
X174686912Y-39366165D01*
X174371033Y-39303333D01*
X174048967Y-39303333D01*
X173733088Y-39366165D01*
X173435537Y-39489415D01*
X173167748Y-39668346D01*
X172940013Y-39896081D01*
X172761082Y-40163870D01*
X172637832Y-40461421D01*
X172575000Y-40777300D01*
X172575000Y-41099366D01*
X172637832Y-41415245D01*
X172761082Y-41712796D01*
X172940013Y-41980585D01*
X172972313Y-42012885D01*
X172310199Y-42675000D01*
X172248061Y-42675000D01*
X172048102Y-42714774D01*
X171859744Y-42792795D01*
X171690226Y-42906063D01*
X171546063Y-43050226D01*
X171432795Y-43219744D01*
X171354774Y-43408102D01*
X171315000Y-43608061D01*
X171165000Y-43608061D01*
X171165000Y-43528061D01*
X171125226Y-43328102D01*
X171047205Y-43139744D01*
X170933937Y-42970226D01*
X170789774Y-42826063D01*
X170620256Y-42712795D01*
X170431898Y-42634774D01*
X170231939Y-42595000D01*
X170028061Y-42595000D01*
X169850000Y-42630418D01*
X169850000Y-37797333D01*
X169853677Y-37760000D01*
X169839003Y-37611014D01*
X169827699Y-37573746D01*
X173254192Y-37573746D01*
X173349956Y-37838147D01*
X173639571Y-37979037D01*
X173951108Y-38060717D01*
X174272595Y-38080051D01*
X174591675Y-38036294D01*
X174896088Y-37931128D01*
X175070044Y-37838147D01*
X175165808Y-37573746D01*
X179754192Y-37573746D01*
X179849956Y-37838147D01*
X180139571Y-37979037D01*
X180451108Y-38060717D01*
X180772595Y-38080051D01*
X181091675Y-38036294D01*
X181396088Y-37931128D01*
X181570044Y-37838147D01*
X181665808Y-37573746D01*
X180710000Y-36617938D01*
X179754192Y-37573746D01*
X175165808Y-37573746D01*
X174210000Y-36617938D01*
X173254192Y-37573746D01*
X169827699Y-37573746D01*
X169795546Y-37467753D01*
X169724974Y-37335724D01*
X169688282Y-37291015D01*
X169645000Y-37238275D01*
X169645000Y-37178061D01*
X169605226Y-36978102D01*
X169527205Y-36789744D01*
X169413937Y-36620226D01*
X169294639Y-36500928D01*
X172568282Y-36500928D01*
X172612039Y-36820008D01*
X172717205Y-37124421D01*
X172810186Y-37298377D01*
X173074587Y-37394141D01*
X174030395Y-36438333D01*
X174389605Y-36438333D01*
X175345413Y-37394141D01*
X175609814Y-37298377D01*
X175750704Y-37008762D01*
X175832384Y-36697225D01*
X175844189Y-36500928D01*
X179068282Y-36500928D01*
X179112039Y-36820008D01*
X179217205Y-37124421D01*
X179310186Y-37298377D01*
X179574587Y-37394141D01*
X180530395Y-36438333D01*
X180889605Y-36438333D01*
X181845413Y-37394141D01*
X182109814Y-37298377D01*
X182250704Y-37008762D01*
X182332384Y-36697225D01*
X182351718Y-36375738D01*
X182307961Y-36056658D01*
X182202795Y-35752245D01*
X182109814Y-35578289D01*
X181845413Y-35482525D01*
X180889605Y-36438333D01*
X180530395Y-36438333D01*
X179574587Y-35482525D01*
X179310186Y-35578289D01*
X179169296Y-35867904D01*
X179087616Y-36179441D01*
X179068282Y-36500928D01*
X175844189Y-36500928D01*
X175851718Y-36375738D01*
X175807961Y-36056658D01*
X175702795Y-35752245D01*
X175609814Y-35578289D01*
X175345413Y-35482525D01*
X174389605Y-36438333D01*
X174030395Y-36438333D01*
X173074587Y-35482525D01*
X172810186Y-35578289D01*
X172669296Y-35867904D01*
X172587616Y-36179441D01*
X172568282Y-36500928D01*
X169294639Y-36500928D01*
X169269774Y-36476063D01*
X169100256Y-36362795D01*
X168911898Y-36284774D01*
X168711939Y-36245000D01*
X168508061Y-36245000D01*
X168460000Y-36254560D01*
X168460000Y-35302920D01*
X173254192Y-35302920D01*
X174210000Y-36258728D01*
X175165808Y-35302920D01*
X179754192Y-35302920D01*
X180710000Y-36258728D01*
X181665808Y-35302920D01*
X181570044Y-35038519D01*
X181280429Y-34897629D01*
X180968892Y-34815949D01*
X180647405Y-34796615D01*
X180328325Y-34840372D01*
X180023912Y-34945538D01*
X179849956Y-35038519D01*
X179754192Y-35302920D01*
X175165808Y-35302920D01*
X175070044Y-35038519D01*
X174780429Y-34897629D01*
X174468892Y-34815949D01*
X174147405Y-34796615D01*
X173828325Y-34840372D01*
X173523912Y-34945538D01*
X173349956Y-35038519D01*
X173254192Y-35302920D01*
X168460000Y-35302920D01*
X168460000Y-32508061D01*
X171145000Y-32508061D01*
X171145000Y-32711939D01*
X171184774Y-32911898D01*
X171262795Y-33100256D01*
X171376063Y-33269774D01*
X171520226Y-33413937D01*
X171689744Y-33527205D01*
X171878102Y-33605226D01*
X172078061Y-33645000D01*
X172281939Y-33645000D01*
X172481898Y-33605226D01*
X172670256Y-33527205D01*
X172839774Y-33413937D01*
X172983937Y-33269774D01*
X173097205Y-33100256D01*
X173175226Y-32911898D01*
X173215000Y-32711939D01*
X173215000Y-32649801D01*
X173654985Y-32209817D01*
X173733088Y-32242168D01*
X174048967Y-32305000D01*
X174371033Y-32305000D01*
X174686912Y-32242168D01*
X174984463Y-32118918D01*
X175252252Y-31939987D01*
X175479987Y-31712252D01*
X175658918Y-31444463D01*
X175664909Y-31430000D01*
X179255091Y-31430000D01*
X179261082Y-31444463D01*
X179440013Y-31712252D01*
X179667748Y-31939987D01*
X179935537Y-32118918D01*
X180233088Y-32242168D01*
X180548967Y-32305000D01*
X180871033Y-32305000D01*
X181186912Y-32242168D01*
X181484463Y-32118918D01*
X181752252Y-31939987D01*
X181979987Y-31712252D01*
X182158918Y-31444463D01*
X182282168Y-31146912D01*
X182345000Y-30831033D01*
X182345000Y-30508967D01*
X182282168Y-30193088D01*
X182158918Y-29895537D01*
X181979987Y-29627748D01*
X181752252Y-29400013D01*
X181484463Y-29221082D01*
X181186912Y-29097832D01*
X180871033Y-29035000D01*
X180548967Y-29035000D01*
X180233088Y-29097832D01*
X179935537Y-29221082D01*
X179667748Y-29400013D01*
X179440013Y-29627748D01*
X179261082Y-29895537D01*
X179255091Y-29910000D01*
X175664909Y-29910000D01*
X175658918Y-29895537D01*
X175479987Y-29627748D01*
X175252252Y-29400013D01*
X174984463Y-29221082D01*
X174686912Y-29097832D01*
X174371033Y-29035000D01*
X174048967Y-29035000D01*
X173733088Y-29097832D01*
X173435537Y-29221082D01*
X173167748Y-29400013D01*
X172940013Y-29627748D01*
X172761082Y-29895537D01*
X172637832Y-30193088D01*
X172575000Y-30508967D01*
X172575000Y-30831033D01*
X172626294Y-31088905D01*
X172140199Y-31575000D01*
X172078061Y-31575000D01*
X171878102Y-31614774D01*
X171689744Y-31692795D01*
X171520226Y-31806063D01*
X171376063Y-31950226D01*
X171262795Y-32119744D01*
X171184774Y-32308102D01*
X171145000Y-32508061D01*
X168460000Y-32508061D01*
X168460000Y-28834801D01*
X169989388Y-27305413D01*
X173254192Y-27305413D01*
X173349956Y-27569814D01*
X173639571Y-27710704D01*
X173951108Y-27792384D01*
X174272595Y-27811718D01*
X174591675Y-27767961D01*
X174896088Y-27662795D01*
X175070044Y-27569814D01*
X175165808Y-27305413D01*
X179754192Y-27305413D01*
X179849956Y-27569814D01*
X180139571Y-27710704D01*
X180451108Y-27792384D01*
X180772595Y-27811718D01*
X181091675Y-27767961D01*
X181396088Y-27662795D01*
X181570044Y-27569814D01*
X181665808Y-27305413D01*
X180710000Y-26349605D01*
X179754192Y-27305413D01*
X175165808Y-27305413D01*
X174210000Y-26349605D01*
X173254192Y-27305413D01*
X169989388Y-27305413D01*
X171062206Y-26232595D01*
X172568282Y-26232595D01*
X172612039Y-26551675D01*
X172717205Y-26856088D01*
X172810186Y-27030044D01*
X173074587Y-27125808D01*
X174030395Y-26170000D01*
X174389605Y-26170000D01*
X175345413Y-27125808D01*
X175609814Y-27030044D01*
X175750704Y-26740429D01*
X175832384Y-26428892D01*
X175844189Y-26232595D01*
X179068282Y-26232595D01*
X179112039Y-26551675D01*
X179217205Y-26856088D01*
X179310186Y-27030044D01*
X179574587Y-27125808D01*
X180530395Y-26170000D01*
X180889605Y-26170000D01*
X181845413Y-27125808D01*
X182109814Y-27030044D01*
X182250704Y-26740429D01*
X182332384Y-26428892D01*
X182351718Y-26107405D01*
X182307961Y-25788325D01*
X182202795Y-25483912D01*
X182109814Y-25309956D01*
X181845413Y-25214192D01*
X180889605Y-26170000D01*
X180530395Y-26170000D01*
X179574587Y-25214192D01*
X179310186Y-25309956D01*
X179169296Y-25599571D01*
X179087616Y-25911108D01*
X179068282Y-26232595D01*
X175844189Y-26232595D01*
X175851718Y-26107405D01*
X175807961Y-25788325D01*
X175702795Y-25483912D01*
X175609814Y-25309956D01*
X175345413Y-25214192D01*
X174389605Y-26170000D01*
X174030395Y-26170000D01*
X173074587Y-25214192D01*
X172810186Y-25309956D01*
X172669296Y-25599571D01*
X172587616Y-25911108D01*
X172568282Y-26232595D01*
X171062206Y-26232595D01*
X172684802Y-24610000D01*
X173718443Y-24610000D01*
X173523912Y-24677205D01*
X173349956Y-24770186D01*
X173254192Y-25034587D01*
X174210000Y-25990395D01*
X175165808Y-25034587D01*
X179754192Y-25034587D01*
X180710000Y-25990395D01*
X181624422Y-25075973D01*
X188100043Y-25075973D01*
X188221184Y-25307999D01*
X189428001Y-25307999D01*
X189428001Y-24100535D01*
X189682001Y-24100535D01*
X189682001Y-25307999D01*
X191968001Y-25307999D01*
X191968001Y-24100535D01*
X192222001Y-24100535D01*
X192222001Y-25307999D01*
X193428818Y-25307999D01*
X193549959Y-25075973D01*
X193504223Y-24925185D01*
X193377685Y-24660055D01*
X193201855Y-24424706D01*
X192983489Y-24228182D01*
X192730979Y-24078035D01*
X192454028Y-23980036D01*
X192222001Y-24100535D01*
X191968001Y-24100535D01*
X191735974Y-23980036D01*
X191459023Y-24078035D01*
X191206513Y-24228182D01*
X190988147Y-24424706D01*
X190825001Y-24643077D01*
X190661855Y-24424706D01*
X190443489Y-24228182D01*
X190190979Y-24078035D01*
X189914028Y-23980036D01*
X189682001Y-24100535D01*
X189428001Y-24100535D01*
X189195974Y-23980036D01*
X188919023Y-24078035D01*
X188666513Y-24228182D01*
X188448147Y-24424706D01*
X188272317Y-24660055D01*
X188145779Y-24925185D01*
X188100043Y-25075973D01*
X181624422Y-25075973D01*
X181665808Y-25034587D01*
X181570044Y-24770186D01*
X181280429Y-24629296D01*
X180968892Y-24547616D01*
X180647405Y-24528282D01*
X180328325Y-24572039D01*
X180023912Y-24677205D01*
X179849956Y-24770186D01*
X179754192Y-25034587D01*
X175165808Y-25034587D01*
X175070044Y-24770186D01*
X174780429Y-24629296D01*
X174706832Y-24610000D01*
X175052678Y-24610000D01*
X175090000Y-24613676D01*
X175127322Y-24610000D01*
X175127333Y-24610000D01*
X175238986Y-24599003D01*
X175382247Y-24555546D01*
X175514276Y-24484974D01*
X175630001Y-24390001D01*
X175653804Y-24360997D01*
X177366004Y-22648798D01*
X177395002Y-22625000D01*
X177489975Y-22509275D01*
X177560547Y-22377246D01*
X177604004Y-22233985D01*
X177615001Y-22122332D01*
X177615001Y-22122323D01*
X177618677Y-22085000D01*
X177615001Y-22047677D01*
X177615001Y-21649534D01*
X177810303Y-21519038D01*
X178019040Y-21310301D01*
X178125001Y-21151718D01*
X178230962Y-21310301D01*
X178439699Y-21519038D01*
X178685148Y-21683041D01*
X178957876Y-21796009D01*
X179247402Y-21853599D01*
X179542600Y-21853599D01*
X179832126Y-21796009D01*
X180104854Y-21683041D01*
X180350303Y-21519038D01*
X180559040Y-21310301D01*
X180665001Y-21151718D01*
X180770962Y-21310301D01*
X180979699Y-21519038D01*
X181225148Y-21683041D01*
X181497876Y-21796009D01*
X181787402Y-21853599D01*
X182082600Y-21853599D01*
X182372126Y-21796009D01*
X182644854Y-21683041D01*
X182890303Y-21519038D01*
X183099040Y-21310301D01*
X183205001Y-21151718D01*
X183310962Y-21310301D01*
X183519699Y-21519038D01*
X183765148Y-21683041D01*
X184037876Y-21796009D01*
X184327402Y-21853599D01*
X184622600Y-21853599D01*
X184912126Y-21796009D01*
X185184854Y-21683041D01*
X185430303Y-21519038D01*
X185639040Y-21310301D01*
X185745001Y-21151718D01*
X185850962Y-21310301D01*
X186059699Y-21519038D01*
X186305148Y-21683041D01*
X186577876Y-21796009D01*
X186867402Y-21853599D01*
X187162600Y-21853599D01*
X187452126Y-21796009D01*
X187724854Y-21683041D01*
X187970303Y-21519038D01*
X188179040Y-21310301D01*
X188343043Y-21064852D01*
X188456011Y-20792124D01*
X188513601Y-20502598D01*
X188513601Y-20207400D01*
X188456011Y-19917874D01*
X188343043Y-19645146D01*
X188179040Y-19399697D01*
X187970303Y-19190960D01*
X187724854Y-19026957D01*
X187452126Y-18913989D01*
X187162600Y-18856399D01*
X186867402Y-18856399D01*
X186577876Y-18913989D01*
X186305148Y-19026957D01*
X186059699Y-19190960D01*
X185850962Y-19399697D01*
X185745001Y-19558280D01*
X185639040Y-19399697D01*
X185430303Y-19190960D01*
X185235001Y-19060464D01*
X185235001Y-19052324D01*
X185238677Y-19015001D01*
X185235001Y-18977678D01*
X185235001Y-18977668D01*
X185224004Y-18866015D01*
X185180547Y-18722754D01*
X185155022Y-18675000D01*
X185109975Y-18590724D01*
X185038800Y-18503998D01*
X185015002Y-18475000D01*
X184986004Y-18451202D01*
X184764802Y-18230000D01*
X191384867Y-18230000D01*
X191036332Y-18374368D01*
G36*
X144933991Y-19917874D02*
G01*
X144876401Y-20207400D01*
X144876401Y-20502598D01*
X144933991Y-20792124D01*
X145046959Y-21064852D01*
X145210962Y-21310301D01*
X145419699Y-21519038D01*
X145665148Y-21683041D01*
X145937876Y-21796009D01*
X146227402Y-21853599D01*
X146522600Y-21853599D01*
X146812126Y-21796009D01*
X147084854Y-21683041D01*
X147330303Y-21519038D01*
X147539040Y-21310301D01*
X147645001Y-21151718D01*
X147750962Y-21310301D01*
X147959699Y-21519038D01*
X148205148Y-21683041D01*
X148477876Y-21796009D01*
X148767402Y-21853599D01*
X149062600Y-21853599D01*
X149352126Y-21796009D01*
X149624854Y-21683041D01*
X149870303Y-21519038D01*
X150079040Y-21310301D01*
X150185001Y-21151718D01*
X150290962Y-21310301D01*
X150499699Y-21519038D01*
X150745148Y-21683041D01*
X151017876Y-21796009D01*
X151307402Y-21853599D01*
X151602600Y-21853599D01*
X151892126Y-21796009D01*
X152164854Y-21683041D01*
X152410303Y-21519038D01*
X152619040Y-21310301D01*
X152725001Y-21151718D01*
X152830962Y-21310301D01*
X153039699Y-21519038D01*
X153285148Y-21683041D01*
X153557876Y-21796009D01*
X153847402Y-21853599D01*
X154142600Y-21853599D01*
X154432126Y-21796009D01*
X154704854Y-21683041D01*
X154950303Y-21519038D01*
X155159040Y-21310301D01*
X155265001Y-21151718D01*
X155370962Y-21310301D01*
X155579699Y-21519038D01*
X155825148Y-21683041D01*
X156097876Y-21796009D01*
X156387402Y-21853599D01*
X156682600Y-21853599D01*
X156972126Y-21796009D01*
X157244854Y-21683041D01*
X157490303Y-21519038D01*
X157699040Y-21310301D01*
X157805001Y-21151718D01*
X157910962Y-21310301D01*
X158119699Y-21519038D01*
X158365148Y-21683041D01*
X158637876Y-21796009D01*
X158927402Y-21853599D01*
X159222600Y-21853599D01*
X159512126Y-21796009D01*
X159784854Y-21683041D01*
X160030303Y-21519038D01*
X160239040Y-21310301D01*
X160345001Y-21151718D01*
X160450962Y-21310301D01*
X160659699Y-21519038D01*
X160905148Y-21683041D01*
X161177876Y-21796009D01*
X161467402Y-21853599D01*
X161762600Y-21853599D01*
X162052126Y-21796009D01*
X162324854Y-21683041D01*
X162570303Y-21519038D01*
X162779040Y-21310301D01*
X162885001Y-21151718D01*
X162990962Y-21310301D01*
X163199699Y-21519038D01*
X163445148Y-21683041D01*
X163717876Y-21796009D01*
X164007402Y-21853599D01*
X164302600Y-21853599D01*
X164592126Y-21796009D01*
X164864854Y-21683041D01*
X165110303Y-21519038D01*
X165319040Y-21310301D01*
X165483043Y-21064852D01*
X165596011Y-20792124D01*
X165653601Y-20502598D01*
X165653601Y-20207400D01*
X165596011Y-19917874D01*
X165509906Y-19710000D01*
X167880096Y-19710000D01*
X167793991Y-19917874D01*
X167736401Y-20207400D01*
X167736401Y-20502598D01*
X167793991Y-20792124D01*
X167906959Y-21064852D01*
X168070962Y-21310301D01*
X168279699Y-21519038D01*
X168475002Y-21649534D01*
X168475001Y-24510197D01*
X165718998Y-27266201D01*
X165690000Y-27289999D01*
X165666202Y-27318997D01*
X165666201Y-27318998D01*
X165595026Y-27405724D01*
X165524454Y-27537754D01*
X165510131Y-27584974D01*
X165480998Y-27681014D01*
X165475609Y-27735725D01*
X165466324Y-27830000D01*
X165470001Y-27867333D01*
X165470000Y-47925198D01*
X165285199Y-48110000D01*
X156287322Y-48110000D01*
X156249999Y-48106324D01*
X156212676Y-48110000D01*
X156212667Y-48110000D01*
X156101014Y-48120997D01*
X155957753Y-48164454D01*
X155825724Y-48235026D01*
X155825722Y-48235027D01*
X155825723Y-48235027D01*
X155738996Y-48306201D01*
X155738992Y-48306205D01*
X155709999Y-48329999D01*
X155686205Y-48358992D01*
X154422793Y-49622405D01*
X154388692Y-49625764D01*
X154118193Y-49707818D01*
X153868900Y-49841068D01*
X153650393Y-50020392D01*
X153471068Y-50238899D01*
X153400000Y-50371858D01*
X153328932Y-50238899D01*
X153149608Y-50020392D01*
X152931101Y-49841068D01*
X152681808Y-49707818D01*
X152411309Y-49625764D01*
X152130000Y-49598057D01*
X151848692Y-49625764D01*
X151578193Y-49707818D01*
X151328900Y-49841068D01*
X151110393Y-50020392D01*
X150931068Y-50238899D01*
X150860000Y-50371858D01*
X150788932Y-50238899D01*
X150609608Y-50020392D01*
X150391101Y-49841068D01*
X150141808Y-49707818D01*
X149871309Y-49625764D01*
X149590000Y-49598057D01*
X149308692Y-49625764D01*
X149038193Y-49707818D01*
X148788900Y-49841068D01*
X148570393Y-50020392D01*
X148391068Y-50238899D01*
X148320000Y-50371858D01*
X148248932Y-50238899D01*
X148069608Y-50020392D01*
X147851101Y-49841068D01*
X147601808Y-49707818D01*
X147331309Y-49625764D01*
X147050000Y-49598057D01*
X146768692Y-49625764D01*
X146498193Y-49707818D01*
X146248900Y-49841068D01*
X146030393Y-50020392D01*
X145851068Y-50238899D01*
X145780000Y-50371858D01*
X145708932Y-50238899D01*
X145529608Y-50020392D01*
X145311101Y-49841068D01*
X145061808Y-49707818D01*
X144791309Y-49625764D01*
X144510000Y-49598057D01*
X144228692Y-49625764D01*
X143958193Y-49707818D01*
X143708900Y-49841068D01*
X143490393Y-50020392D01*
X143311068Y-50238899D01*
X143240000Y-50371858D01*
X143168932Y-50238899D01*
X142989608Y-50020392D01*
X142771101Y-49841068D01*
X142521808Y-49707818D01*
X142251309Y-49625764D01*
X141970000Y-49598057D01*
X141688692Y-49625764D01*
X141418193Y-49707818D01*
X141168900Y-49841068D01*
X140950393Y-50020392D01*
X140771068Y-50238899D01*
X140700000Y-50371858D01*
X140628932Y-50238899D01*
X140449608Y-50020392D01*
X140231101Y-49841068D01*
X139981808Y-49707818D01*
X139711309Y-49625764D01*
X139430000Y-49598057D01*
X139148692Y-49625764D01*
X138878193Y-49707818D01*
X138628900Y-49841068D01*
X138410393Y-50020392D01*
X138231068Y-50238899D01*
X138160000Y-50371858D01*
X138088932Y-50238899D01*
X137909608Y-50020392D01*
X137691101Y-49841068D01*
X137441808Y-49707818D01*
X137171309Y-49625764D01*
X136890000Y-49598057D01*
X136608692Y-49625764D01*
X136338193Y-49707818D01*
X136088900Y-49841068D01*
X135870393Y-50020392D01*
X135691068Y-50238899D01*
X135620000Y-50371858D01*
X135548932Y-50238899D01*
X135369608Y-50020392D01*
X135151101Y-49841068D01*
X134901808Y-49707818D01*
X134631309Y-49625764D01*
X134350000Y-49598057D01*
X134068692Y-49625764D01*
X133798193Y-49707818D01*
X133548900Y-49841068D01*
X133330393Y-50020392D01*
X133151068Y-50238899D01*
X133080000Y-50371858D01*
X133008932Y-50238899D01*
X132829608Y-50020392D01*
X132611101Y-49841068D01*
X132570000Y-49819099D01*
X132570000Y-49327333D01*
X132573677Y-49290000D01*
X132566883Y-49221015D01*
X132559003Y-49141014D01*
X132515546Y-48997753D01*
X132444974Y-48865724D01*
X132350001Y-48749999D01*
X132321004Y-48726202D01*
X131350000Y-47755199D01*
X131350000Y-37960031D01*
X131528691Y-38014236D01*
X131810000Y-38041943D01*
X132091308Y-38014236D01*
X132361807Y-37932182D01*
X132611100Y-37798932D01*
X132829607Y-37619608D01*
X133008932Y-37401101D01*
X133080000Y-37268142D01*
X133151068Y-37401100D01*
X133330392Y-37619607D01*
X133548899Y-37798932D01*
X133798192Y-37932182D01*
X134068691Y-38014236D01*
X134350000Y-38041943D01*
X134631308Y-38014236D01*
X134901807Y-37932182D01*
X135151100Y-37798932D01*
X135369607Y-37619608D01*
X135548932Y-37401101D01*
X135620000Y-37268142D01*
X135691068Y-37401100D01*
X135870392Y-37619607D01*
X136088899Y-37798932D01*
X136338192Y-37932182D01*
X136608691Y-38014236D01*
X136890000Y-38041943D01*
X137171308Y-38014236D01*
X137441807Y-37932182D01*
X137691100Y-37798932D01*
X137909607Y-37619608D01*
X138088932Y-37401101D01*
X138160000Y-37268142D01*
X138231068Y-37401100D01*
X138410392Y-37619607D01*
X138628899Y-37798932D01*
X138878192Y-37932182D01*
X139148691Y-38014236D01*
X139430000Y-38041943D01*
X139711308Y-38014236D01*
X139981807Y-37932182D01*
X140231100Y-37798932D01*
X140449607Y-37619608D01*
X140628932Y-37401101D01*
X140700000Y-37268142D01*
X140771068Y-37401100D01*
X140950392Y-37619607D01*
X141168899Y-37798932D01*
X141418192Y-37932182D01*
X141688691Y-38014236D01*
X141970000Y-38041943D01*
X142251308Y-38014236D01*
X142521807Y-37932182D01*
X142771100Y-37798932D01*
X142989607Y-37619608D01*
X143168932Y-37401101D01*
X143240000Y-37268142D01*
X143311068Y-37401100D01*
X143490392Y-37619607D01*
X143708899Y-37798932D01*
X143958192Y-37932182D01*
X144228691Y-38014236D01*
X144510000Y-38041943D01*
X144791308Y-38014236D01*
X145061807Y-37932182D01*
X145311100Y-37798932D01*
X145529607Y-37619608D01*
X145708932Y-37401101D01*
X145780000Y-37268142D01*
X145851068Y-37401100D01*
X146030392Y-37619607D01*
X146248899Y-37798932D01*
X146498192Y-37932182D01*
X146768691Y-38014236D01*
X147050000Y-38041943D01*
X147331308Y-38014236D01*
X147601807Y-37932182D01*
X147851100Y-37798932D01*
X148069607Y-37619608D01*
X148248932Y-37401101D01*
X148320000Y-37268142D01*
X148391068Y-37401100D01*
X148570392Y-37619607D01*
X148788899Y-37798932D01*
X149038192Y-37932182D01*
X149308691Y-38014236D01*
X149590000Y-38041943D01*
X149871308Y-38014236D01*
X150141807Y-37932182D01*
X150391100Y-37798932D01*
X150609607Y-37619608D01*
X150788932Y-37401101D01*
X150860000Y-37268142D01*
X150931068Y-37401100D01*
X151110392Y-37619607D01*
X151328899Y-37798932D01*
X151578192Y-37932182D01*
X151848691Y-38014236D01*
X152130000Y-38041943D01*
X152411308Y-38014236D01*
X152681807Y-37932182D01*
X152931100Y-37798932D01*
X153149607Y-37619608D01*
X153328932Y-37401101D01*
X153400000Y-37268142D01*
X153471068Y-37401100D01*
X153650392Y-37619607D01*
X153868899Y-37798932D01*
X154118192Y-37932182D01*
X154388691Y-38014236D01*
X154670000Y-38041943D01*
X154951308Y-38014236D01*
X155221807Y-37932182D01*
X155471100Y-37798932D01*
X155689607Y-37619608D01*
X155868932Y-37401101D01*
X155940000Y-37268142D01*
X156011068Y-37401100D01*
X156190392Y-37619607D01*
X156408899Y-37798932D01*
X156658192Y-37932182D01*
X156928691Y-38014236D01*
X157210000Y-38041943D01*
X157491308Y-38014236D01*
X157761807Y-37932182D01*
X158011100Y-37798932D01*
X158229607Y-37619608D01*
X158408932Y-37401101D01*
X158480000Y-37268142D01*
X158551068Y-37401100D01*
X158730392Y-37619607D01*
X158948899Y-37798932D01*
X159198192Y-37932182D01*
X159468691Y-38014236D01*
X159750000Y-38041943D01*
X160031308Y-38014236D01*
X160301807Y-37932182D01*
X160551100Y-37798932D01*
X160769607Y-37619608D01*
X160948932Y-37401101D01*
X161017265Y-37273259D01*
X161167399Y-37502839D01*
X161365105Y-37704500D01*
X161598354Y-37863715D01*
X161858182Y-37974367D01*
X161940961Y-37991904D01*
X162163000Y-37869915D01*
X162163000Y-36327000D01*
X162417000Y-36327000D01*
X162417000Y-37869915D01*
X162639039Y-37991904D01*
X162721818Y-37974367D01*
X162981646Y-37863715D01*
X163214895Y-37704500D01*
X163412601Y-37502839D01*
X163567166Y-37266483D01*
X163672650Y-37004514D01*
X163725000Y-36727000D01*
X163725000Y-36327000D01*
X162417000Y-36327000D01*
X162163000Y-36327000D01*
X162143000Y-36327000D01*
X162143000Y-36073000D01*
X162163000Y-36073000D01*
X162163000Y-34530085D01*
X162417000Y-34530085D01*
X162417000Y-36073000D01*
X163725000Y-36073000D01*
X163725000Y-35673000D01*
X163672650Y-35395486D01*
X163567166Y-35133517D01*
X163412601Y-34897161D01*
X163214895Y-34695500D01*
X162981646Y-34536285D01*
X162721818Y-34425633D01*
X162639039Y-34408096D01*
X162417000Y-34530085D01*
X162163000Y-34530085D01*
X161940961Y-34408096D01*
X161858182Y-34425633D01*
X161598354Y-34536285D01*
X161365105Y-34695500D01*
X161167399Y-34897161D01*
X161017265Y-35126741D01*
X160948932Y-34998899D01*
X160769608Y-34780392D01*
X160590000Y-34632992D01*
X160590000Y-26893711D01*
X160633937Y-26849774D01*
X160747205Y-26680256D01*
X160825226Y-26491898D01*
X160865000Y-26291939D01*
X160865000Y-26088061D01*
X160825226Y-25888102D01*
X160747205Y-25699744D01*
X160633937Y-25530226D01*
X160489774Y-25386063D01*
X160320256Y-25272795D01*
X160131898Y-25194774D01*
X159931939Y-25155000D01*
X159728061Y-25155000D01*
X159528102Y-25194774D01*
X159339744Y-25272795D01*
X159170226Y-25386063D01*
X159026063Y-25530226D01*
X158912795Y-25699744D01*
X158834774Y-25888102D01*
X158795000Y-26088061D01*
X158795000Y-26291939D01*
X158834774Y-26491898D01*
X158912795Y-26680256D01*
X159026063Y-26849774D01*
X159070000Y-26893711D01*
X159070000Y-27142377D01*
X159055226Y-27068102D01*
X158977205Y-26879744D01*
X158863937Y-26710226D01*
X158719774Y-26566063D01*
X158550256Y-26452795D01*
X158361898Y-26374774D01*
X158161939Y-26335000D01*
X157958061Y-26335000D01*
X157758102Y-26374774D01*
X157569744Y-26452795D01*
X157400226Y-26566063D01*
X157256063Y-26710226D01*
X157142795Y-26879744D01*
X157064774Y-27068102D01*
X157025000Y-27268061D01*
X157025000Y-27330199D01*
X156699002Y-27656197D01*
X156669999Y-27679999D01*
X156630556Y-27728061D01*
X156575026Y-27795724D01*
X156536525Y-27867754D01*
X156504454Y-27927754D01*
X156460997Y-28071015D01*
X156450000Y-28182668D01*
X156450000Y-28182678D01*
X156446324Y-28220000D01*
X156450000Y-28257322D01*
X156450001Y-34579099D01*
X156408900Y-34601068D01*
X156190393Y-34780392D01*
X156011068Y-34998899D01*
X155940000Y-35131858D01*
X155868932Y-34998899D01*
X155689608Y-34780392D01*
X155471101Y-34601068D01*
X155430000Y-34579099D01*
X155430000Y-28772164D01*
X155490256Y-28747205D01*
X155659774Y-28633937D01*
X155803937Y-28489774D01*
X155917205Y-28320256D01*
X155995226Y-28131898D01*
X156035000Y-27931939D01*
X156035000Y-27728061D01*
X155995226Y-27528102D01*
X155917205Y-27339744D01*
X155803937Y-27170226D01*
X155659774Y-27026063D01*
X155490256Y-26912795D01*
X155301898Y-26834774D01*
X155101939Y-26795000D01*
X154898061Y-26795000D01*
X154698102Y-26834774D01*
X154509744Y-26912795D01*
X154340226Y-27026063D01*
X154196063Y-27170226D01*
X154082795Y-27339744D01*
X154004774Y-27528102D01*
X153965000Y-27728061D01*
X153965000Y-27866733D01*
X153964454Y-27867754D01*
X153920997Y-28011015D01*
X153910000Y-28122668D01*
X153910000Y-28122678D01*
X153906324Y-28160000D01*
X153910000Y-28197322D01*
X153910001Y-34579099D01*
X153868900Y-34601068D01*
X153650393Y-34780392D01*
X153471068Y-34998899D01*
X153400000Y-35131858D01*
X153328932Y-34998899D01*
X153149608Y-34780392D01*
X152931101Y-34601068D01*
X152681808Y-34467818D01*
X152411309Y-34385764D01*
X152130000Y-34358057D01*
X151848692Y-34385764D01*
X151578193Y-34467818D01*
X151328900Y-34601068D01*
X151110393Y-34780392D01*
X150931068Y-34998899D01*
X150860000Y-35131858D01*
X150788932Y-34998899D01*
X150609608Y-34780392D01*
X150391101Y-34601068D01*
X150141808Y-34467818D01*
X149871309Y-34385764D01*
X149590000Y-34358057D01*
X149308692Y-34385764D01*
X149038193Y-34467818D01*
X148788900Y-34601068D01*
X148570393Y-34780392D01*
X148391068Y-34998899D01*
X148320000Y-35131858D01*
X148248932Y-34998899D01*
X148069608Y-34780392D01*
X147851101Y-34601068D01*
X147601808Y-34467818D01*
X147331309Y-34385764D01*
X147050000Y-34358057D01*
X146768692Y-34385764D01*
X146498193Y-34467818D01*
X146248900Y-34601068D01*
X146030393Y-34780392D01*
X145851068Y-34998899D01*
X145780000Y-35131858D01*
X145708932Y-34998899D01*
X145529608Y-34780392D01*
X145311101Y-34601068D01*
X145061808Y-34467818D01*
X144791309Y-34385764D01*
X144510000Y-34358057D01*
X144228692Y-34385764D01*
X143958193Y-34467818D01*
X143708900Y-34601068D01*
X143490393Y-34780392D01*
X143311068Y-34998899D01*
X143240000Y-35131858D01*
X143168932Y-34998899D01*
X142989608Y-34780392D01*
X142771101Y-34601068D01*
X142521808Y-34467818D01*
X142251309Y-34385764D01*
X141970000Y-34358057D01*
X141688692Y-34385764D01*
X141418193Y-34467818D01*
X141168900Y-34601068D01*
X140950393Y-34780392D01*
X140771068Y-34998899D01*
X140700000Y-35131858D01*
X140628932Y-34998899D01*
X140449608Y-34780392D01*
X140231101Y-34601068D01*
X139981808Y-34467818D01*
X139711309Y-34385764D01*
X139430000Y-34358057D01*
X139148692Y-34385764D01*
X138878193Y-34467818D01*
X138628900Y-34601068D01*
X138410393Y-34780392D01*
X138231068Y-34998899D01*
X138160000Y-35131858D01*
X138088932Y-34998899D01*
X137909608Y-34780392D01*
X137691101Y-34601068D01*
X137441808Y-34467818D01*
X137171309Y-34385764D01*
X136890000Y-34358057D01*
X136608692Y-34385764D01*
X136338193Y-34467818D01*
X136088900Y-34601068D01*
X135870393Y-34780392D01*
X135691068Y-34998899D01*
X135620000Y-35131858D01*
X135548932Y-34998899D01*
X135369608Y-34780392D01*
X135151101Y-34601068D01*
X134901808Y-34467818D01*
X134631309Y-34385764D01*
X134350000Y-34358057D01*
X134068692Y-34385764D01*
X133798193Y-34467818D01*
X133548900Y-34601068D01*
X133330393Y-34780392D01*
X133151068Y-34998899D01*
X133080000Y-35131858D01*
X133008932Y-34998899D01*
X132829608Y-34780392D01*
X132611101Y-34601068D01*
X132361808Y-34467818D01*
X132091309Y-34385764D01*
X131810000Y-34358057D01*
X131528692Y-34385764D01*
X131350000Y-34439969D01*
X131350000Y-28780000D01*
X140051928Y-28780000D01*
X140051928Y-30480000D01*
X140064188Y-30604482D01*
X140100498Y-30724180D01*
X140159463Y-30834494D01*
X140238815Y-30931185D01*
X140335506Y-31010537D01*
X140445820Y-31069502D01*
X140565518Y-31105812D01*
X140690000Y-31118072D01*
X142390000Y-31118072D01*
X142514482Y-31105812D01*
X142634180Y-31069502D01*
X142744494Y-31010537D01*
X142841185Y-30931185D01*
X142920537Y-30834494D01*
X142979502Y-30724180D01*
X143001513Y-30651620D01*
X143133368Y-30783475D01*
X143376589Y-30945990D01*
X143646842Y-31057932D01*
X143933740Y-31115000D01*
X144226260Y-31115000D01*
X144513158Y-31057932D01*
X144783411Y-30945990D01*
X145026632Y-30783475D01*
X145233475Y-30576632D01*
X145350000Y-30402240D01*
X145466525Y-30576632D01*
X145673368Y-30783475D01*
X145916589Y-30945990D01*
X146186842Y-31057932D01*
X146473740Y-31115000D01*
X146766260Y-31115000D01*
X147053158Y-31057932D01*
X147323411Y-30945990D01*
X147566632Y-30783475D01*
X147773475Y-30576632D01*
X147935990Y-30333411D01*
X148047932Y-30063158D01*
X148105000Y-29776260D01*
X148105000Y-29483740D01*
X148047932Y-29196842D01*
X147935990Y-28926589D01*
X147773475Y-28683368D01*
X147566632Y-28476525D01*
X147455000Y-28401935D01*
X147455000Y-27462368D01*
X147525172Y-27331086D01*
X147537635Y-27290000D01*
X147572918Y-27173688D01*
X147589040Y-27010000D01*
X147572918Y-26846311D01*
X147525172Y-26688913D01*
X147447636Y-26543854D01*
X147369439Y-26448570D01*
X147369436Y-26448567D01*
X147343291Y-26416709D01*
X147311433Y-26390564D01*
X145486078Y-24565210D01*
X145650256Y-24497205D01*
X145819774Y-24383937D01*
X145963937Y-24239774D01*
X146077205Y-24070256D01*
X146155226Y-23881898D01*
X146195000Y-23681939D01*
X146195000Y-23478061D01*
X146155226Y-23278102D01*
X146077205Y-23089744D01*
X145963937Y-22920226D01*
X145819774Y-22776063D01*
X145650256Y-22662795D01*
X145461898Y-22584774D01*
X145261939Y-22545000D01*
X145129801Y-22545000D01*
X145063803Y-22479002D01*
X145040001Y-22449999D01*
X144924276Y-22355026D01*
X144792247Y-22284454D01*
X144648986Y-22240997D01*
X144537333Y-22230000D01*
X144537322Y-22230000D01*
X144500000Y-22226324D01*
X144462678Y-22230000D01*
X143447333Y-22230000D01*
X143410000Y-22226323D01*
X143372667Y-22230000D01*
X143261014Y-22240997D01*
X143117753Y-22284454D01*
X142985724Y-22355026D01*
X142869999Y-22449999D01*
X142846201Y-22478997D01*
X141159003Y-24166196D01*
X141129999Y-24189999D01*
X141089150Y-24239774D01*
X141035026Y-24305724D01*
X141030769Y-24313689D01*
X140964454Y-24437754D01*
X140920997Y-24581015D01*
X140910000Y-24692668D01*
X140910000Y-24692678D01*
X140906324Y-24730000D01*
X140910000Y-24767323D01*
X140910001Y-28141928D01*
X140690000Y-28141928D01*
X140565518Y-28154188D01*
X140445820Y-28190498D01*
X140335506Y-28249463D01*
X140238815Y-28328815D01*
X140159463Y-28425506D01*
X140100498Y-28535820D01*
X140064188Y-28655518D01*
X140051928Y-28780000D01*
X131350000Y-28780000D01*
X131350000Y-26184801D01*
X133794802Y-23740000D01*
X140872678Y-23740000D01*
X140910000Y-23743676D01*
X140947322Y-23740000D01*
X140947333Y-23740000D01*
X141058986Y-23729003D01*
X141202247Y-23685546D01*
X141334276Y-23614974D01*
X141450001Y-23520001D01*
X141473804Y-23490997D01*
X142896510Y-22068292D01*
X143058102Y-22135226D01*
X143258061Y-22175000D01*
X143461939Y-22175000D01*
X143661898Y-22135226D01*
X143850256Y-22057205D01*
X144019774Y-21943937D01*
X144163937Y-21799774D01*
X144277205Y-21630256D01*
X144355226Y-21441898D01*
X144395000Y-21241939D01*
X144395000Y-21038061D01*
X144355226Y-20838102D01*
X144277205Y-20649744D01*
X144163937Y-20480226D01*
X144019774Y-20336063D01*
X143850256Y-20222795D01*
X143661898Y-20144774D01*
X143461939Y-20105000D01*
X143258061Y-20105000D01*
X143058102Y-20144774D01*
X142869744Y-20222795D01*
X142793601Y-20273672D01*
X142793601Y-20207400D01*
X142736011Y-19917874D01*
X142649906Y-19710000D01*
X145020096Y-19710000D01*
X144933991Y-19917874D01*
G37*
X144933991Y-19917874D02*
X144876401Y-20207400D01*
X144876401Y-20502598D01*
X144933991Y-20792124D01*
X145046959Y-21064852D01*
X145210962Y-21310301D01*
X145419699Y-21519038D01*
X145665148Y-21683041D01*
X145937876Y-21796009D01*
X146227402Y-21853599D01*
X146522600Y-21853599D01*
X146812126Y-21796009D01*
X147084854Y-21683041D01*
X147330303Y-21519038D01*
X147539040Y-21310301D01*
X147645001Y-21151718D01*
X147750962Y-21310301D01*
X147959699Y-21519038D01*
X148205148Y-21683041D01*
X148477876Y-21796009D01*
X148767402Y-21853599D01*
X149062600Y-21853599D01*
X149352126Y-21796009D01*
X149624854Y-21683041D01*
X149870303Y-21519038D01*
X150079040Y-21310301D01*
X150185001Y-21151718D01*
X150290962Y-21310301D01*
X150499699Y-21519038D01*
X150745148Y-21683041D01*
X151017876Y-21796009D01*
X151307402Y-21853599D01*
X151602600Y-21853599D01*
X151892126Y-21796009D01*
X152164854Y-21683041D01*
X152410303Y-21519038D01*
X152619040Y-21310301D01*
X152725001Y-21151718D01*
X152830962Y-21310301D01*
X153039699Y-21519038D01*
X153285148Y-21683041D01*
X153557876Y-21796009D01*
X153847402Y-21853599D01*
X154142600Y-21853599D01*
X154432126Y-21796009D01*
X154704854Y-21683041D01*
X154950303Y-21519038D01*
X155159040Y-21310301D01*
X155265001Y-21151718D01*
X155370962Y-21310301D01*
X155579699Y-21519038D01*
X155825148Y-21683041D01*
X156097876Y-21796009D01*
X156387402Y-21853599D01*
X156682600Y-21853599D01*
X156972126Y-21796009D01*
X157244854Y-21683041D01*
X157490303Y-21519038D01*
X157699040Y-21310301D01*
X157805001Y-21151718D01*
X157910962Y-21310301D01*
X158119699Y-21519038D01*
X158365148Y-21683041D01*
X158637876Y-21796009D01*
X158927402Y-21853599D01*
X159222600Y-21853599D01*
X159512126Y-21796009D01*
X159784854Y-21683041D01*
X160030303Y-21519038D01*
X160239040Y-21310301D01*
X160345001Y-21151718D01*
X160450962Y-21310301D01*
X160659699Y-21519038D01*
X160905148Y-21683041D01*
X161177876Y-21796009D01*
X161467402Y-21853599D01*
X161762600Y-21853599D01*
X162052126Y-21796009D01*
X162324854Y-21683041D01*
X162570303Y-21519038D01*
X162779040Y-21310301D01*
X162885001Y-21151718D01*
X162990962Y-21310301D01*
X163199699Y-21519038D01*
X163445148Y-21683041D01*
X163717876Y-21796009D01*
X164007402Y-21853599D01*
X164302600Y-21853599D01*
X164592126Y-21796009D01*
X164864854Y-21683041D01*
X165110303Y-21519038D01*
X165319040Y-21310301D01*
X165483043Y-21064852D01*
X165596011Y-20792124D01*
X165653601Y-20502598D01*
X165653601Y-20207400D01*
X165596011Y-19917874D01*
X165509906Y-19710000D01*
X167880096Y-19710000D01*
X167793991Y-19917874D01*
X167736401Y-20207400D01*
X167736401Y-20502598D01*
X167793991Y-20792124D01*
X167906959Y-21064852D01*
X168070962Y-21310301D01*
X168279699Y-21519038D01*
X168475002Y-21649534D01*
X168475001Y-24510197D01*
X165718998Y-27266201D01*
X165690000Y-27289999D01*
X165666202Y-27318997D01*
X165666201Y-27318998D01*
X165595026Y-27405724D01*
X165524454Y-27537754D01*
X165510131Y-27584974D01*
X165480998Y-27681014D01*
X165475609Y-27735725D01*
X165466324Y-27830000D01*
X165470001Y-27867333D01*
X165470000Y-47925198D01*
X165285199Y-48110000D01*
X156287322Y-48110000D01*
X156249999Y-48106324D01*
X156212676Y-48110000D01*
X156212667Y-48110000D01*
X156101014Y-48120997D01*
X155957753Y-48164454D01*
X155825724Y-48235026D01*
X155825722Y-48235027D01*
X155825723Y-48235027D01*
X155738996Y-48306201D01*
X155738992Y-48306205D01*
X155709999Y-48329999D01*
X155686205Y-48358992D01*
X154422793Y-49622405D01*
X154388692Y-49625764D01*
X154118193Y-49707818D01*
X153868900Y-49841068D01*
X153650393Y-50020392D01*
X153471068Y-50238899D01*
X153400000Y-50371858D01*
X153328932Y-50238899D01*
X153149608Y-50020392D01*
X152931101Y-49841068D01*
X152681808Y-49707818D01*
X152411309Y-49625764D01*
X152130000Y-49598057D01*
X151848692Y-49625764D01*
X151578193Y-49707818D01*
X151328900Y-49841068D01*
X151110393Y-50020392D01*
X150931068Y-50238899D01*
X150860000Y-50371858D01*
X150788932Y-50238899D01*
X150609608Y-50020392D01*
X150391101Y-49841068D01*
X150141808Y-49707818D01*
X149871309Y-49625764D01*
X149590000Y-49598057D01*
X149308692Y-49625764D01*
X149038193Y-49707818D01*
X148788900Y-49841068D01*
X148570393Y-50020392D01*
X148391068Y-50238899D01*
X148320000Y-50371858D01*
X148248932Y-50238899D01*
X148069608Y-50020392D01*
X147851101Y-49841068D01*
X147601808Y-49707818D01*
X147331309Y-49625764D01*
X147050000Y-49598057D01*
X146768692Y-49625764D01*
X146498193Y-49707818D01*
X146248900Y-49841068D01*
X146030393Y-50020392D01*
X145851068Y-50238899D01*
X145780000Y-50371858D01*
X145708932Y-50238899D01*
X145529608Y-50020392D01*
X145311101Y-49841068D01*
X145061808Y-49707818D01*
X144791309Y-49625764D01*
X144510000Y-49598057D01*
X144228692Y-49625764D01*
X143958193Y-49707818D01*
X143708900Y-49841068D01*
X143490393Y-50020392D01*
X143311068Y-50238899D01*
X143240000Y-50371858D01*
X143168932Y-50238899D01*
X142989608Y-50020392D01*
X142771101Y-49841068D01*
X142521808Y-49707818D01*
X142251309Y-49625764D01*
X141970000Y-49598057D01*
X141688692Y-49625764D01*
X141418193Y-49707818D01*
X141168900Y-49841068D01*
X140950393Y-50020392D01*
X140771068Y-50238899D01*
X140700000Y-50371858D01*
X140628932Y-50238899D01*
X140449608Y-50020392D01*
X140231101Y-49841068D01*
X139981808Y-49707818D01*
X139711309Y-49625764D01*
X139430000Y-49598057D01*
X139148692Y-49625764D01*
X138878193Y-49707818D01*
X138628900Y-49841068D01*
X138410393Y-50020392D01*
X138231068Y-50238899D01*
X138160000Y-50371858D01*
X138088932Y-50238899D01*
X137909608Y-50020392D01*
X137691101Y-49841068D01*
X137441808Y-49707818D01*
X137171309Y-49625764D01*
X136890000Y-49598057D01*
X136608692Y-49625764D01*
X136338193Y-49707818D01*
X136088900Y-49841068D01*
X135870393Y-50020392D01*
X135691068Y-50238899D01*
X135620000Y-50371858D01*
X135548932Y-50238899D01*
X135369608Y-50020392D01*
X135151101Y-49841068D01*
X134901808Y-49707818D01*
X134631309Y-49625764D01*
X134350000Y-49598057D01*
X134068692Y-49625764D01*
X133798193Y-49707818D01*
X133548900Y-49841068D01*
X133330393Y-50020392D01*
X133151068Y-50238899D01*
X133080000Y-50371858D01*
X133008932Y-50238899D01*
X132829608Y-50020392D01*
X132611101Y-49841068D01*
X132570000Y-49819099D01*
X132570000Y-49327333D01*
X132573677Y-49290000D01*
X132566883Y-49221015D01*
X132559003Y-49141014D01*
X132515546Y-48997753D01*
X132444974Y-48865724D01*
X132350001Y-48749999D01*
X132321004Y-48726202D01*
X131350000Y-47755199D01*
X131350000Y-37960031D01*
X131528691Y-38014236D01*
X131810000Y-38041943D01*
X132091308Y-38014236D01*
X132361807Y-37932182D01*
X132611100Y-37798932D01*
X132829607Y-37619608D01*
X133008932Y-37401101D01*
X133080000Y-37268142D01*
X133151068Y-37401100D01*
X133330392Y-37619607D01*
X133548899Y-37798932D01*
X133798192Y-37932182D01*
X134068691Y-38014236D01*
X134350000Y-38041943D01*
X134631308Y-38014236D01*
X134901807Y-37932182D01*
X135151100Y-37798932D01*
X135369607Y-37619608D01*
X135548932Y-37401101D01*
X135620000Y-37268142D01*
X135691068Y-37401100D01*
X135870392Y-37619607D01*
X136088899Y-37798932D01*
X136338192Y-37932182D01*
X136608691Y-38014236D01*
X136890000Y-38041943D01*
X137171308Y-38014236D01*
X137441807Y-37932182D01*
X137691100Y-37798932D01*
X137909607Y-37619608D01*
X138088932Y-37401101D01*
X138160000Y-37268142D01*
X138231068Y-37401100D01*
X138410392Y-37619607D01*
X138628899Y-37798932D01*
X138878192Y-37932182D01*
X139148691Y-38014236D01*
X139430000Y-38041943D01*
X139711308Y-38014236D01*
X139981807Y-37932182D01*
X140231100Y-37798932D01*
X140449607Y-37619608D01*
X140628932Y-37401101D01*
X140700000Y-37268142D01*
X140771068Y-37401100D01*
X140950392Y-37619607D01*
X141168899Y-37798932D01*
X141418192Y-37932182D01*
X141688691Y-38014236D01*
X141970000Y-38041943D01*
X142251308Y-38014236D01*
X142521807Y-37932182D01*
X142771100Y-37798932D01*
X142989607Y-37619608D01*
X143168932Y-37401101D01*
X143240000Y-37268142D01*
X143311068Y-37401100D01*
X143490392Y-37619607D01*
X143708899Y-37798932D01*
X143958192Y-37932182D01*
X144228691Y-38014236D01*
X144510000Y-38041943D01*
X144791308Y-38014236D01*
X145061807Y-37932182D01*
X145311100Y-37798932D01*
X145529607Y-37619608D01*
X145708932Y-37401101D01*
X145780000Y-37268142D01*
X145851068Y-37401100D01*
X146030392Y-37619607D01*
X146248899Y-37798932D01*
X146498192Y-37932182D01*
X146768691Y-38014236D01*
X147050000Y-38041943D01*
X147331308Y-38014236D01*
X147601807Y-37932182D01*
X147851100Y-37798932D01*
X148069607Y-37619608D01*
X148248932Y-37401101D01*
X148320000Y-37268142D01*
X148391068Y-37401100D01*
X148570392Y-37619607D01*
X148788899Y-37798932D01*
X149038192Y-37932182D01*
X149308691Y-38014236D01*
X149590000Y-38041943D01*
X149871308Y-38014236D01*
X150141807Y-37932182D01*
X150391100Y-37798932D01*
X150609607Y-37619608D01*
X150788932Y-37401101D01*
X150860000Y-37268142D01*
X150931068Y-37401100D01*
X151110392Y-37619607D01*
X151328899Y-37798932D01*
X151578192Y-37932182D01*
X151848691Y-38014236D01*
X152130000Y-38041943D01*
X152411308Y-38014236D01*
X152681807Y-37932182D01*
X152931100Y-37798932D01*
X153149607Y-37619608D01*
X153328932Y-37401101D01*
X153400000Y-37268142D01*
X153471068Y-37401100D01*
X153650392Y-37619607D01*
X153868899Y-37798932D01*
X154118192Y-37932182D01*
X154388691Y-38014236D01*
X154670000Y-38041943D01*
X154951308Y-38014236D01*
X155221807Y-37932182D01*
X155471100Y-37798932D01*
X155689607Y-37619608D01*
X155868932Y-37401101D01*
X155940000Y-37268142D01*
X156011068Y-37401100D01*
X156190392Y-37619607D01*
X156408899Y-37798932D01*
X156658192Y-37932182D01*
X156928691Y-38014236D01*
X157210000Y-38041943D01*
X157491308Y-38014236D01*
X157761807Y-37932182D01*
X158011100Y-37798932D01*
X158229607Y-37619608D01*
X158408932Y-37401101D01*
X158480000Y-37268142D01*
X158551068Y-37401100D01*
X158730392Y-37619607D01*
X158948899Y-37798932D01*
X159198192Y-37932182D01*
X159468691Y-38014236D01*
X159750000Y-38041943D01*
X160031308Y-38014236D01*
X160301807Y-37932182D01*
X160551100Y-37798932D01*
X160769607Y-37619608D01*
X160948932Y-37401101D01*
X161017265Y-37273259D01*
X161167399Y-37502839D01*
X161365105Y-37704500D01*
X161598354Y-37863715D01*
X161858182Y-37974367D01*
X161940961Y-37991904D01*
X162163000Y-37869915D01*
X162163000Y-36327000D01*
X162417000Y-36327000D01*
X162417000Y-37869915D01*
X162639039Y-37991904D01*
X162721818Y-37974367D01*
X162981646Y-37863715D01*
X163214895Y-37704500D01*
X163412601Y-37502839D01*
X163567166Y-37266483D01*
X163672650Y-37004514D01*
X163725000Y-36727000D01*
X163725000Y-36327000D01*
X162417000Y-36327000D01*
X162163000Y-36327000D01*
X162143000Y-36327000D01*
X162143000Y-36073000D01*
X162163000Y-36073000D01*
X162163000Y-34530085D01*
X162417000Y-34530085D01*
X162417000Y-36073000D01*
X163725000Y-36073000D01*
X163725000Y-35673000D01*
X163672650Y-35395486D01*
X163567166Y-35133517D01*
X163412601Y-34897161D01*
X163214895Y-34695500D01*
X162981646Y-34536285D01*
X162721818Y-34425633D01*
X162639039Y-34408096D01*
X162417000Y-34530085D01*
X162163000Y-34530085D01*
X161940961Y-34408096D01*
X161858182Y-34425633D01*
X161598354Y-34536285D01*
X161365105Y-34695500D01*
X161167399Y-34897161D01*
X161017265Y-35126741D01*
X160948932Y-34998899D01*
X160769608Y-34780392D01*
X160590000Y-34632992D01*
X160590000Y-26893711D01*
X160633937Y-26849774D01*
X160747205Y-26680256D01*
X160825226Y-26491898D01*
X160865000Y-26291939D01*
X160865000Y-26088061D01*
X160825226Y-25888102D01*
X160747205Y-25699744D01*
X160633937Y-25530226D01*
X160489774Y-25386063D01*
X160320256Y-25272795D01*
X160131898Y-25194774D01*
X159931939Y-25155000D01*
X159728061Y-25155000D01*
X159528102Y-25194774D01*
X159339744Y-25272795D01*
X159170226Y-25386063D01*
X159026063Y-25530226D01*
X158912795Y-25699744D01*
X158834774Y-25888102D01*
X158795000Y-26088061D01*
X158795000Y-26291939D01*
X158834774Y-26491898D01*
X158912795Y-26680256D01*
X159026063Y-26849774D01*
X159070000Y-26893711D01*
X159070000Y-27142377D01*
X159055226Y-27068102D01*
X158977205Y-26879744D01*
X158863937Y-26710226D01*
X158719774Y-26566063D01*
X158550256Y-26452795D01*
X158361898Y-26374774D01*
X158161939Y-26335000D01*
X157958061Y-26335000D01*
X157758102Y-26374774D01*
X157569744Y-26452795D01*
X157400226Y-26566063D01*
X157256063Y-26710226D01*
X157142795Y-26879744D01*
X157064774Y-27068102D01*
X157025000Y-27268061D01*
X157025000Y-27330199D01*
X156699002Y-27656197D01*
X156669999Y-27679999D01*
X156630556Y-27728061D01*
X156575026Y-27795724D01*
X156536525Y-27867754D01*
X156504454Y-27927754D01*
X156460997Y-28071015D01*
X156450000Y-28182668D01*
X156450000Y-28182678D01*
X156446324Y-28220000D01*
X156450000Y-28257322D01*
X156450001Y-34579099D01*
X156408900Y-34601068D01*
X156190393Y-34780392D01*
X156011068Y-34998899D01*
X155940000Y-35131858D01*
X155868932Y-34998899D01*
X155689608Y-34780392D01*
X155471101Y-34601068D01*
X155430000Y-34579099D01*
X155430000Y-28772164D01*
X155490256Y-28747205D01*
X155659774Y-28633937D01*
X155803937Y-28489774D01*
X155917205Y-28320256D01*
X155995226Y-28131898D01*
X156035000Y-27931939D01*
X156035000Y-27728061D01*
X155995226Y-27528102D01*
X155917205Y-27339744D01*
X155803937Y-27170226D01*
X155659774Y-27026063D01*
X155490256Y-26912795D01*
X155301898Y-26834774D01*
X155101939Y-26795000D01*
X154898061Y-26795000D01*
X154698102Y-26834774D01*
X154509744Y-26912795D01*
X154340226Y-27026063D01*
X154196063Y-27170226D01*
X154082795Y-27339744D01*
X154004774Y-27528102D01*
X153965000Y-27728061D01*
X153965000Y-27866733D01*
X153964454Y-27867754D01*
X153920997Y-28011015D01*
X153910000Y-28122668D01*
X153910000Y-28122678D01*
X153906324Y-28160000D01*
X153910000Y-28197322D01*
X153910001Y-34579099D01*
X153868900Y-34601068D01*
X153650393Y-34780392D01*
X153471068Y-34998899D01*
X153400000Y-35131858D01*
X153328932Y-34998899D01*
X153149608Y-34780392D01*
X152931101Y-34601068D01*
X152681808Y-34467818D01*
X152411309Y-34385764D01*
X152130000Y-34358057D01*
X151848692Y-34385764D01*
X151578193Y-34467818D01*
X151328900Y-34601068D01*
X151110393Y-34780392D01*
X150931068Y-34998899D01*
X150860000Y-35131858D01*
X150788932Y-34998899D01*
X150609608Y-34780392D01*
X150391101Y-34601068D01*
X150141808Y-34467818D01*
X149871309Y-34385764D01*
X149590000Y-34358057D01*
X149308692Y-34385764D01*
X149038193Y-34467818D01*
X148788900Y-34601068D01*
X148570393Y-34780392D01*
X148391068Y-34998899D01*
X148320000Y-35131858D01*
X148248932Y-34998899D01*
X148069608Y-34780392D01*
X147851101Y-34601068D01*
X147601808Y-34467818D01*
X147331309Y-34385764D01*
X147050000Y-34358057D01*
X146768692Y-34385764D01*
X146498193Y-34467818D01*
X146248900Y-34601068D01*
X146030393Y-34780392D01*
X145851068Y-34998899D01*
X145780000Y-35131858D01*
X145708932Y-34998899D01*
X145529608Y-34780392D01*
X145311101Y-34601068D01*
X145061808Y-34467818D01*
X144791309Y-34385764D01*
X144510000Y-34358057D01*
X144228692Y-34385764D01*
X143958193Y-34467818D01*
X143708900Y-34601068D01*
X143490393Y-34780392D01*
X143311068Y-34998899D01*
X143240000Y-35131858D01*
X143168932Y-34998899D01*
X142989608Y-34780392D01*
X142771101Y-34601068D01*
X142521808Y-34467818D01*
X142251309Y-34385764D01*
X141970000Y-34358057D01*
X141688692Y-34385764D01*
X141418193Y-34467818D01*
X141168900Y-34601068D01*
X140950393Y-34780392D01*
X140771068Y-34998899D01*
X140700000Y-35131858D01*
X140628932Y-34998899D01*
X140449608Y-34780392D01*
X140231101Y-34601068D01*
X139981808Y-34467818D01*
X139711309Y-34385764D01*
X139430000Y-34358057D01*
X139148692Y-34385764D01*
X138878193Y-34467818D01*
X138628900Y-34601068D01*
X138410393Y-34780392D01*
X138231068Y-34998899D01*
X138160000Y-35131858D01*
X138088932Y-34998899D01*
X137909608Y-34780392D01*
X137691101Y-34601068D01*
X137441808Y-34467818D01*
X137171309Y-34385764D01*
X136890000Y-34358057D01*
X136608692Y-34385764D01*
X136338193Y-34467818D01*
X136088900Y-34601068D01*
X135870393Y-34780392D01*
X135691068Y-34998899D01*
X135620000Y-35131858D01*
X135548932Y-34998899D01*
X135369608Y-34780392D01*
X135151101Y-34601068D01*
X134901808Y-34467818D01*
X134631309Y-34385764D01*
X134350000Y-34358057D01*
X134068692Y-34385764D01*
X133798193Y-34467818D01*
X133548900Y-34601068D01*
X133330393Y-34780392D01*
X133151068Y-34998899D01*
X133080000Y-35131858D01*
X133008932Y-34998899D01*
X132829608Y-34780392D01*
X132611101Y-34601068D01*
X132361808Y-34467818D01*
X132091309Y-34385764D01*
X131810000Y-34358057D01*
X131528692Y-34385764D01*
X131350000Y-34439969D01*
X131350000Y-28780000D01*
X140051928Y-28780000D01*
X140051928Y-30480000D01*
X140064188Y-30604482D01*
X140100498Y-30724180D01*
X140159463Y-30834494D01*
X140238815Y-30931185D01*
X140335506Y-31010537D01*
X140445820Y-31069502D01*
X140565518Y-31105812D01*
X140690000Y-31118072D01*
X142390000Y-31118072D01*
X142514482Y-31105812D01*
X142634180Y-31069502D01*
X142744494Y-31010537D01*
X142841185Y-30931185D01*
X142920537Y-30834494D01*
X142979502Y-30724180D01*
X143001513Y-30651620D01*
X143133368Y-30783475D01*
X143376589Y-30945990D01*
X143646842Y-31057932D01*
X143933740Y-31115000D01*
X144226260Y-31115000D01*
X144513158Y-31057932D01*
X144783411Y-30945990D01*
X145026632Y-30783475D01*
X145233475Y-30576632D01*
X145350000Y-30402240D01*
X145466525Y-30576632D01*
X145673368Y-30783475D01*
X145916589Y-30945990D01*
X146186842Y-31057932D01*
X146473740Y-31115000D01*
X146766260Y-31115000D01*
X147053158Y-31057932D01*
X147323411Y-30945990D01*
X147566632Y-30783475D01*
X147773475Y-30576632D01*
X147935990Y-30333411D01*
X148047932Y-30063158D01*
X148105000Y-29776260D01*
X148105000Y-29483740D01*
X148047932Y-29196842D01*
X147935990Y-28926589D01*
X147773475Y-28683368D01*
X147566632Y-28476525D01*
X147455000Y-28401935D01*
X147455000Y-27462368D01*
X147525172Y-27331086D01*
X147537635Y-27290000D01*
X147572918Y-27173688D01*
X147589040Y-27010000D01*
X147572918Y-26846311D01*
X147525172Y-26688913D01*
X147447636Y-26543854D01*
X147369439Y-26448570D01*
X147369436Y-26448567D01*
X147343291Y-26416709D01*
X147311433Y-26390564D01*
X145486078Y-24565210D01*
X145650256Y-24497205D01*
X145819774Y-24383937D01*
X145963937Y-24239774D01*
X146077205Y-24070256D01*
X146155226Y-23881898D01*
X146195000Y-23681939D01*
X146195000Y-23478061D01*
X146155226Y-23278102D01*
X146077205Y-23089744D01*
X145963937Y-22920226D01*
X145819774Y-22776063D01*
X145650256Y-22662795D01*
X145461898Y-22584774D01*
X145261939Y-22545000D01*
X145129801Y-22545000D01*
X145063803Y-22479002D01*
X145040001Y-22449999D01*
X144924276Y-22355026D01*
X144792247Y-22284454D01*
X144648986Y-22240997D01*
X144537333Y-22230000D01*
X144537322Y-22230000D01*
X144500000Y-22226324D01*
X144462678Y-22230000D01*
X143447333Y-22230000D01*
X143410000Y-22226323D01*
X143372667Y-22230000D01*
X143261014Y-22240997D01*
X143117753Y-22284454D01*
X142985724Y-22355026D01*
X142869999Y-22449999D01*
X142846201Y-22478997D01*
X141159003Y-24166196D01*
X141129999Y-24189999D01*
X141089150Y-24239774D01*
X141035026Y-24305724D01*
X141030769Y-24313689D01*
X140964454Y-24437754D01*
X140920997Y-24581015D01*
X140910000Y-24692668D01*
X140910000Y-24692678D01*
X140906324Y-24730000D01*
X140910000Y-24767323D01*
X140910001Y-28141928D01*
X140690000Y-28141928D01*
X140565518Y-28154188D01*
X140445820Y-28190498D01*
X140335506Y-28249463D01*
X140238815Y-28328815D01*
X140159463Y-28425506D01*
X140100498Y-28535820D01*
X140064188Y-28655518D01*
X140051928Y-28780000D01*
X131350000Y-28780000D01*
X131350000Y-26184801D01*
X133794802Y-23740000D01*
X140872678Y-23740000D01*
X140910000Y-23743676D01*
X140947322Y-23740000D01*
X140947333Y-23740000D01*
X141058986Y-23729003D01*
X141202247Y-23685546D01*
X141334276Y-23614974D01*
X141450001Y-23520001D01*
X141473804Y-23490997D01*
X142896510Y-22068292D01*
X143058102Y-22135226D01*
X143258061Y-22175000D01*
X143461939Y-22175000D01*
X143661898Y-22135226D01*
X143850256Y-22057205D01*
X144019774Y-21943937D01*
X144163937Y-21799774D01*
X144277205Y-21630256D01*
X144355226Y-21441898D01*
X144395000Y-21241939D01*
X144395000Y-21038061D01*
X144355226Y-20838102D01*
X144277205Y-20649744D01*
X144163937Y-20480226D01*
X144019774Y-20336063D01*
X143850256Y-20222795D01*
X143661898Y-20144774D01*
X143461939Y-20105000D01*
X143258061Y-20105000D01*
X143058102Y-20144774D01*
X142869744Y-20222795D01*
X142793601Y-20273672D01*
X142793601Y-20207400D01*
X142736011Y-19917874D01*
X142649906Y-19710000D01*
X145020096Y-19710000D01*
X144933991Y-19917874D01*
G36*
X136342001Y-20227999D02*
G01*
X138628001Y-20227999D01*
X138628001Y-20207999D01*
X138882001Y-20207999D01*
X138882001Y-20227999D01*
X138902001Y-20227999D01*
X138902001Y-20481999D01*
X138882001Y-20481999D01*
X138882001Y-21689463D01*
X139114028Y-21809962D01*
X139390979Y-21711963D01*
X139643489Y-21561816D01*
X139861855Y-21365292D01*
X140023309Y-21149186D01*
X140130962Y-21310301D01*
X140339699Y-21519038D01*
X140585148Y-21683041D01*
X140857876Y-21796009D01*
X140992426Y-21822773D01*
X140595199Y-22220000D01*
X133517322Y-22220000D01*
X133479999Y-22216324D01*
X133442676Y-22220000D01*
X133442667Y-22220000D01*
X133331014Y-22230997D01*
X133187753Y-22274454D01*
X133055724Y-22345026D01*
X132939999Y-22439999D01*
X132916201Y-22468997D01*
X130079003Y-25306196D01*
X130049999Y-25329999D01*
X130021275Y-25365000D01*
X129955026Y-25445724D01*
X129884455Y-25577753D01*
X129884454Y-25577754D01*
X129840997Y-25721015D01*
X129830000Y-25832668D01*
X129830000Y-25832678D01*
X129826324Y-25870000D01*
X129830000Y-25907322D01*
X129830000Y-28782689D01*
X129641898Y-28704774D01*
X129441939Y-28665000D01*
X129355001Y-28665000D01*
X129355001Y-21649534D01*
X129550303Y-21519038D01*
X129759040Y-21310301D01*
X129865001Y-21151718D01*
X129970962Y-21310301D01*
X130179699Y-21519038D01*
X130425148Y-21683041D01*
X130697876Y-21796009D01*
X130987402Y-21853599D01*
X131282600Y-21853599D01*
X131572126Y-21796009D01*
X131844854Y-21683041D01*
X132090303Y-21519038D01*
X132299040Y-21310301D01*
X132405001Y-21151718D01*
X132510962Y-21310301D01*
X132719699Y-21519038D01*
X132965148Y-21683041D01*
X133237876Y-21796009D01*
X133527402Y-21853599D01*
X133822600Y-21853599D01*
X134112126Y-21796009D01*
X134384854Y-21683041D01*
X134630303Y-21519038D01*
X134839040Y-21310301D01*
X134946693Y-21149186D01*
X135108147Y-21365292D01*
X135326513Y-21561816D01*
X135579023Y-21711963D01*
X135855974Y-21809962D01*
X136088001Y-21689463D01*
X136088001Y-20481999D01*
X136342001Y-20481999D01*
X136342001Y-21689463D01*
X136574028Y-21809962D01*
X136850979Y-21711963D01*
X137103489Y-21561816D01*
X137321855Y-21365292D01*
X137485001Y-21146921D01*
X137648147Y-21365292D01*
X137866513Y-21561816D01*
X138119023Y-21711963D01*
X138395974Y-21809962D01*
X138628001Y-21689463D01*
X138628001Y-20481999D01*
X136342001Y-20481999D01*
X136088001Y-20481999D01*
X136068001Y-20481999D01*
X136068001Y-20227999D01*
X136088001Y-20227999D01*
X136088001Y-20207999D01*
X136342001Y-20207999D01*
X136342001Y-20227999D01*
G37*
X136342001Y-20227999D02*
X138628001Y-20227999D01*
X138628001Y-20207999D01*
X138882001Y-20207999D01*
X138882001Y-20227999D01*
X138902001Y-20227999D01*
X138902001Y-20481999D01*
X138882001Y-20481999D01*
X138882001Y-21689463D01*
X139114028Y-21809962D01*
X139390979Y-21711963D01*
X139643489Y-21561816D01*
X139861855Y-21365292D01*
X140023309Y-21149186D01*
X140130962Y-21310301D01*
X140339699Y-21519038D01*
X140585148Y-21683041D01*
X140857876Y-21796009D01*
X140992426Y-21822773D01*
X140595199Y-22220000D01*
X133517322Y-22220000D01*
X133479999Y-22216324D01*
X133442676Y-22220000D01*
X133442667Y-22220000D01*
X133331014Y-22230997D01*
X133187753Y-22274454D01*
X133055724Y-22345026D01*
X132939999Y-22439999D01*
X132916201Y-22468997D01*
X130079003Y-25306196D01*
X130049999Y-25329999D01*
X130021275Y-25365000D01*
X129955026Y-25445724D01*
X129884455Y-25577753D01*
X129884454Y-25577754D01*
X129840997Y-25721015D01*
X129830000Y-25832668D01*
X129830000Y-25832678D01*
X129826324Y-25870000D01*
X129830000Y-25907322D01*
X129830000Y-28782689D01*
X129641898Y-28704774D01*
X129441939Y-28665000D01*
X129355001Y-28665000D01*
X129355001Y-21649534D01*
X129550303Y-21519038D01*
X129759040Y-21310301D01*
X129865001Y-21151718D01*
X129970962Y-21310301D01*
X130179699Y-21519038D01*
X130425148Y-21683041D01*
X130697876Y-21796009D01*
X130987402Y-21853599D01*
X131282600Y-21853599D01*
X131572126Y-21796009D01*
X131844854Y-21683041D01*
X132090303Y-21519038D01*
X132299040Y-21310301D01*
X132405001Y-21151718D01*
X132510962Y-21310301D01*
X132719699Y-21519038D01*
X132965148Y-21683041D01*
X133237876Y-21796009D01*
X133527402Y-21853599D01*
X133822600Y-21853599D01*
X134112126Y-21796009D01*
X134384854Y-21683041D01*
X134630303Y-21519038D01*
X134839040Y-21310301D01*
X134946693Y-21149186D01*
X135108147Y-21365292D01*
X135326513Y-21561816D01*
X135579023Y-21711963D01*
X135855974Y-21809962D01*
X136088001Y-21689463D01*
X136088001Y-20481999D01*
X136342001Y-20481999D01*
X136342001Y-21689463D01*
X136574028Y-21809962D01*
X136850979Y-21711963D01*
X137103489Y-21561816D01*
X137321855Y-21365292D01*
X137485001Y-21146921D01*
X137648147Y-21365292D01*
X137866513Y-21561816D01*
X138119023Y-21711963D01*
X138395974Y-21809962D01*
X138628001Y-21689463D01*
X138628001Y-20481999D01*
X136342001Y-20481999D01*
X136088001Y-20481999D01*
X136068001Y-20481999D01*
X136068001Y-20227999D01*
X136088001Y-20227999D01*
X136088001Y-20207999D01*
X136342001Y-20207999D01*
X136342001Y-20227999D01*
M02*
