G04 #@! TF.GenerationSoftware,KiCad,Pcbnew,(5.1.5)-2*
G04 #@! TF.CreationDate,2020-03-13T12:58:49+01:00*
G04 #@! TF.ProjectId,CDP1802_Tester,43445031-3830-4325-9f54-65737465722e,rev?*
G04 #@! TF.SameCoordinates,Original*
G04 #@! TF.FileFunction,Legend,Bot*
G04 #@! TF.FilePolarity,Positive*
%FSLAX46Y46*%
G04 Gerber Fmt 4.6, Leading zero omitted, Abs format (unit mm)*
G04 Created by KiCad (PCBNEW (5.1.5)-2) date 2020-03-13 12:58:49*
%MOMM*%
%LPD*%
G04 APERTURE LIST*
%ADD10C,0.150000*%
%ADD11C,0.120000*%
G04 APERTURE END LIST*
D10*
X154750476Y-27827380D02*
X154417142Y-28827380D01*
X154083809Y-27827380D01*
X153321904Y-28779761D02*
X153417142Y-28827380D01*
X153607619Y-28827380D01*
X153702857Y-28779761D01*
X153750476Y-28732142D01*
X153798095Y-28636904D01*
X153798095Y-28351190D01*
X153750476Y-28255952D01*
X153702857Y-28208333D01*
X153607619Y-28160714D01*
X153417142Y-28160714D01*
X153321904Y-28208333D01*
X152464761Y-28779761D02*
X152560000Y-28827380D01*
X152750476Y-28827380D01*
X152845714Y-28779761D01*
X152893333Y-28732142D01*
X152940952Y-28636904D01*
X152940952Y-28351190D01*
X152893333Y-28255952D01*
X152845714Y-28208333D01*
X152750476Y-28160714D01*
X152560000Y-28160714D01*
X152464761Y-28208333D01*
X158131428Y-30858333D02*
X158179047Y-30810714D01*
X158274285Y-30667857D01*
X158321904Y-30572619D01*
X158369523Y-30429761D01*
X158417142Y-30191666D01*
X158417142Y-30001190D01*
X158369523Y-29763095D01*
X158321904Y-29620238D01*
X158274285Y-29525000D01*
X158179047Y-29382142D01*
X158131428Y-29334523D01*
X157226666Y-30477380D02*
X157798095Y-30477380D01*
X157512380Y-30477380D02*
X157512380Y-29477380D01*
X157607619Y-29620238D01*
X157702857Y-29715476D01*
X157798095Y-29763095D01*
X156655238Y-29905952D02*
X156750476Y-29858333D01*
X156798095Y-29810714D01*
X156845714Y-29715476D01*
X156845714Y-29667857D01*
X156798095Y-29572619D01*
X156750476Y-29525000D01*
X156655238Y-29477380D01*
X156464761Y-29477380D01*
X156369523Y-29525000D01*
X156321904Y-29572619D01*
X156274285Y-29667857D01*
X156274285Y-29715476D01*
X156321904Y-29810714D01*
X156369523Y-29858333D01*
X156464761Y-29905952D01*
X156655238Y-29905952D01*
X156750476Y-29953571D01*
X156798095Y-30001190D01*
X156845714Y-30096428D01*
X156845714Y-30286904D01*
X156798095Y-30382142D01*
X156750476Y-30429761D01*
X156655238Y-30477380D01*
X156464761Y-30477380D01*
X156369523Y-30429761D01*
X156321904Y-30382142D01*
X156274285Y-30286904D01*
X156274285Y-30096428D01*
X156321904Y-30001190D01*
X156369523Y-29953571D01*
X156464761Y-29905952D01*
X155655238Y-29477380D02*
X155560000Y-29477380D01*
X155464761Y-29525000D01*
X155417142Y-29572619D01*
X155369523Y-29667857D01*
X155321904Y-29858333D01*
X155321904Y-30096428D01*
X155369523Y-30286904D01*
X155417142Y-30382142D01*
X155464761Y-30429761D01*
X155560000Y-30477380D01*
X155655238Y-30477380D01*
X155750476Y-30429761D01*
X155798095Y-30382142D01*
X155845714Y-30286904D01*
X155893333Y-30096428D01*
X155893333Y-29858333D01*
X155845714Y-29667857D01*
X155798095Y-29572619D01*
X155750476Y-29525000D01*
X155655238Y-29477380D01*
X154940952Y-29572619D02*
X154893333Y-29525000D01*
X154798095Y-29477380D01*
X154560000Y-29477380D01*
X154464761Y-29525000D01*
X154417142Y-29572619D01*
X154369523Y-29667857D01*
X154369523Y-29763095D01*
X154417142Y-29905952D01*
X154988571Y-30477380D01*
X154369523Y-30477380D01*
X153893333Y-30429761D02*
X153893333Y-30477380D01*
X153940952Y-30572619D01*
X153988571Y-30620238D01*
X152179047Y-30477380D02*
X152750476Y-30477380D01*
X152464761Y-30477380D02*
X152464761Y-29477380D01*
X152560000Y-29620238D01*
X152655238Y-29715476D01*
X152750476Y-29763095D01*
X151607619Y-29905952D02*
X151702857Y-29858333D01*
X151750476Y-29810714D01*
X151798095Y-29715476D01*
X151798095Y-29667857D01*
X151750476Y-29572619D01*
X151702857Y-29525000D01*
X151607619Y-29477380D01*
X151417142Y-29477380D01*
X151321904Y-29525000D01*
X151274285Y-29572619D01*
X151226666Y-29667857D01*
X151226666Y-29715476D01*
X151274285Y-29810714D01*
X151321904Y-29858333D01*
X151417142Y-29905952D01*
X151607619Y-29905952D01*
X151702857Y-29953571D01*
X151750476Y-30001190D01*
X151798095Y-30096428D01*
X151798095Y-30286904D01*
X151750476Y-30382142D01*
X151702857Y-30429761D01*
X151607619Y-30477380D01*
X151417142Y-30477380D01*
X151321904Y-30429761D01*
X151274285Y-30382142D01*
X151226666Y-30286904D01*
X151226666Y-30096428D01*
X151274285Y-30001190D01*
X151321904Y-29953571D01*
X151417142Y-29905952D01*
X150607619Y-29477380D02*
X150512380Y-29477380D01*
X150417142Y-29525000D01*
X150369523Y-29572619D01*
X150321904Y-29667857D01*
X150274285Y-29858333D01*
X150274285Y-30096428D01*
X150321904Y-30286904D01*
X150369523Y-30382142D01*
X150417142Y-30429761D01*
X150512380Y-30477380D01*
X150607619Y-30477380D01*
X150702857Y-30429761D01*
X150750476Y-30382142D01*
X150798095Y-30286904D01*
X150845714Y-30096428D01*
X150845714Y-29858333D01*
X150798095Y-29667857D01*
X150750476Y-29572619D01*
X150702857Y-29525000D01*
X150607619Y-29477380D01*
X149417142Y-29477380D02*
X149607619Y-29477380D01*
X149702857Y-29525000D01*
X149750476Y-29572619D01*
X149845714Y-29715476D01*
X149893333Y-29905952D01*
X149893333Y-30286904D01*
X149845714Y-30382142D01*
X149798095Y-30429761D01*
X149702857Y-30477380D01*
X149512380Y-30477380D01*
X149417142Y-30429761D01*
X149369523Y-30382142D01*
X149321904Y-30286904D01*
X149321904Y-30048809D01*
X149369523Y-29953571D01*
X149417142Y-29905952D01*
X149512380Y-29858333D01*
X149702857Y-29858333D01*
X149798095Y-29905952D01*
X149845714Y-29953571D01*
X149893333Y-30048809D01*
X148988571Y-30858333D02*
X148940952Y-30810714D01*
X148845714Y-30667857D01*
X148798095Y-30572619D01*
X148750476Y-30429761D01*
X148702857Y-30191666D01*
X148702857Y-30001190D01*
X148750476Y-29763095D01*
X148798095Y-29620238D01*
X148845714Y-29525000D01*
X148940952Y-29382142D01*
X148988571Y-29334523D01*
X137241904Y-27925000D02*
X137337142Y-27877380D01*
X137480000Y-27877380D01*
X137622857Y-27925000D01*
X137718095Y-28020238D01*
X137765714Y-28115476D01*
X137813333Y-28305952D01*
X137813333Y-28448809D01*
X137765714Y-28639285D01*
X137718095Y-28734523D01*
X137622857Y-28829761D01*
X137480000Y-28877380D01*
X137384761Y-28877380D01*
X137241904Y-28829761D01*
X137194285Y-28782142D01*
X137194285Y-28448809D01*
X137384761Y-28448809D01*
X136765714Y-28877380D02*
X136765714Y-27877380D01*
X136384761Y-27877380D01*
X136289523Y-27925000D01*
X136241904Y-27972619D01*
X136194285Y-28067857D01*
X136194285Y-28210714D01*
X136241904Y-28305952D01*
X136289523Y-28353571D01*
X136384761Y-28401190D01*
X136765714Y-28401190D01*
X135765714Y-28877380D02*
X135765714Y-27877380D01*
X135099047Y-27877380D02*
X134908571Y-27877380D01*
X134813333Y-27925000D01*
X134718095Y-28020238D01*
X134670476Y-28210714D01*
X134670476Y-28544047D01*
X134718095Y-28734523D01*
X134813333Y-28829761D01*
X134908571Y-28877380D01*
X135099047Y-28877380D01*
X135194285Y-28829761D01*
X135289523Y-28734523D01*
X135337142Y-28544047D01*
X135337142Y-28210714D01*
X135289523Y-28020238D01*
X135194285Y-27925000D01*
X135099047Y-27877380D01*
X133527619Y-28591666D02*
X133051428Y-28591666D01*
X133622857Y-28877380D02*
X133289523Y-27877380D01*
X132956190Y-28877380D01*
X132099047Y-28877380D02*
X132670476Y-28877380D01*
X132384761Y-28877380D02*
X132384761Y-27877380D01*
X132480000Y-28020238D01*
X132575238Y-28115476D01*
X132670476Y-28163095D01*
X131194285Y-27877380D02*
X131670476Y-27877380D01*
X131718095Y-28353571D01*
X131670476Y-28305952D01*
X131575238Y-28258333D01*
X131337142Y-28258333D01*
X131241904Y-28305952D01*
X131194285Y-28353571D01*
X131146666Y-28448809D01*
X131146666Y-28686904D01*
X131194285Y-28782142D01*
X131241904Y-28829761D01*
X131337142Y-28877380D01*
X131575238Y-28877380D01*
X131670476Y-28829761D01*
X131718095Y-28782142D01*
X139051428Y-30908333D02*
X139099047Y-30860714D01*
X139194285Y-30717857D01*
X139241904Y-30622619D01*
X139289523Y-30479761D01*
X139337142Y-30241666D01*
X139337142Y-30051190D01*
X139289523Y-29813095D01*
X139241904Y-29670238D01*
X139194285Y-29575000D01*
X139099047Y-29432142D01*
X139051428Y-29384523D01*
X138146666Y-30527380D02*
X138718095Y-30527380D01*
X138432380Y-30527380D02*
X138432380Y-29527380D01*
X138527619Y-29670238D01*
X138622857Y-29765476D01*
X138718095Y-29813095D01*
X137575238Y-29955952D02*
X137670476Y-29908333D01*
X137718095Y-29860714D01*
X137765714Y-29765476D01*
X137765714Y-29717857D01*
X137718095Y-29622619D01*
X137670476Y-29575000D01*
X137575238Y-29527380D01*
X137384761Y-29527380D01*
X137289523Y-29575000D01*
X137241904Y-29622619D01*
X137194285Y-29717857D01*
X137194285Y-29765476D01*
X137241904Y-29860714D01*
X137289523Y-29908333D01*
X137384761Y-29955952D01*
X137575238Y-29955952D01*
X137670476Y-30003571D01*
X137718095Y-30051190D01*
X137765714Y-30146428D01*
X137765714Y-30336904D01*
X137718095Y-30432142D01*
X137670476Y-30479761D01*
X137575238Y-30527380D01*
X137384761Y-30527380D01*
X137289523Y-30479761D01*
X137241904Y-30432142D01*
X137194285Y-30336904D01*
X137194285Y-30146428D01*
X137241904Y-30051190D01*
X137289523Y-30003571D01*
X137384761Y-29955952D01*
X136575238Y-29527380D02*
X136480000Y-29527380D01*
X136384761Y-29575000D01*
X136337142Y-29622619D01*
X136289523Y-29717857D01*
X136241904Y-29908333D01*
X136241904Y-30146428D01*
X136289523Y-30336904D01*
X136337142Y-30432142D01*
X136384761Y-30479761D01*
X136480000Y-30527380D01*
X136575238Y-30527380D01*
X136670476Y-30479761D01*
X136718095Y-30432142D01*
X136765714Y-30336904D01*
X136813333Y-30146428D01*
X136813333Y-29908333D01*
X136765714Y-29717857D01*
X136718095Y-29622619D01*
X136670476Y-29575000D01*
X136575238Y-29527380D01*
X135384761Y-29860714D02*
X135384761Y-30527380D01*
X135622857Y-29479761D02*
X135860952Y-30194047D01*
X135241904Y-30194047D01*
X134813333Y-30479761D02*
X134813333Y-30527380D01*
X134860952Y-30622619D01*
X134908571Y-30670238D01*
X133099047Y-30527380D02*
X133670476Y-30527380D01*
X133384761Y-30527380D02*
X133384761Y-29527380D01*
X133480000Y-29670238D01*
X133575238Y-29765476D01*
X133670476Y-29813095D01*
X132527619Y-29955952D02*
X132622857Y-29908333D01*
X132670476Y-29860714D01*
X132718095Y-29765476D01*
X132718095Y-29717857D01*
X132670476Y-29622619D01*
X132622857Y-29575000D01*
X132527619Y-29527380D01*
X132337142Y-29527380D01*
X132241904Y-29575000D01*
X132194285Y-29622619D01*
X132146666Y-29717857D01*
X132146666Y-29765476D01*
X132194285Y-29860714D01*
X132241904Y-29908333D01*
X132337142Y-29955952D01*
X132527619Y-29955952D01*
X132622857Y-30003571D01*
X132670476Y-30051190D01*
X132718095Y-30146428D01*
X132718095Y-30336904D01*
X132670476Y-30432142D01*
X132622857Y-30479761D01*
X132527619Y-30527380D01*
X132337142Y-30527380D01*
X132241904Y-30479761D01*
X132194285Y-30432142D01*
X132146666Y-30336904D01*
X132146666Y-30146428D01*
X132194285Y-30051190D01*
X132241904Y-30003571D01*
X132337142Y-29955952D01*
X131527619Y-29527380D02*
X131432380Y-29527380D01*
X131337142Y-29575000D01*
X131289523Y-29622619D01*
X131241904Y-29717857D01*
X131194285Y-29908333D01*
X131194285Y-30146428D01*
X131241904Y-30336904D01*
X131289523Y-30432142D01*
X131337142Y-30479761D01*
X131432380Y-30527380D01*
X131527619Y-30527380D01*
X131622857Y-30479761D01*
X131670476Y-30432142D01*
X131718095Y-30336904D01*
X131765714Y-30146428D01*
X131765714Y-29908333D01*
X131718095Y-29717857D01*
X131670476Y-29622619D01*
X131622857Y-29575000D01*
X131527619Y-29527380D01*
X130289523Y-29527380D02*
X130765714Y-29527380D01*
X130813333Y-30003571D01*
X130765714Y-29955952D01*
X130670476Y-29908333D01*
X130432380Y-29908333D01*
X130337142Y-29955952D01*
X130289523Y-30003571D01*
X130241904Y-30098809D01*
X130241904Y-30336904D01*
X130289523Y-30432142D01*
X130337142Y-30479761D01*
X130432380Y-30527380D01*
X130670476Y-30527380D01*
X130765714Y-30479761D01*
X130813333Y-30432142D01*
X129908571Y-30908333D02*
X129860952Y-30860714D01*
X129765714Y-30717857D01*
X129718095Y-30622619D01*
X129670476Y-30479761D01*
X129622857Y-30241666D01*
X129622857Y-30051190D01*
X129670476Y-29813095D01*
X129718095Y-29670238D01*
X129765714Y-29575000D01*
X129860952Y-29432142D01*
X129908571Y-29384523D01*
X145225714Y-28022380D02*
X145225714Y-27022380D01*
X144844761Y-27022380D01*
X144749523Y-27070000D01*
X144701904Y-27117619D01*
X144654285Y-27212857D01*
X144654285Y-27355714D01*
X144701904Y-27450952D01*
X144749523Y-27498571D01*
X144844761Y-27546190D01*
X145225714Y-27546190D01*
X144225714Y-28022380D02*
X144225714Y-27355714D01*
X144225714Y-27022380D02*
X144273333Y-27070000D01*
X144225714Y-27117619D01*
X144178095Y-27070000D01*
X144225714Y-27022380D01*
X144225714Y-27117619D01*
X143749523Y-27355714D02*
X143749523Y-28022380D01*
X143749523Y-27450952D02*
X143701904Y-27403333D01*
X143606666Y-27355714D01*
X143463809Y-27355714D01*
X143368571Y-27403333D01*
X143320952Y-27498571D01*
X143320952Y-28022380D01*
X141559047Y-28022380D02*
X142130476Y-28022380D01*
X141844761Y-28022380D02*
X141844761Y-27022380D01*
X141940000Y-27165238D01*
X142035238Y-27260476D01*
X142130476Y-27308095D01*
X140701904Y-27022380D02*
X140892380Y-27022380D01*
X140987619Y-27070000D01*
X141035238Y-27117619D01*
X141130476Y-27260476D01*
X141178095Y-27450952D01*
X141178095Y-27831904D01*
X141130476Y-27927142D01*
X141082857Y-27974761D01*
X140987619Y-28022380D01*
X140797142Y-28022380D01*
X140701904Y-27974761D01*
X140654285Y-27927142D01*
X140606666Y-27831904D01*
X140606666Y-27593809D01*
X140654285Y-27498571D01*
X140701904Y-27450952D01*
X140797142Y-27403333D01*
X140987619Y-27403333D01*
X141082857Y-27450952D01*
X141130476Y-27498571D01*
X141178095Y-27593809D01*
X120672380Y-58537619D02*
X120196190Y-58204285D01*
X120672380Y-57966190D02*
X119672380Y-57966190D01*
X119672380Y-58347142D01*
X119720000Y-58442380D01*
X119767619Y-58490000D01*
X119862857Y-58537619D01*
X120005714Y-58537619D01*
X120100952Y-58490000D01*
X120148571Y-58442380D01*
X120196190Y-58347142D01*
X120196190Y-57966190D01*
X120148571Y-58966190D02*
X120148571Y-59299523D01*
X120672380Y-59442380D02*
X120672380Y-58966190D01*
X119672380Y-58966190D01*
X119672380Y-59442380D01*
X120624761Y-59823333D02*
X120672380Y-59966190D01*
X120672380Y-60204285D01*
X120624761Y-60299523D01*
X120577142Y-60347142D01*
X120481904Y-60394761D01*
X120386666Y-60394761D01*
X120291428Y-60347142D01*
X120243809Y-60299523D01*
X120196190Y-60204285D01*
X120148571Y-60013809D01*
X120100952Y-59918571D01*
X120053333Y-59870952D01*
X119958095Y-59823333D01*
X119862857Y-59823333D01*
X119767619Y-59870952D01*
X119720000Y-59918571D01*
X119672380Y-60013809D01*
X119672380Y-60251904D01*
X119720000Y-60394761D01*
X120148571Y-60823333D02*
X120148571Y-61156666D01*
X120672380Y-61299523D02*
X120672380Y-60823333D01*
X119672380Y-60823333D01*
X119672380Y-61299523D01*
X119672380Y-61585238D02*
X119672380Y-62156666D01*
X120672380Y-61870952D02*
X119672380Y-61870952D01*
X165024285Y-62712380D02*
X165357619Y-62236190D01*
X165595714Y-62712380D02*
X165595714Y-61712380D01*
X165214761Y-61712380D01*
X165119523Y-61760000D01*
X165071904Y-61807619D01*
X165024285Y-61902857D01*
X165024285Y-62045714D01*
X165071904Y-62140952D01*
X165119523Y-62188571D01*
X165214761Y-62236190D01*
X165595714Y-62236190D01*
X164024285Y-62617142D02*
X164071904Y-62664761D01*
X164214761Y-62712380D01*
X164310000Y-62712380D01*
X164452857Y-62664761D01*
X164548095Y-62569523D01*
X164595714Y-62474285D01*
X164643333Y-62283809D01*
X164643333Y-62140952D01*
X164595714Y-61950476D01*
X164548095Y-61855238D01*
X164452857Y-61760000D01*
X164310000Y-61712380D01*
X164214761Y-61712380D01*
X164071904Y-61760000D01*
X164024285Y-61807619D01*
X163643333Y-62426666D02*
X163167142Y-62426666D01*
X163738571Y-62712380D02*
X163405238Y-61712380D01*
X163071904Y-62712380D01*
X161405238Y-62617142D02*
X161452857Y-62664761D01*
X161595714Y-62712380D01*
X161690952Y-62712380D01*
X161833809Y-62664761D01*
X161929047Y-62569523D01*
X161976666Y-62474285D01*
X162024285Y-62283809D01*
X162024285Y-62140952D01*
X161976666Y-61950476D01*
X161929047Y-61855238D01*
X161833809Y-61760000D01*
X161690952Y-61712380D01*
X161595714Y-61712380D01*
X161452857Y-61760000D01*
X161405238Y-61807619D01*
X160976666Y-62712380D02*
X160976666Y-61712380D01*
X160738571Y-61712380D01*
X160595714Y-61760000D01*
X160500476Y-61855238D01*
X160452857Y-61950476D01*
X160405238Y-62140952D01*
X160405238Y-62283809D01*
X160452857Y-62474285D01*
X160500476Y-62569523D01*
X160595714Y-62664761D01*
X160738571Y-62712380D01*
X160976666Y-62712380D01*
X159976666Y-62712380D02*
X159976666Y-61712380D01*
X159595714Y-61712380D01*
X159500476Y-61760000D01*
X159452857Y-61807619D01*
X159405238Y-61902857D01*
X159405238Y-62045714D01*
X159452857Y-62140952D01*
X159500476Y-62188571D01*
X159595714Y-62236190D01*
X159976666Y-62236190D01*
X158452857Y-62712380D02*
X159024285Y-62712380D01*
X158738571Y-62712380D02*
X158738571Y-61712380D01*
X158833809Y-61855238D01*
X158929047Y-61950476D01*
X159024285Y-61998095D01*
X157881428Y-62140952D02*
X157976666Y-62093333D01*
X158024285Y-62045714D01*
X158071904Y-61950476D01*
X158071904Y-61902857D01*
X158024285Y-61807619D01*
X157976666Y-61760000D01*
X157881428Y-61712380D01*
X157690952Y-61712380D01*
X157595714Y-61760000D01*
X157548095Y-61807619D01*
X157500476Y-61902857D01*
X157500476Y-61950476D01*
X157548095Y-62045714D01*
X157595714Y-62093333D01*
X157690952Y-62140952D01*
X157881428Y-62140952D01*
X157976666Y-62188571D01*
X158024285Y-62236190D01*
X158071904Y-62331428D01*
X158071904Y-62521904D01*
X158024285Y-62617142D01*
X157976666Y-62664761D01*
X157881428Y-62712380D01*
X157690952Y-62712380D01*
X157595714Y-62664761D01*
X157548095Y-62617142D01*
X157500476Y-62521904D01*
X157500476Y-62331428D01*
X157548095Y-62236190D01*
X157595714Y-62188571D01*
X157690952Y-62140952D01*
X156881428Y-61712380D02*
X156786190Y-61712380D01*
X156690952Y-61760000D01*
X156643333Y-61807619D01*
X156595714Y-61902857D01*
X156548095Y-62093333D01*
X156548095Y-62331428D01*
X156595714Y-62521904D01*
X156643333Y-62617142D01*
X156690952Y-62664761D01*
X156786190Y-62712380D01*
X156881428Y-62712380D01*
X156976666Y-62664761D01*
X157024285Y-62617142D01*
X157071904Y-62521904D01*
X157119523Y-62331428D01*
X157119523Y-62093333D01*
X157071904Y-61902857D01*
X157024285Y-61807619D01*
X156976666Y-61760000D01*
X156881428Y-61712380D01*
X156167142Y-61807619D02*
X156119523Y-61760000D01*
X156024285Y-61712380D01*
X155786190Y-61712380D01*
X155690952Y-61760000D01*
X155643333Y-61807619D01*
X155595714Y-61902857D01*
X155595714Y-61998095D01*
X155643333Y-62140952D01*
X156214761Y-62712380D01*
X155595714Y-62712380D01*
X154548095Y-62045714D02*
X154167142Y-62045714D01*
X154405238Y-61712380D02*
X154405238Y-62569523D01*
X154357619Y-62664761D01*
X154262380Y-62712380D01*
X154167142Y-62712380D01*
X153452857Y-62664761D02*
X153548095Y-62712380D01*
X153738571Y-62712380D01*
X153833809Y-62664761D01*
X153881428Y-62569523D01*
X153881428Y-62188571D01*
X153833809Y-62093333D01*
X153738571Y-62045714D01*
X153548095Y-62045714D01*
X153452857Y-62093333D01*
X153405238Y-62188571D01*
X153405238Y-62283809D01*
X153881428Y-62379047D01*
X153024285Y-62664761D02*
X152929047Y-62712380D01*
X152738571Y-62712380D01*
X152643333Y-62664761D01*
X152595714Y-62569523D01*
X152595714Y-62521904D01*
X152643333Y-62426666D01*
X152738571Y-62379047D01*
X152881428Y-62379047D01*
X152976666Y-62331428D01*
X153024285Y-62236190D01*
X153024285Y-62188571D01*
X152976666Y-62093333D01*
X152881428Y-62045714D01*
X152738571Y-62045714D01*
X152643333Y-62093333D01*
X152310000Y-62045714D02*
X151929047Y-62045714D01*
X152167142Y-61712380D02*
X152167142Y-62569523D01*
X152119523Y-62664761D01*
X152024285Y-62712380D01*
X151929047Y-62712380D01*
X151214761Y-62664761D02*
X151310000Y-62712380D01*
X151500476Y-62712380D01*
X151595714Y-62664761D01*
X151643333Y-62569523D01*
X151643333Y-62188571D01*
X151595714Y-62093333D01*
X151500476Y-62045714D01*
X151310000Y-62045714D01*
X151214761Y-62093333D01*
X151167142Y-62188571D01*
X151167142Y-62283809D01*
X151643333Y-62379047D01*
X150738571Y-62712380D02*
X150738571Y-62045714D01*
X150738571Y-62236190D02*
X150690952Y-62140952D01*
X150643333Y-62093333D01*
X150548095Y-62045714D01*
X150452857Y-62045714D01*
X149405238Y-62664761D02*
X149310000Y-62712380D01*
X149119523Y-62712380D01*
X149024285Y-62664761D01*
X148976666Y-62569523D01*
X148976666Y-62521904D01*
X149024285Y-62426666D01*
X149119523Y-62379047D01*
X149262380Y-62379047D01*
X149357619Y-62331428D01*
X149405238Y-62236190D01*
X149405238Y-62188571D01*
X149357619Y-62093333D01*
X149262380Y-62045714D01*
X149119523Y-62045714D01*
X149024285Y-62093333D01*
X148548095Y-62712380D02*
X148548095Y-61712380D01*
X148119523Y-62712380D02*
X148119523Y-62188571D01*
X148167142Y-62093333D01*
X148262380Y-62045714D01*
X148405238Y-62045714D01*
X148500476Y-62093333D01*
X148548095Y-62140952D01*
X147643333Y-62712380D02*
X147643333Y-62045714D01*
X147643333Y-61712380D02*
X147690952Y-61760000D01*
X147643333Y-61807619D01*
X147595714Y-61760000D01*
X147643333Y-61712380D01*
X147643333Y-61807619D01*
X146786190Y-62664761D02*
X146881428Y-62712380D01*
X147071904Y-62712380D01*
X147167142Y-62664761D01*
X147214761Y-62569523D01*
X147214761Y-62188571D01*
X147167142Y-62093333D01*
X147071904Y-62045714D01*
X146881428Y-62045714D01*
X146786190Y-62093333D01*
X146738571Y-62188571D01*
X146738571Y-62283809D01*
X147214761Y-62379047D01*
X146167142Y-62712380D02*
X146262380Y-62664761D01*
X146310000Y-62569523D01*
X146310000Y-61712380D01*
X145357619Y-62712380D02*
X145357619Y-61712380D01*
X145357619Y-62664761D02*
X145452857Y-62712380D01*
X145643333Y-62712380D01*
X145738571Y-62664761D01*
X145786190Y-62617142D01*
X145833809Y-62521904D01*
X145833809Y-62236190D01*
X145786190Y-62140952D01*
X145738571Y-62093333D01*
X145643333Y-62045714D01*
X145452857Y-62045714D01*
X145357619Y-62093333D01*
X144262380Y-62045714D02*
X143881428Y-62045714D01*
X144119523Y-62712380D02*
X144119523Y-61855238D01*
X144071904Y-61760000D01*
X143976666Y-61712380D01*
X143881428Y-61712380D01*
X143405238Y-62712380D02*
X143500476Y-62664761D01*
X143548095Y-62617142D01*
X143595714Y-62521904D01*
X143595714Y-62236190D01*
X143548095Y-62140952D01*
X143500476Y-62093333D01*
X143405238Y-62045714D01*
X143262380Y-62045714D01*
X143167142Y-62093333D01*
X143119523Y-62140952D01*
X143071904Y-62236190D01*
X143071904Y-62521904D01*
X143119523Y-62617142D01*
X143167142Y-62664761D01*
X143262380Y-62712380D01*
X143405238Y-62712380D01*
X142643333Y-62712380D02*
X142643333Y-62045714D01*
X142643333Y-62236190D02*
X142595714Y-62140952D01*
X142548095Y-62093333D01*
X142452857Y-62045714D01*
X142357619Y-62045714D01*
X141310000Y-62426666D02*
X140833809Y-62426666D01*
X141405238Y-62712380D02*
X141071904Y-61712380D01*
X140738571Y-62712380D01*
X140405238Y-62712380D02*
X140405238Y-62045714D01*
X140405238Y-62236190D02*
X140357619Y-62140952D01*
X140310000Y-62093333D01*
X140214761Y-62045714D01*
X140119523Y-62045714D01*
X139357619Y-62712380D02*
X139357619Y-61712380D01*
X139357619Y-62664761D02*
X139452857Y-62712380D01*
X139643333Y-62712380D01*
X139738571Y-62664761D01*
X139786190Y-62617142D01*
X139833809Y-62521904D01*
X139833809Y-62236190D01*
X139786190Y-62140952D01*
X139738571Y-62093333D01*
X139643333Y-62045714D01*
X139452857Y-62045714D01*
X139357619Y-62093333D01*
X138452857Y-62045714D02*
X138452857Y-62712380D01*
X138881428Y-62045714D02*
X138881428Y-62569523D01*
X138833809Y-62664761D01*
X138738571Y-62712380D01*
X138595714Y-62712380D01*
X138500476Y-62664761D01*
X138452857Y-62617142D01*
X137976666Y-62712380D02*
X137976666Y-62045714D01*
X137976666Y-61712380D02*
X138024285Y-61760000D01*
X137976666Y-61807619D01*
X137929047Y-61760000D01*
X137976666Y-61712380D01*
X137976666Y-61807619D01*
X137500476Y-62045714D02*
X137500476Y-62712380D01*
X137500476Y-62140952D02*
X137452857Y-62093333D01*
X137357619Y-62045714D01*
X137214761Y-62045714D01*
X137119523Y-62093333D01*
X137071904Y-62188571D01*
X137071904Y-62712380D01*
X136452857Y-62712380D02*
X136548095Y-62664761D01*
X136595714Y-62617142D01*
X136643333Y-62521904D01*
X136643333Y-62236190D01*
X136595714Y-62140952D01*
X136548095Y-62093333D01*
X136452857Y-62045714D01*
X136310000Y-62045714D01*
X136214761Y-62093333D01*
X136167142Y-62140952D01*
X136119523Y-62236190D01*
X136119523Y-62521904D01*
X136167142Y-62617142D01*
X136214761Y-62664761D01*
X136310000Y-62712380D01*
X136452857Y-62712380D01*
X134929047Y-62712380D02*
X134929047Y-61712380D01*
X134595714Y-62426666D01*
X134262380Y-61712380D01*
X134262380Y-62712380D01*
X133405238Y-62664761D02*
X133500476Y-62712380D01*
X133690952Y-62712380D01*
X133786190Y-62664761D01*
X133833809Y-62569523D01*
X133833809Y-62188571D01*
X133786190Y-62093333D01*
X133690952Y-62045714D01*
X133500476Y-62045714D01*
X133405238Y-62093333D01*
X133357619Y-62188571D01*
X133357619Y-62283809D01*
X133833809Y-62379047D01*
X132500476Y-62045714D02*
X132500476Y-62855238D01*
X132548095Y-62950476D01*
X132595714Y-62998095D01*
X132690952Y-63045714D01*
X132833809Y-63045714D01*
X132929047Y-62998095D01*
X132500476Y-62664761D02*
X132595714Y-62712380D01*
X132786190Y-62712380D01*
X132881428Y-62664761D01*
X132929047Y-62617142D01*
X132976666Y-62521904D01*
X132976666Y-62236190D01*
X132929047Y-62140952D01*
X132881428Y-62093333D01*
X132786190Y-62045714D01*
X132595714Y-62045714D01*
X132500476Y-62093333D01*
X131595714Y-62712380D02*
X131595714Y-62188571D01*
X131643333Y-62093333D01*
X131738571Y-62045714D01*
X131929047Y-62045714D01*
X132024285Y-62093333D01*
X131595714Y-62664761D02*
X131690952Y-62712380D01*
X131929047Y-62712380D01*
X132024285Y-62664761D01*
X132071904Y-62569523D01*
X132071904Y-62474285D01*
X132024285Y-62379047D01*
X131929047Y-62331428D01*
X131690952Y-62331428D01*
X131595714Y-62283809D01*
X130405238Y-61807619D02*
X130357619Y-61760000D01*
X130262380Y-61712380D01*
X130024285Y-61712380D01*
X129929047Y-61760000D01*
X129881428Y-61807619D01*
X129833809Y-61902857D01*
X129833809Y-61998095D01*
X129881428Y-62140952D01*
X130452857Y-62712380D01*
X129833809Y-62712380D01*
X128929047Y-61712380D02*
X129405238Y-61712380D01*
X129452857Y-62188571D01*
X129405238Y-62140952D01*
X129310000Y-62093333D01*
X129071904Y-62093333D01*
X128976666Y-62140952D01*
X128929047Y-62188571D01*
X128881428Y-62283809D01*
X128881428Y-62521904D01*
X128929047Y-62617142D01*
X128976666Y-62664761D01*
X129071904Y-62712380D01*
X129310000Y-62712380D01*
X129405238Y-62664761D01*
X129452857Y-62617142D01*
X128024285Y-61712380D02*
X128214761Y-61712380D01*
X128310000Y-61760000D01*
X128357619Y-61807619D01*
X128452857Y-61950476D01*
X128500476Y-62140952D01*
X128500476Y-62521904D01*
X128452857Y-62617142D01*
X128405238Y-62664761D01*
X128310000Y-62712380D01*
X128119523Y-62712380D01*
X128024285Y-62664761D01*
X127976666Y-62617142D01*
X127929047Y-62521904D01*
X127929047Y-62283809D01*
X127976666Y-62188571D01*
X128024285Y-62140952D01*
X128119523Y-62093333D01*
X128310000Y-62093333D01*
X128405238Y-62140952D01*
X128452857Y-62188571D01*
X128500476Y-62283809D01*
X127310000Y-61712380D02*
X127214761Y-61712380D01*
X127119523Y-61760000D01*
X127071904Y-61807619D01*
X127024285Y-61902857D01*
X126976666Y-62093333D01*
X126976666Y-62331428D01*
X127024285Y-62521904D01*
X127071904Y-62617142D01*
X127119523Y-62664761D01*
X127214761Y-62712380D01*
X127310000Y-62712380D01*
X127405238Y-62664761D01*
X127452857Y-62617142D01*
X127500476Y-62521904D01*
X127548095Y-62331428D01*
X127548095Y-62093333D01*
X127500476Y-61902857D01*
X127452857Y-61807619D01*
X127405238Y-61760000D01*
X127310000Y-61712380D01*
X154929047Y-63457619D02*
X154881428Y-63410000D01*
X154786190Y-63362380D01*
X154548095Y-63362380D01*
X154452857Y-63410000D01*
X154405238Y-63457619D01*
X154357619Y-63552857D01*
X154357619Y-63648095D01*
X154405238Y-63790952D01*
X154976666Y-64362380D01*
X154357619Y-64362380D01*
X153738571Y-63362380D02*
X153643333Y-63362380D01*
X153548095Y-63410000D01*
X153500476Y-63457619D01*
X153452857Y-63552857D01*
X153405238Y-63743333D01*
X153405238Y-63981428D01*
X153452857Y-64171904D01*
X153500476Y-64267142D01*
X153548095Y-64314761D01*
X153643333Y-64362380D01*
X153738571Y-64362380D01*
X153833809Y-64314761D01*
X153881428Y-64267142D01*
X153929047Y-64171904D01*
X153976666Y-63981428D01*
X153976666Y-63743333D01*
X153929047Y-63552857D01*
X153881428Y-63457619D01*
X153833809Y-63410000D01*
X153738571Y-63362380D01*
X152452857Y-64362380D02*
X153024285Y-64362380D01*
X152738571Y-64362380D02*
X152738571Y-63362380D01*
X152833809Y-63505238D01*
X152929047Y-63600476D01*
X153024285Y-63648095D01*
X151976666Y-64362380D02*
X151786190Y-64362380D01*
X151690952Y-64314761D01*
X151643333Y-64267142D01*
X151548095Y-64124285D01*
X151500476Y-63933809D01*
X151500476Y-63552857D01*
X151548095Y-63457619D01*
X151595714Y-63410000D01*
X151690952Y-63362380D01*
X151881428Y-63362380D01*
X151976666Y-63410000D01*
X152024285Y-63457619D01*
X152071904Y-63552857D01*
X152071904Y-63790952D01*
X152024285Y-63886190D01*
X151976666Y-63933809D01*
X151881428Y-63981428D01*
X151690952Y-63981428D01*
X151595714Y-63933809D01*
X151548095Y-63886190D01*
X151500476Y-63790952D01*
X149548095Y-64362380D02*
X149548095Y-63362380D01*
X149548095Y-63838571D02*
X148976666Y-63838571D01*
X148976666Y-64362380D02*
X148976666Y-63362380D01*
X148071904Y-64362380D02*
X148071904Y-63838571D01*
X148119523Y-63743333D01*
X148214761Y-63695714D01*
X148405238Y-63695714D01*
X148500476Y-63743333D01*
X148071904Y-64314761D02*
X148167142Y-64362380D01*
X148405238Y-64362380D01*
X148500476Y-64314761D01*
X148548095Y-64219523D01*
X148548095Y-64124285D01*
X148500476Y-64029047D01*
X148405238Y-63981428D01*
X148167142Y-63981428D01*
X148071904Y-63933809D01*
X147595714Y-63695714D02*
X147595714Y-64362380D01*
X147595714Y-63790952D02*
X147548095Y-63743333D01*
X147452857Y-63695714D01*
X147310000Y-63695714D01*
X147214761Y-63743333D01*
X147167142Y-63838571D01*
X147167142Y-64362380D01*
X146738571Y-64314761D02*
X146643333Y-64362380D01*
X146452857Y-64362380D01*
X146357619Y-64314761D01*
X146310000Y-64219523D01*
X146310000Y-64171904D01*
X146357619Y-64076666D01*
X146452857Y-64029047D01*
X146595714Y-64029047D01*
X146690952Y-63981428D01*
X146738571Y-63886190D01*
X146738571Y-63838571D01*
X146690952Y-63743333D01*
X146595714Y-63695714D01*
X146452857Y-63695714D01*
X146357619Y-63743333D01*
X145262380Y-63886190D02*
X145310000Y-63838571D01*
X145405238Y-63790952D01*
X145500476Y-63790952D01*
X145595714Y-63838571D01*
X145643333Y-63886190D01*
X145690952Y-63981428D01*
X145690952Y-64076666D01*
X145643333Y-64171904D01*
X145595714Y-64219523D01*
X145500476Y-64267142D01*
X145405238Y-64267142D01*
X145310000Y-64219523D01*
X145262380Y-64171904D01*
X145262380Y-63790952D02*
X145262380Y-64171904D01*
X145214761Y-64219523D01*
X145167142Y-64219523D01*
X145071904Y-64171904D01*
X145024285Y-64076666D01*
X145024285Y-63838571D01*
X145119523Y-63695714D01*
X145262380Y-63600476D01*
X145452857Y-63552857D01*
X145643333Y-63600476D01*
X145786190Y-63695714D01*
X145881428Y-63838571D01*
X145929047Y-64029047D01*
X145881428Y-64219523D01*
X145786190Y-64362380D01*
X145643333Y-64457619D01*
X145452857Y-64505238D01*
X145262380Y-64457619D01*
X145119523Y-64362380D01*
X144119523Y-64362380D02*
X144595714Y-64362380D01*
X144595714Y-63362380D01*
X143786190Y-64362380D02*
X143786190Y-63695714D01*
X143786190Y-63362380D02*
X143833809Y-63410000D01*
X143786190Y-63457619D01*
X143738571Y-63410000D01*
X143786190Y-63362380D01*
X143786190Y-63457619D01*
X143357619Y-64314761D02*
X143262380Y-64362380D01*
X143071904Y-64362380D01*
X142976666Y-64314761D01*
X142929047Y-64219523D01*
X142929047Y-64171904D01*
X142976666Y-64076666D01*
X143071904Y-64029047D01*
X143214761Y-64029047D01*
X143310000Y-63981428D01*
X143357619Y-63886190D01*
X143357619Y-63838571D01*
X143310000Y-63743333D01*
X143214761Y-63695714D01*
X143071904Y-63695714D01*
X142976666Y-63743333D01*
X142548095Y-64314761D02*
X142452857Y-64362380D01*
X142262380Y-64362380D01*
X142167142Y-64314761D01*
X142119523Y-64219523D01*
X142119523Y-64171904D01*
X142167142Y-64076666D01*
X142262380Y-64029047D01*
X142405238Y-64029047D01*
X142500476Y-63981428D01*
X142548095Y-63886190D01*
X142548095Y-63838571D01*
X142500476Y-63743333D01*
X142405238Y-63695714D01*
X142262380Y-63695714D01*
X142167142Y-63743333D01*
X141690952Y-64267142D02*
X141643333Y-64314761D01*
X141690952Y-64362380D01*
X141738571Y-64314761D01*
X141690952Y-64267142D01*
X141690952Y-64362380D01*
X141214761Y-63695714D02*
X141214761Y-64695714D01*
X141214761Y-63743333D02*
X141119523Y-63695714D01*
X140929047Y-63695714D01*
X140833809Y-63743333D01*
X140786190Y-63790952D01*
X140738571Y-63886190D01*
X140738571Y-64171904D01*
X140786190Y-64267142D01*
X140833809Y-64314761D01*
X140929047Y-64362380D01*
X141119523Y-64362380D01*
X141214761Y-64314761D01*
X140310000Y-63695714D02*
X140310000Y-64695714D01*
X140310000Y-63743333D02*
X140214761Y-63695714D01*
X140024285Y-63695714D01*
X139929047Y-63743333D01*
X139881428Y-63790952D01*
X139833809Y-63886190D01*
X139833809Y-64171904D01*
X139881428Y-64267142D01*
X139929047Y-64314761D01*
X140024285Y-64362380D01*
X140214761Y-64362380D01*
X140310000Y-64314761D01*
X139405238Y-64267142D02*
X139357619Y-64314761D01*
X139405238Y-64362380D01*
X139452857Y-64314761D01*
X139405238Y-64267142D01*
X139405238Y-64362380D01*
X138976666Y-64314761D02*
X138881428Y-64362380D01*
X138690952Y-64362380D01*
X138595714Y-64314761D01*
X138548095Y-64219523D01*
X138548095Y-64171904D01*
X138595714Y-64076666D01*
X138690952Y-64029047D01*
X138833809Y-64029047D01*
X138929047Y-63981428D01*
X138976666Y-63886190D01*
X138976666Y-63838571D01*
X138929047Y-63743333D01*
X138833809Y-63695714D01*
X138690952Y-63695714D01*
X138595714Y-63743333D01*
X137738571Y-64314761D02*
X137833809Y-64362380D01*
X138024285Y-64362380D01*
X138119523Y-64314761D01*
X138167142Y-64219523D01*
X138167142Y-63838571D01*
X138119523Y-63743333D01*
X138024285Y-63695714D01*
X137833809Y-63695714D01*
X137738571Y-63743333D01*
X137690952Y-63838571D01*
X137690952Y-63933809D01*
X138167142Y-64029047D01*
X179548095Y-66012380D02*
X179548095Y-65012380D01*
X179310000Y-65012380D01*
X179167142Y-65060000D01*
X179071904Y-65155238D01*
X179024285Y-65250476D01*
X178976666Y-65440952D01*
X178976666Y-65583809D01*
X179024285Y-65774285D01*
X179071904Y-65869523D01*
X179167142Y-65964761D01*
X179310000Y-66012380D01*
X179548095Y-66012380D01*
X178167142Y-65964761D02*
X178262380Y-66012380D01*
X178452857Y-66012380D01*
X178548095Y-65964761D01*
X178595714Y-65869523D01*
X178595714Y-65488571D01*
X178548095Y-65393333D01*
X178452857Y-65345714D01*
X178262380Y-65345714D01*
X178167142Y-65393333D01*
X178119523Y-65488571D01*
X178119523Y-65583809D01*
X178595714Y-65679047D01*
X177738571Y-65964761D02*
X177643333Y-66012380D01*
X177452857Y-66012380D01*
X177357619Y-65964761D01*
X177310000Y-65869523D01*
X177310000Y-65821904D01*
X177357619Y-65726666D01*
X177452857Y-65679047D01*
X177595714Y-65679047D01*
X177690952Y-65631428D01*
X177738571Y-65536190D01*
X177738571Y-65488571D01*
X177690952Y-65393333D01*
X177595714Y-65345714D01*
X177452857Y-65345714D01*
X177357619Y-65393333D01*
X176881428Y-66012380D02*
X176881428Y-65345714D01*
X176881428Y-65012380D02*
X176929047Y-65060000D01*
X176881428Y-65107619D01*
X176833809Y-65060000D01*
X176881428Y-65012380D01*
X176881428Y-65107619D01*
X175976666Y-65345714D02*
X175976666Y-66155238D01*
X176024285Y-66250476D01*
X176071904Y-66298095D01*
X176167142Y-66345714D01*
X176310000Y-66345714D01*
X176405238Y-66298095D01*
X175976666Y-65964761D02*
X176071904Y-66012380D01*
X176262380Y-66012380D01*
X176357619Y-65964761D01*
X176405238Y-65917142D01*
X176452857Y-65821904D01*
X176452857Y-65536190D01*
X176405238Y-65440952D01*
X176357619Y-65393333D01*
X176262380Y-65345714D01*
X176071904Y-65345714D01*
X175976666Y-65393333D01*
X175500476Y-65345714D02*
X175500476Y-66012380D01*
X175500476Y-65440952D02*
X175452857Y-65393333D01*
X175357619Y-65345714D01*
X175214761Y-65345714D01*
X175119523Y-65393333D01*
X175071904Y-65488571D01*
X175071904Y-66012380D01*
X174214761Y-65964761D02*
X174310000Y-66012380D01*
X174500476Y-66012380D01*
X174595714Y-65964761D01*
X174643333Y-65869523D01*
X174643333Y-65488571D01*
X174595714Y-65393333D01*
X174500476Y-65345714D01*
X174310000Y-65345714D01*
X174214761Y-65393333D01*
X174167142Y-65488571D01*
X174167142Y-65583809D01*
X174643333Y-65679047D01*
X173310000Y-66012380D02*
X173310000Y-65012380D01*
X173310000Y-65964761D02*
X173405238Y-66012380D01*
X173595714Y-66012380D01*
X173690952Y-65964761D01*
X173738571Y-65917142D01*
X173786190Y-65821904D01*
X173786190Y-65536190D01*
X173738571Y-65440952D01*
X173690952Y-65393333D01*
X173595714Y-65345714D01*
X173405238Y-65345714D01*
X173310000Y-65393333D01*
X172214761Y-65345714D02*
X171833809Y-65345714D01*
X172071904Y-66012380D02*
X172071904Y-65155238D01*
X172024285Y-65060000D01*
X171929047Y-65012380D01*
X171833809Y-65012380D01*
X171357619Y-66012380D02*
X171452857Y-65964761D01*
X171500476Y-65917142D01*
X171548095Y-65821904D01*
X171548095Y-65536190D01*
X171500476Y-65440952D01*
X171452857Y-65393333D01*
X171357619Y-65345714D01*
X171214761Y-65345714D01*
X171119523Y-65393333D01*
X171071904Y-65440952D01*
X171024285Y-65536190D01*
X171024285Y-65821904D01*
X171071904Y-65917142D01*
X171119523Y-65964761D01*
X171214761Y-66012380D01*
X171357619Y-66012380D01*
X170595714Y-66012380D02*
X170595714Y-65345714D01*
X170595714Y-65536190D02*
X170548095Y-65440952D01*
X170500476Y-65393333D01*
X170405238Y-65345714D01*
X170310000Y-65345714D01*
X168929047Y-65012380D02*
X168929047Y-65726666D01*
X168976666Y-65869523D01*
X169071904Y-65964761D01*
X169214761Y-66012380D01*
X169310000Y-66012380D01*
X168071904Y-65964761D02*
X168167142Y-66012380D01*
X168357619Y-66012380D01*
X168452857Y-65964761D01*
X168500476Y-65869523D01*
X168500476Y-65488571D01*
X168452857Y-65393333D01*
X168357619Y-65345714D01*
X168167142Y-65345714D01*
X168071904Y-65393333D01*
X168024285Y-65488571D01*
X168024285Y-65583809D01*
X168500476Y-65679047D01*
X167738571Y-65345714D02*
X167357619Y-65345714D01*
X167595714Y-66012380D02*
X167595714Y-65155238D01*
X167548095Y-65060000D01*
X167452857Y-65012380D01*
X167357619Y-65012380D01*
X167167142Y-65345714D02*
X166786190Y-65345714D01*
X167024285Y-66012380D02*
X167024285Y-65155238D01*
X166976666Y-65060000D01*
X166881428Y-65012380D01*
X166786190Y-65012380D01*
X165357619Y-65488571D02*
X165214761Y-65536190D01*
X165167142Y-65583809D01*
X165119523Y-65679047D01*
X165119523Y-65821904D01*
X165167142Y-65917142D01*
X165214761Y-65964761D01*
X165310000Y-66012380D01*
X165690952Y-66012380D01*
X165690952Y-65012380D01*
X165357619Y-65012380D01*
X165262380Y-65060000D01*
X165214761Y-65107619D01*
X165167142Y-65202857D01*
X165167142Y-65298095D01*
X165214761Y-65393333D01*
X165262380Y-65440952D01*
X165357619Y-65488571D01*
X165690952Y-65488571D01*
X164690952Y-66012380D02*
X164690952Y-65345714D01*
X164690952Y-65012380D02*
X164738571Y-65060000D01*
X164690952Y-65107619D01*
X164643333Y-65060000D01*
X164690952Y-65012380D01*
X164690952Y-65107619D01*
X164214761Y-66012380D02*
X164214761Y-65345714D01*
X164214761Y-65536190D02*
X164167142Y-65440952D01*
X164119523Y-65393333D01*
X164024285Y-65345714D01*
X163929047Y-65345714D01*
X163738571Y-65345714D02*
X163357619Y-65345714D01*
X163595714Y-65012380D02*
X163595714Y-65869523D01*
X163548095Y-65964761D01*
X163452857Y-66012380D01*
X163357619Y-66012380D01*
X162976666Y-65012380D02*
X163071904Y-65202857D01*
X162595714Y-65964761D02*
X162500476Y-66012380D01*
X162309999Y-66012380D01*
X162214761Y-65964761D01*
X162167142Y-65869523D01*
X162167142Y-65821904D01*
X162214761Y-65726666D01*
X162309999Y-65679047D01*
X162452857Y-65679047D01*
X162548095Y-65631428D01*
X162595714Y-65536190D01*
X162595714Y-65488571D01*
X162548095Y-65393333D01*
X162452857Y-65345714D01*
X162309999Y-65345714D01*
X162214761Y-65393333D01*
X160405238Y-66012380D02*
X160738571Y-65536190D01*
X160976666Y-66012380D02*
X160976666Y-65012380D01*
X160595714Y-65012380D01*
X160500476Y-65060000D01*
X160452857Y-65107619D01*
X160405238Y-65202857D01*
X160405238Y-65345714D01*
X160452857Y-65440952D01*
X160500476Y-65488571D01*
X160595714Y-65536190D01*
X160976666Y-65536190D01*
X159405238Y-65917142D02*
X159452857Y-65964761D01*
X159595714Y-66012380D01*
X159690952Y-66012380D01*
X159833809Y-65964761D01*
X159929047Y-65869523D01*
X159976666Y-65774285D01*
X160024285Y-65583809D01*
X160024285Y-65440952D01*
X159976666Y-65250476D01*
X159929047Y-65155238D01*
X159833809Y-65060000D01*
X159690952Y-65012380D01*
X159595714Y-65012380D01*
X159452857Y-65060000D01*
X159405238Y-65107619D01*
X159024285Y-65726666D02*
X158548095Y-65726666D01*
X159119523Y-66012380D02*
X158786190Y-65012380D01*
X158452857Y-66012380D01*
X157595714Y-66012380D02*
X158167142Y-66012380D01*
X157881428Y-66012380D02*
X157881428Y-65012380D01*
X157976666Y-65155238D01*
X158071904Y-65250476D01*
X158167142Y-65298095D01*
X157024285Y-65440952D02*
X157119523Y-65393333D01*
X157167142Y-65345714D01*
X157214761Y-65250476D01*
X157214761Y-65202857D01*
X157167142Y-65107619D01*
X157119523Y-65060000D01*
X157024285Y-65012380D01*
X156833809Y-65012380D01*
X156738571Y-65060000D01*
X156690952Y-65107619D01*
X156643333Y-65202857D01*
X156643333Y-65250476D01*
X156690952Y-65345714D01*
X156738571Y-65393333D01*
X156833809Y-65440952D01*
X157024285Y-65440952D01*
X157119523Y-65488571D01*
X157167142Y-65536190D01*
X157214761Y-65631428D01*
X157214761Y-65821904D01*
X157167142Y-65917142D01*
X157119523Y-65964761D01*
X157024285Y-66012380D01*
X156833809Y-66012380D01*
X156738571Y-65964761D01*
X156690952Y-65917142D01*
X156643333Y-65821904D01*
X156643333Y-65631428D01*
X156690952Y-65536190D01*
X156738571Y-65488571D01*
X156833809Y-65440952D01*
X156024285Y-65012380D02*
X155929047Y-65012380D01*
X155833809Y-65060000D01*
X155786190Y-65107619D01*
X155738571Y-65202857D01*
X155690952Y-65393333D01*
X155690952Y-65631428D01*
X155738571Y-65821904D01*
X155786190Y-65917142D01*
X155833809Y-65964761D01*
X155929047Y-66012380D01*
X156024285Y-66012380D01*
X156119523Y-65964761D01*
X156167142Y-65917142D01*
X156214761Y-65821904D01*
X156262380Y-65631428D01*
X156262380Y-65393333D01*
X156214761Y-65202857D01*
X156167142Y-65107619D01*
X156119523Y-65060000D01*
X156024285Y-65012380D01*
X155309999Y-65107619D02*
X155262380Y-65060000D01*
X155167142Y-65012380D01*
X154929047Y-65012380D01*
X154833809Y-65060000D01*
X154786190Y-65107619D01*
X154738571Y-65202857D01*
X154738571Y-65298095D01*
X154786190Y-65440952D01*
X155357619Y-66012380D01*
X154738571Y-66012380D01*
X154548095Y-66107619D02*
X153786190Y-66107619D01*
X153690952Y-65012380D02*
X153119523Y-65012380D01*
X153405238Y-66012380D02*
X153405238Y-65012380D01*
X152405238Y-65964761D02*
X152500476Y-66012380D01*
X152690952Y-66012380D01*
X152786190Y-65964761D01*
X152833809Y-65869523D01*
X152833809Y-65488571D01*
X152786190Y-65393333D01*
X152690952Y-65345714D01*
X152500476Y-65345714D01*
X152405238Y-65393333D01*
X152357619Y-65488571D01*
X152357619Y-65583809D01*
X152833809Y-65679047D01*
X151976666Y-65964761D02*
X151881428Y-66012380D01*
X151690952Y-66012380D01*
X151595714Y-65964761D01*
X151548095Y-65869523D01*
X151548095Y-65821904D01*
X151595714Y-65726666D01*
X151690952Y-65679047D01*
X151833809Y-65679047D01*
X151929047Y-65631428D01*
X151976666Y-65536190D01*
X151976666Y-65488571D01*
X151929047Y-65393333D01*
X151833809Y-65345714D01*
X151690952Y-65345714D01*
X151595714Y-65393333D01*
X151262380Y-65345714D02*
X150881428Y-65345714D01*
X151119523Y-65012380D02*
X151119523Y-65869523D01*
X151071904Y-65964761D01*
X150976666Y-66012380D01*
X150881428Y-66012380D01*
X150167142Y-65964761D02*
X150262380Y-66012380D01*
X150452857Y-66012380D01*
X150548095Y-65964761D01*
X150595714Y-65869523D01*
X150595714Y-65488571D01*
X150548095Y-65393333D01*
X150452857Y-65345714D01*
X150262380Y-65345714D01*
X150167142Y-65393333D01*
X150119523Y-65488571D01*
X150119523Y-65583809D01*
X150595714Y-65679047D01*
X149690952Y-66012380D02*
X149690952Y-65345714D01*
X149690952Y-65536190D02*
X149643333Y-65440952D01*
X149595714Y-65393333D01*
X149500476Y-65345714D01*
X149405238Y-65345714D01*
X149071904Y-65917142D02*
X149024285Y-65964761D01*
X149071904Y-66012380D01*
X149119523Y-65964761D01*
X149071904Y-65917142D01*
X149071904Y-66012380D01*
X149071904Y-65393333D02*
X149024285Y-65440952D01*
X149071904Y-65488571D01*
X149119523Y-65440952D01*
X149071904Y-65393333D01*
X149071904Y-65488571D01*
X147833809Y-66012380D02*
X147833809Y-65012380D01*
X147405238Y-66012380D02*
X147405238Y-65488571D01*
X147452857Y-65393333D01*
X147548095Y-65345714D01*
X147690952Y-65345714D01*
X147786190Y-65393333D01*
X147833809Y-65440952D01*
X147071904Y-65345714D02*
X146690952Y-65345714D01*
X146929047Y-65012380D02*
X146929047Y-65869523D01*
X146881428Y-65964761D01*
X146786190Y-66012380D01*
X146690952Y-66012380D01*
X146500476Y-65345714D02*
X146119523Y-65345714D01*
X146357619Y-65012380D02*
X146357619Y-65869523D01*
X146309999Y-65964761D01*
X146214761Y-66012380D01*
X146119523Y-66012380D01*
X145786190Y-65345714D02*
X145786190Y-66345714D01*
X145786190Y-65393333D02*
X145690952Y-65345714D01*
X145500476Y-65345714D01*
X145405238Y-65393333D01*
X145357619Y-65440952D01*
X145309999Y-65536190D01*
X145309999Y-65821904D01*
X145357619Y-65917142D01*
X145405238Y-65964761D01*
X145500476Y-66012380D01*
X145690952Y-66012380D01*
X145786190Y-65964761D01*
X144929047Y-65964761D02*
X144833809Y-66012380D01*
X144643333Y-66012380D01*
X144548095Y-65964761D01*
X144500476Y-65869523D01*
X144500476Y-65821904D01*
X144548095Y-65726666D01*
X144643333Y-65679047D01*
X144786190Y-65679047D01*
X144881428Y-65631428D01*
X144929047Y-65536190D01*
X144929047Y-65488571D01*
X144881428Y-65393333D01*
X144786190Y-65345714D01*
X144643333Y-65345714D01*
X144548095Y-65393333D01*
X144071904Y-65917142D02*
X144024285Y-65964761D01*
X144071904Y-66012380D01*
X144119523Y-65964761D01*
X144071904Y-65917142D01*
X144071904Y-66012380D01*
X144071904Y-65393333D02*
X144024285Y-65440952D01*
X144071904Y-65488571D01*
X144119523Y-65440952D01*
X144071904Y-65393333D01*
X144071904Y-65488571D01*
X142881428Y-64964761D02*
X143738571Y-66250476D01*
X141833809Y-64964761D02*
X142690952Y-66250476D01*
X141071904Y-65345714D02*
X141071904Y-66155238D01*
X141119523Y-66250476D01*
X141167142Y-66298095D01*
X141262380Y-66345714D01*
X141405238Y-66345714D01*
X141500476Y-66298095D01*
X141071904Y-65964761D02*
X141167142Y-66012380D01*
X141357619Y-66012380D01*
X141452857Y-65964761D01*
X141500476Y-65917142D01*
X141548095Y-65821904D01*
X141548095Y-65536190D01*
X141500476Y-65440952D01*
X141452857Y-65393333D01*
X141357619Y-65345714D01*
X141167142Y-65345714D01*
X141071904Y-65393333D01*
X140595714Y-66012380D02*
X140595714Y-65345714D01*
X140595714Y-65012380D02*
X140643333Y-65060000D01*
X140595714Y-65107619D01*
X140548095Y-65060000D01*
X140595714Y-65012380D01*
X140595714Y-65107619D01*
X140262380Y-65345714D02*
X139881428Y-65345714D01*
X140119523Y-65012380D02*
X140119523Y-65869523D01*
X140071904Y-65964761D01*
X139976666Y-66012380D01*
X139881428Y-66012380D01*
X139548095Y-66012380D02*
X139548095Y-65012380D01*
X139119523Y-66012380D02*
X139119523Y-65488571D01*
X139167142Y-65393333D01*
X139262380Y-65345714D01*
X139405238Y-65345714D01*
X139500476Y-65393333D01*
X139548095Y-65440952D01*
X138214761Y-65345714D02*
X138214761Y-66012380D01*
X138643333Y-65345714D02*
X138643333Y-65869523D01*
X138595714Y-65964761D01*
X138500476Y-66012380D01*
X138357619Y-66012380D01*
X138262380Y-65964761D01*
X138214761Y-65917142D01*
X137738571Y-66012380D02*
X137738571Y-65012380D01*
X137738571Y-65393333D02*
X137643333Y-65345714D01*
X137452857Y-65345714D01*
X137357619Y-65393333D01*
X137309999Y-65440952D01*
X137262380Y-65536190D01*
X137262380Y-65821904D01*
X137309999Y-65917142D01*
X137357619Y-65964761D01*
X137452857Y-66012380D01*
X137643333Y-66012380D01*
X137738571Y-65964761D01*
X136833809Y-65917142D02*
X136786190Y-65964761D01*
X136833809Y-66012380D01*
X136881428Y-65964761D01*
X136833809Y-65917142D01*
X136833809Y-66012380D01*
X135929047Y-65964761D02*
X136024285Y-66012380D01*
X136214761Y-66012380D01*
X136309999Y-65964761D01*
X136357619Y-65917142D01*
X136405238Y-65821904D01*
X136405238Y-65536190D01*
X136357619Y-65440952D01*
X136309999Y-65393333D01*
X136214761Y-65345714D01*
X136024285Y-65345714D01*
X135929047Y-65393333D01*
X135357619Y-66012380D02*
X135452857Y-65964761D01*
X135500476Y-65917142D01*
X135548095Y-65821904D01*
X135548095Y-65536190D01*
X135500476Y-65440952D01*
X135452857Y-65393333D01*
X135357619Y-65345714D01*
X135214761Y-65345714D01*
X135119523Y-65393333D01*
X135071904Y-65440952D01*
X135024285Y-65536190D01*
X135024285Y-65821904D01*
X135071904Y-65917142D01*
X135119523Y-65964761D01*
X135214761Y-66012380D01*
X135357619Y-66012380D01*
X134595714Y-66012380D02*
X134595714Y-65345714D01*
X134595714Y-65440952D02*
X134548095Y-65393333D01*
X134452857Y-65345714D01*
X134309999Y-65345714D01*
X134214761Y-65393333D01*
X134167142Y-65488571D01*
X134167142Y-66012380D01*
X134167142Y-65488571D02*
X134119523Y-65393333D01*
X134024285Y-65345714D01*
X133881428Y-65345714D01*
X133786190Y-65393333D01*
X133738571Y-65488571D01*
X133738571Y-66012380D01*
X132548095Y-64964761D02*
X133405238Y-66250476D01*
X131929047Y-65012380D02*
X131929047Y-65726666D01*
X131976666Y-65869523D01*
X132071904Y-65964761D01*
X132214761Y-66012380D01*
X132309999Y-66012380D01*
X131071904Y-65964761D02*
X131167142Y-66012380D01*
X131357619Y-66012380D01*
X131452857Y-65964761D01*
X131500476Y-65869523D01*
X131500476Y-65488571D01*
X131452857Y-65393333D01*
X131357619Y-65345714D01*
X131167142Y-65345714D01*
X131071904Y-65393333D01*
X131024285Y-65488571D01*
X131024285Y-65583809D01*
X131500476Y-65679047D01*
X130738571Y-65345714D02*
X130357619Y-65345714D01*
X130595714Y-66012380D02*
X130595714Y-65155238D01*
X130548095Y-65060000D01*
X130452857Y-65012380D01*
X130357619Y-65012380D01*
X130167142Y-65345714D02*
X129786190Y-65345714D01*
X130024285Y-66012380D02*
X130024285Y-65155238D01*
X129976666Y-65060000D01*
X129881428Y-65012380D01*
X129786190Y-65012380D01*
X129452857Y-65631428D02*
X128690952Y-65631428D01*
X127881428Y-65488571D02*
X127738571Y-65536190D01*
X127690952Y-65583809D01*
X127643333Y-65679047D01*
X127643333Y-65821904D01*
X127690952Y-65917142D01*
X127738571Y-65964761D01*
X127833809Y-66012380D01*
X128214761Y-66012380D01*
X128214761Y-65012380D01*
X127881428Y-65012380D01*
X127786190Y-65060000D01*
X127738571Y-65107619D01*
X127690952Y-65202857D01*
X127690952Y-65298095D01*
X127738571Y-65393333D01*
X127786190Y-65440952D01*
X127881428Y-65488571D01*
X128214761Y-65488571D01*
X127214761Y-66012380D02*
X127214761Y-65345714D01*
X127214761Y-65012380D02*
X127262380Y-65060000D01*
X127214761Y-65107619D01*
X127167142Y-65060000D01*
X127214761Y-65012380D01*
X127214761Y-65107619D01*
X126738571Y-66012380D02*
X126738571Y-65345714D01*
X126738571Y-65536190D02*
X126690952Y-65440952D01*
X126643333Y-65393333D01*
X126548095Y-65345714D01*
X126452857Y-65345714D01*
X126262380Y-65345714D02*
X125881428Y-65345714D01*
X126119523Y-65012380D02*
X126119523Y-65869523D01*
X126071904Y-65964761D01*
X125976666Y-66012380D01*
X125881428Y-66012380D01*
X124833809Y-64964761D02*
X125690952Y-66250476D01*
X123929047Y-66012380D02*
X124262380Y-65536190D01*
X124500476Y-66012380D02*
X124500476Y-65012380D01*
X124119523Y-65012380D01*
X124024285Y-65060000D01*
X123976666Y-65107619D01*
X123929047Y-65202857D01*
X123929047Y-65345714D01*
X123976666Y-65440952D01*
X124024285Y-65488571D01*
X124119523Y-65536190D01*
X124500476Y-65536190D01*
X122929047Y-65917142D02*
X122976666Y-65964761D01*
X123119523Y-66012380D01*
X123214761Y-66012380D01*
X123357619Y-65964761D01*
X123452857Y-65869523D01*
X123500476Y-65774285D01*
X123548095Y-65583809D01*
X123548095Y-65440952D01*
X123500476Y-65250476D01*
X123452857Y-65155238D01*
X123357619Y-65060000D01*
X123214761Y-65012380D01*
X123119523Y-65012380D01*
X122976666Y-65060000D01*
X122929047Y-65107619D01*
X122548095Y-65726666D02*
X122071904Y-65726666D01*
X122643333Y-66012380D02*
X122309999Y-65012380D01*
X121976666Y-66012380D01*
X121119523Y-66012380D02*
X121690952Y-66012380D01*
X121405238Y-66012380D02*
X121405238Y-65012380D01*
X121500476Y-65155238D01*
X121595714Y-65250476D01*
X121690952Y-65298095D01*
X120548095Y-65440952D02*
X120643333Y-65393333D01*
X120690952Y-65345714D01*
X120738571Y-65250476D01*
X120738571Y-65202857D01*
X120690952Y-65107619D01*
X120643333Y-65060000D01*
X120548095Y-65012380D01*
X120357619Y-65012380D01*
X120262380Y-65060000D01*
X120214761Y-65107619D01*
X120167142Y-65202857D01*
X120167142Y-65250476D01*
X120214761Y-65345714D01*
X120262380Y-65393333D01*
X120357619Y-65440952D01*
X120548095Y-65440952D01*
X120643333Y-65488571D01*
X120690952Y-65536190D01*
X120738571Y-65631428D01*
X120738571Y-65821904D01*
X120690952Y-65917142D01*
X120643333Y-65964761D01*
X120548095Y-66012380D01*
X120357619Y-66012380D01*
X120262380Y-65964761D01*
X120214761Y-65917142D01*
X120167142Y-65821904D01*
X120167142Y-65631428D01*
X120214761Y-65536190D01*
X120262380Y-65488571D01*
X120357619Y-65440952D01*
X119548095Y-65012380D02*
X119452857Y-65012380D01*
X119357619Y-65060000D01*
X119309999Y-65107619D01*
X119262380Y-65202857D01*
X119214761Y-65393333D01*
X119214761Y-65631428D01*
X119262380Y-65821904D01*
X119309999Y-65917142D01*
X119357619Y-65964761D01*
X119452857Y-66012380D01*
X119548095Y-66012380D01*
X119643333Y-65964761D01*
X119690952Y-65917142D01*
X119738571Y-65821904D01*
X119786190Y-65631428D01*
X119786190Y-65393333D01*
X119738571Y-65202857D01*
X119690952Y-65107619D01*
X119643333Y-65060000D01*
X119548095Y-65012380D01*
X118833809Y-65107619D02*
X118786190Y-65060000D01*
X118690952Y-65012380D01*
X118452857Y-65012380D01*
X118357619Y-65060000D01*
X118309999Y-65107619D01*
X118262380Y-65202857D01*
X118262380Y-65298095D01*
X118309999Y-65440952D01*
X118881428Y-66012380D01*
X118262380Y-66012380D01*
X118071904Y-66107619D02*
X117309999Y-66107619D01*
X117214761Y-65012380D02*
X116643333Y-65012380D01*
X116929047Y-66012380D02*
X116929047Y-65012380D01*
X115929047Y-65964761D02*
X116024285Y-66012380D01*
X116214761Y-66012380D01*
X116309999Y-65964761D01*
X116357619Y-65869523D01*
X116357619Y-65488571D01*
X116309999Y-65393333D01*
X116214761Y-65345714D01*
X116024285Y-65345714D01*
X115929047Y-65393333D01*
X115881428Y-65488571D01*
X115881428Y-65583809D01*
X116357619Y-65679047D01*
X115500476Y-65964761D02*
X115405238Y-66012380D01*
X115214761Y-66012380D01*
X115119523Y-65964761D01*
X115071904Y-65869523D01*
X115071904Y-65821904D01*
X115119523Y-65726666D01*
X115214761Y-65679047D01*
X115357619Y-65679047D01*
X115452857Y-65631428D01*
X115500476Y-65536190D01*
X115500476Y-65488571D01*
X115452857Y-65393333D01*
X115357619Y-65345714D01*
X115214761Y-65345714D01*
X115119523Y-65393333D01*
X114786190Y-65345714D02*
X114405238Y-65345714D01*
X114643333Y-65012380D02*
X114643333Y-65869523D01*
X114595714Y-65964761D01*
X114500476Y-66012380D01*
X114405238Y-66012380D01*
X113690952Y-65964761D02*
X113786190Y-66012380D01*
X113976666Y-66012380D01*
X114071904Y-65964761D01*
X114119523Y-65869523D01*
X114119523Y-65488571D01*
X114071904Y-65393333D01*
X113976666Y-65345714D01*
X113786190Y-65345714D01*
X113690952Y-65393333D01*
X113643333Y-65488571D01*
X113643333Y-65583809D01*
X114119523Y-65679047D01*
X113214761Y-66012380D02*
X113214761Y-65345714D01*
X113214761Y-65536190D02*
X113167142Y-65440952D01*
X113119523Y-65393333D01*
X113024285Y-65345714D01*
X112929047Y-65345714D01*
D11*
X180960000Y-58474998D02*
X180960000Y-59974998D01*
X179710000Y-62474998D02*
X175210000Y-62474998D01*
X173960000Y-59974998D02*
X173960000Y-58474998D01*
X175210000Y-55974998D02*
X179710000Y-55974998D01*
X175210000Y-45706665D02*
X179710000Y-45706665D01*
X173960000Y-49706665D02*
X173960000Y-48206665D01*
X179710000Y-52206665D02*
X175210000Y-52206665D01*
X180960000Y-48206665D02*
X180960000Y-49706665D01*
X180960000Y-37938333D02*
X180960000Y-39438333D01*
X179710000Y-41938333D02*
X175210000Y-41938333D01*
X173960000Y-39438333D02*
X173960000Y-37938333D01*
X175210000Y-35438333D02*
X179710000Y-35438333D01*
X175210000Y-25170000D02*
X179710000Y-25170000D01*
X173960000Y-29170000D02*
X173960000Y-27670000D01*
X179710000Y-31670000D02*
X175210000Y-31670000D01*
X180960000Y-27670000D02*
X180960000Y-29170000D01*
X111040000Y-60920000D02*
X111040000Y-59420000D01*
X112290000Y-56920000D02*
X116790000Y-56920000D01*
X118040000Y-59420000D02*
X118040000Y-60920000D01*
X116790000Y-63420000D02*
X112290000Y-63420000D01*
D10*
X95575001Y-71154999D02*
X95575001Y-17814999D01*
X194635001Y-58454999D02*
X194635001Y-69630999D01*
X197175001Y-55914999D02*
X194635001Y-58454999D01*
X197175001Y-21624999D02*
X197175001Y-55914999D01*
X194635001Y-19084999D02*
X197175001Y-21624999D01*
X194635001Y-17814999D02*
X194635001Y-19084999D01*
X193111001Y-71154999D02*
X194635001Y-69630999D01*
X95575001Y-17814999D02*
X194635001Y-17814999D01*
X95575001Y-71154999D02*
X193111001Y-71154999D01*
D11*
X112640000Y-52880000D02*
X112640000Y-34760000D01*
X163680000Y-52880000D02*
X112640000Y-52880000D01*
X163680000Y-34760000D02*
X163680000Y-52880000D01*
X112640000Y-34760000D02*
X163680000Y-34760000D01*
X112700000Y-49880000D02*
X112700000Y-44820000D01*
X163620000Y-49880000D02*
X112700000Y-49880000D01*
X163620000Y-37760000D02*
X163620000Y-49880000D01*
X112700000Y-37760000D02*
X163620000Y-37760000D01*
X112700000Y-42820000D02*
X112700000Y-37760000D01*
X112700000Y-44820000D02*
G75*
G03X112700000Y-42820000I0J1000000D01*
G01*
D10*
X183674761Y-57686666D02*
X183722380Y-57829523D01*
X183722380Y-58067619D01*
X183674761Y-58162857D01*
X183627142Y-58210476D01*
X183531904Y-58258095D01*
X183436666Y-58258095D01*
X183341428Y-58210476D01*
X183293809Y-58162857D01*
X183246190Y-58067619D01*
X183198571Y-57877142D01*
X183150952Y-57781904D01*
X183103333Y-57734285D01*
X183008095Y-57686666D01*
X182912857Y-57686666D01*
X182817619Y-57734285D01*
X182770000Y-57781904D01*
X182722380Y-57877142D01*
X182722380Y-58115238D01*
X182770000Y-58258095D01*
X182722380Y-58591428D02*
X183722380Y-58829523D01*
X183008095Y-59020000D01*
X183722380Y-59210476D01*
X182722380Y-59448571D01*
X183722380Y-60353333D02*
X183722380Y-59781904D01*
X183722380Y-60067619D02*
X182722380Y-60067619D01*
X182865238Y-59972380D01*
X182960476Y-59877142D01*
X183008095Y-59781904D01*
X183674761Y-47726666D02*
X183722380Y-47869523D01*
X183722380Y-48107619D01*
X183674761Y-48202857D01*
X183627142Y-48250476D01*
X183531904Y-48298095D01*
X183436666Y-48298095D01*
X183341428Y-48250476D01*
X183293809Y-48202857D01*
X183246190Y-48107619D01*
X183198571Y-47917142D01*
X183150952Y-47821904D01*
X183103333Y-47774285D01*
X183008095Y-47726666D01*
X182912857Y-47726666D01*
X182817619Y-47774285D01*
X182770000Y-47821904D01*
X182722380Y-47917142D01*
X182722380Y-48155238D01*
X182770000Y-48298095D01*
X182722380Y-48631428D02*
X183722380Y-48869523D01*
X183008095Y-49060000D01*
X183722380Y-49250476D01*
X182722380Y-49488571D01*
X182817619Y-49821904D02*
X182770000Y-49869523D01*
X182722380Y-49964761D01*
X182722380Y-50202857D01*
X182770000Y-50298095D01*
X182817619Y-50345714D01*
X182912857Y-50393333D01*
X183008095Y-50393333D01*
X183150952Y-50345714D01*
X183722380Y-49774285D01*
X183722380Y-50393333D01*
X183674761Y-37376666D02*
X183722380Y-37519523D01*
X183722380Y-37757619D01*
X183674761Y-37852857D01*
X183627142Y-37900476D01*
X183531904Y-37948095D01*
X183436666Y-37948095D01*
X183341428Y-37900476D01*
X183293809Y-37852857D01*
X183246190Y-37757619D01*
X183198571Y-37567142D01*
X183150952Y-37471904D01*
X183103333Y-37424285D01*
X183008095Y-37376666D01*
X182912857Y-37376666D01*
X182817619Y-37424285D01*
X182770000Y-37471904D01*
X182722380Y-37567142D01*
X182722380Y-37805238D01*
X182770000Y-37948095D01*
X182722380Y-38281428D02*
X183722380Y-38519523D01*
X183008095Y-38710000D01*
X183722380Y-38900476D01*
X182722380Y-39138571D01*
X182722380Y-39424285D02*
X182722380Y-40043333D01*
X183103333Y-39710000D01*
X183103333Y-39852857D01*
X183150952Y-39948095D01*
X183198571Y-39995714D01*
X183293809Y-40043333D01*
X183531904Y-40043333D01*
X183627142Y-39995714D01*
X183674761Y-39948095D01*
X183722380Y-39852857D01*
X183722380Y-39567142D01*
X183674761Y-39471904D01*
X183627142Y-39424285D01*
X183524761Y-27346666D02*
X183572380Y-27489523D01*
X183572380Y-27727619D01*
X183524761Y-27822857D01*
X183477142Y-27870476D01*
X183381904Y-27918095D01*
X183286666Y-27918095D01*
X183191428Y-27870476D01*
X183143809Y-27822857D01*
X183096190Y-27727619D01*
X183048571Y-27537142D01*
X183000952Y-27441904D01*
X182953333Y-27394285D01*
X182858095Y-27346666D01*
X182762857Y-27346666D01*
X182667619Y-27394285D01*
X182620000Y-27441904D01*
X182572380Y-27537142D01*
X182572380Y-27775238D01*
X182620000Y-27918095D01*
X182572380Y-28251428D02*
X183572380Y-28489523D01*
X182858095Y-28680000D01*
X183572380Y-28870476D01*
X182572380Y-29108571D01*
X182905714Y-29918095D02*
X183572380Y-29918095D01*
X182524761Y-29680000D02*
X183239047Y-29441904D01*
X183239047Y-30060952D01*
X115873333Y-56324761D02*
X115730476Y-56372380D01*
X115492380Y-56372380D01*
X115397142Y-56324761D01*
X115349523Y-56277142D01*
X115301904Y-56181904D01*
X115301904Y-56086666D01*
X115349523Y-55991428D01*
X115397142Y-55943809D01*
X115492380Y-55896190D01*
X115682857Y-55848571D01*
X115778095Y-55800952D01*
X115825714Y-55753333D01*
X115873333Y-55658095D01*
X115873333Y-55562857D01*
X115825714Y-55467619D01*
X115778095Y-55420000D01*
X115682857Y-55372380D01*
X115444761Y-55372380D01*
X115301904Y-55420000D01*
X114968571Y-55372380D02*
X114730476Y-56372380D01*
X114540000Y-55658095D01*
X114349523Y-56372380D01*
X114111428Y-55372380D01*
X113254285Y-55372380D02*
X113730476Y-55372380D01*
X113778095Y-55848571D01*
X113730476Y-55800952D01*
X113635238Y-55753333D01*
X113397142Y-55753333D01*
X113301904Y-55800952D01*
X113254285Y-55848571D01*
X113206666Y-55943809D01*
X113206666Y-56181904D01*
X113254285Y-56277142D01*
X113301904Y-56324761D01*
X113397142Y-56372380D01*
X113635238Y-56372380D01*
X113730476Y-56324761D01*
X113778095Y-56277142D01*
X99353096Y-71623379D02*
X98686429Y-72623379D01*
X98686429Y-71623379D02*
X99353096Y-72623379D01*
X98353096Y-72337665D02*
X97876905Y-72337665D01*
X98448334Y-72623379D02*
X98115001Y-71623379D01*
X97781667Y-72623379D01*
X96924524Y-72623379D02*
X97495953Y-72623379D01*
X97210239Y-72623379D02*
X97210239Y-71623379D01*
X97305477Y-71766237D01*
X97400715Y-71861475D01*
X97495953Y-71909094D01*
X111152380Y-43058095D02*
X111961904Y-43058095D01*
X112057142Y-43105714D01*
X112104761Y-43153333D01*
X112152380Y-43248571D01*
X112152380Y-43439047D01*
X112104761Y-43534285D01*
X112057142Y-43581904D01*
X111961904Y-43629523D01*
X111152380Y-43629523D01*
X112152380Y-44629523D02*
X112152380Y-44058095D01*
X112152380Y-44343809D02*
X111152380Y-44343809D01*
X111295238Y-44248571D01*
X111390476Y-44153333D01*
X111438095Y-44058095D01*
M02*
