M48
; DRILL file {KiCad (5.1.5)-2} date 2020-03-13 12:58:52
; FORMAT={-:-/ absolute / metric / decimal}
; #@! TF.CreationDate,2020-03-13T12:58:52+01:00
; #@! TF.GenerationSoftware,Kicad,Pcbnew,(5.1.5)-2
; #@! TF.FileFunction,Plated,1,2,PTH
FMAT,2
METRIC
T1C0.400
T2C0.600
T3C0.800
T4C1.000
T5C1.016
T6C1.100
%
G90
G05
T1
X115.79Y-41.39
X116.89Y-46.73
X116.94Y-45.53
X117.31Y-28.93
X118.99Y-24.72
X120.68Y-46.89
X121.76Y-29.77
X124.48Y-31.18
X129.34Y-29.7
X134.41Y-63.68
X136.94Y-64.25
X139.43Y-64.72
X141.96Y-65.3
X143.36Y-21.14
X144.49Y-65.74
X145.16Y-23.58
X145.54Y-66.41
X147.5Y-66.54
X148.09Y-61.28
X149.31Y-60.0
X149.88Y-62.14
X149.91Y-66.91
X152.82Y-61.83
X155.0Y-27.83
X158.06Y-27.37
X159.83Y-26.19
X168.61Y-37.28
X170.13Y-43.63
X170.13Y-54.09
X172.18Y-32.61
X172.35Y-43.71
X172.51Y-54.15
T2
X116.5Y-18.77
X143.72Y-24.15
X157.71Y-22.57
X165.15Y-35.84
T4
X141.54Y-29.63
X144.08Y-29.63
X146.62Y-29.63
T5
X114.371Y-68.615
X116.911Y-68.615
X119.451Y-68.615
X121.991Y-68.615
X123.515Y-20.355
X124.531Y-68.615
X126.055Y-20.355
X127.071Y-68.615
X128.595Y-20.355
X129.611Y-68.615
X131.135Y-20.355
X132.151Y-68.615
X133.675Y-20.355
X134.691Y-68.615
X136.215Y-20.355
X137.231Y-68.615
X138.755Y-20.355
X141.295Y-20.355
X141.295Y-68.615
X143.835Y-68.615
X146.375Y-20.355
X146.375Y-68.615
X148.915Y-20.355
X148.915Y-68.615
X151.455Y-20.355
X151.455Y-68.615
X153.995Y-20.355
X153.995Y-68.615
X156.535Y-20.355
X156.535Y-68.615
X159.075Y-20.355
X159.075Y-68.615
X161.615Y-20.355
X164.155Y-20.355
X164.155Y-68.615
X166.695Y-68.615
X169.235Y-20.355
X169.235Y-68.615
X171.775Y-20.355
X171.775Y-68.615
X174.315Y-20.355
X174.315Y-68.615
X176.855Y-20.355
X176.855Y-68.615
X179.395Y-20.355
X179.395Y-68.615
X181.935Y-20.355
X181.935Y-68.615
X184.475Y-20.355
X187.015Y-20.355
X189.555Y-25.435
X189.555Y-27.975
X189.555Y-30.515
X189.555Y-33.055
X189.555Y-35.595
X189.555Y-38.135
X189.555Y-40.675
X189.555Y-43.215
X189.555Y-45.755
X189.555Y-48.295
X189.555Y-50.835
X189.555Y-53.375
X189.555Y-55.915
X189.555Y-58.455
X189.555Y-60.995
X189.555Y-63.535
X189.555Y-66.075
X189.555Y-68.615
X192.095Y-25.435
X192.095Y-27.975
X192.095Y-30.515
X192.095Y-33.055
X192.095Y-35.595
X192.095Y-38.135
X192.095Y-40.675
X192.095Y-43.215
X192.095Y-45.755
X192.095Y-48.295
X192.095Y-50.835
X192.095Y-53.375
X192.095Y-55.915
X192.095Y-58.455
X192.095Y-60.995
X192.095Y-63.535
X192.095Y-66.075
X192.095Y-68.615
T6
X174.21Y-46.707
X174.21Y-51.207
X180.71Y-46.707
X180.71Y-51.207
X174.21Y-26.17
X174.21Y-30.67
X180.71Y-26.17
X180.71Y-30.67
X174.21Y-36.438
X174.21Y-40.938
X180.71Y-36.438
X180.71Y-40.938
X111.29Y-57.92
X111.29Y-62.42
X117.79Y-57.92
X117.79Y-62.42
X174.21Y-56.975
X174.21Y-61.475
X180.71Y-56.975
X180.71Y-61.475
T3
G00X114.03Y-36.0
M15
G01X114.03Y-36.4
M16
G05
G00X114.03Y-51.24
M15
G01X114.03Y-51.64
M16
G05
G00X116.57Y-36.0
M15
G01X116.57Y-36.4
M16
G05
G00X116.57Y-51.24
M15
G01X116.57Y-51.64
M16
G05
G00X119.11Y-36.0
M15
G01X119.11Y-36.4
M16
G05
G00X119.11Y-51.24
M15
G01X119.11Y-51.64
M16
G05
G00X121.65Y-36.0
M15
G01X121.65Y-36.4
M16
G05
G00X121.65Y-51.24
M15
G01X121.65Y-51.64
M16
G05
G00X124.19Y-36.0
M15
G01X124.19Y-36.4
M16
G05
G00X124.19Y-51.24
M15
G01X124.19Y-51.64
M16
G05
G00X126.73Y-36.0
M15
G01X126.73Y-36.4
M16
G05
G00X126.73Y-51.24
M15
G01X126.73Y-51.64
M16
G05
G00X129.27Y-36.0
M15
G01X129.27Y-36.4
M16
G05
G00X129.27Y-51.24
M15
G01X129.27Y-51.64
M16
G05
G00X131.81Y-36.0
M15
G01X131.81Y-36.4
M16
G05
G00X131.81Y-51.24
M15
G01X131.81Y-51.64
M16
G05
G00X134.35Y-36.0
M15
G01X134.35Y-36.4
M16
G05
G00X134.35Y-51.24
M15
G01X134.35Y-51.64
M16
G05
G00X136.89Y-36.0
M15
G01X136.89Y-36.4
M16
G05
G00X136.89Y-51.24
M15
G01X136.89Y-51.64
M16
G05
G00X139.43Y-36.0
M15
G01X139.43Y-36.4
M16
G05
G00X139.43Y-51.24
M15
G01X139.43Y-51.64
M16
G05
G00X141.97Y-36.0
M15
G01X141.97Y-36.4
M16
G05
G00X141.97Y-51.24
M15
G01X141.97Y-51.64
M16
G05
G00X144.51Y-36.0
M15
G01X144.51Y-36.4
M16
G05
G00X144.51Y-51.24
M15
G01X144.51Y-51.64
M16
G05
G00X147.05Y-36.0
M15
G01X147.05Y-36.4
M16
G05
G00X147.05Y-51.24
M15
G01X147.05Y-51.64
M16
G05
G00X149.59Y-36.0
M15
G01X149.59Y-36.4
M16
G05
G00X149.59Y-51.24
M15
G01X149.59Y-51.64
M16
G05
G00X152.13Y-36.0
M15
G01X152.13Y-36.4
M16
G05
G00X152.13Y-51.24
M15
G01X152.13Y-51.64
M16
G05
G00X154.67Y-36.0
M15
G01X154.67Y-36.4
M16
G05
G00X154.67Y-51.24
M15
G01X154.67Y-51.64
M16
G05
G00X157.21Y-36.0
M15
G01X157.21Y-36.4
M16
G05
G00X157.21Y-51.24
M15
G01X157.21Y-51.64
M16
G05
G00X159.75Y-36.0
M15
G01X159.75Y-36.4
M16
G05
G00X159.75Y-51.24
M15
G01X159.75Y-51.64
M16
G05
G00X162.29Y-36.0
M15
G01X162.29Y-36.4
M16
G05
G00X162.29Y-51.24
M15
G01X162.29Y-51.64
M16
G05
T0
M30
