G04 #@! TF.GenerationSoftware,KiCad,Pcbnew,(5.1.5)-2*
G04 #@! TF.CreationDate,2020-03-13T12:58:49+01:00*
G04 #@! TF.ProjectId,CDP1802_Tester,43445031-3830-4325-9f54-65737465722e,rev?*
G04 #@! TF.SameCoordinates,Original*
G04 #@! TF.FileFunction,Other,User*
%FSLAX46Y46*%
G04 Gerber Fmt 4.6, Leading zero omitted, Abs format (unit mm)*
G04 Created by KiCad (PCBNEW (5.1.5)-2) date 2020-03-13 12:58:49*
%MOMM*%
%LPD*%
G04 APERTURE LIST*
%ADD10C,0.050000*%
G04 APERTURE END LIST*
D10*
X182210000Y-62724998D02*
X182210000Y-55724998D01*
X181960000Y-55474998D02*
X172960000Y-55474998D01*
X172710000Y-55724998D02*
X172710000Y-62724998D01*
X172960000Y-62974998D02*
X181960000Y-62974998D01*
X172710000Y-55474998D02*
X172960000Y-55474998D01*
X172710000Y-55724998D02*
X172710000Y-55474998D01*
X172710000Y-62974998D02*
X172960000Y-62974998D01*
X172710000Y-62724998D02*
X172710000Y-62974998D01*
X182210000Y-62974998D02*
X182210000Y-62724998D01*
X181960000Y-62974998D02*
X182210000Y-62974998D01*
X182210000Y-55474998D02*
X182210000Y-55724998D01*
X181960000Y-55474998D02*
X182210000Y-55474998D01*
X181960000Y-45206665D02*
X182210000Y-45206665D01*
X182210000Y-45206665D02*
X182210000Y-45456665D01*
X181960000Y-52706665D02*
X182210000Y-52706665D01*
X182210000Y-52706665D02*
X182210000Y-52456665D01*
X172710000Y-52456665D02*
X172710000Y-52706665D01*
X172710000Y-52706665D02*
X172960000Y-52706665D01*
X172710000Y-45456665D02*
X172710000Y-45206665D01*
X172710000Y-45206665D02*
X172960000Y-45206665D01*
X172960000Y-52706665D02*
X181960000Y-52706665D01*
X172710000Y-45456665D02*
X172710000Y-52456665D01*
X181960000Y-45206665D02*
X172960000Y-45206665D01*
X182210000Y-52456665D02*
X182210000Y-45456665D01*
X182210000Y-42188333D02*
X182210000Y-35188333D01*
X181960000Y-34938333D02*
X172960000Y-34938333D01*
X172710000Y-35188333D02*
X172710000Y-42188333D01*
X172960000Y-42438333D02*
X181960000Y-42438333D01*
X172710000Y-34938333D02*
X172960000Y-34938333D01*
X172710000Y-35188333D02*
X172710000Y-34938333D01*
X172710000Y-42438333D02*
X172960000Y-42438333D01*
X172710000Y-42188333D02*
X172710000Y-42438333D01*
X182210000Y-42438333D02*
X182210000Y-42188333D01*
X181960000Y-42438333D02*
X182210000Y-42438333D01*
X182210000Y-34938333D02*
X182210000Y-35188333D01*
X181960000Y-34938333D02*
X182210000Y-34938333D01*
X181960000Y-24670000D02*
X182210000Y-24670000D01*
X182210000Y-24670000D02*
X182210000Y-24920000D01*
X181960000Y-32170000D02*
X182210000Y-32170000D01*
X182210000Y-32170000D02*
X182210000Y-31920000D01*
X172710000Y-31920000D02*
X172710000Y-32170000D01*
X172710000Y-32170000D02*
X172960000Y-32170000D01*
X172710000Y-24920000D02*
X172710000Y-24670000D01*
X172710000Y-24670000D02*
X172960000Y-24670000D01*
X172960000Y-32170000D02*
X181960000Y-32170000D01*
X172710000Y-24920000D02*
X172710000Y-31920000D01*
X181960000Y-24670000D02*
X172960000Y-24670000D01*
X182210000Y-31920000D02*
X182210000Y-24920000D01*
X109790000Y-56670000D02*
X109790000Y-63670000D01*
X110040000Y-63920000D02*
X119040000Y-63920000D01*
X119290000Y-63670000D02*
X119290000Y-56670000D01*
X119040000Y-56420000D02*
X110040000Y-56420000D01*
X119290000Y-63920000D02*
X119040000Y-63920000D01*
X119290000Y-63670000D02*
X119290000Y-63920000D01*
X119290000Y-56420000D02*
X119040000Y-56420000D01*
X119290000Y-56670000D02*
X119290000Y-56420000D01*
X109790000Y-56420000D02*
X109790000Y-56670000D01*
X110040000Y-56420000D02*
X109790000Y-56420000D01*
X109790000Y-63920000D02*
X109790000Y-63670000D01*
X110040000Y-63920000D02*
X109790000Y-63920000D01*
X112430000Y-53000000D02*
X112430000Y-34650000D01*
X163880000Y-53000000D02*
X112430000Y-53000000D01*
X163880000Y-34650000D02*
X163880000Y-53000000D01*
X112430000Y-34650000D02*
X163880000Y-34650000D01*
M02*
