G04 #@! TF.GenerationSoftware,KiCad,Pcbnew,(5.1.5)-2*
G04 #@! TF.CreationDate,2020-01-02T03:10:15+01:00*
G04 #@! TF.ProjectId,CDP1802_Tester,43445031-3830-4325-9f54-65737465722e,rev?*
G04 #@! TF.SameCoordinates,Original*
G04 #@! TF.FileFunction,Legend,Bot*
G04 #@! TF.FilePolarity,Positive*
%FSLAX46Y46*%
G04 Gerber Fmt 4.6, Leading zero omitted, Abs format (unit mm)*
G04 Created by KiCad (PCBNEW (5.1.5)-2) date 2020-01-02 03:10:15*
%MOMM*%
%LPD*%
G04 APERTURE LIST*
%ADD10C,0.150000*%
%ADD11C,0.120000*%
G04 APERTURE END LIST*
D10*
X120672380Y-58537619D02*
X120196190Y-58204285D01*
X120672380Y-57966190D02*
X119672380Y-57966190D01*
X119672380Y-58347142D01*
X119720000Y-58442380D01*
X119767619Y-58490000D01*
X119862857Y-58537619D01*
X120005714Y-58537619D01*
X120100952Y-58490000D01*
X120148571Y-58442380D01*
X120196190Y-58347142D01*
X120196190Y-57966190D01*
X120148571Y-58966190D02*
X120148571Y-59299523D01*
X120672380Y-59442380D02*
X120672380Y-58966190D01*
X119672380Y-58966190D01*
X119672380Y-59442380D01*
X120624761Y-59823333D02*
X120672380Y-59966190D01*
X120672380Y-60204285D01*
X120624761Y-60299523D01*
X120577142Y-60347142D01*
X120481904Y-60394761D01*
X120386666Y-60394761D01*
X120291428Y-60347142D01*
X120243809Y-60299523D01*
X120196190Y-60204285D01*
X120148571Y-60013809D01*
X120100952Y-59918571D01*
X120053333Y-59870952D01*
X119958095Y-59823333D01*
X119862857Y-59823333D01*
X119767619Y-59870952D01*
X119720000Y-59918571D01*
X119672380Y-60013809D01*
X119672380Y-60251904D01*
X119720000Y-60394761D01*
X120148571Y-60823333D02*
X120148571Y-61156666D01*
X120672380Y-61299523D02*
X120672380Y-60823333D01*
X119672380Y-60823333D01*
X119672380Y-61299523D01*
X119672380Y-61585238D02*
X119672380Y-62156666D01*
X120672380Y-61870952D02*
X119672380Y-61870952D01*
X156384285Y-26472380D02*
X156717619Y-25996190D01*
X156955714Y-26472380D02*
X156955714Y-25472380D01*
X156574761Y-25472380D01*
X156479523Y-25520000D01*
X156431904Y-25567619D01*
X156384285Y-25662857D01*
X156384285Y-25805714D01*
X156431904Y-25900952D01*
X156479523Y-25948571D01*
X156574761Y-25996190D01*
X156955714Y-25996190D01*
X155384285Y-26377142D02*
X155431904Y-26424761D01*
X155574761Y-26472380D01*
X155670000Y-26472380D01*
X155812857Y-26424761D01*
X155908095Y-26329523D01*
X155955714Y-26234285D01*
X156003333Y-26043809D01*
X156003333Y-25900952D01*
X155955714Y-25710476D01*
X155908095Y-25615238D01*
X155812857Y-25520000D01*
X155670000Y-25472380D01*
X155574761Y-25472380D01*
X155431904Y-25520000D01*
X155384285Y-25567619D01*
X155003333Y-26186666D02*
X154527142Y-26186666D01*
X155098571Y-26472380D02*
X154765238Y-25472380D01*
X154431904Y-26472380D01*
X152765238Y-26377142D02*
X152812857Y-26424761D01*
X152955714Y-26472380D01*
X153050952Y-26472380D01*
X153193809Y-26424761D01*
X153289047Y-26329523D01*
X153336666Y-26234285D01*
X153384285Y-26043809D01*
X153384285Y-25900952D01*
X153336666Y-25710476D01*
X153289047Y-25615238D01*
X153193809Y-25520000D01*
X153050952Y-25472380D01*
X152955714Y-25472380D01*
X152812857Y-25520000D01*
X152765238Y-25567619D01*
X152336666Y-26472380D02*
X152336666Y-25472380D01*
X152098571Y-25472380D01*
X151955714Y-25520000D01*
X151860476Y-25615238D01*
X151812857Y-25710476D01*
X151765238Y-25900952D01*
X151765238Y-26043809D01*
X151812857Y-26234285D01*
X151860476Y-26329523D01*
X151955714Y-26424761D01*
X152098571Y-26472380D01*
X152336666Y-26472380D01*
X151336666Y-26472380D02*
X151336666Y-25472380D01*
X150955714Y-25472380D01*
X150860476Y-25520000D01*
X150812857Y-25567619D01*
X150765238Y-25662857D01*
X150765238Y-25805714D01*
X150812857Y-25900952D01*
X150860476Y-25948571D01*
X150955714Y-25996190D01*
X151336666Y-25996190D01*
X149812857Y-26472380D02*
X150384285Y-26472380D01*
X150098571Y-26472380D02*
X150098571Y-25472380D01*
X150193809Y-25615238D01*
X150289047Y-25710476D01*
X150384285Y-25758095D01*
X149241428Y-25900952D02*
X149336666Y-25853333D01*
X149384285Y-25805714D01*
X149431904Y-25710476D01*
X149431904Y-25662857D01*
X149384285Y-25567619D01*
X149336666Y-25520000D01*
X149241428Y-25472380D01*
X149050952Y-25472380D01*
X148955714Y-25520000D01*
X148908095Y-25567619D01*
X148860476Y-25662857D01*
X148860476Y-25710476D01*
X148908095Y-25805714D01*
X148955714Y-25853333D01*
X149050952Y-25900952D01*
X149241428Y-25900952D01*
X149336666Y-25948571D01*
X149384285Y-25996190D01*
X149431904Y-26091428D01*
X149431904Y-26281904D01*
X149384285Y-26377142D01*
X149336666Y-26424761D01*
X149241428Y-26472380D01*
X149050952Y-26472380D01*
X148955714Y-26424761D01*
X148908095Y-26377142D01*
X148860476Y-26281904D01*
X148860476Y-26091428D01*
X148908095Y-25996190D01*
X148955714Y-25948571D01*
X149050952Y-25900952D01*
X148241428Y-25472380D02*
X148146190Y-25472380D01*
X148050952Y-25520000D01*
X148003333Y-25567619D01*
X147955714Y-25662857D01*
X147908095Y-25853333D01*
X147908095Y-26091428D01*
X147955714Y-26281904D01*
X148003333Y-26377142D01*
X148050952Y-26424761D01*
X148146190Y-26472380D01*
X148241428Y-26472380D01*
X148336666Y-26424761D01*
X148384285Y-26377142D01*
X148431904Y-26281904D01*
X148479523Y-26091428D01*
X148479523Y-25853333D01*
X148431904Y-25662857D01*
X148384285Y-25567619D01*
X148336666Y-25520000D01*
X148241428Y-25472380D01*
X147527142Y-25567619D02*
X147479523Y-25520000D01*
X147384285Y-25472380D01*
X147146190Y-25472380D01*
X147050952Y-25520000D01*
X147003333Y-25567619D01*
X146955714Y-25662857D01*
X146955714Y-25758095D01*
X147003333Y-25900952D01*
X147574761Y-26472380D01*
X146955714Y-26472380D01*
X145908095Y-25805714D02*
X145527142Y-25805714D01*
X145765238Y-25472380D02*
X145765238Y-26329523D01*
X145717619Y-26424761D01*
X145622380Y-26472380D01*
X145527142Y-26472380D01*
X144812857Y-26424761D02*
X144908095Y-26472380D01*
X145098571Y-26472380D01*
X145193809Y-26424761D01*
X145241428Y-26329523D01*
X145241428Y-25948571D01*
X145193809Y-25853333D01*
X145098571Y-25805714D01*
X144908095Y-25805714D01*
X144812857Y-25853333D01*
X144765238Y-25948571D01*
X144765238Y-26043809D01*
X145241428Y-26139047D01*
X144384285Y-26424761D02*
X144289047Y-26472380D01*
X144098571Y-26472380D01*
X144003333Y-26424761D01*
X143955714Y-26329523D01*
X143955714Y-26281904D01*
X144003333Y-26186666D01*
X144098571Y-26139047D01*
X144241428Y-26139047D01*
X144336666Y-26091428D01*
X144384285Y-25996190D01*
X144384285Y-25948571D01*
X144336666Y-25853333D01*
X144241428Y-25805714D01*
X144098571Y-25805714D01*
X144003333Y-25853333D01*
X143670000Y-25805714D02*
X143289047Y-25805714D01*
X143527142Y-25472380D02*
X143527142Y-26329523D01*
X143479523Y-26424761D01*
X143384285Y-26472380D01*
X143289047Y-26472380D01*
X142574761Y-26424761D02*
X142670000Y-26472380D01*
X142860476Y-26472380D01*
X142955714Y-26424761D01*
X143003333Y-26329523D01*
X143003333Y-25948571D01*
X142955714Y-25853333D01*
X142860476Y-25805714D01*
X142670000Y-25805714D01*
X142574761Y-25853333D01*
X142527142Y-25948571D01*
X142527142Y-26043809D01*
X143003333Y-26139047D01*
X142098571Y-26472380D02*
X142098571Y-25805714D01*
X142098571Y-25996190D02*
X142050952Y-25900952D01*
X142003333Y-25853333D01*
X141908095Y-25805714D01*
X141812857Y-25805714D01*
X140765238Y-26424761D02*
X140670000Y-26472380D01*
X140479523Y-26472380D01*
X140384285Y-26424761D01*
X140336666Y-26329523D01*
X140336666Y-26281904D01*
X140384285Y-26186666D01*
X140479523Y-26139047D01*
X140622380Y-26139047D01*
X140717619Y-26091428D01*
X140765238Y-25996190D01*
X140765238Y-25948571D01*
X140717619Y-25853333D01*
X140622380Y-25805714D01*
X140479523Y-25805714D01*
X140384285Y-25853333D01*
X139908095Y-26472380D02*
X139908095Y-25472380D01*
X139479523Y-26472380D02*
X139479523Y-25948571D01*
X139527142Y-25853333D01*
X139622380Y-25805714D01*
X139765238Y-25805714D01*
X139860476Y-25853333D01*
X139908095Y-25900952D01*
X139003333Y-26472380D02*
X139003333Y-25805714D01*
X139003333Y-25472380D02*
X139050952Y-25520000D01*
X139003333Y-25567619D01*
X138955714Y-25520000D01*
X139003333Y-25472380D01*
X139003333Y-25567619D01*
X138146190Y-26424761D02*
X138241428Y-26472380D01*
X138431904Y-26472380D01*
X138527142Y-26424761D01*
X138574761Y-26329523D01*
X138574761Y-25948571D01*
X138527142Y-25853333D01*
X138431904Y-25805714D01*
X138241428Y-25805714D01*
X138146190Y-25853333D01*
X138098571Y-25948571D01*
X138098571Y-26043809D01*
X138574761Y-26139047D01*
X137527142Y-26472380D02*
X137622380Y-26424761D01*
X137670000Y-26329523D01*
X137670000Y-25472380D01*
X136717619Y-26472380D02*
X136717619Y-25472380D01*
X136717619Y-26424761D02*
X136812857Y-26472380D01*
X137003333Y-26472380D01*
X137098571Y-26424761D01*
X137146190Y-26377142D01*
X137193809Y-26281904D01*
X137193809Y-25996190D01*
X137146190Y-25900952D01*
X137098571Y-25853333D01*
X137003333Y-25805714D01*
X136812857Y-25805714D01*
X136717619Y-25853333D01*
X135622380Y-25805714D02*
X135241428Y-25805714D01*
X135479523Y-26472380D02*
X135479523Y-25615238D01*
X135431904Y-25520000D01*
X135336666Y-25472380D01*
X135241428Y-25472380D01*
X134765238Y-26472380D02*
X134860476Y-26424761D01*
X134908095Y-26377142D01*
X134955714Y-26281904D01*
X134955714Y-25996190D01*
X134908095Y-25900952D01*
X134860476Y-25853333D01*
X134765238Y-25805714D01*
X134622380Y-25805714D01*
X134527142Y-25853333D01*
X134479523Y-25900952D01*
X134431904Y-25996190D01*
X134431904Y-26281904D01*
X134479523Y-26377142D01*
X134527142Y-26424761D01*
X134622380Y-26472380D01*
X134765238Y-26472380D01*
X134003333Y-26472380D02*
X134003333Y-25805714D01*
X134003333Y-25996190D02*
X133955714Y-25900952D01*
X133908095Y-25853333D01*
X133812857Y-25805714D01*
X133717619Y-25805714D01*
X132670000Y-26186666D02*
X132193809Y-26186666D01*
X132765238Y-26472380D02*
X132431904Y-25472380D01*
X132098571Y-26472380D01*
X131765238Y-26472380D02*
X131765238Y-25805714D01*
X131765238Y-25996190D02*
X131717619Y-25900952D01*
X131670000Y-25853333D01*
X131574761Y-25805714D01*
X131479523Y-25805714D01*
X130717619Y-26472380D02*
X130717619Y-25472380D01*
X130717619Y-26424761D02*
X130812857Y-26472380D01*
X131003333Y-26472380D01*
X131098571Y-26424761D01*
X131146190Y-26377142D01*
X131193809Y-26281904D01*
X131193809Y-25996190D01*
X131146190Y-25900952D01*
X131098571Y-25853333D01*
X131003333Y-25805714D01*
X130812857Y-25805714D01*
X130717619Y-25853333D01*
X129812857Y-25805714D02*
X129812857Y-26472380D01*
X130241428Y-25805714D02*
X130241428Y-26329523D01*
X130193809Y-26424761D01*
X130098571Y-26472380D01*
X129955714Y-26472380D01*
X129860476Y-26424761D01*
X129812857Y-26377142D01*
X129336666Y-26472380D02*
X129336666Y-25805714D01*
X129336666Y-25472380D02*
X129384285Y-25520000D01*
X129336666Y-25567619D01*
X129289047Y-25520000D01*
X129336666Y-25472380D01*
X129336666Y-25567619D01*
X128860476Y-25805714D02*
X128860476Y-26472380D01*
X128860476Y-25900952D02*
X128812857Y-25853333D01*
X128717619Y-25805714D01*
X128574761Y-25805714D01*
X128479523Y-25853333D01*
X128431904Y-25948571D01*
X128431904Y-26472380D01*
X127812857Y-26472380D02*
X127908095Y-26424761D01*
X127955714Y-26377142D01*
X128003333Y-26281904D01*
X128003333Y-25996190D01*
X127955714Y-25900952D01*
X127908095Y-25853333D01*
X127812857Y-25805714D01*
X127670000Y-25805714D01*
X127574761Y-25853333D01*
X127527142Y-25900952D01*
X127479523Y-25996190D01*
X127479523Y-26281904D01*
X127527142Y-26377142D01*
X127574761Y-26424761D01*
X127670000Y-26472380D01*
X127812857Y-26472380D01*
X126289047Y-26472380D02*
X126289047Y-25472380D01*
X125955714Y-26186666D01*
X125622380Y-25472380D01*
X125622380Y-26472380D01*
X124765238Y-26424761D02*
X124860476Y-26472380D01*
X125050952Y-26472380D01*
X125146190Y-26424761D01*
X125193809Y-26329523D01*
X125193809Y-25948571D01*
X125146190Y-25853333D01*
X125050952Y-25805714D01*
X124860476Y-25805714D01*
X124765238Y-25853333D01*
X124717619Y-25948571D01*
X124717619Y-26043809D01*
X125193809Y-26139047D01*
X123860476Y-25805714D02*
X123860476Y-26615238D01*
X123908095Y-26710476D01*
X123955714Y-26758095D01*
X124050952Y-26805714D01*
X124193809Y-26805714D01*
X124289047Y-26758095D01*
X123860476Y-26424761D02*
X123955714Y-26472380D01*
X124146190Y-26472380D01*
X124241428Y-26424761D01*
X124289047Y-26377142D01*
X124336666Y-26281904D01*
X124336666Y-25996190D01*
X124289047Y-25900952D01*
X124241428Y-25853333D01*
X124146190Y-25805714D01*
X123955714Y-25805714D01*
X123860476Y-25853333D01*
X122955714Y-26472380D02*
X122955714Y-25948571D01*
X123003333Y-25853333D01*
X123098571Y-25805714D01*
X123289047Y-25805714D01*
X123384285Y-25853333D01*
X122955714Y-26424761D02*
X123050952Y-26472380D01*
X123289047Y-26472380D01*
X123384285Y-26424761D01*
X123431904Y-26329523D01*
X123431904Y-26234285D01*
X123384285Y-26139047D01*
X123289047Y-26091428D01*
X123050952Y-26091428D01*
X122955714Y-26043809D01*
X121765238Y-25567619D02*
X121717619Y-25520000D01*
X121622380Y-25472380D01*
X121384285Y-25472380D01*
X121289047Y-25520000D01*
X121241428Y-25567619D01*
X121193809Y-25662857D01*
X121193809Y-25758095D01*
X121241428Y-25900952D01*
X121812857Y-26472380D01*
X121193809Y-26472380D01*
X120289047Y-25472380D02*
X120765238Y-25472380D01*
X120812857Y-25948571D01*
X120765238Y-25900952D01*
X120670000Y-25853333D01*
X120431904Y-25853333D01*
X120336666Y-25900952D01*
X120289047Y-25948571D01*
X120241428Y-26043809D01*
X120241428Y-26281904D01*
X120289047Y-26377142D01*
X120336666Y-26424761D01*
X120431904Y-26472380D01*
X120670000Y-26472380D01*
X120765238Y-26424761D01*
X120812857Y-26377142D01*
X119384285Y-25472380D02*
X119574761Y-25472380D01*
X119670000Y-25520000D01*
X119717619Y-25567619D01*
X119812857Y-25710476D01*
X119860476Y-25900952D01*
X119860476Y-26281904D01*
X119812857Y-26377142D01*
X119765238Y-26424761D01*
X119670000Y-26472380D01*
X119479523Y-26472380D01*
X119384285Y-26424761D01*
X119336666Y-26377142D01*
X119289047Y-26281904D01*
X119289047Y-26043809D01*
X119336666Y-25948571D01*
X119384285Y-25900952D01*
X119479523Y-25853333D01*
X119670000Y-25853333D01*
X119765238Y-25900952D01*
X119812857Y-25948571D01*
X119860476Y-26043809D01*
X118670000Y-25472380D02*
X118574761Y-25472380D01*
X118479523Y-25520000D01*
X118431904Y-25567619D01*
X118384285Y-25662857D01*
X118336666Y-25853333D01*
X118336666Y-26091428D01*
X118384285Y-26281904D01*
X118431904Y-26377142D01*
X118479523Y-26424761D01*
X118574761Y-26472380D01*
X118670000Y-26472380D01*
X118765238Y-26424761D01*
X118812857Y-26377142D01*
X118860476Y-26281904D01*
X118908095Y-26091428D01*
X118908095Y-25853333D01*
X118860476Y-25662857D01*
X118812857Y-25567619D01*
X118765238Y-25520000D01*
X118670000Y-25472380D01*
X146289047Y-27217619D02*
X146241428Y-27170000D01*
X146146190Y-27122380D01*
X145908095Y-27122380D01*
X145812857Y-27170000D01*
X145765238Y-27217619D01*
X145717619Y-27312857D01*
X145717619Y-27408095D01*
X145765238Y-27550952D01*
X146336666Y-28122380D01*
X145717619Y-28122380D01*
X145098571Y-27122380D02*
X145003333Y-27122380D01*
X144908095Y-27170000D01*
X144860476Y-27217619D01*
X144812857Y-27312857D01*
X144765238Y-27503333D01*
X144765238Y-27741428D01*
X144812857Y-27931904D01*
X144860476Y-28027142D01*
X144908095Y-28074761D01*
X145003333Y-28122380D01*
X145098571Y-28122380D01*
X145193809Y-28074761D01*
X145241428Y-28027142D01*
X145289047Y-27931904D01*
X145336666Y-27741428D01*
X145336666Y-27503333D01*
X145289047Y-27312857D01*
X145241428Y-27217619D01*
X145193809Y-27170000D01*
X145098571Y-27122380D01*
X143812857Y-28122380D02*
X144384285Y-28122380D01*
X144098571Y-28122380D02*
X144098571Y-27122380D01*
X144193809Y-27265238D01*
X144289047Y-27360476D01*
X144384285Y-27408095D01*
X143336666Y-28122380D02*
X143146190Y-28122380D01*
X143050952Y-28074761D01*
X143003333Y-28027142D01*
X142908095Y-27884285D01*
X142860476Y-27693809D01*
X142860476Y-27312857D01*
X142908095Y-27217619D01*
X142955714Y-27170000D01*
X143050952Y-27122380D01*
X143241428Y-27122380D01*
X143336666Y-27170000D01*
X143384285Y-27217619D01*
X143431904Y-27312857D01*
X143431904Y-27550952D01*
X143384285Y-27646190D01*
X143336666Y-27693809D01*
X143241428Y-27741428D01*
X143050952Y-27741428D01*
X142955714Y-27693809D01*
X142908095Y-27646190D01*
X142860476Y-27550952D01*
X140908095Y-28122380D02*
X140908095Y-27122380D01*
X140908095Y-27598571D02*
X140336666Y-27598571D01*
X140336666Y-28122380D02*
X140336666Y-27122380D01*
X139431904Y-28122380D02*
X139431904Y-27598571D01*
X139479523Y-27503333D01*
X139574761Y-27455714D01*
X139765238Y-27455714D01*
X139860476Y-27503333D01*
X139431904Y-28074761D02*
X139527142Y-28122380D01*
X139765238Y-28122380D01*
X139860476Y-28074761D01*
X139908095Y-27979523D01*
X139908095Y-27884285D01*
X139860476Y-27789047D01*
X139765238Y-27741428D01*
X139527142Y-27741428D01*
X139431904Y-27693809D01*
X138955714Y-27455714D02*
X138955714Y-28122380D01*
X138955714Y-27550952D02*
X138908095Y-27503333D01*
X138812857Y-27455714D01*
X138670000Y-27455714D01*
X138574761Y-27503333D01*
X138527142Y-27598571D01*
X138527142Y-28122380D01*
X138098571Y-28074761D02*
X138003333Y-28122380D01*
X137812857Y-28122380D01*
X137717619Y-28074761D01*
X137670000Y-27979523D01*
X137670000Y-27931904D01*
X137717619Y-27836666D01*
X137812857Y-27789047D01*
X137955714Y-27789047D01*
X138050952Y-27741428D01*
X138098571Y-27646190D01*
X138098571Y-27598571D01*
X138050952Y-27503333D01*
X137955714Y-27455714D01*
X137812857Y-27455714D01*
X137717619Y-27503333D01*
X136622380Y-27646190D02*
X136670000Y-27598571D01*
X136765238Y-27550952D01*
X136860476Y-27550952D01*
X136955714Y-27598571D01*
X137003333Y-27646190D01*
X137050952Y-27741428D01*
X137050952Y-27836666D01*
X137003333Y-27931904D01*
X136955714Y-27979523D01*
X136860476Y-28027142D01*
X136765238Y-28027142D01*
X136670000Y-27979523D01*
X136622380Y-27931904D01*
X136622380Y-27550952D02*
X136622380Y-27931904D01*
X136574761Y-27979523D01*
X136527142Y-27979523D01*
X136431904Y-27931904D01*
X136384285Y-27836666D01*
X136384285Y-27598571D01*
X136479523Y-27455714D01*
X136622380Y-27360476D01*
X136812857Y-27312857D01*
X137003333Y-27360476D01*
X137146190Y-27455714D01*
X137241428Y-27598571D01*
X137289047Y-27789047D01*
X137241428Y-27979523D01*
X137146190Y-28122380D01*
X137003333Y-28217619D01*
X136812857Y-28265238D01*
X136622380Y-28217619D01*
X136479523Y-28122380D01*
X135479523Y-28122380D02*
X135955714Y-28122380D01*
X135955714Y-27122380D01*
X135146190Y-28122380D02*
X135146190Y-27455714D01*
X135146190Y-27122380D02*
X135193809Y-27170000D01*
X135146190Y-27217619D01*
X135098571Y-27170000D01*
X135146190Y-27122380D01*
X135146190Y-27217619D01*
X134717619Y-28074761D02*
X134622380Y-28122380D01*
X134431904Y-28122380D01*
X134336666Y-28074761D01*
X134289047Y-27979523D01*
X134289047Y-27931904D01*
X134336666Y-27836666D01*
X134431904Y-27789047D01*
X134574761Y-27789047D01*
X134670000Y-27741428D01*
X134717619Y-27646190D01*
X134717619Y-27598571D01*
X134670000Y-27503333D01*
X134574761Y-27455714D01*
X134431904Y-27455714D01*
X134336666Y-27503333D01*
X133908095Y-28074761D02*
X133812857Y-28122380D01*
X133622380Y-28122380D01*
X133527142Y-28074761D01*
X133479523Y-27979523D01*
X133479523Y-27931904D01*
X133527142Y-27836666D01*
X133622380Y-27789047D01*
X133765238Y-27789047D01*
X133860476Y-27741428D01*
X133908095Y-27646190D01*
X133908095Y-27598571D01*
X133860476Y-27503333D01*
X133765238Y-27455714D01*
X133622380Y-27455714D01*
X133527142Y-27503333D01*
X133050952Y-28027142D02*
X133003333Y-28074761D01*
X133050952Y-28122380D01*
X133098571Y-28074761D01*
X133050952Y-28027142D01*
X133050952Y-28122380D01*
X132574761Y-27455714D02*
X132574761Y-28455714D01*
X132574761Y-27503333D02*
X132479523Y-27455714D01*
X132289047Y-27455714D01*
X132193809Y-27503333D01*
X132146190Y-27550952D01*
X132098571Y-27646190D01*
X132098571Y-27931904D01*
X132146190Y-28027142D01*
X132193809Y-28074761D01*
X132289047Y-28122380D01*
X132479523Y-28122380D01*
X132574761Y-28074761D01*
X131670000Y-27455714D02*
X131670000Y-28455714D01*
X131670000Y-27503333D02*
X131574761Y-27455714D01*
X131384285Y-27455714D01*
X131289047Y-27503333D01*
X131241428Y-27550952D01*
X131193809Y-27646190D01*
X131193809Y-27931904D01*
X131241428Y-28027142D01*
X131289047Y-28074761D01*
X131384285Y-28122380D01*
X131574761Y-28122380D01*
X131670000Y-28074761D01*
X130765238Y-28027142D02*
X130717619Y-28074761D01*
X130765238Y-28122380D01*
X130812857Y-28074761D01*
X130765238Y-28027142D01*
X130765238Y-28122380D01*
X130336666Y-28074761D02*
X130241428Y-28122380D01*
X130050952Y-28122380D01*
X129955714Y-28074761D01*
X129908095Y-27979523D01*
X129908095Y-27931904D01*
X129955714Y-27836666D01*
X130050952Y-27789047D01*
X130193809Y-27789047D01*
X130289047Y-27741428D01*
X130336666Y-27646190D01*
X130336666Y-27598571D01*
X130289047Y-27503333D01*
X130193809Y-27455714D01*
X130050952Y-27455714D01*
X129955714Y-27503333D01*
X129098571Y-28074761D02*
X129193809Y-28122380D01*
X129384285Y-28122380D01*
X129479523Y-28074761D01*
X129527142Y-27979523D01*
X129527142Y-27598571D01*
X129479523Y-27503333D01*
X129384285Y-27455714D01*
X129193809Y-27455714D01*
X129098571Y-27503333D01*
X129050952Y-27598571D01*
X129050952Y-27693809D01*
X129527142Y-27789047D01*
X170908095Y-29772380D02*
X170908095Y-28772380D01*
X170670000Y-28772380D01*
X170527142Y-28820000D01*
X170431904Y-28915238D01*
X170384285Y-29010476D01*
X170336666Y-29200952D01*
X170336666Y-29343809D01*
X170384285Y-29534285D01*
X170431904Y-29629523D01*
X170527142Y-29724761D01*
X170670000Y-29772380D01*
X170908095Y-29772380D01*
X169527142Y-29724761D02*
X169622380Y-29772380D01*
X169812857Y-29772380D01*
X169908095Y-29724761D01*
X169955714Y-29629523D01*
X169955714Y-29248571D01*
X169908095Y-29153333D01*
X169812857Y-29105714D01*
X169622380Y-29105714D01*
X169527142Y-29153333D01*
X169479523Y-29248571D01*
X169479523Y-29343809D01*
X169955714Y-29439047D01*
X169098571Y-29724761D02*
X169003333Y-29772380D01*
X168812857Y-29772380D01*
X168717619Y-29724761D01*
X168670000Y-29629523D01*
X168670000Y-29581904D01*
X168717619Y-29486666D01*
X168812857Y-29439047D01*
X168955714Y-29439047D01*
X169050952Y-29391428D01*
X169098571Y-29296190D01*
X169098571Y-29248571D01*
X169050952Y-29153333D01*
X168955714Y-29105714D01*
X168812857Y-29105714D01*
X168717619Y-29153333D01*
X168241428Y-29772380D02*
X168241428Y-29105714D01*
X168241428Y-28772380D02*
X168289047Y-28820000D01*
X168241428Y-28867619D01*
X168193809Y-28820000D01*
X168241428Y-28772380D01*
X168241428Y-28867619D01*
X167336666Y-29105714D02*
X167336666Y-29915238D01*
X167384285Y-30010476D01*
X167431904Y-30058095D01*
X167527142Y-30105714D01*
X167670000Y-30105714D01*
X167765238Y-30058095D01*
X167336666Y-29724761D02*
X167431904Y-29772380D01*
X167622380Y-29772380D01*
X167717619Y-29724761D01*
X167765238Y-29677142D01*
X167812857Y-29581904D01*
X167812857Y-29296190D01*
X167765238Y-29200952D01*
X167717619Y-29153333D01*
X167622380Y-29105714D01*
X167431904Y-29105714D01*
X167336666Y-29153333D01*
X166860476Y-29105714D02*
X166860476Y-29772380D01*
X166860476Y-29200952D02*
X166812857Y-29153333D01*
X166717619Y-29105714D01*
X166574761Y-29105714D01*
X166479523Y-29153333D01*
X166431904Y-29248571D01*
X166431904Y-29772380D01*
X165574761Y-29724761D02*
X165670000Y-29772380D01*
X165860476Y-29772380D01*
X165955714Y-29724761D01*
X166003333Y-29629523D01*
X166003333Y-29248571D01*
X165955714Y-29153333D01*
X165860476Y-29105714D01*
X165670000Y-29105714D01*
X165574761Y-29153333D01*
X165527142Y-29248571D01*
X165527142Y-29343809D01*
X166003333Y-29439047D01*
X164670000Y-29772380D02*
X164670000Y-28772380D01*
X164670000Y-29724761D02*
X164765238Y-29772380D01*
X164955714Y-29772380D01*
X165050952Y-29724761D01*
X165098571Y-29677142D01*
X165146190Y-29581904D01*
X165146190Y-29296190D01*
X165098571Y-29200952D01*
X165050952Y-29153333D01*
X164955714Y-29105714D01*
X164765238Y-29105714D01*
X164670000Y-29153333D01*
X163574761Y-29105714D02*
X163193809Y-29105714D01*
X163431904Y-29772380D02*
X163431904Y-28915238D01*
X163384285Y-28820000D01*
X163289047Y-28772380D01*
X163193809Y-28772380D01*
X162717619Y-29772380D02*
X162812857Y-29724761D01*
X162860476Y-29677142D01*
X162908095Y-29581904D01*
X162908095Y-29296190D01*
X162860476Y-29200952D01*
X162812857Y-29153333D01*
X162717619Y-29105714D01*
X162574761Y-29105714D01*
X162479523Y-29153333D01*
X162431904Y-29200952D01*
X162384285Y-29296190D01*
X162384285Y-29581904D01*
X162431904Y-29677142D01*
X162479523Y-29724761D01*
X162574761Y-29772380D01*
X162717619Y-29772380D01*
X161955714Y-29772380D02*
X161955714Y-29105714D01*
X161955714Y-29296190D02*
X161908095Y-29200952D01*
X161860476Y-29153333D01*
X161765238Y-29105714D01*
X161670000Y-29105714D01*
X160289047Y-28772380D02*
X160289047Y-29486666D01*
X160336666Y-29629523D01*
X160431904Y-29724761D01*
X160574761Y-29772380D01*
X160670000Y-29772380D01*
X159431904Y-29724761D02*
X159527142Y-29772380D01*
X159717619Y-29772380D01*
X159812857Y-29724761D01*
X159860476Y-29629523D01*
X159860476Y-29248571D01*
X159812857Y-29153333D01*
X159717619Y-29105714D01*
X159527142Y-29105714D01*
X159431904Y-29153333D01*
X159384285Y-29248571D01*
X159384285Y-29343809D01*
X159860476Y-29439047D01*
X159098571Y-29105714D02*
X158717619Y-29105714D01*
X158955714Y-29772380D02*
X158955714Y-28915238D01*
X158908095Y-28820000D01*
X158812857Y-28772380D01*
X158717619Y-28772380D01*
X158527142Y-29105714D02*
X158146190Y-29105714D01*
X158384285Y-29772380D02*
X158384285Y-28915238D01*
X158336666Y-28820000D01*
X158241428Y-28772380D01*
X158146190Y-28772380D01*
X156717619Y-29248571D02*
X156574761Y-29296190D01*
X156527142Y-29343809D01*
X156479523Y-29439047D01*
X156479523Y-29581904D01*
X156527142Y-29677142D01*
X156574761Y-29724761D01*
X156670000Y-29772380D01*
X157050952Y-29772380D01*
X157050952Y-28772380D01*
X156717619Y-28772380D01*
X156622380Y-28820000D01*
X156574761Y-28867619D01*
X156527142Y-28962857D01*
X156527142Y-29058095D01*
X156574761Y-29153333D01*
X156622380Y-29200952D01*
X156717619Y-29248571D01*
X157050952Y-29248571D01*
X156050952Y-29772380D02*
X156050952Y-29105714D01*
X156050952Y-28772380D02*
X156098571Y-28820000D01*
X156050952Y-28867619D01*
X156003333Y-28820000D01*
X156050952Y-28772380D01*
X156050952Y-28867619D01*
X155574761Y-29772380D02*
X155574761Y-29105714D01*
X155574761Y-29296190D02*
X155527142Y-29200952D01*
X155479523Y-29153333D01*
X155384285Y-29105714D01*
X155289047Y-29105714D01*
X155098571Y-29105714D02*
X154717619Y-29105714D01*
X154955714Y-28772380D02*
X154955714Y-29629523D01*
X154908095Y-29724761D01*
X154812857Y-29772380D01*
X154717619Y-29772380D01*
X154336666Y-28772380D02*
X154431904Y-28962857D01*
X153955714Y-29724761D02*
X153860476Y-29772380D01*
X153669999Y-29772380D01*
X153574761Y-29724761D01*
X153527142Y-29629523D01*
X153527142Y-29581904D01*
X153574761Y-29486666D01*
X153669999Y-29439047D01*
X153812857Y-29439047D01*
X153908095Y-29391428D01*
X153955714Y-29296190D01*
X153955714Y-29248571D01*
X153908095Y-29153333D01*
X153812857Y-29105714D01*
X153669999Y-29105714D01*
X153574761Y-29153333D01*
X151765238Y-29772380D02*
X152098571Y-29296190D01*
X152336666Y-29772380D02*
X152336666Y-28772380D01*
X151955714Y-28772380D01*
X151860476Y-28820000D01*
X151812857Y-28867619D01*
X151765238Y-28962857D01*
X151765238Y-29105714D01*
X151812857Y-29200952D01*
X151860476Y-29248571D01*
X151955714Y-29296190D01*
X152336666Y-29296190D01*
X150765238Y-29677142D02*
X150812857Y-29724761D01*
X150955714Y-29772380D01*
X151050952Y-29772380D01*
X151193809Y-29724761D01*
X151289047Y-29629523D01*
X151336666Y-29534285D01*
X151384285Y-29343809D01*
X151384285Y-29200952D01*
X151336666Y-29010476D01*
X151289047Y-28915238D01*
X151193809Y-28820000D01*
X151050952Y-28772380D01*
X150955714Y-28772380D01*
X150812857Y-28820000D01*
X150765238Y-28867619D01*
X150384285Y-29486666D02*
X149908095Y-29486666D01*
X150479523Y-29772380D02*
X150146190Y-28772380D01*
X149812857Y-29772380D01*
X148955714Y-29772380D02*
X149527142Y-29772380D01*
X149241428Y-29772380D02*
X149241428Y-28772380D01*
X149336666Y-28915238D01*
X149431904Y-29010476D01*
X149527142Y-29058095D01*
X148384285Y-29200952D02*
X148479523Y-29153333D01*
X148527142Y-29105714D01*
X148574761Y-29010476D01*
X148574761Y-28962857D01*
X148527142Y-28867619D01*
X148479523Y-28820000D01*
X148384285Y-28772380D01*
X148193809Y-28772380D01*
X148098571Y-28820000D01*
X148050952Y-28867619D01*
X148003333Y-28962857D01*
X148003333Y-29010476D01*
X148050952Y-29105714D01*
X148098571Y-29153333D01*
X148193809Y-29200952D01*
X148384285Y-29200952D01*
X148479523Y-29248571D01*
X148527142Y-29296190D01*
X148574761Y-29391428D01*
X148574761Y-29581904D01*
X148527142Y-29677142D01*
X148479523Y-29724761D01*
X148384285Y-29772380D01*
X148193809Y-29772380D01*
X148098571Y-29724761D01*
X148050952Y-29677142D01*
X148003333Y-29581904D01*
X148003333Y-29391428D01*
X148050952Y-29296190D01*
X148098571Y-29248571D01*
X148193809Y-29200952D01*
X147384285Y-28772380D02*
X147289047Y-28772380D01*
X147193809Y-28820000D01*
X147146190Y-28867619D01*
X147098571Y-28962857D01*
X147050952Y-29153333D01*
X147050952Y-29391428D01*
X147098571Y-29581904D01*
X147146190Y-29677142D01*
X147193809Y-29724761D01*
X147289047Y-29772380D01*
X147384285Y-29772380D01*
X147479523Y-29724761D01*
X147527142Y-29677142D01*
X147574761Y-29581904D01*
X147622380Y-29391428D01*
X147622380Y-29153333D01*
X147574761Y-28962857D01*
X147527142Y-28867619D01*
X147479523Y-28820000D01*
X147384285Y-28772380D01*
X146669999Y-28867619D02*
X146622380Y-28820000D01*
X146527142Y-28772380D01*
X146289047Y-28772380D01*
X146193809Y-28820000D01*
X146146190Y-28867619D01*
X146098571Y-28962857D01*
X146098571Y-29058095D01*
X146146190Y-29200952D01*
X146717619Y-29772380D01*
X146098571Y-29772380D01*
X145908095Y-29867619D02*
X145146190Y-29867619D01*
X145050952Y-28772380D02*
X144479523Y-28772380D01*
X144765238Y-29772380D02*
X144765238Y-28772380D01*
X143765238Y-29724761D02*
X143860476Y-29772380D01*
X144050952Y-29772380D01*
X144146190Y-29724761D01*
X144193809Y-29629523D01*
X144193809Y-29248571D01*
X144146190Y-29153333D01*
X144050952Y-29105714D01*
X143860476Y-29105714D01*
X143765238Y-29153333D01*
X143717619Y-29248571D01*
X143717619Y-29343809D01*
X144193809Y-29439047D01*
X143336666Y-29724761D02*
X143241428Y-29772380D01*
X143050952Y-29772380D01*
X142955714Y-29724761D01*
X142908095Y-29629523D01*
X142908095Y-29581904D01*
X142955714Y-29486666D01*
X143050952Y-29439047D01*
X143193809Y-29439047D01*
X143289047Y-29391428D01*
X143336666Y-29296190D01*
X143336666Y-29248571D01*
X143289047Y-29153333D01*
X143193809Y-29105714D01*
X143050952Y-29105714D01*
X142955714Y-29153333D01*
X142622380Y-29105714D02*
X142241428Y-29105714D01*
X142479523Y-28772380D02*
X142479523Y-29629523D01*
X142431904Y-29724761D01*
X142336666Y-29772380D01*
X142241428Y-29772380D01*
X141527142Y-29724761D02*
X141622380Y-29772380D01*
X141812857Y-29772380D01*
X141908095Y-29724761D01*
X141955714Y-29629523D01*
X141955714Y-29248571D01*
X141908095Y-29153333D01*
X141812857Y-29105714D01*
X141622380Y-29105714D01*
X141527142Y-29153333D01*
X141479523Y-29248571D01*
X141479523Y-29343809D01*
X141955714Y-29439047D01*
X141050952Y-29772380D02*
X141050952Y-29105714D01*
X141050952Y-29296190D02*
X141003333Y-29200952D01*
X140955714Y-29153333D01*
X140860476Y-29105714D01*
X140765238Y-29105714D01*
X140431904Y-29677142D02*
X140384285Y-29724761D01*
X140431904Y-29772380D01*
X140479523Y-29724761D01*
X140431904Y-29677142D01*
X140431904Y-29772380D01*
X140431904Y-29153333D02*
X140384285Y-29200952D01*
X140431904Y-29248571D01*
X140479523Y-29200952D01*
X140431904Y-29153333D01*
X140431904Y-29248571D01*
X139193809Y-29772380D02*
X139193809Y-28772380D01*
X138765238Y-29772380D02*
X138765238Y-29248571D01*
X138812857Y-29153333D01*
X138908095Y-29105714D01*
X139050952Y-29105714D01*
X139146190Y-29153333D01*
X139193809Y-29200952D01*
X138431904Y-29105714D02*
X138050952Y-29105714D01*
X138289047Y-28772380D02*
X138289047Y-29629523D01*
X138241428Y-29724761D01*
X138146190Y-29772380D01*
X138050952Y-29772380D01*
X137860476Y-29105714D02*
X137479523Y-29105714D01*
X137717619Y-28772380D02*
X137717619Y-29629523D01*
X137669999Y-29724761D01*
X137574761Y-29772380D01*
X137479523Y-29772380D01*
X137146190Y-29105714D02*
X137146190Y-30105714D01*
X137146190Y-29153333D02*
X137050952Y-29105714D01*
X136860476Y-29105714D01*
X136765238Y-29153333D01*
X136717619Y-29200952D01*
X136669999Y-29296190D01*
X136669999Y-29581904D01*
X136717619Y-29677142D01*
X136765238Y-29724761D01*
X136860476Y-29772380D01*
X137050952Y-29772380D01*
X137146190Y-29724761D01*
X136289047Y-29724761D02*
X136193809Y-29772380D01*
X136003333Y-29772380D01*
X135908095Y-29724761D01*
X135860476Y-29629523D01*
X135860476Y-29581904D01*
X135908095Y-29486666D01*
X136003333Y-29439047D01*
X136146190Y-29439047D01*
X136241428Y-29391428D01*
X136289047Y-29296190D01*
X136289047Y-29248571D01*
X136241428Y-29153333D01*
X136146190Y-29105714D01*
X136003333Y-29105714D01*
X135908095Y-29153333D01*
X135431904Y-29677142D02*
X135384285Y-29724761D01*
X135431904Y-29772380D01*
X135479523Y-29724761D01*
X135431904Y-29677142D01*
X135431904Y-29772380D01*
X135431904Y-29153333D02*
X135384285Y-29200952D01*
X135431904Y-29248571D01*
X135479523Y-29200952D01*
X135431904Y-29153333D01*
X135431904Y-29248571D01*
X134241428Y-28724761D02*
X135098571Y-30010476D01*
X133193809Y-28724761D02*
X134050952Y-30010476D01*
X132431904Y-29105714D02*
X132431904Y-29915238D01*
X132479523Y-30010476D01*
X132527142Y-30058095D01*
X132622380Y-30105714D01*
X132765238Y-30105714D01*
X132860476Y-30058095D01*
X132431904Y-29724761D02*
X132527142Y-29772380D01*
X132717619Y-29772380D01*
X132812857Y-29724761D01*
X132860476Y-29677142D01*
X132908095Y-29581904D01*
X132908095Y-29296190D01*
X132860476Y-29200952D01*
X132812857Y-29153333D01*
X132717619Y-29105714D01*
X132527142Y-29105714D01*
X132431904Y-29153333D01*
X131955714Y-29772380D02*
X131955714Y-29105714D01*
X131955714Y-28772380D02*
X132003333Y-28820000D01*
X131955714Y-28867619D01*
X131908095Y-28820000D01*
X131955714Y-28772380D01*
X131955714Y-28867619D01*
X131622380Y-29105714D02*
X131241428Y-29105714D01*
X131479523Y-28772380D02*
X131479523Y-29629523D01*
X131431904Y-29724761D01*
X131336666Y-29772380D01*
X131241428Y-29772380D01*
X130908095Y-29772380D02*
X130908095Y-28772380D01*
X130479523Y-29772380D02*
X130479523Y-29248571D01*
X130527142Y-29153333D01*
X130622380Y-29105714D01*
X130765238Y-29105714D01*
X130860476Y-29153333D01*
X130908095Y-29200952D01*
X129574761Y-29105714D02*
X129574761Y-29772380D01*
X130003333Y-29105714D02*
X130003333Y-29629523D01*
X129955714Y-29724761D01*
X129860476Y-29772380D01*
X129717619Y-29772380D01*
X129622380Y-29724761D01*
X129574761Y-29677142D01*
X129098571Y-29772380D02*
X129098571Y-28772380D01*
X129098571Y-29153333D02*
X129003333Y-29105714D01*
X128812857Y-29105714D01*
X128717619Y-29153333D01*
X128669999Y-29200952D01*
X128622380Y-29296190D01*
X128622380Y-29581904D01*
X128669999Y-29677142D01*
X128717619Y-29724761D01*
X128812857Y-29772380D01*
X129003333Y-29772380D01*
X129098571Y-29724761D01*
X128193809Y-29677142D02*
X128146190Y-29724761D01*
X128193809Y-29772380D01*
X128241428Y-29724761D01*
X128193809Y-29677142D01*
X128193809Y-29772380D01*
X127289047Y-29724761D02*
X127384285Y-29772380D01*
X127574761Y-29772380D01*
X127669999Y-29724761D01*
X127717619Y-29677142D01*
X127765238Y-29581904D01*
X127765238Y-29296190D01*
X127717619Y-29200952D01*
X127669999Y-29153333D01*
X127574761Y-29105714D01*
X127384285Y-29105714D01*
X127289047Y-29153333D01*
X126717619Y-29772380D02*
X126812857Y-29724761D01*
X126860476Y-29677142D01*
X126908095Y-29581904D01*
X126908095Y-29296190D01*
X126860476Y-29200952D01*
X126812857Y-29153333D01*
X126717619Y-29105714D01*
X126574761Y-29105714D01*
X126479523Y-29153333D01*
X126431904Y-29200952D01*
X126384285Y-29296190D01*
X126384285Y-29581904D01*
X126431904Y-29677142D01*
X126479523Y-29724761D01*
X126574761Y-29772380D01*
X126717619Y-29772380D01*
X125955714Y-29772380D02*
X125955714Y-29105714D01*
X125955714Y-29200952D02*
X125908095Y-29153333D01*
X125812857Y-29105714D01*
X125669999Y-29105714D01*
X125574761Y-29153333D01*
X125527142Y-29248571D01*
X125527142Y-29772380D01*
X125527142Y-29248571D02*
X125479523Y-29153333D01*
X125384285Y-29105714D01*
X125241428Y-29105714D01*
X125146190Y-29153333D01*
X125098571Y-29248571D01*
X125098571Y-29772380D01*
X123908095Y-28724761D02*
X124765238Y-30010476D01*
X123289047Y-28772380D02*
X123289047Y-29486666D01*
X123336666Y-29629523D01*
X123431904Y-29724761D01*
X123574761Y-29772380D01*
X123669999Y-29772380D01*
X122431904Y-29724761D02*
X122527142Y-29772380D01*
X122717619Y-29772380D01*
X122812857Y-29724761D01*
X122860476Y-29629523D01*
X122860476Y-29248571D01*
X122812857Y-29153333D01*
X122717619Y-29105714D01*
X122527142Y-29105714D01*
X122431904Y-29153333D01*
X122384285Y-29248571D01*
X122384285Y-29343809D01*
X122860476Y-29439047D01*
X122098571Y-29105714D02*
X121717619Y-29105714D01*
X121955714Y-29772380D02*
X121955714Y-28915238D01*
X121908095Y-28820000D01*
X121812857Y-28772380D01*
X121717619Y-28772380D01*
X121527142Y-29105714D02*
X121146190Y-29105714D01*
X121384285Y-29772380D02*
X121384285Y-28915238D01*
X121336666Y-28820000D01*
X121241428Y-28772380D01*
X121146190Y-28772380D01*
X120812857Y-29391428D02*
X120050952Y-29391428D01*
X119241428Y-29248571D02*
X119098571Y-29296190D01*
X119050952Y-29343809D01*
X119003333Y-29439047D01*
X119003333Y-29581904D01*
X119050952Y-29677142D01*
X119098571Y-29724761D01*
X119193809Y-29772380D01*
X119574761Y-29772380D01*
X119574761Y-28772380D01*
X119241428Y-28772380D01*
X119146190Y-28820000D01*
X119098571Y-28867619D01*
X119050952Y-28962857D01*
X119050952Y-29058095D01*
X119098571Y-29153333D01*
X119146190Y-29200952D01*
X119241428Y-29248571D01*
X119574761Y-29248571D01*
X118574761Y-29772380D02*
X118574761Y-29105714D01*
X118574761Y-28772380D02*
X118622380Y-28820000D01*
X118574761Y-28867619D01*
X118527142Y-28820000D01*
X118574761Y-28772380D01*
X118574761Y-28867619D01*
X118098571Y-29772380D02*
X118098571Y-29105714D01*
X118098571Y-29296190D02*
X118050952Y-29200952D01*
X118003333Y-29153333D01*
X117908095Y-29105714D01*
X117812857Y-29105714D01*
X117622380Y-29105714D02*
X117241428Y-29105714D01*
X117479523Y-28772380D02*
X117479523Y-29629523D01*
X117431904Y-29724761D01*
X117336666Y-29772380D01*
X117241428Y-29772380D01*
X116193809Y-28724761D02*
X117050952Y-30010476D01*
X115289047Y-29772380D02*
X115622380Y-29296190D01*
X115860476Y-29772380D02*
X115860476Y-28772380D01*
X115479523Y-28772380D01*
X115384285Y-28820000D01*
X115336666Y-28867619D01*
X115289047Y-28962857D01*
X115289047Y-29105714D01*
X115336666Y-29200952D01*
X115384285Y-29248571D01*
X115479523Y-29296190D01*
X115860476Y-29296190D01*
X114289047Y-29677142D02*
X114336666Y-29724761D01*
X114479523Y-29772380D01*
X114574761Y-29772380D01*
X114717619Y-29724761D01*
X114812857Y-29629523D01*
X114860476Y-29534285D01*
X114908095Y-29343809D01*
X114908095Y-29200952D01*
X114860476Y-29010476D01*
X114812857Y-28915238D01*
X114717619Y-28820000D01*
X114574761Y-28772380D01*
X114479523Y-28772380D01*
X114336666Y-28820000D01*
X114289047Y-28867619D01*
X113908095Y-29486666D02*
X113431904Y-29486666D01*
X114003333Y-29772380D02*
X113669999Y-28772380D01*
X113336666Y-29772380D01*
X112479523Y-29772380D02*
X113050952Y-29772380D01*
X112765238Y-29772380D02*
X112765238Y-28772380D01*
X112860476Y-28915238D01*
X112955714Y-29010476D01*
X113050952Y-29058095D01*
X111908095Y-29200952D02*
X112003333Y-29153333D01*
X112050952Y-29105714D01*
X112098571Y-29010476D01*
X112098571Y-28962857D01*
X112050952Y-28867619D01*
X112003333Y-28820000D01*
X111908095Y-28772380D01*
X111717619Y-28772380D01*
X111622380Y-28820000D01*
X111574761Y-28867619D01*
X111527142Y-28962857D01*
X111527142Y-29010476D01*
X111574761Y-29105714D01*
X111622380Y-29153333D01*
X111717619Y-29200952D01*
X111908095Y-29200952D01*
X112003333Y-29248571D01*
X112050952Y-29296190D01*
X112098571Y-29391428D01*
X112098571Y-29581904D01*
X112050952Y-29677142D01*
X112003333Y-29724761D01*
X111908095Y-29772380D01*
X111717619Y-29772380D01*
X111622380Y-29724761D01*
X111574761Y-29677142D01*
X111527142Y-29581904D01*
X111527142Y-29391428D01*
X111574761Y-29296190D01*
X111622380Y-29248571D01*
X111717619Y-29200952D01*
X110908095Y-28772380D02*
X110812857Y-28772380D01*
X110717619Y-28820000D01*
X110669999Y-28867619D01*
X110622380Y-28962857D01*
X110574761Y-29153333D01*
X110574761Y-29391428D01*
X110622380Y-29581904D01*
X110669999Y-29677142D01*
X110717619Y-29724761D01*
X110812857Y-29772380D01*
X110908095Y-29772380D01*
X111003333Y-29724761D01*
X111050952Y-29677142D01*
X111098571Y-29581904D01*
X111146190Y-29391428D01*
X111146190Y-29153333D01*
X111098571Y-28962857D01*
X111050952Y-28867619D01*
X111003333Y-28820000D01*
X110908095Y-28772380D01*
X110193809Y-28867619D02*
X110146190Y-28820000D01*
X110050952Y-28772380D01*
X109812857Y-28772380D01*
X109717619Y-28820000D01*
X109669999Y-28867619D01*
X109622380Y-28962857D01*
X109622380Y-29058095D01*
X109669999Y-29200952D01*
X110241428Y-29772380D01*
X109622380Y-29772380D01*
X109431904Y-29867619D02*
X108669999Y-29867619D01*
X108574761Y-28772380D02*
X108003333Y-28772380D01*
X108289047Y-29772380D02*
X108289047Y-28772380D01*
X107289047Y-29724761D02*
X107384285Y-29772380D01*
X107574761Y-29772380D01*
X107669999Y-29724761D01*
X107717619Y-29629523D01*
X107717619Y-29248571D01*
X107669999Y-29153333D01*
X107574761Y-29105714D01*
X107384285Y-29105714D01*
X107289047Y-29153333D01*
X107241428Y-29248571D01*
X107241428Y-29343809D01*
X107717619Y-29439047D01*
X106860476Y-29724761D02*
X106765238Y-29772380D01*
X106574761Y-29772380D01*
X106479523Y-29724761D01*
X106431904Y-29629523D01*
X106431904Y-29581904D01*
X106479523Y-29486666D01*
X106574761Y-29439047D01*
X106717619Y-29439047D01*
X106812857Y-29391428D01*
X106860476Y-29296190D01*
X106860476Y-29248571D01*
X106812857Y-29153333D01*
X106717619Y-29105714D01*
X106574761Y-29105714D01*
X106479523Y-29153333D01*
X106146190Y-29105714D02*
X105765238Y-29105714D01*
X106003333Y-28772380D02*
X106003333Y-29629523D01*
X105955714Y-29724761D01*
X105860476Y-29772380D01*
X105765238Y-29772380D01*
X105050952Y-29724761D02*
X105146190Y-29772380D01*
X105336666Y-29772380D01*
X105431904Y-29724761D01*
X105479523Y-29629523D01*
X105479523Y-29248571D01*
X105431904Y-29153333D01*
X105336666Y-29105714D01*
X105146190Y-29105714D01*
X105050952Y-29153333D01*
X105003333Y-29248571D01*
X105003333Y-29343809D01*
X105479523Y-29439047D01*
X104574761Y-29772380D02*
X104574761Y-29105714D01*
X104574761Y-29296190D02*
X104527142Y-29200952D01*
X104479523Y-29153333D01*
X104384285Y-29105714D01*
X104289047Y-29105714D01*
X95575001Y-71154999D02*
X95575001Y-17814999D01*
X194635001Y-58454999D02*
X194635001Y-69630999D01*
X197175001Y-55914999D02*
X194635001Y-58454999D01*
X197175001Y-21624999D02*
X197175001Y-55914999D01*
X194635001Y-19084999D02*
X197175001Y-21624999D01*
X194635001Y-17814999D02*
X194635001Y-19084999D01*
X193111001Y-71154999D02*
X194635001Y-69630999D01*
X95575001Y-17814999D02*
X194635001Y-17814999D01*
X95575001Y-71154999D02*
X193111001Y-71154999D01*
D11*
X180960000Y-58474998D02*
X180960000Y-59974998D01*
X179710000Y-62474998D02*
X175210000Y-62474998D01*
X173960000Y-59974998D02*
X173960000Y-58474998D01*
X175210000Y-55974998D02*
X179710000Y-55974998D01*
X175210000Y-45706665D02*
X179710000Y-45706665D01*
X173960000Y-49706665D02*
X173960000Y-48206665D01*
X179710000Y-52206665D02*
X175210000Y-52206665D01*
X180960000Y-48206665D02*
X180960000Y-49706665D01*
X180960000Y-37938333D02*
X180960000Y-39438333D01*
X179710000Y-41938333D02*
X175210000Y-41938333D01*
X173960000Y-39438333D02*
X173960000Y-37938333D01*
X175210000Y-35438333D02*
X179710000Y-35438333D01*
X175210000Y-25170000D02*
X179710000Y-25170000D01*
X173960000Y-29170000D02*
X173960000Y-27670000D01*
X179710000Y-31670000D02*
X175210000Y-31670000D01*
X180960000Y-27670000D02*
X180960000Y-29170000D01*
X112700000Y-50280000D02*
X112700000Y-44820000D01*
X163620000Y-50280000D02*
X112700000Y-50280000D01*
X163620000Y-37360000D02*
X163620000Y-50280000D01*
X112700000Y-37360000D02*
X163620000Y-37360000D01*
X112700000Y-42820000D02*
X112700000Y-37360000D01*
X112700000Y-44820000D02*
G75*
G03X112700000Y-42820000I0J1000000D01*
G01*
X111040000Y-60920000D02*
X111040000Y-59420000D01*
X112290000Y-56920000D02*
X116790000Y-56920000D01*
X118040000Y-59420000D02*
X118040000Y-60920000D01*
X116790000Y-63420000D02*
X112290000Y-63420000D01*
D10*
X99353096Y-71623379D02*
X98686429Y-72623379D01*
X98686429Y-71623379D02*
X99353096Y-72623379D01*
X98353096Y-72337665D02*
X97876905Y-72337665D01*
X98448334Y-72623379D02*
X98115001Y-71623379D01*
X97781667Y-72623379D01*
X96924524Y-72623379D02*
X97495953Y-72623379D01*
X97210239Y-72623379D02*
X97210239Y-71623379D01*
X97305477Y-71766237D01*
X97400715Y-71861475D01*
X97495953Y-71909094D01*
X183674761Y-57686666D02*
X183722380Y-57829523D01*
X183722380Y-58067619D01*
X183674761Y-58162857D01*
X183627142Y-58210476D01*
X183531904Y-58258095D01*
X183436666Y-58258095D01*
X183341428Y-58210476D01*
X183293809Y-58162857D01*
X183246190Y-58067619D01*
X183198571Y-57877142D01*
X183150952Y-57781904D01*
X183103333Y-57734285D01*
X183008095Y-57686666D01*
X182912857Y-57686666D01*
X182817619Y-57734285D01*
X182770000Y-57781904D01*
X182722380Y-57877142D01*
X182722380Y-58115238D01*
X182770000Y-58258095D01*
X182722380Y-58591428D02*
X183722380Y-58829523D01*
X183008095Y-59020000D01*
X183722380Y-59210476D01*
X182722380Y-59448571D01*
X183722380Y-60353333D02*
X183722380Y-59781904D01*
X183722380Y-60067619D02*
X182722380Y-60067619D01*
X182865238Y-59972380D01*
X182960476Y-59877142D01*
X183008095Y-59781904D01*
X183674761Y-47726666D02*
X183722380Y-47869523D01*
X183722380Y-48107619D01*
X183674761Y-48202857D01*
X183627142Y-48250476D01*
X183531904Y-48298095D01*
X183436666Y-48298095D01*
X183341428Y-48250476D01*
X183293809Y-48202857D01*
X183246190Y-48107619D01*
X183198571Y-47917142D01*
X183150952Y-47821904D01*
X183103333Y-47774285D01*
X183008095Y-47726666D01*
X182912857Y-47726666D01*
X182817619Y-47774285D01*
X182770000Y-47821904D01*
X182722380Y-47917142D01*
X182722380Y-48155238D01*
X182770000Y-48298095D01*
X182722380Y-48631428D02*
X183722380Y-48869523D01*
X183008095Y-49060000D01*
X183722380Y-49250476D01*
X182722380Y-49488571D01*
X182817619Y-49821904D02*
X182770000Y-49869523D01*
X182722380Y-49964761D01*
X182722380Y-50202857D01*
X182770000Y-50298095D01*
X182817619Y-50345714D01*
X182912857Y-50393333D01*
X183008095Y-50393333D01*
X183150952Y-50345714D01*
X183722380Y-49774285D01*
X183722380Y-50393333D01*
X183674761Y-37376666D02*
X183722380Y-37519523D01*
X183722380Y-37757619D01*
X183674761Y-37852857D01*
X183627142Y-37900476D01*
X183531904Y-37948095D01*
X183436666Y-37948095D01*
X183341428Y-37900476D01*
X183293809Y-37852857D01*
X183246190Y-37757619D01*
X183198571Y-37567142D01*
X183150952Y-37471904D01*
X183103333Y-37424285D01*
X183008095Y-37376666D01*
X182912857Y-37376666D01*
X182817619Y-37424285D01*
X182770000Y-37471904D01*
X182722380Y-37567142D01*
X182722380Y-37805238D01*
X182770000Y-37948095D01*
X182722380Y-38281428D02*
X183722380Y-38519523D01*
X183008095Y-38710000D01*
X183722380Y-38900476D01*
X182722380Y-39138571D01*
X182722380Y-39424285D02*
X182722380Y-40043333D01*
X183103333Y-39710000D01*
X183103333Y-39852857D01*
X183150952Y-39948095D01*
X183198571Y-39995714D01*
X183293809Y-40043333D01*
X183531904Y-40043333D01*
X183627142Y-39995714D01*
X183674761Y-39948095D01*
X183722380Y-39852857D01*
X183722380Y-39567142D01*
X183674761Y-39471904D01*
X183627142Y-39424285D01*
X183524761Y-27346666D02*
X183572380Y-27489523D01*
X183572380Y-27727619D01*
X183524761Y-27822857D01*
X183477142Y-27870476D01*
X183381904Y-27918095D01*
X183286666Y-27918095D01*
X183191428Y-27870476D01*
X183143809Y-27822857D01*
X183096190Y-27727619D01*
X183048571Y-27537142D01*
X183000952Y-27441904D01*
X182953333Y-27394285D01*
X182858095Y-27346666D01*
X182762857Y-27346666D01*
X182667619Y-27394285D01*
X182620000Y-27441904D01*
X182572380Y-27537142D01*
X182572380Y-27775238D01*
X182620000Y-27918095D01*
X182572380Y-28251428D02*
X183572380Y-28489523D01*
X182858095Y-28680000D01*
X183572380Y-28870476D01*
X182572380Y-29108571D01*
X182905714Y-29918095D02*
X183572380Y-29918095D01*
X182524761Y-29680000D02*
X183239047Y-29441904D01*
X183239047Y-30060952D01*
X111152380Y-43058095D02*
X111961904Y-43058095D01*
X112057142Y-43105714D01*
X112104761Y-43153333D01*
X112152380Y-43248571D01*
X112152380Y-43439047D01*
X112104761Y-43534285D01*
X112057142Y-43581904D01*
X111961904Y-43629523D01*
X111152380Y-43629523D01*
X112152380Y-44629523D02*
X112152380Y-44058095D01*
X112152380Y-44343809D02*
X111152380Y-44343809D01*
X111295238Y-44248571D01*
X111390476Y-44153333D01*
X111438095Y-44058095D01*
X115873333Y-56324761D02*
X115730476Y-56372380D01*
X115492380Y-56372380D01*
X115397142Y-56324761D01*
X115349523Y-56277142D01*
X115301904Y-56181904D01*
X115301904Y-56086666D01*
X115349523Y-55991428D01*
X115397142Y-55943809D01*
X115492380Y-55896190D01*
X115682857Y-55848571D01*
X115778095Y-55800952D01*
X115825714Y-55753333D01*
X115873333Y-55658095D01*
X115873333Y-55562857D01*
X115825714Y-55467619D01*
X115778095Y-55420000D01*
X115682857Y-55372380D01*
X115444761Y-55372380D01*
X115301904Y-55420000D01*
X114968571Y-55372380D02*
X114730476Y-56372380D01*
X114540000Y-55658095D01*
X114349523Y-56372380D01*
X114111428Y-55372380D01*
X113254285Y-55372380D02*
X113730476Y-55372380D01*
X113778095Y-55848571D01*
X113730476Y-55800952D01*
X113635238Y-55753333D01*
X113397142Y-55753333D01*
X113301904Y-55800952D01*
X113254285Y-55848571D01*
X113206666Y-55943809D01*
X113206666Y-56181904D01*
X113254285Y-56277142D01*
X113301904Y-56324761D01*
X113397142Y-56372380D01*
X113635238Y-56372380D01*
X113730476Y-56324761D01*
X113778095Y-56277142D01*
M02*
